<svg width="21" height="21" viewBox="0 0 21 21" fill="none" xmlns="http://www.w3.org/2000/svg">
<g id="logo">
<path id="Vector" d="M7.6749 17.7942H2.10837V15.4419H7.66255V17.7942H7.6749ZM8.79555 14.2597H1V20.1464H2.10837V18.9641H8.77095V14.2597H8.79555ZM2.10837 3.68085L4.33744 1.32863V9.56756H2.10837V3.68085ZM1 10.7375H5.4335V0.146362H3.78325L1 3.08971V10.7375ZM7.6749 1.32863H9.90395V9.56756H7.6749V1.32863ZM6.5665 10.7375H11V0.146362H6.5665V10.7375ZM18.771 10.7375H19.8793V0.146362H18.2045V0.158678L16.5296 1.91976V0.146362H14.8547L12.0961 3.08971V10.7375H13.2044V3.68085L15.4335 1.32863V10.7375H16.5418V3.68085L18.771 1.32863V10.7375ZM1 13.0897H19.8916V11.9075H1V13.0897ZM15.4458 15.4419H18.771V17.7942H15.4458V15.4419ZM14.3375 17.7942H11V15.4419H14.3375V17.7942ZM15.4458 18.9641H19.8916V14.2597H9.90395V18.9641H14.3375V20.1464H15.4458V18.9641Z" fill="#1F1F1F"/>
</g>
</svg>
