<svg width="21" height="20" viewBox="0 0 21 20" fill="none" xmlns="http://www.w3.org/2000/svg">
<g id="logo">
<path id="Vector" d="M1.00108 10.007C1.00108 15.2387 5.26511 19.5013 10.5072 19.5013C15.7397 19.5013 19.9989 15.2387 19.9989 10.007C19.9989 4.76594 15.7397 0.50341 10.5072 0.50341C5.2603 0.498706 1.00108 4.76123 1.00108 10.007ZM0.5 10.007C0.5 4.48835 4.98566 0 10.5072 0C16.0143 0 20.5 4.48365 20.5 10.007C20.5 15.5163 16.0143 20 10.5072 20C4.98566 20 0.5 15.5163 0.5 10.007Z" fill="#0D356C"/>
<path id="Vector_2" d="M7.51987 3.6885C7.17297 3.83905 6.84537 4.02724 6.54182 4.24366C8.92197 3.18509 11.8273 3.25095 13.3884 3.94726C13.8798 4.17309 14.2074 4.31423 14.3568 4.58711C12.7379 4.15427 12.0441 4.07429 10.6902 4.10722C8.76297 4.14016 6.19972 4.90233 5.22164 5.4857L4.78801 6.02675C6.19972 5.19405 8.83042 4.64827 10.2903 4.60122C11.9188 4.5777 13.186 4.72825 14.3472 5.147C14.2797 5.4434 14.1303 5.58925 13.8798 5.7398C9.23032 4.93056 6.48397 5.88565 4.00266 7.50405L3.81957 8.0404C6.58997 6.1397 9.98192 5.61275 13.2534 6.18205C12.0826 6.59135 10.6806 6.68545 9.50497 6.9536C8.50277 7.18415 7.96797 7.25 6.63337 7.69695C5.27946 8.1392 4.47965 8.5956 3.97857 9.17895C3.73766 9.45185 3.55457 9.77175 3.51121 10.1152C3.49194 10.3175 3.50157 10.5057 3.56903 10.6845C3.62203 10.8444 3.75212 11.0044 3.88702 11.1644C3.72803 11.4372 3.5883 11.7901 3.81957 12.2041C3.92075 12.397 4.18575 12.5899 4.43629 12.7734L4.36402 12.9757C4.33029 13.2156 4.29656 13.5026 4.45556 13.7379C4.72538 14.1707 5.05783 14.4577 5.58302 14.7306C5.66492 15.0834 5.78537 15.3704 6.06002 15.6198C6.64297 16.1561 7.93907 17.1818 10.2518 17.3417C11.9863 17.4546 13.2245 16.9324 13.6919 16.7019L14.2604 16.4055C13.292 16.7913 11.6635 17.0218 10.3289 16.9042C8.39197 16.7442 6.66227 15.4786 6.44547 15.1117C6.51292 15.1587 6.60442 15.1917 6.68152 15.2246C8.95087 16.3208 11.8755 16.9136 15.6288 15.3845L15.9371 15.0881C12.5259 16.1467 9.54352 16.1138 6.33947 14.4389C6.37317 14.2789 6.44547 14.1378 6.58997 14.0296C7.40907 14.3918 8.19922 14.6929 9.15322 14.8811C10.271 15.0881 11.5478 15.1352 12.5934 15.0881C13.6534 15.0411 15.7492 14.5189 16.7418 13.9919C16.8333 13.912 16.8767 13.7755 16.9682 13.6861C15.0313 14.3918 12.7283 14.7212 11.3407 14.6177C9.98192 14.5142 8.77742 14.3542 7.18262 13.625C7.49097 13.5026 7.80897 13.3991 8.12697 13.305C9.17732 13.625 10.2469 13.8179 11.5093 13.8743C12.762 13.9308 15.6914 13.465 17.5368 12.35C17.5946 12.19 17.6524 12.0159 17.6524 12.0159C17.6524 12.0159 15.0892 13.385 12.1838 13.385C10.8251 13.385 9.99642 13.1921 9.37967 13.0416C10.748 12.7922 12.4681 12.5852 14.405 12.0959C15.3831 11.8466 16.5924 11.2726 17.1417 10.7974C17.609 10.374 17.9752 9.82825 17.8499 9.26835C17.8258 9.1178 17.6235 8.76495 17.3681 8.64265C17.609 8.3368 17.5849 8.07335 17.5512 7.8475C17.5271 7.67345 17.4452 7.48055 17.3489 7.3112C17.1899 7.10415 17.0405 6.9442 16.7321 6.7607C16.7803 6.52075 16.7466 6.27615 16.6406 6.055C16.3997 5.6457 15.9709 5.29285 15.2289 4.91644C15.1952 4.76589 15.1036 4.57299 14.9446 4.3801C14.0099 3.45796 12.4826 3.01101 11.1961 2.98749H10.9841C9.48087 3.0016 8.27152 3.34034 7.51987 3.6885ZM14.8145 5.9703C14.9302 5.8433 15.0988 5.6504 15.1422 5.49045C15.465 5.69745 15.8263 6.00325 15.8697 6.32315C15.5324 6.19615 15.1662 6.0597 14.8145 5.9703ZM15.0988 7.3582C14.5543 7.20765 14.0725 7.0289 13.4365 6.916C13.8268 6.7654 14.087 6.61015 14.3134 6.4267C14.8242 6.5631 15.3012 6.7325 15.6914 6.90655C15.624 7.00535 15.2337 7.36765 15.1132 7.36765C15.1084 7.36295 15.1036 7.36295 15.0988 7.3582ZM16.0913 7.75815C16.2407 7.6452 16.3756 7.5182 16.5009 7.37235C16.8092 7.6358 16.9008 7.8146 16.7514 8.1016C16.5442 7.95105 16.3274 7.87105 16.0913 7.75815ZM4.38811 10.5857C3.54494 9.4236 6.46952 8.5909 7.02842 8.4215C8.44977 7.99805 10.1169 7.68285 11.6201 7.49935C12.656 7.37235 13.2053 7.48995 14.1833 7.7487C11.6635 8.4215 9.17732 8.6379 6.81162 9.33425C4.90365 9.8847 4.39774 10.5857 4.38811 10.5857ZM5.01446 11.1455C5.90582 10.3928 7.71742 9.96935 8.37752 9.82355C10.483 9.36715 12.444 9.08015 13.2534 8.87785C14.2315 8.6379 14.9157 8.4121 15.3927 8.18155C15.4168 8.14865 16.1925 8.525 16.2696 8.6144C16.0094 8.8308 15.6432 9.0143 15.2433 9.15075C14.0484 9.5836 11.8707 10.0399 10.7191 10.214C9.55797 10.4069 8.58467 10.5527 7.30307 10.8962C6.56107 11.0938 6.06002 11.3196 5.69382 11.5596C5.424 11.3949 5.26501 11.3478 5.01446 11.1455ZM6.66707 12.0583C7.04287 11.8983 7.45242 11.7713 7.84752 11.6725C9.85187 11.1785 11.6201 11.0891 14.0581 10.4304C15.2289 10.1199 16.0865 9.7906 16.6213 9.3813C16.6984 9.3107 16.7803 9.25425 16.8622 9.1884C17.5705 10.2846 14.9157 11.1267 13.0993 11.5172C12.1501 11.7054 11.2009 11.8842 10.2518 12.0536C9.06652 12.2465 8.68107 12.35 7.85717 12.5899C7.45242 12.4205 7.04287 12.2512 6.66707 12.0583ZM4.53265 11.7148C4.71574 11.8324 4.85065 11.9218 5.06746 12.0347C4.98555 12.1053 4.88437 12.1712 4.80728 12.2512C4.62901 12.1477 4.44593 11.9218 4.53265 11.7148ZM5.48182 12.764C5.59747 12.6605 5.74202 12.5617 5.90102 12.4582C6.24307 12.6181 6.59482 12.764 6.92727 12.9145C6.70562 12.9945 6.49362 13.098 6.29127 13.2251C6.01662 13.0698 5.74682 12.9192 5.48182 12.764ZM5.1831 13.3191C5.37582 13.4462 5.56857 13.5497 5.76607 13.6485C5.68417 13.7614 5.62637 13.8508 5.59747 13.9684C5.30837 13.7332 5.17346 13.5403 5.1831 13.3191Z" fill="#0D356C"/>
</g>
</svg>
