<svg width="200" height="51" viewBox="0 0 200 51" fill="none" xmlns="http://www.w3.org/2000/svg">
<path d="M169.996 17.5544H173.359L173.342 22.9831H174.07L175.985 17.5544H179.624L177.014 24.7313L180 32.6778H176.06L174.12 26.5966H173.325L173.342 32.6778H169.979V17.5544H169.996ZM158.662 17.5544H162.008V23.0082H164.4V17.5544H167.737V32.6778H164.4V26.6134H162.008V32.6778H158.662V17.5544ZM147.01 32.7029H150.489L150.908 30.0847H153.3L153.718 32.7029H157.198L154.27 17.5795H149.954L147.01 32.7029ZM152.112 22.1633L152.748 26.7639H151.46L152.112 22.1633ZM137.675 32.6778H141.748C142.635 32.6778 146.341 32.293 146.357 27.7091C146.357 23.8614 143.488 23.1922 141.631 23.1922H141.021V21.1847H145.554V17.5544H137.683L137.675 32.6778ZM141.012 29.6414V26.2202H141.506C141.924 26.2202 142.986 26.2369 142.986 27.8011C142.986 29.3821 141.916 29.6414 141.506 29.6414H141.012ZM124.4 17.5544H127.311L129.879 21.1261L132.472 17.5544H135.358V32.6778H131.937V23.4599L129.879 26.0947L127.821 23.4599V32.6778H124.4V17.5544ZM117.332 32.8618C121.389 32.8618 122.752 28.9638 122.752 25.0993C122.752 21.2348 121.389 17.3369 117.332 17.3369C113.275 17.3369 111.911 21.2265 111.911 25.0993C111.911 28.9722 113.283 32.8618 117.332 32.8618ZM117.332 29.1897C116.127 29.1897 115.508 27.751 115.508 25.0993C115.508 22.4477 116.119 21.0006 117.332 21.0006C118.545 21.0006 119.147 22.4394 119.147 25.0993C119.147 27.7593 118.545 29.198 117.332 29.1897ZM102.008 32.6778H105.429V27.6924H106.575C109.954 27.6924 111.008 24.5724 111.008 22.5816C111.008 20.641 109.804 17.5544 106.575 17.5544H102.008V32.6778ZM105.429 20.8835H106.24C107.01 20.8835 107.503 21.3687 107.503 22.6234C107.503 24.2461 106.667 24.3632 106.24 24.3632H105.429V20.8835ZM90.7069 17.5544H100.042V32.6778H96.6208V21.2098H94.1281V32.6778H90.7069V17.5544ZM83.6889 23.418C84.241 23.418 85.2531 23.05 85.2531 21.9375C85.2531 20.6242 84.0904 20.5406 83.7475 20.5406C83.3543 20.5406 82.6015 20.6075 81.8654 20.9672L81.8236 17.6799C82.9863 17.3787 83.8228 17.2951 84.8098 17.2951C87.6203 17.2951 88.8667 19.3026 88.8667 21.2683C88.8667 23.1755 87.796 24.3298 86.7504 24.7731V24.9153C87.7625 25.2415 89.1009 26.2369 89.1009 28.5456C89.1009 31.4063 87.1603 32.9873 84.6676 32.9873C83.346 32.9705 82.4677 32.7865 81.4221 32.201L81.4806 29.0558C82.451 29.4824 83.1034 29.5243 83.7558 29.5243C84.86 29.5243 85.2949 28.6878 85.2949 28.0855C85.2949 27.2323 84.7596 26.6635 83.5969 26.6635H82.2084V23.418H83.6889ZM70.2385 32.6778H73.7015L74.1364 30.0596H76.5287L76.947 32.6778H80.41L77.4823 17.5544H73.1745C73.1661 17.5544 70.2385 32.6778 70.2385 32.6778ZM75.3159 22.1215L75.9683 26.7388H74.6634L75.3159 22.1215ZM63.6136 17.5544H70.6316V21.3269H67.0934V32.6778H63.6136V17.5544ZM20.8699 25.2917C20.8699 34.5933 28.2727 42.1717 37.3735 42.1717C46.4575 42.1717 53.8519 34.5933 53.8519 25.2917C53.8519 15.9734 46.4575 8.39502 37.3735 8.39502C28.2643 8.38666 20.8699 15.9651 20.8699 25.2917ZM20 25.2917C20 15.4799 27.7875 7.5 37.3735 7.5C46.9343 7.5 54.7219 15.4716 54.7219 25.2917C54.7219 35.0868 46.9343 43.0583 37.3735 43.0583C27.7875 43.0583 20 35.0868 20 25.2917Z" fill="#0D356C"/>
<path d="M32.1871 14.0579C31.5848 14.3256 31.016 14.6602 30.4891 15.045C34.6212 13.1629 39.6651 13.28 42.3753 14.518C43.2285 14.9195 43.7973 15.1704 44.0566 15.6556C41.2461 14.886 40.0416 14.7438 37.6911 14.8024C34.3452 14.8609 29.8952 16.216 28.1971 17.2532L27.4443 18.2152C29.8952 16.7346 34.4623 15.7643 36.9968 15.6807C39.8241 15.6389 42.024 15.9065 44.0399 16.651C43.9228 17.178 43.6635 17.4373 43.2285 17.7049C35.1566 16.2662 30.3887 17.9642 26.0809 20.8417L25.763 21.7953C30.5727 18.4159 36.4615 17.4791 42.1411 18.4912C40.1085 19.2189 37.6743 19.3862 35.6334 19.863C33.8935 20.2729 32.965 20.39 30.648 21.1846C28.2975 21.9709 26.909 22.7823 26.039 23.8195C25.6208 24.3047 25.303 24.8735 25.2277 25.4841C25.1942 25.8438 25.2109 26.1784 25.328 26.4962C25.4201 26.7806 25.6459 27.065 25.8801 27.3494C25.6041 27.8346 25.3615 28.4619 25.763 29.198C25.9387 29.541 26.3987 29.8839 26.8337 30.2102L26.7082 30.5698C26.6497 30.9964 26.5911 31.5067 26.8672 31.9249C27.3356 32.6945 27.9127 33.2047 28.8245 33.6899C28.9667 34.3172 29.1758 34.8275 29.6526 35.2708C30.6647 36.2244 32.9148 38.0479 36.9299 38.3323C39.9412 38.533 42.0909 37.6046 42.9023 37.1947L43.8893 36.6677C42.208 37.3536 39.3807 37.7635 37.0637 37.5544C33.7011 37.27 30.6982 35.0199 30.3218 34.3674C30.4389 34.4511 30.5978 34.5096 30.7316 34.5682C34.6714 36.5171 39.7488 37.5711 46.2649 34.8526L46.8002 34.3256C40.878 36.2076 35.7003 36.1491 30.1377 33.1713C30.1963 32.8869 30.3218 32.6359 30.5727 32.4435C31.9947 33.0876 33.3665 33.623 35.0227 33.9575C36.9633 34.3256 39.18 34.4092 40.9951 34.3256C42.8354 34.2419 46.474 33.3135 48.1971 32.3766C48.3561 32.2344 48.4313 31.9918 48.5903 31.8329C45.2277 33.0876 41.2293 33.6731 38.8203 33.4891C36.4615 33.3051 34.3703 33.0207 31.6016 31.7242C32.1369 31.5067 32.689 31.3227 33.2411 31.1554C35.0646 31.7242 36.9215 32.0671 39.1131 32.1675C41.2879 32.2679 46.3736 31.4398 49.5773 29.4573C49.6777 29.1729 49.7781 28.8634 49.7781 28.8634C49.7781 28.8634 45.328 31.2976 40.2841 31.2976C37.9253 31.2976 36.4866 30.9546 35.4159 30.6869C37.7914 30.2436 40.7776 29.8756 44.1403 29.0056C45.8383 28.5623 47.9378 27.5418 48.8914 26.697C49.7028 25.9442 50.3385 24.9739 50.121 23.9785C50.0792 23.7108 49.7279 23.0834 49.2845 22.866C49.7028 22.3222 49.661 21.8538 49.6024 21.4523C49.5606 21.1428 49.4184 20.7999 49.2511 20.4987C48.9751 20.1307 48.7157 19.8463 48.1804 19.5201C48.2641 19.0935 48.2055 18.6585 48.0215 18.2654C47.6032 17.5376 46.8588 16.9103 45.5706 16.2411C45.5121 15.9734 45.3531 15.6305 45.0771 15.2875C43.4544 13.6481 40.8027 12.8534 38.5694 12.8116H38.2013C35.5915 12.8367 33.492 13.4389 32.1871 14.0579ZM44.8513 18.1148C45.052 17.889 45.3448 17.546 45.4201 17.2616C45.9805 17.6297 46.6078 18.1734 46.6831 18.7422C46.0976 18.5163 45.4619 18.2737 44.8513 18.1148ZM45.3448 20.5824C44.3996 20.3147 43.5631 19.9969 42.459 19.7961C43.1365 19.5284 43.5882 19.2524 43.9813 18.9262C44.868 19.1688 45.6961 19.4699 46.3736 19.7794C46.2565 19.955 45.579 20.5991 45.3699 20.5991C45.3615 20.5908 45.3531 20.5908 45.3448 20.5824ZM47.0679 21.2934C47.3272 21.0926 47.5614 20.8668 47.7789 20.6075C48.3142 21.0759 48.4732 21.3938 48.2139 21.904C47.8542 21.6363 47.4778 21.4941 47.0679 21.2934ZM26.75 26.3206C25.2862 24.2545 30.3636 22.7739 31.3339 22.4728C33.8015 21.72 36.6957 21.1596 39.3055 20.8333C41.1039 20.6075 42.0574 20.8166 43.7555 21.2767C39.3807 22.4728 35.0646 22.8576 30.9575 24.0956C27.6451 25.0742 26.7668 26.3206 26.75 26.3206ZM27.8375 27.316C29.3849 25.9776 32.5301 25.2248 33.676 24.9655C37.3314 24.1541 40.7358 23.6439 42.1411 23.2842C43.8391 22.8576 45.0269 22.4561 45.855 22.0462C45.8968 21.9877 47.2436 22.6568 47.3774 22.8158C46.9257 23.2005 46.29 23.5268 45.5957 23.7693C43.5213 24.5389 39.7404 25.3503 37.7413 25.6598C35.7254 26.0027 34.0357 26.262 31.8107 26.8726C30.5225 27.224 29.6526 27.6255 29.0169 28.0521C28.5485 27.7593 28.2724 27.6757 27.8375 27.316ZM30.7065 28.9387C31.359 28.6543 32.07 28.4285 32.7559 28.2528C36.2356 27.3745 39.3055 27.2156 43.538 26.0445C45.5706 25.4925 47.0595 24.9069 47.988 24.1792C48.1219 24.0537 48.2641 23.9534 48.4063 23.8363C49.6359 25.7852 45.0269 27.2825 41.8734 27.9768C40.2256 28.3114 38.5777 28.6292 36.9299 28.9304C34.8722 29.2733 34.203 29.4573 32.7726 29.8839C32.07 29.5828 31.359 29.2817 30.7065 28.9387ZM27.001 28.3281C27.3188 28.5372 27.5531 28.6961 27.9295 28.8969C27.7873 29.0224 27.6116 29.1395 27.4778 29.2817C27.1683 29.0977 26.8504 28.6961 27.001 28.3281ZM28.6488 30.1934C28.8496 30.0094 29.1005 29.8337 29.3766 29.6497C29.9705 29.9341 30.5811 30.1934 31.1582 30.4611C30.7735 30.6033 30.4054 30.7873 30.0541 31.0132C29.5773 30.7371 29.1089 30.4695 28.6488 30.1934ZM28.1302 31.1805C28.4648 31.4063 28.7994 31.5903 29.1423 31.766C29.0001 31.9667 28.8998 32.1257 28.8496 32.3348C28.3477 31.9166 28.1135 31.5736 28.1302 31.1805Z" fill="#0D356C"/>
</svg>
