<svg width="41" height="40" viewBox="0 0 41 40" fill="none" xmlns="http://www.w3.org/2000/svg">
<path d="M14.8498 35.2956H3.71675V30.5911H14.8251V35.2956H14.8498ZM17.0911 28.2266H1.5V40H3.71675V37.6355H17.0419V28.2266H17.0911ZM3.71675 7.06897L8.17488 2.36453V18.8424H3.71675V7.06897ZM1.5 21.1823H10.367V0H7.0665L1.5 5.8867V21.1823ZM14.8498 2.36453H19.3079V18.8424H14.8498V2.36453ZM12.633 21.1823H21.5V0H12.633V21.1823ZM37.0419 21.1823H39.2586V0H35.9089V0.0246305L32.5591 3.5468V0H29.2094L23.6921 5.8867V21.1823H25.9089V7.06897L30.367 2.36453V21.1823H32.5837V7.06897L37.0419 2.36453V21.1823ZM1.5 25.8867H39.2832V23.5222H1.5V25.8867ZM30.3916 30.5911H37.0419V35.2956H30.3916V30.5911ZM28.1749 35.2956H21.5V30.5911H28.1749V35.2956ZM30.3916 37.6355H39.2832V28.2266H19.3079V37.6355H28.1749V40H30.3916V37.6355Z" fill="#384249"/>
</svg>
