<svg width="41" height="41" viewBox="0 0 41 41" fill="none" xmlns="http://www.w3.org/2000/svg">
<path d="M20.4999 0.5C16.4999 0.5 12.6999 1.7 9.39988 3.9C6.09988 6.1 3.49988 9.2 1.99988 12.9C0.499877 16.5 0.0998768 20.5 0.899877 24.4C1.69988 28.3 3.59988 31.8 6.39988 34.6C9.19988 37.4 12.7999 39.3 16.5999 40.1C20.3999 40.9 24.4999 40.5 28.1999 39C31.8999 37.5 34.9999 34.9 37.1999 31.6C39.2999 28.3 40.4999 24.5 40.4999 20.5C40.4999 15.2 38.3999 10.1 34.5999 6.4C30.8999 2.6 25.7999 0.5 20.4999 0.5ZM17.5999 29L16.0999 33.3C13.3999 32.4 11.0999 30.6 9.39988 28.3C7.69988 26 6.89988 23.2 6.89988 20.3C6.89988 17.4 7.79988 14.6 9.49988 12.3C11.1999 10 13.4999 8.2 16.1999 7.3L17.6999 11.6C15.8999 12.2 14.3999 13.4 13.2999 14.9C12.1999 16.4 11.5999 18.3 11.6999 20.2C11.5999 22.1 12.0999 24 13.1999 25.6C14.1999 27.2 15.7999 28.4 17.5999 29ZM24.4999 33.5L23.0999 29.1C24.8999 28.5 26.4999 27.4 27.5999 25.8C28.6999 24.3 29.2999 22.4 29.2999 20.5C29.2999 18.6 28.6999 16.7 27.5999 15.2C26.4999 13.6 24.8999 12.5 23.0999 11.9L24.5999 7.5C27.2999 8.4 29.6999 10.2 31.3999 12.5C33.0999 14.9 33.9999 17.7 33.9999 20.6C33.9999 23.5 32.9999 26.3 31.2999 28.6C29.6999 30.9 27.2999 32.6 24.4999 33.5Z" fill="#00BEF0"/>
</svg>
