<svg width="40" height="40" viewBox="0 0 40 40" fill="none" xmlns="http://www.w3.org/2000/svg">
<path d="M19.8798 13.32C20.2179 13.29 20.5584 13.3309 20.8798 13.44V4.44H21.9998C21.9998 4.44 21.8798 6.92 22.3198 13.72C24.879 14.2831 27.2129 15.5946 29.0248 17.4878C30.8366 19.3809 32.0444 21.7701 32.4947 24.3516C32.9449 26.9331 32.6172 29.5901 31.5533 31.9848C30.4894 34.3796 28.7373 36.4038 26.5198 37.8C26.4398 37.72 26.3198 37.52 26.1998 37.4C22.1998 32.4 21.1998 24.84 20.9998 18.24C21.5598 18.36 22.1198 18.44 22.6798 18.52C23.505 24.1023 26.0012 29.3038 29.8398 33.44C31.2184 31.7276 31.9225 29.5698 31.8194 27.3738C31.7162 25.1779 30.8129 23.0956 29.2798 21.52C27.5548 19.6661 25.3333 18.3471 22.8798 17.72C21.7142 17.4399 20.5184 17.3056 19.3198 17.32C18.1217 17.3168 16.9273 17.451 15.7598 17.72C10.6398 19 6.79976 23 6.79976 27.8C6.85069 29.8325 7.55164 31.7951 8.79976 33.4C12.6392 29.2692 15.1236 24.0631 15.9198 18.48C16.5112 18.4196 17.0988 18.3261 17.6798 18.2C17.3998 24.8 16.4398 32.28 12.4798 37.28C12.356 37.4733 12.2225 37.6602 12.0798 37.84C9.87947 36.4109 8.15178 34.3621 7.11471 31.9521C6.07764 29.5422 5.77767 26.879 6.25265 24.2987C6.72763 21.7184 7.95628 19.3366 9.78354 17.4539C11.6109 15.5712 13.9549 14.2719 16.5198 13.72C16.8798 6.96 16.7998 4.44 16.7998 4.44H17.9198L17.8398 13.52C18.1359 13.4213 18.4483 13.3805 18.7598 13.4V0H19.9198V13.32H19.8798ZM19.9998 18.16C20.1198 24.48 20.5598 32.32 22.6398 37.64C22.8873 38.2287 23.1677 38.8029 23.4798 39.36C22.1365 39.7349 20.7536 39.9497 19.3598 40C17.9637 39.9757 16.5775 39.7603 15.2398 39.36C15.5598 38.64 15.8798 38.04 16.1598 37.44C18.1598 32.16 18.6798 24.44 18.7198 18.16H19.9998Z" fill="#0E3263"/>
</svg>
