<svg width="201" height="51" viewBox="0 0 201 51" fill="none" xmlns="http://www.w3.org/2000/svg">
<path d="M43.0705 9C40.3332 9 37.6574 9.81171 35.3814 11.3325C33.1054 12.8532 31.3315 15.0147 30.284 17.5437C29.2365 20.0726 28.9624 22.8554 29.4964 25.5401C30.0304 28.2248 31.3486 30.6908 33.2841 32.6264C35.2197 34.5619 37.6857 35.8801 40.3704 36.4141C43.0551 36.9481 45.8379 36.674 48.3668 35.6265C50.8958 34.579 53.0573 32.8051 54.578 30.5291C56.0988 28.2531 56.9105 25.5773 56.9105 22.84C56.9118 21.0221 56.5547 19.2219 55.8597 17.5421C55.1646 15.8624 54.1452 14.3361 52.8598 13.0507C51.5744 11.7653 50.0481 10.7459 48.3684 10.0508C46.6886 9.35577 44.8884 8.99869 43.0705 9ZM41.0705 28.71L40.0705 31.71C38.1995 31.0579 36.5786 29.8383 35.4337 28.2212C34.2888 26.604 33.6771 24.67 33.6837 22.6886C33.6903 20.7073 34.3149 18.7773 35.4706 17.1679C36.6262 15.5584 38.2552 14.3496 40.1305 13.71L41.1305 16.71C39.8928 17.1278 38.819 17.9264 38.0628 18.9915C37.3066 20.0567 36.9067 21.3338 36.9205 22.64C36.8421 23.9713 37.2095 25.2908 37.9647 26.39C38.7198 27.4892 39.8197 28.3056 41.0905 28.71H41.0705ZM45.7905 31.84L44.7905 28.78C46.0483 28.3729 47.1456 27.5793 47.926 26.5121C48.7063 25.445 49.13 24.1587 49.1367 22.8367C49.1433 21.5147 48.7326 20.2243 47.963 19.1493C47.1934 18.0744 46.1041 17.2697 44.8505 16.85L45.8505 13.79C47.7518 14.4232 49.4038 15.6419 50.5699 17.2716C51.736 18.9013 52.3563 20.8583 52.3418 22.8622C52.3274 24.8661 51.679 26.814 50.4896 28.4267C49.3001 30.0395 47.6307 31.2343 45.7205 31.84H45.7905Z" fill="#00BEF0"/>
<path d="M66.7405 45.9399H64.5706V39.5599H68.3306V40.1999H65.3306V42.1999H66.7306C68.0106 42.1999 68.8406 42.7099 68.8406 43.9899V44.0499C68.8406 45.2999 68.0105 45.9399 66.7405 45.9399ZM66.7405 45.3699C67.7405 45.3699 68.0806 44.9199 68.0806 44.1599V44.0999C68.0806 43.3299 67.6306 42.8899 66.6806 42.8899H65.3306V45.3799L66.7405 45.3699ZM69.5506 44.6699C69.5506 43.5899 70.7006 43.1999 71.9106 43.1999H72.6106V42.8799C72.6106 42.1099 72.3506 41.7999 71.6106 41.7999C70.8706 41.7999 70.6105 42.0599 70.5305 42.6299H69.7606C69.7828 42.4108 69.8486 42.1984 69.9542 42.0052C70.0599 41.812 70.2032 41.6418 70.3756 41.5048C70.548 41.3678 70.7461 41.2667 70.9582 41.2075C71.1703 41.1483 71.3921 41.1321 71.6106 41.1599C71.8386 41.1284 72.0708 41.1491 72.2897 41.2205C72.5085 41.2919 72.7082 41.412 72.8739 41.5719C73.0395 41.7318 73.1668 41.9272 73.2459 42.1434C73.325 42.3596 73.3539 42.5909 73.3306 42.8199V45.8799H72.5006V45.2999C72.337 45.5337 72.1156 45.7211 71.8579 45.8438C71.6003 45.9665 71.3151 46.0203 71.0305 45.9999C70.2505 45.9999 69.5006 45.6199 69.5006 44.6599L69.5506 44.6699ZM72.6106 44.3499V43.7799H71.9706C70.9706 43.7799 70.3805 44.0399 70.3805 44.6699C70.3805 45.2999 70.6406 45.4399 71.2706 45.4399C71.9006 45.4399 72.6106 45.0399 72.6106 44.3399V44.3499ZM77.6106 43.8999H75.3105V45.9999H74.5006V41.3399H75.2706V43.3399H77.5705V41.3399H78.3406V45.9999H77.5705L77.6106 43.8999ZM80.4205 43.5799V45.9399H79.6506V41.2799H80.4205V43.4499L82.3306 41.2799H83.2206L81.2206 43.4499L83.3906 45.9399H82.5006L80.4205 43.5799ZM169.76 25.3299L171.29 27.1799C170.619 27.8675 169.814 28.4097 168.925 28.7727C168.035 29.1357 167.08 29.3118 166.12 29.2899C164.892 29.331 163.671 29.0916 162.55 28.5899C161.559 28.0563 160.744 27.2474 160.203 26.2609C159.662 25.2743 159.418 24.1521 159.5 23.0299C159.5 19.2699 162.05 16.4599 165.82 16.4599C170.03 16.4599 172.07 19.5899 171.75 23.6699H162.18C162.212 24.1712 162.362 24.6578 162.618 25.0904C162.873 25.523 163.227 25.8894 163.65 26.1599C164.442 26.6257 165.353 26.8483 166.27 26.7999C166.921 26.8061 167.567 26.6789 168.167 26.4261C168.767 26.1733 169.309 25.8002 169.76 25.3299ZM162.3 21.4399H169.06C168.951 20.6501 168.549 19.9302 167.934 19.4227C167.319 18.9153 166.536 18.6573 165.74 18.6999C164.934 18.6711 164.144 18.9314 163.513 19.4339C162.883 19.9364 162.452 20.6479 162.3 21.4399ZM98.0005 28.9699H101.44L96.0206 22.6499L101.38 16.7199H98.0005L93.9205 21.4399H92.7006V16.7199H90.0906V28.8999H92.7006V24.0599H93.9106L98.0005 28.9699ZM109.29 18.9699C108.786 18.9649 108.287 19.0635 107.824 19.2597C107.36 19.4559 106.941 19.7455 106.594 20.1104C106.247 20.4753 105.979 20.9077 105.806 21.3807C105.633 21.8537 105.56 22.3572 105.59 22.8599C105.56 23.3626 105.633 23.8661 105.806 24.3391C105.979 24.8121 106.247 25.2445 106.594 25.6094C106.941 25.9743 107.36 26.2638 107.824 26.46C108.287 26.6563 108.786 26.7549 109.29 26.7499C109.792 26.7586 110.29 26.662 110.753 26.4662C111.215 26.2705 111.631 25.9799 111.974 25.6133C112.317 25.2467 112.579 24.8123 112.744 24.338C112.909 23.8637 112.972 23.3602 112.93 22.8599C112.975 22.358 112.914 21.8523 112.751 21.3756C112.587 20.8989 112.325 20.462 111.982 20.0931C111.639 19.7243 111.222 19.4319 110.758 19.235C110.294 19.038 109.794 18.9409 109.29 18.9499V18.9699ZM109.74 16.4799C113.18 16.4799 115.74 19.1599 115.74 22.8599C115.74 26.5599 113.25 29.2999 109.74 29.2999C108.999 29.3338 108.259 29.2096 107.569 28.9355C106.879 28.6613 106.256 28.2435 105.74 27.7099V34.0899H103.1V16.7199H105.72V18.1899C106.21 17.6147 106.828 17.1623 107.524 16.8688C108.221 16.5753 108.976 16.449 109.73 16.4999L109.74 16.4799ZM144.44 16.7399H133.5V19.1599H137.65V28.8999H140.33V19.1999H144.5V16.7199L144.44 16.7399ZM88.2405 16.7399H77.3306V19.1599H81.5006V28.8999H84.1806V19.1999H88.3006V16.7199L88.2405 16.7399ZM74.0705 22.8399C74.0705 21.8241 73.667 20.8499 72.9488 20.1317C72.2305 19.4134 71.2562 19.0099 70.2405 19.0099C69.2247 19.0099 68.2506 19.4134 67.5323 20.1317C66.8141 20.8499 66.4106 21.8241 66.4106 22.8399C66.4106 23.8557 66.8141 24.8298 67.5323 25.5481C68.2506 26.2664 69.2247 26.6699 70.2405 26.6699C71.2562 26.6699 72.2305 26.2664 72.9488 25.5481C73.667 24.8298 74.0705 23.8557 74.0705 22.8399ZM63.7406 22.8399C63.7147 21.5352 64.078 20.2524 64.784 19.1551C65.4901 18.0577 66.5069 17.1954 67.7049 16.6781C68.9029 16.1608 70.2278 16.012 71.5107 16.2507C72.7936 16.4893 73.9763 17.1046 74.9082 18.018C75.8401 18.9315 76.4789 20.1017 76.7431 21.3796C77.0073 22.6575 76.8851 23.9851 76.3919 25.1932C75.8987 26.4013 75.0568 27.4351 73.9737 28.163C72.8906 28.8908 71.6154 29.2796 70.3105 29.2799C69.4495 29.3141 68.5907 29.172 67.7867 28.8622C66.9828 28.5523 66.2506 28.0814 65.6353 27.4782C65.02 26.8751 64.5345 26.1525 64.2086 25.3548C63.8828 24.5572 63.7235 23.7013 63.7406 22.8399ZM157.39 16.7199V28.8999H154.77V21.0599L148.39 28.9099H146.28V16.7199H148.9V24.6299L155.28 16.7799H157.39V16.7199ZM131.74 28.9699H129.12V16.7199H131.74V28.9699ZM124.91 24.7599C124.922 24.5188 124.885 24.2777 124.8 24.0516C124.716 23.8255 124.585 23.6193 124.417 23.4458C124.249 23.2722 124.048 23.1351 123.824 23.0429C123.601 22.9507 123.361 22.9055 123.12 22.9099H120.5V26.6699H123.18C123.422 26.6651 123.66 26.6111 123.88 26.5112C124.1 26.4114 124.298 26.2677 124.461 26.089C124.623 25.9102 124.748 25.7002 124.827 25.4717C124.906 25.2432 124.938 25.001 124.92 24.7599H124.91ZM127.59 24.7599C127.602 25.3246 127.497 25.8856 127.281 26.4074C127.065 26.9291 126.742 27.4002 126.334 27.7905C125.926 28.1809 125.441 28.482 124.91 28.6747C124.379 28.8674 123.814 28.9475 123.25 28.9099H117.83V16.7199H120.5V20.7199H123.5C124.042 20.6871 124.585 20.7686 125.093 20.9592C125.601 21.1498 126.064 21.4452 126.45 21.8262C126.837 22.2072 127.139 22.6653 127.337 23.1707C127.535 23.6762 127.625 24.2176 127.6 24.7599H127.59Z" fill="black"/>
</svg>
