<svg width="41" height="40" viewBox="0 0 41 40" fill="none" xmlns="http://www.w3.org/2000/svg">
<path d="M39.9716 18.7062L40.5 17.0469L38.7815 17.1012C37.9765 17.0716 37.2012 16.8 36.5494 16.321H36.7815C37.8284 16.316 38.7864 15.7185 39.2506 14.7802L40.0062 13.1654C39.4136 13.1704 38.821 13.1358 38.2333 13.0617C37.6704 12.9284 37.1667 12.6222 36.7864 12.1877C36.2728 11.6395 35.5617 11.3284 34.8111 11.3235C34.5198 11.3235 34.2284 11.3728 33.9469 11.4617C33.9864 11.3284 34.021 11.1951 34.0457 11.0568C34.1642 10.0938 33.8926 9.12099 33.2951 8.35556L31.9914 6.75062L31.1914 8.62716C31.063 8.89383 30.8704 9.12593 30.6235 9.29383C30.4852 8.62222 30.1593 8.00988 29.6753 7.52593C28.8654 6.6963 27.7543 6.2321 26.5938 6.24198C26.3914 6.24198 26.1889 6.25679 25.9914 6.28642L24.4309 6.59259C24.5642 6.06914 24.7765 5.57037 25.063 5.11111L25.9222 3.77284L23.7593 3.97531L23.0679 2.49383L21.7346 3.21975L20.5 2L19.2654 3.21975L17.9321 2.5284L17.2407 3.97531L15.0778 3.72839L15.937 5.0716C16.2235 5.53086 16.4358 6.02963 16.5691 6.55309L15.0877 6.26173H15.0383C14.8309 6.2321 14.6235 6.21728 14.416 6.21728C13.2556 6.20741 12.1444 6.67161 11.3346 7.50123C10.8457 7.99012 10.5099 8.61235 10.3765 9.29383C10.1395 9.13086 9.94691 8.90864 9.81852 8.64691L9.01358 6.75556L7.7 8.36543C7.11235 9.13086 6.85062 10.0988 6.9642 11.0568C6.98889 11.1951 7.02346 11.3284 7.06296 11.4617C6.78148 11.3728 6.49012 11.3235 6.19877 11.3235C5.44815 11.3284 4.73704 11.6395 4.22346 12.1877C3.84815 12.6173 3.34938 12.9235 2.79136 13.0617C2.19877 13.1506 1.5963 13.1852 0.993827 13.1654L1.72963 14.8049C2.19383 15.7432 3.15185 16.3407 4.19877 16.3457H4.43086C3.78889 16.8148 3.02346 17.0864 2.2284 17.121L0.5 17.0469L1.02839 18.7062C1.42346 20.0049 2.54444 20.958 3.89259 21.1309C3.75432 22.0049 3.20123 22.7605 2.41111 23.1556L1.08765 23.6938L1.79877 24.9333C2.38642 25.8469 3.39877 26.3901 4.48025 26.3802C4.76173 26.3802 5.04321 26.3506 5.31975 26.2914C5.38889 26.5926 5.47778 26.8938 5.57654 27.1852C5.82346 27.837 5.83827 28.5481 5.62593 29.2099L4.98395 30.558L6.42099 30.9383C6.74198 31.0222 7.07778 31.0617 7.40864 31.0617C7.64568 31.0617 7.87778 31.037 8.10988 30.9827C8.27778 30.9432 8.44568 30.8938 8.6037 30.8296C8.78642 31.1605 9.01852 31.4667 9.28025 31.7383C10.1988 32.6815 11.5025 33.1605 13.1568 33.1605H14.337L11.9025 34.1728L13.7494 35.0864C14.4951 35.4519 15.2556 35.7827 16.0309 36.0741L15.8086 36.716L16.4457 37.0074C17.5025 37.4222 18.6235 37.6543 19.7593 37.6938H21.2753C22.4062 37.6543 23.5222 37.4173 24.5741 37.0025L25.1914 36.716L24.9741 36.0741C25.7593 35.7728 26.5296 35.4321 27.2802 35.0518L29.0926 34.1728L26.663 33.1852H27.8481C29.5025 33.1852 30.8111 32.6914 31.7247 31.763C31.9914 31.4914 32.2185 31.1852 32.4012 30.8543C32.5593 30.9185 32.7272 30.9679 32.8951 31.0074C33.1272 31.0617 33.3593 31.0864 33.5963 31.0864C33.9272 31.0864 34.263 31.042 34.584 30.963L36.0259 30.5827L35.3988 29.2593C35.1617 28.5877 35.1716 27.8519 35.4235 27.1852C35.5272 26.8839 35.6111 26.5778 35.6802 26.2716C35.9568 26.3309 36.2432 26.3605 36.5247 26.3605C37.616 26.3704 38.6333 25.8074 39.2111 24.879L39.9123 23.6543L38.6086 23.121C37.8185 22.7259 37.2654 21.9704 37.1272 21.0963C38.4753 20.9185 39.5963 19.9704 39.9914 18.6667L39.9716 18.7062Z" fill="white"/>
<path d="M26.4359 23.9505H14.584V28.3949C14.584 30.2221 15.9025 31.3579 17.8531 31.3579C19.4828 31.3579 19.9124 31.4221 20.5149 32.0245C20.8951 31.6147 21.4334 31.3826 21.9964 31.3924V31.3233L22.3717 30.1677L21.7346 29.4714C21.4778 29.5505 21.2112 29.5801 20.9445 29.5653C20.5445 29.5603 20.1494 29.5208 19.7593 29.4418H19.6359C19.5815 29.4418 19.5815 29.4418 19.5667 29.4714L19.4927 29.5949L19.3593 29.8171L19.1025 29.7579L17.9618 29.4912L17.8038 29.748V29.7776L17.942 29.9307L17.8828 30.1282C17.7791 30.3702 17.6309 30.5875 17.4433 30.7752L17.1569 31.0813L16.8951 30.7554L16.7025 30.5134C16.4951 30.2418 16.4457 29.8863 16.5643 29.5653L16.2433 29.6986L16.1001 29.3826L16.0211 29.1603C15.8186 28.6912 15.9717 28.148 16.3815 27.8517L17.3001 27.3579L18.1741 27.5307C18.1741 27.4468 18.2285 27.1455 18.2532 27.0714H18.2038L17.7099 27.2591L17.2161 26.9233C17.1173 26.8245 17.1124 26.6616 17.2161 26.5579L17.6852 25.8468L16.4951 24.3653L18.2778 25.0665L18.4013 24.9184L18.6482 24.6221L18.9297 24.8887C19.0038 24.9628 19.0531 25.0517 19.0778 25.1554C19.5717 25.3529 20.4852 25.9307 20.5593 26.869L20.2778 26.9826C20.3124 27.0319 20.3569 27.0714 20.4112 27.0961L21.7149 27.2245L21.8334 27.19C22.0556 27.106 22.2927 27.0616 22.5297 27.0566C22.7667 27.0566 22.9988 27.111 23.2112 27.2147C23.305 27.1801 23.4087 27.1603 23.5075 27.1554H23.5717C24.268 27.1554 24.6186 27.6789 24.8951 28.0937L25.0383 28.3011C25.2803 28.6468 25.6013 29.1505 25.6161 29.1702L25.7593 29.3924L25.5815 29.5998C25.4186 29.8171 25.1618 29.9406 24.8902 29.9406C24.8112 29.9455 24.7322 29.9455 24.6531 29.9406C24.584 29.9258 24.5149 29.906 24.4457 29.8764C24.4457 29.9455 24.4457 30.0295 24.4062 30.0986L24.2038 31.264C25.547 30.9924 26.4951 29.7875 26.4408 28.4147L26.4359 23.9505ZM14.5692 23.59H23.7988C23.4235 23.195 23.2951 22.6271 23.463 22.1085C23.3396 22.0493 23.221 21.9703 23.1173 21.8814C22.7568 22.148 21.6359 22.948 21.3692 23.1505L21.3099 23.19L17.6852 22.548H17.6112C17.4926 22.553 17.3741 22.553 17.2556 22.548C17.221 22.711 17.0778 22.8246 16.9149 22.8246H16.8556C16.663 22.79 16.5297 22.6073 16.5593 22.4147V22.3357C16.0902 21.9999 15.868 21.4172 15.9914 20.8542V20.79L16.0457 20.7505C16.0457 20.7505 16.1149 20.7011 16.2087 20.6468L15.947 20.6073C15.8482 20.5875 15.784 20.4987 15.7988 20.3999C15.8136 20.3011 15.9025 20.2369 16.0013 20.2517H16.0062L16.6334 20.3505L16.6926 18.1431L17.626 17.1554L18.2087 18.3801L17.5964 20.5036L18.1494 20.5925C18.2482 20.6122 18.3124 20.7011 18.2976 20.7999C18.2828 20.8888 18.2087 20.948 18.1198 20.948H18.0902L17.6408 20.874V20.9085C17.6902 20.9974 17.7643 21.0666 17.8581 21.111L20.6186 21.1554L21.3247 20.4592C20.7865 20.2715 20.4013 19.7974 20.3371 19.2295C19.9914 19.0962 19.7099 18.8394 19.5519 18.5085C19.4186 18.1974 19.3939 17.8468 19.4877 17.5209C19.0531 17.348 18.6581 17.0863 18.3371 16.7505H14.2383C14.4359 17.2345 14.5494 17.748 14.5692 18.2666V23.59Z" fill="#FCE527"/>
<path d="M18.3567 25.8914C18.2974 25.8914 18.2431 25.9358 18.2381 25.9951V26C18.2332 26.0642 18.2826 26.1235 18.3468 26.1284H18.3517C18.4208 26.1284 18.4702 26.0741 18.4702 26.0099C18.4702 25.9407 18.4208 25.8914 18.3567 25.8914Z" fill="#222220"/>
<path d="M18.3521 25.8865C18.357 25.8865 18.357 25.8914 18.357 25.8914C18.362 25.8914 18.362 25.8865 18.3669 25.8865H18.3521ZM26.4211 33.9852L25.7397 33.7235L25.9273 33.0173L26.1347 32.2469C25.2014 32.726 24.2236 33.1111 23.2162 33.3976C22.7224 33.5358 22.3668 33.6 22.3668 33.6V34.0988C21.7594 34.1976 21.1471 34.2519 20.5298 34.2568H20.4755C19.8582 34.2519 19.2458 34.1976 18.6384 34.0988V33.605C18.6384 33.605 18.2779 33.5358 17.7841 33.3976C16.7767 33.1111 15.7989 32.726 14.8656 32.2469L15.0681 33.0173L15.2606 33.7235L14.5742 33.9852L13.8335 34.2667C14.8508 34.7951 15.9125 35.2346 17.0088 35.5803L16.7471 36.2914C17.9372 36.7457 19.2113 36.9679 20.4853 36.9383H20.515C21.789 36.9679 23.0631 36.7457 24.2532 36.2914L23.9964 35.5803C25.0878 35.2346 26.1495 34.7951 27.1668 34.2667L26.4211 33.9852ZM14.6582 34.3111L15.7643 33.9408L15.4335 32.8544C16.1594 33.2148 16.91 33.5161 17.6853 33.7531L17.1421 35.2346C16.2878 35.0074 15.4532 34.6963 14.6582 34.3111ZM20.5298 36.5877L20.5051 36.5679C19.4187 36.563 18.3372 36.4148 17.2903 36.1284L17.9569 34.321C18.7866 34.5284 19.6409 34.642 20.5001 34.6469H20.5545C21.4137 34.6371 22.268 34.5284 23.0977 34.321L23.7643 36.1284C22.7125 36.4247 21.6211 36.5778 20.5298 36.5877ZM23.8977 35.2642V35.2494L23.3545 33.7679C24.1298 33.5309 24.8804 33.2297 25.6063 32.8692L25.2755 33.9556L26.3964 34.3309C25.5964 34.721 24.7569 35.0371 23.8977 35.2642ZM20.5002 5.79757C21.6162 5.76794 22.7125 6.10374 23.6211 6.75066C23.7644 6.01979 24.036 5.31856 24.4261 4.68152L23.3051 4.80992L22.7224 3.56053L21.5915 4.14325L20.5002 3.06177L19.4088 4.14325L18.2779 3.56053L17.6952 4.80992L16.5742 4.68152C16.9644 5.31856 17.236 6.01979 17.3792 6.75066C18.2878 6.10374 19.3841 5.76794 20.5002 5.79757ZM17.6458 5.24448L17.957 5.27905L18.0903 4.99757L18.4804 4.15806L19.2063 4.53337L19.4878 4.67658L19.715 4.46917L20.5002 3.67411L21.2853 4.46917L21.5125 4.6914L21.794 4.54819L22.515 4.17288L22.91 5.01238L23.0434 5.29387L23.3545 5.2593L23.6508 5.22473C23.5323 5.49634 23.4286 5.77782 23.3446 6.06424C21.5619 5.15066 19.4434 5.15066 17.6607 6.06424C17.5767 5.77782 17.473 5.49634 17.3545 5.22473L17.6458 5.24448ZM35.1472 15.9901L35.0138 15.8272C34.0953 14.6568 33.2212 13.5457 31.6608 13.037C31.725 12.9827 31.7892 12.9333 31.8583 12.8889C32.599 12.4691 33.1225 11.7482 33.2904 10.9136C33.3743 10.158 33.162 9.40248 32.6978 8.80001L32.204 8.18273L31.8929 8.91853C31.8929 8.96297 31.3447 10.1432 30.2385 10.1432H29.9126C29.9719 9.36791 29.6904 8.60248 29.1422 8.04939C28.4756 7.36791 27.5571 6.98766 26.604 6.9926C26.4262 6.9926 26.2484 7.00742 26.0756 7.03211L25.32 7.18026L25.7892 7.79754C26.1546 8.29137 26.4854 9.14569 26.0953 9.60495C25.9077 9.76791 25.6953 9.89631 25.4632 9.98519C24.9694 10.2173 24.2583 10.5482 24.2583 11.3778C24.2583 11.9161 24.678 12.479 25.4336 12.958C27.6608 14.3704 29.0385 15.8272 29.6361 17.4667C30.5595 19.9654 29.3546 21.3877 28.1842 22.1383L27.6608 22.4741L28.12 22.8938C28.5299 23.2445 29.0336 23.4617 29.5719 23.5161H30.0212C30.4805 23.5161 30.9348 23.4519 31.3743 23.3185C31.2657 23.5111 31.1324 23.6938 30.9892 23.8617C30.3225 24.637 29.3348 25.0617 28.3126 25.0074H27.8731L27.8385 25.4469C27.8336 26.0642 28.1052 26.6469 28.5743 27.0469C28.6978 27.1556 28.8361 27.2445 28.9842 27.3136C28.2533 28.0247 27.8385 28.9975 27.8237 30.0198C27.8237 30.5778 27.6953 31.1309 27.4533 31.6346L26.9595 32.3753H27.8385C29.2904 32.3753 30.4015 31.9753 31.1719 31.1803C31.5719 30.7605 31.8682 30.2519 32.041 29.6988C32.3274 29.9407 32.6632 30.1087 33.0287 30.1926C33.2015 30.2321 33.3793 30.2519 33.5571 30.2519C33.8237 30.2519 34.0904 30.2173 34.3472 30.158L34.9101 30.0099L34.6632 29.4864C34.3521 28.6519 34.3521 27.7284 34.6632 26.8938C34.8459 26.3506 34.9743 25.7877 35.0435 25.2148C35.4879 25.442 35.9817 25.5556 36.4805 25.5506C37.3003 25.5605 38.0657 25.1556 38.5101 24.4691L38.7817 23.9753L38.2879 23.7679C36.6336 23.0815 36.2682 21.2346 36.1941 20.237C36.3571 20.2716 36.52 20.2914 36.6879 20.2963L36.8262 20.3901C38.6237 20.3901 39.2262 18.558 39.2509 18.479L39.4533 17.8321H38.7768C37.3546 17.7827 36.0262 17.1111 35.1472 15.9901ZM36.8311 19.8914H36.762C36.4015 19.8963 36.0459 19.7975 35.7398 19.6099C35.7398 19.6099 35.478 23.1803 38.1398 24.2864V24.3012C37.7892 24.8346 37.1867 25.1506 36.5496 25.1407C35.8287 25.1852 35.1324 24.879 34.678 24.321C34.6929 25.1605 34.5546 26 34.2731 26.7901C33.9126 27.7432 33.9126 28.8 34.2731 29.7531C34.0509 29.8074 33.8287 29.837 33.6015 29.837C33.4632 29.837 33.32 29.8222 33.1867 29.7877C32.5299 29.6296 32.0064 29.1457 31.7941 28.5086C31.7941 28.5086 31.8978 31.9358 27.9027 31.9358H27.8731C28.1743 31.363 28.3324 30.7259 28.3274 30.079C28.5003 27.5457 30.2188 27.1852 30.2188 27.1852C29.7447 27.1259 29.2953 26.958 28.9003 26.6914C28.5398 26.3901 28.3324 25.9457 28.3225 25.4766C29.478 25.5259 30.5941 25.0469 31.3496 24.1679C31.804 23.6494 32.1052 23.0173 32.2336 22.3407C31.5966 22.8198 30.8114 23.0617 30.0163 23.0272H29.6114C29.1817 22.9827 28.7719 22.8148 28.441 22.5333C29.962 21.5457 31.0287 19.8568 30.0854 17.2938C29.325 15.2395 27.5027 13.7037 25.6706 12.5482C25.0632 12.1728 24.6978 11.7482 24.6978 11.3827C24.6978 10.5235 25.9175 10.4988 26.4213 9.90124C26.999 9.22964 26.6385 8.14322 26.1348 7.49137C26.278 7.46668 26.4262 7.4568 26.5694 7.4568C27.3941 7.44692 28.1892 7.77779 28.762 8.37038C29.3447 8.92347 29.5669 9.75803 29.3447 10.5284L29.6114 10.5827C29.7743 10.6124 29.9373 10.6272 30.1052 10.6321H30.2138C31.6608 10.6321 32.3126 9.11606 32.3126 9.11606C32.3126 9.11606 33.8533 11.0124 31.5867 12.4938C31.1966 12.7457 31.0237 12.9877 31.0929 13.2346L31.1274 13.3975L31.2904 13.4272C32.9348 13.8716 33.7595 15.0074 34.7817 16.2963C35.7496 17.5259 37.2114 18.2667 38.7768 18.321H38.8064C38.8064 18.321 38.3126 19.8914 36.8311 19.8914Z" fill="#222220"/>
<path d="M33.6603 13.2593C34.2134 13.5753 34.6924 14.005 35.0678 14.5185C35.3492 14.9531 35.7492 15.2988 36.2233 15.5062C36.4011 15.5655 36.5937 15.5951 36.7813 15.5951C37.5369 15.5951 38.2282 15.1655 38.5739 14.4938L38.8603 13.8519L38.164 13.8124C37.4134 13.6741 36.7369 13.2889 36.2381 12.7111C35.8678 12.3111 35.3492 12.079 34.8011 12.0741C34.3764 12.079 33.9665 12.2074 33.611 12.4346L32.969 12.884L33.6603 13.2593ZM34.8159 12.5531L34.8011 12.558C35.2208 12.558 35.6159 12.7408 35.8974 13.0519C36.4752 13.7136 37.2653 14.1531 38.1344 14.2963C37.8678 14.7951 37.3492 15.1062 36.7813 15.1111C36.6431 15.1111 36.5048 15.0864 36.3715 15.042C35.5715 14.7704 35.29 13.5605 33.9023 12.8297C34.1739 12.6519 34.49 12.558 34.8159 12.5531ZM33.9863 19.6247L33.9765 19.6148C33.5715 16.3555 31.2061 14 28.574 12.5728C28.332 12.4395 28.1049 12.3309 27.8876 12.2271C28.974 12.4494 30.1049 12.1827 30.9789 11.5012C30.9789 11.5012 29.453 12.6222 26.332 11.6049C27.1962 12.1679 28.8752 12.958 30.411 14.242C34.2431 17.6099 31.5024 20.8988 31.5024 20.8988C32.6481 19.8123 33.0481 18.1531 32.5345 16.6617C33.3444 18.0099 33.7345 19.5704 33.6505 21.1407C33.5419 23.7284 32.1049 25.9901 30.6234 27.7926C30.1789 28.3605 29.8728 29.0271 29.7444 29.7383C29.9962 29.0321 30.3765 28.3802 30.8703 27.8173C32.4752 25.9358 33.8333 23.9852 34.0258 21.1753C34.1938 21.6691 34.8752 23.1062 35.9617 23.6444C35.9617 23.6444 34.5987 22.8247 33.9863 19.6247ZM13.5419 31.6692C13.3049 31.1655 13.1765 30.6124 13.1715 30.0544C13.1567 29.0322 12.737 28.0593 12.0061 27.3482C12.1542 27.2791 12.2925 27.1902 12.416 27.0816C12.8851 26.6816 13.1567 26.0988 13.1518 25.4816L13.1221 25.042H12.6777C11.6604 25.0914 10.6728 24.6717 10.0061 23.8964C9.86292 23.7285 9.73452 23.5458 9.62094 23.3532C10.0605 23.4865 10.5147 23.5507 10.974 23.5507H11.4234C11.9617 23.4964 12.4703 23.2791 12.8802 22.9285L13.3394 22.5087L12.816 22.1729C11.6407 21.4223 10.4407 20.0001 11.3641 17.5013C11.9617 15.8766 13.3394 14.4099 15.5863 12.9976C16.3419 12.5038 16.7567 11.9556 16.7567 11.4174C16.7567 10.5877 16.0604 10.2569 15.5518 10.0248C15.3197 9.93587 15.1073 9.80748 14.9197 9.64451C14.5246 9.18526 14.8555 8.31118 15.2258 7.83711L15.7197 7.21982L14.9592 7.07168C14.7863 7.04205 14.6086 7.03217 14.4308 7.03217C13.4678 7.00254 12.5394 7.37291 11.8579 8.04945C11.2999 8.5976 11.0086 9.36797 11.0629 10.1482H10.7666C9.65551 10.1482 9.13205 8.97291 9.1123 8.92353L8.8012 8.18772L8.30736 8.80501C7.8481 9.40748 7.63577 10.163 7.71972 10.9186C7.88762 11.7532 8.40614 12.4741 9.14688 12.8939C9.21601 12.9383 9.28515 12.9877 9.34441 13.042C7.78391 13.5359 6.90984 14.6618 5.99132 15.8322L5.85799 16.0001C4.97898 17.1211 3.64564 17.7927 2.22342 17.842H1.54688L1.75428 18.489C1.75428 18.568 2.37651 20.4001 4.17897 20.4001H4.26786C4.43577 20.3951 4.59873 20.3754 4.76169 20.3408C4.68762 21.3285 4.32218 23.1853 2.66293 23.8717L2.1691 24.0791L2.4407 24.5729C2.88515 25.2593 3.65057 25.6643 4.47032 25.6544C4.96909 25.6593 5.45799 25.5457 5.90243 25.3186C5.97157 25.8914 6.09996 26.4544 6.28268 26.9976C6.59379 27.8322 6.59379 28.7556 6.28268 29.5902L6.03577 30.1137L6.59873 30.2618C6.85552 30.3211 7.12218 30.3556 7.38884 30.3556C7.56663 30.3556 7.74441 30.3359 7.91725 30.2964C8.28268 30.2124 8.61847 30.0445 8.90489 29.8025C9.07773 30.3556 9.37404 30.8643 9.77404 31.284C10.5493 32.0791 11.6604 32.4741 13.1073 32.4791H13.9863L13.5419 31.6692ZM13.1172 31.9457C9.12218 31.9457 9.22095 28.5186 9.22095 28.5186C9.0086 29.1556 8.48515 29.6396 7.82836 29.7976C7.69502 29.8322 7.55181 29.847 7.41354 29.847C7.18638 29.847 6.96416 29.8174 6.74688 29.763C7.10737 28.8099 7.10737 27.7532 6.74688 26.8001C6.46539 26.0099 6.33206 25.1704 6.34688 24.3309C5.89256 24.889 5.19625 25.1951 4.47527 25.1507H4.45057C3.80859 25.1606 3.20614 24.8396 2.85552 24.3062C5.51725 23.2001 5.25552 19.6297 5.25552 19.6297C4.94935 19.8174 4.59379 19.9161 4.23329 19.9112H4.17897C2.69749 19.9112 2.20367 18.3408 2.20367 18.3408H2.2333C3.79873 18.2914 5.26538 17.5507 6.23329 16.3211C7.25058 15.0322 8.08021 13.8964 9.72465 13.4519L9.88762 13.4223L9.92218 13.2593C9.96663 13.0075 9.79379 12.7655 9.42836 12.5186C7.16168 11.0371 8.70243 9.14081 8.70243 9.14081C8.70243 9.14081 9.34441 10.6569 10.8012 10.6569H10.8703C11.0382 10.6519 11.2012 10.6371 11.3641 10.6075L11.6308 10.5532C11.4036 9.78279 11.6308 8.94822 12.2135 8.39513C12.7863 7.80254 13.5814 7.47168 14.4061 7.48155C14.5493 7.48155 14.6975 7.49143 14.8407 7.51612C14.3468 8.17291 13.9814 9.25933 14.5592 9.926C15.053 10.5038 16.2777 10.5285 16.2777 11.4075C16.2777 11.7729 15.937 12.1976 15.3296 12.5778C13.4925 13.7334 11.6703 15.2692 10.9147 17.3235C9.97157 19.8865 11.0382 21.5902 12.5592 22.563C12.2283 22.8396 11.8184 23.0124 11.3888 23.0569H10.9789C10.1839 23.0914 9.39873 22.8495 8.76169 22.3704C8.89009 23.047 9.19132 23.6791 9.6407 24.1976C10.3963 25.0717 11.5172 25.5556 12.6728 25.5062C12.6629 25.9754 12.4555 26.4198 12.095 26.7211C11.6999 26.9877 11.2505 27.1556 10.7765 27.2149C10.7765 27.2149 12.4999 27.5655 12.6876 30.1087C12.6826 30.7556 12.8407 31.3927 13.1419 31.9655L13.1172 31.9457Z" fill="#222220"/>
<path d="M4.21367 15.5901H4.2186C4.40626 15.5901 4.59885 15.5605 4.77663 15.5013C5.2507 15.2938 5.6507 14.9482 5.93218 14.5136C6.30255 14 6.78157 13.5704 7.33465 13.2543L8.02601 12.884L7.38404 12.4346C7.02848 12.2074 6.6186 12.079 6.19885 12.0741C5.6507 12.079 5.13218 12.3111 4.76181 12.7161C4.26799 13.2889 3.5865 13.679 2.84083 13.8173L2.14453 13.8519L2.42601 14.4938C2.77169 15.1655 3.45811 15.5852 4.21367 15.5901ZM5.10255 13.0519C5.3791 12.7408 5.77416 12.558 6.19391 12.558C6.5149 12.563 6.83095 12.6618 7.10255 12.8346C5.70502 13.5803 5.41367 14.7753 4.63342 15.0469C4.50502 15.0914 4.36675 15.1161 4.22848 15.1161C3.65564 15.1161 3.13218 14.8 2.86552 14.2963C3.73465 14.1531 4.52478 13.7136 5.10255 13.0519ZM7.35939 21.1605C7.27544 19.5901 7.66062 18.0296 8.47544 16.6815C7.96186 18.1728 8.36186 19.8321 9.50754 20.9185C9.50754 20.9185 6.76186 17.6296 10.5989 14.2617C12.1347 12.9778 13.8088 12.1877 14.673 11.6247C11.552 12.642 10.0261 11.521 10.0261 11.521C10.9001 12.2025 12.0261 12.4691 13.1125 12.2469C12.8952 12.3506 12.668 12.4642 12.4261 12.5926C9.79396 14.0247 7.41371 16.3803 7.02359 19.6395V19.6148C6.41124 22.8148 5.04828 23.6346 5.04828 23.6346C6.12976 23.1012 6.81618 21.6593 6.97914 21.1654C7.16186 23.9803 8.5347 25.9309 10.1396 27.8074C10.6285 28.3704 11.0137 29.0222 11.2656 29.7284C11.1322 29.0222 10.8261 28.3556 10.3767 27.7926C8.89519 25.9901 7.46309 23.7284 7.35939 21.1605ZM19.5964 15.2148C19.7692 15.0469 20.0112 14.9679 20.2532 14.9975V15.9308C20.2483 16.1629 20.189 16.3852 20.0754 16.5876H21.0087C20.8952 16.3852 20.8359 16.1629 20.831 15.9308V14.9975C21.068 14.9679 21.31 15.0469 21.4828 15.2148V14.5679H19.5964V15.2148ZM19.2063 10.7358H19.1964C19.3396 10.8593 19.5075 10.958 19.6903 11.0173L19.8088 11.0716V10.4593L18.7125 10C18.7668 10.3062 18.9446 10.5728 19.2063 10.7358ZM21.8088 10.7309L21.8038 10.7358C22.0656 10.5728 22.2433 10.3062 22.2977 10L21.2014 10.4593V11.0667L21.3149 11.0123C21.4977 10.9531 21.6656 10.8543 21.8088 10.7309Z" fill="#222220"/>
<path d="M23.774 8.25675C23.774 7.33329 22.2184 6.50366 20.5048 6.50366C18.7912 6.50366 17.2357 7.33329 17.2357 8.25675L17.2702 8.48391L17.9567 12.4345L17.2702 12.8345L15.4777 13.8518C15.4777 13.8518 15.0777 14.0592 14.89 14.1827C14.2135 14.6765 14.0702 15.3382 14.4604 15.6247C14.5591 14.953 15.1468 14.4592 15.8283 14.479C16.3962 14.4938 16.9246 14.7802 17.2456 15.2493C17.3443 15.3679 17.4332 15.4963 17.5122 15.6247C17.6159 15.7926 17.7196 15.9407 17.8233 16.0839H13.2505C13.6357 16.7456 13.8579 17.4913 13.9073 18.2567V28.4148C13.9073 30.8839 15.7986 32.0444 17.8579 32.0444C19.4382 32.0444 19.6505 31.9703 20.5196 32.8395C21.3888 31.9703 21.6011 32.0444 23.1814 32.0444C25.2258 32.0444 27.132 30.874 27.132 28.4148V18.2666C27.1814 17.5012 27.4036 16.7555 27.7888 16.0938H23.1665C23.2702 15.9506 23.374 15.8024 23.4777 15.6345C23.5616 15.5061 23.6505 15.3777 23.7443 15.2592C24.0702 14.7901 24.5986 14.5037 25.1665 14.4888C25.848 14.4691 26.4357 14.9629 26.5344 15.6345C26.9295 15.353 26.7863 14.6469 26.1048 14.1926C25.9221 14.0642 25.5221 13.8617 25.5221 13.8617L23.7443 12.8148L23.0579 12.4148L23.7443 8.46416L23.774 8.25675ZM17.8974 8.71107L20.3073 9.52588V13.3086L18.5344 12.3703L17.8974 8.71107ZM14.2381 16.7506H18.3912C18.7122 17.0864 19.1073 17.353 19.5419 17.5209C19.448 17.8469 19.4727 18.1975 19.6061 18.5086C19.7641 18.8395 20.0456 19.0963 20.3912 19.2296C20.4554 19.7975 20.8406 20.2716 21.3789 20.4592C21.0826 20.7605 20.7912 21.0419 20.6727 21.1555L17.9122 21.1111C17.8184 21.0666 17.7443 20.9975 17.6949 20.9086V20.874L18.1443 20.9481H18.174C18.2628 20.9481 18.3369 20.8888 18.3517 20.8C18.3665 20.7012 18.3023 20.6123 18.2036 20.5926L17.6505 20.5037L18.2628 18.3802L17.6801 17.1555L16.7468 18.1432L16.6875 20.3506L16.0604 20.2518C15.9616 20.2321 15.8727 20.2963 15.853 20.395V20.4C15.8381 20.4987 15.9023 20.5876 16.0011 20.6074L16.2628 20.6469C16.169 20.7012 16.1048 20.7407 16.0999 20.7506L16.0456 20.7901V20.8543C15.9221 21.4172 16.1493 22 16.6135 22.3358V22.4148C16.5838 22.6074 16.7172 22.7901 16.9098 22.8246H16.969C17.132 22.8246 17.2752 22.7111 17.3098 22.5481C17.4283 22.553 17.5419 22.553 17.6604 22.5481H17.7344L21.3542 23.2049L21.4135 23.1654C21.6999 22.9629 22.8011 22.1777 23.1616 21.8963C23.2653 21.9851 23.3838 22.0642 23.5073 22.1234C23.3394 22.6419 23.4678 23.2098 23.8431 23.6049H14.569V18.2666C14.5493 17.7481 14.4357 17.2345 14.2381 16.7506ZM22.8505 21.6345C22.4752 21.9111 21.5517 22.5827 21.2159 22.8197L17.932 22.2469V22.158C17.9863 21.9358 18.0159 21.7086 18.0209 21.4814L20.7863 21.5259L20.8406 21.4716C20.8851 21.4271 21.7591 20.5827 22.2036 20.0938C22.3221 20.2419 22.4604 20.3654 22.6184 20.4642C22.5394 20.8691 22.6233 21.2888 22.8505 21.6345ZM17.3641 21.0419V21.0567C17.4382 21.195 17.5468 21.3135 17.6801 21.3926C17.6752 21.595 17.6554 21.7926 17.6209 21.9901C17.6209 22.0345 17.6209 22.079 17.5863 22.1234V22.1926C17.3591 22.1926 17.1369 22.158 16.9196 22.0888C16.5246 21.8765 16.3023 21.4419 16.3665 20.9975C16.5443 20.874 16.7468 20.795 16.9591 20.7654C17.1419 20.7605 17.3048 20.8691 17.3641 21.0419ZM17.0233 20.3851L17.0777 18.2963L17.5715 17.8024L17.8727 18.4296L17.2851 20.4642L17.0233 20.3851ZM22.8258 31.3876H22.3517L22.7221 30.1777C22.7814 30.0098 22.4752 29.7925 22.3468 29.6C22.648 29.7827 22.9591 29.9456 23.2801 30.0938C23.2801 30.1333 22.8258 31.3876 22.8258 31.3876ZM24.0949 30.0345L24.0554 30L23.7986 31.3333C23.6357 31.3333 23.4628 31.3679 23.3048 31.3777L23.5764 30.0938C23.6554 29.7135 22.6332 29.6 22.1295 28.8444C21.7986 29.1209 21.374 29.2493 20.9493 29.2049C20.574 29.2 20.2036 29.1604 19.8381 29.0864C19.774 29.0814 19.7098 29.0814 19.6456 29.0864C19.4925 29.0765 19.3443 29.1555 19.2653 29.2888L19.1912 29.4123L17.7838 29.0716L17.448 29.6543C17.3937 29.7333 17.4036 29.8419 17.4727 29.9111L17.5665 30.0148C17.4727 30.1975 17.3542 30.3654 17.211 30.5086L17.0036 30.2518C16.8456 29.995 16.8604 29.6642 17.0382 29.4222L17.5912 28.4888L18.7715 28.6666L18.5888 28.2469C18.3419 27.6938 18.7172 26.9876 18.7567 26.5827C18.7567 26.7061 18.6283 26.7308 18.4999 26.7308H18.1591C18.1344 26.7259 18.1048 26.7259 18.0801 26.7308L17.7591 26.9234L17.5073 26.6913C17.4678 26.6172 17.4826 26.5284 17.5419 26.474L18.1246 25.8172L17.4332 25.0123L18.4209 25.5061L18.7172 25.1506C18.7962 25.2296 18.7616 25.437 18.7616 25.437C19.4777 25.6148 19.9764 26.2666 19.9567 27.0074V27.1506C20.0554 27.3086 20.2135 27.4172 20.3912 27.4617L21.7295 27.595C21.9962 27.5111 22.2678 27.4567 22.5443 27.4222C22.7814 27.4222 23.0184 27.4963 23.2159 27.6246C23.3098 27.5605 23.4233 27.5209 23.5369 27.516H23.5814C24.1789 27.516 24.4307 28.0592 24.7517 28.5037C24.9937 28.8444 25.3196 29.358 25.3196 29.358C25.2258 29.4963 25.0727 29.5802 24.9048 29.5802C24.8456 29.5851 24.7912 29.5851 24.732 29.5802C24.09 29.4617 23.9962 28.1382 23.6307 28.0345H23.5715C23.5023 28.0345 23.4382 28.074 23.4036 28.1382C23.5715 28.5876 23.4727 28.7703 23.6554 29.1259C23.7888 29.3382 23.9567 29.5308 24.1493 29.6938C24.1493 29.6938 24.1246 29.8913 24.0949 30.0345ZM16.8999 28.7407H16.89L16.9493 28.8938C16.9098 29.0271 16.4554 29.2197 16.4554 29.2197L16.3567 29.0024C16.2283 28.6913 16.3221 28.3358 16.5937 28.1333L17.3394 27.679L18.1344 27.8469C18.1295 28.0049 18.1789 28.158 18.2727 28.2864L17.4381 28.1284L16.9443 28.474C16.8653 28.5432 16.8505 28.6518 16.8999 28.7407ZM26.4505 28.4197C26.5048 29.7926 25.5517 30.9975 24.2036 31.2642L24.4307 30.0691C24.4307 30 24.4554 29.916 24.4653 29.8469C24.5344 29.8765 24.6036 29.8963 24.6727 29.9111C24.7517 29.916 24.8307 29.916 24.9098 29.9111C25.1814 29.9111 25.4382 29.7876 25.6011 29.5703L25.7789 29.3629L25.6307 29.1605C25.6307 29.1605 25.2999 28.637 25.053 28.2913L24.9147 28.0839C24.6381 27.6691 24.2875 27.1456 23.5912 27.1456H23.527C23.4283 27.1506 23.3246 27.1703 23.2307 27.2049C23.0184 27.1012 22.7863 27.0469 22.5493 27.0469C22.3122 27.0518 22.0752 27.0963 21.853 27.1802L21.7344 27.2148L20.4307 27.0864C20.3764 27.0617 20.332 27.0222 20.2974 26.9728L20.5789 26.8592C20.4999 25.916 19.5912 25.3382 19.0974 25.1456C19.0727 25.0419 19.0233 24.953 18.9493 24.879L18.6678 24.6123L18.4209 24.9086L18.2974 25.0567L16.4702 24.3061L17.6604 25.7876L17.1912 26.4987C17.0925 26.5975 17.0875 26.7605 17.1912 26.8642L17.6851 27.2L18.1789 27.0123H18.2283C18.2283 27.0864 18.174 27.3876 18.1493 27.4716L17.29 27.3234L16.3715 27.8172C15.9468 28.1234 15.7986 28.6864 16.0209 29.1605L16.1246 29.3827L16.2678 29.6987L16.5888 29.5654C16.4702 29.8864 16.5196 30.2419 16.727 30.5135L16.9196 30.7605L17.1764 31.0864L17.4628 30.7802C17.6505 30.5926 17.7986 30.3753 17.9023 30.1333L17.9616 29.9358L17.8233 29.7827V29.753L17.9814 29.4963L19.1221 29.7629L19.3789 29.8222L19.5172 29.595L19.5912 29.4716C19.5912 29.4469 19.5912 29.4419 19.6604 29.4419H19.7838C20.174 29.5209 20.569 29.5605 20.9641 29.5654C21.2307 29.5802 21.4974 29.5506 21.7542 29.4716L22.3863 30.1926L22.011 31.3481V31.4172C21.448 31.4074 20.9098 31.6395 20.5295 32.0493C19.9221 31.4469 19.4925 31.3827 17.8678 31.3827C15.9172 31.3827 14.5986 30.2419 14.5986 28.4197V23.9753H26.4505V28.4197ZM26.7715 16.7506C26.569 17.2296 26.4604 17.7432 26.4406 18.2666V21.595C26.011 21.5012 25.69 21.1358 25.6604 20.6963V20.5432H25.5122C25.2554 20.5234 25.0184 20.4049 24.8406 20.2222C24.6233 19.9703 24.5048 19.6543 24.4999 19.3234C24.2875 19.6691 24.3073 20.1135 24.5542 20.4395C24.7468 20.6814 25.0283 20.8444 25.3344 20.8839C25.4233 21.4567 25.8826 21.9012 26.4554 21.9753V23.6049H24.3814C23.8382 23.3284 23.611 22.6814 23.853 22.1234L23.932 21.9456L23.7493 21.8765C23.1567 21.6691 22.8307 21.0321 23.0184 20.4296L23.0579 20.2814L22.9196 20.2172C22.4011 19.916 22.1147 19.3284 22.1986 18.7358C21.927 19.0123 21.8579 19.4321 22.0307 19.7777C21.932 19.8913 21.8036 20.0246 21.6604 20.1728C21.1419 20.0642 20.7665 19.6148 20.7468 19.0864V18.9629L20.6332 18.9185C20.332 18.8296 20.0851 18.6222 19.9419 18.3456C19.848 18.1185 19.8283 17.8617 19.8925 17.6246C19.9912 17.6444 20.09 17.6592 20.1888 17.6691C20.2875 17.674 20.3912 17.674 20.49 17.6691C21.29 17.6691 22.0505 17.3234 22.5838 16.7308L26.7715 16.7506ZM23.5715 13.3827L24.3814 13.8765L24.5838 13.995C24.1641 14.1086 23.7838 14.3358 23.4826 14.6518L23.448 14.6814C23.3789 14.7555 23.3147 14.8296 23.2505 14.9086L23.211 14.958C23.1468 15.037 23.0875 15.1209 23.0332 15.2098L23.0036 15.2543C22.9344 15.353 22.8702 15.4617 22.8061 15.5703C22.3567 16.4642 21.4826 17.0617 20.49 17.1605C19.4974 17.0617 18.6233 16.4642 18.174 15.5703C18.1098 15.4617 18.0456 15.358 17.9814 15.2543L17.9419 15.2L17.7838 14.9432L17.7394 14.8888C17.6752 14.8098 17.611 14.7358 17.5468 14.6666L17.5122 14.6321C17.211 14.316 16.8307 14.0888 16.411 13.9753L16.6184 13.8567L17.4332 13.3629L18.2678 12.8691L20.4949 14.079L22.7221 12.9086L23.5715 13.3827ZM22.4752 12.395L20.7023 13.3284V9.53082L23.1073 8.71601L22.4752 12.395ZM20.4999 9.13082L17.8628 8.07403C18.0851 7.5407 19.1221 7.08638 20.4999 7.08638C21.8777 7.08638 22.9147 7.5407 23.1369 8.07403L20.4999 9.13082Z" fill="#222220"/>
</svg>
