<svg width="41" height="41" viewBox="0 0 41 41" fill="none" xmlns="http://www.w3.org/2000/svg">
<path d="M40.2647 20.0848C39.6935 18.6386 38.2831 17.851 36.7567 18.1266L33.62 18.6915C33.0992 18.7852 32.7536 19.2836 32.8464 19.8044C32.94 20.3252 33.4376 20.6713 33.9576 20.5784L37.0943 20.0135C37.8407 19.8789 38.3015 20.326 38.4839 20.7883C38.6671 21.2514 38.6351 21.8932 37.9991 22.3059L33.3952 25.2937C32.9672 25.5709 32.4464 25.5901 32.0008 25.3474C31.5544 25.1046 31.2872 24.6551 31.2872 24.1463V14.4649C31.2872 13.9353 30.8592 13.5059 30.3304 13.5059C29.8016 13.5059 29.3736 13.9353 29.3736 14.4649V24.1479C29.3736 25.3706 30.0136 26.4491 31.0864 27.0332C31.5848 27.304 32.1216 27.4394 32.656 27.4394C33.2728 27.4394 33.8872 27.2607 34.436 26.9042L39.0399 23.9163C40.3439 23.0702 40.8359 21.5311 40.2647 20.0848ZM24.0704 18.1274L20.9336 18.6923C20.4136 18.786 20.068 19.2844 20.1608 19.8052C20.2544 20.326 20.752 20.6721 21.272 20.5792L24.4088 20.0143C25.156 19.8797 25.616 20.3268 25.7992 20.7891C25.9816 21.2522 25.9504 21.894 25.3136 22.3067L20.7096 25.2945C20.2824 25.5717 19.7616 25.5909 19.3152 25.3482C18.8688 25.1054 18.6024 24.6559 18.6024 24.1471V16.7917C18.6024 15.5682 17.9624 14.4898 16.8896 13.9057C15.8168 13.3224 14.5648 13.3705 13.54 14.0347L1.95928 21.5495C0.656089 22.3948 0.164092 23.934 0.735289 25.3802C1.30569 26.8256 2.71528 27.6125 4.24327 27.3376L14.3544 25.5172C14.8744 25.4235 15.2208 24.9251 15.1272 24.4043C15.0336 23.8835 14.536 23.5366 14.016 23.6303L3.90488 25.4507C3.15768 25.5853 2.69768 25.1382 2.51528 24.6759C2.33208 24.2128 2.36328 23.571 3.00008 23.1576L14.5784 15.6444C15.0048 15.3679 15.5264 15.3479 15.9728 15.5907C16.4192 15.8343 16.6856 16.2838 16.6856 16.7925V24.1479C16.6856 25.3706 17.3256 26.4491 18.3984 27.0332C18.8968 27.304 19.4344 27.4394 19.9688 27.4394C20.5856 27.4394 21.1992 27.2607 21.748 26.9042L26.3528 23.9163C27.6552 23.071 28.1472 21.5319 27.5768 20.0856C27.008 18.6386 25.5968 17.8526 24.0704 18.1274Z" fill="#009C32"/>
</svg>
