<svg width="201" height="51" viewBox="0 0 201 51" fill="none" xmlns="http://www.w3.org/2000/svg">
<path d="M44.3305 32.3491C43.9185 32.3491 43.6798 32.5963 43.6798 33.0435V36.576H38.2582V33.0435C38.2582 32.5986 38.0195 32.3491 37.6075 32.3491C37.2 32.3491 36.9568 32.5963 36.9568 33.0435V41.5603C36.9568 42.0052 37.2 42.2524 37.6075 42.2524C38.0195 42.2524 38.2582 42.0052 38.2582 41.5603V37.7895H43.6798V41.5603C43.6798 42.0052 43.9185 42.2524 44.3305 42.2524C44.738 42.2524 44.9767 42.0052 44.9767 41.5603V33.0435C44.9789 32.5963 44.738 32.3491 44.3305 32.3491ZM51.0242 37.185L54.7955 33.421C54.9734 33.2435 55.0499 33.0997 55.0499 32.8974C55.0499 32.6008 54.845 32.3491 54.4938 32.3491C54.3114 32.3491 54.1651 32.4121 54.0007 32.5739L50.315 36.2525C50.1079 36.4592 49.8985 36.5738 49.6058 36.5738H48.847V33.0413C48.847 32.5963 48.6084 32.3469 48.1963 32.3469C47.7888 32.3469 47.5457 32.5941 47.5457 33.0413V41.558C47.5457 42.0029 47.7888 42.2501 48.1963 42.2501C48.6084 42.2501 48.847 42.0029 48.847 41.558V37.7873H49.518C49.8084 37.7873 50.0178 37.9041 50.2249 38.1086L54.1381 42.0142C54.3114 42.185 54.4623 42.2501 54.6559 42.2501C55.0252 42.2501 55.239 41.9872 55.239 41.6771C55.239 41.4636 55.158 41.3131 54.9711 41.1266L51.0242 37.185ZM59.1679 20.6234C58.5825 20.9313 57.781 21.1515 57.0132 21.1515C55.7479 21.1515 54.9554 20.6055 54.9554 19.6527C54.9554 18.7943 55.6331 18.1291 57.0042 18.1291C57.727 18.1291 58.3664 18.2347 59.1679 18.4729V20.6234ZM57.1866 12.7157C56.0856 12.7157 55.0927 12.9966 54.4578 13.255C53.9219 13.473 53.6945 13.7831 53.6968 14.1966C53.7013 14.6842 54.0705 15.0415 54.5298 15.0415C54.7505 15.0415 54.9959 14.9561 55.2571 14.8527C55.6713 14.6864 56.3535 14.5067 57.0357 14.5067C58.551 14.5067 59.1679 15.0775 59.1679 16.2437V17.0302C58.2966 16.7965 57.5851 16.6932 56.7701 16.6932C54.2889 16.6932 53.0776 18.1044 53.0776 19.6527C53.0776 21.4437 54.4353 22.792 56.8399 22.792C58.7086 22.792 60.1316 22.1717 60.7012 21.7807C60.9736 21.592 61.0704 21.4122 61.0704 21.0459V16.2864C61.0682 13.837 59.6565 12.7157 57.1866 12.7157ZM80.922 19.0617C80.4762 19.0707 80.2262 19.3358 80.0574 19.6302C79.7151 20.365 78.9924 20.8841 78.004 20.8841C76.6081 20.8841 75.7863 20.0437 75.6714 18.801C75.6107 18.1358 75.6107 17.3673 75.6714 16.7022C75.7863 15.4572 76.6193 14.6168 78.004 14.6168C78.9924 14.6168 79.7084 15.1269 80.0574 15.8797C80.233 16.1651 80.4762 16.437 80.922 16.4415C81.4938 16.446 81.8788 16.0909 81.8788 15.5314C81.8788 15.2415 81.7685 14.9516 81.5929 14.6348C81.0188 13.5674 79.7714 12.7134 77.977 12.7134C75.5544 12.7134 73.9243 14.2393 73.7216 16.4213C73.6518 17.1471 73.6518 18.3493 73.7216 19.0774C73.9333 21.2594 75.5544 22.7897 77.977 22.7897C79.7714 22.7897 81.0188 21.9403 81.5996 20.8661C81.7753 20.547 81.8811 20.2594 81.8811 19.9695C81.8788 19.419 81.4916 19.0482 80.922 19.0617ZM36.7002 21.0167L33.3049 17.628L36.5268 14.4123C36.7767 14.1629 36.905 13.9157 36.905 13.6303C36.905 13.1561 36.5606 12.8033 36.0697 12.8033C35.7838 12.8033 35.5699 12.9067 35.293 13.1831L32.0193 16.4505C31.8414 16.6302 31.65 16.7314 31.3956 16.7314H30.7269V13.8415C30.7269 13.1853 30.3442 12.8033 29.7408 12.8033C29.1419 12.8033 28.7614 13.1853 28.7614 13.8415V21.6616C28.7614 22.3178 29.1441 22.7043 29.7408 22.7043C30.3442 22.7043 30.7269 22.3178 30.7269 21.6616V18.5403H31.2853C31.5397 18.5403 31.7311 18.6415 31.909 18.8212L35.4033 22.3066C35.6915 22.5942 35.9166 22.7066 36.2161 22.7066C36.7339 22.7066 37.0964 22.338 37.0964 21.8369C37.0964 21.538 36.9636 21.2774 36.7002 21.0167ZM69.8491 18.8032C69.7342 20.0504 68.9575 20.8931 67.5345 20.8931C66.7983 20.8931 65.8729 20.6684 65.4158 20.347V15.1606C65.8729 14.8348 66.796 14.61 67.5345 14.61C68.9575 14.61 69.7365 15.4572 69.8491 16.7044C69.9053 17.3314 69.9098 18.1246 69.8491 18.8032ZM67.5953 12.7157C65.8751 12.7157 64.4995 13.3224 63.9456 13.6483C63.4931 13.9157 63.4458 14.1269 63.4458 14.8797V24.902C63.4458 25.5537 63.8263 25.9402 64.4252 25.9402C65.0286 25.9402 65.4136 25.5537 65.4136 24.902V22.2863C66.0035 22.5717 66.9063 22.792 67.7664 22.792C70.0404 22.792 71.603 21.2796 71.8079 19.0976C71.8777 18.3628 71.8777 17.1516 71.8079 16.41C71.6075 14.2235 70.0427 12.7157 67.5953 12.7157ZM33.2959 40.4502C32.5754 40.8367 31.596 41.1198 30.6886 41.1198C29.0653 41.1198 28.1489 40.4322 28.1489 39.2434C28.1489 38.176 28.955 37.3783 30.6886 37.3783C31.5487 37.3783 32.276 37.5041 33.2959 37.8052V40.4502ZM30.9678 32.2637C29.8331 32.2637 28.7276 32.5716 28.1287 32.8435C27.7257 33.0188 27.5433 33.2053 27.5523 33.5266C27.5636 33.8592 27.8202 34.1221 28.1377 34.1221C28.293 34.1221 28.4799 34.0615 28.6623 33.9761C29.1216 33.7806 29.9884 33.5222 30.8372 33.5222C32.5169 33.5222 33.2959 34.2053 33.2959 35.7266V36.6322C32.2422 36.3266 31.4834 36.221 30.5738 36.221C28.1129 36.221 26.8633 37.6345 26.8633 39.2322C26.8633 41.1086 28.2773 42.3423 30.5175 42.3423C32.3683 42.3423 33.7845 41.6928 34.3068 41.3131C34.5185 41.1625 34.5792 41.0412 34.5792 40.7535V35.6929C34.5792 33.3514 33.2216 32.2637 30.9678 32.2637ZM21.48 40.8883H17.801V35.6817H21.48C23.405 35.6817 24.1976 36.6232 24.1976 38.2502C24.1976 39.9131 23.405 40.8883 21.48 40.8883ZM21.6466 34.4323H17.801V30.4143H24.2088C24.6366 30.4143 24.9315 30.1761 24.9315 29.7671C24.9315 29.3761 24.6366 29.1334 24.2088 29.1334H17.6367C16.9004 29.1334 16.4794 29.5424 16.4794 30.2862V41.0097C16.4794 41.7535 16.8982 42.1647 17.6367 42.1647H21.6444C24.1075 42.1647 25.535 40.7355 25.535 38.2389C25.535 35.8098 24.1098 34.4323 21.6466 34.4323ZM44.254 16.4437H47.4781C49.0024 16.4437 49.6823 17.219 49.6823 18.5561C49.6823 19.9156 49.0024 20.7268 47.4781 20.7268H44.254V16.4437ZM43.7676 22.6167H47.6898C50.2407 22.6167 51.7515 21.138 51.7515 18.5134C51.7515 16.037 50.2407 14.6527 47.6898 14.6527H44.254V11.4887H50.0268C50.6572 11.4887 51.067 11.118 51.067 10.5247C51.067 9.96067 50.6572 9.58764 50.0268 9.58764H43.7676C42.777 9.58764 42.2344 10.1247 42.2344 11.118V21.0886C42.2321 22.0819 42.7747 22.6167 43.7676 22.6167ZM19.305 16.7359L21.1062 11.6078C21.176 11.4281 21.2346 11.3651 21.3697 11.3651C21.5025 11.3651 21.561 11.4281 21.6263 11.6078L23.4366 16.7359H19.305ZM27.2529 21.7583C27.2529 21.5762 27.2213 21.3987 27.1178 21.1246L23.4838 11.2236C23.0448 10.0146 22.4054 9.5 21.3877 9.5C20.3745 9.5 19.7306 10.0146 19.2938 11.2236L15.6351 21.1291C15.5225 21.4369 15.5 21.6212 15.5 21.765C15.5 22.2796 15.9098 22.7066 16.4794 22.7066C16.9455 22.7066 17.2944 22.4729 17.4881 21.9021L18.6724 18.5358H24.076L25.2693 21.9111C25.4584 22.4729 25.8074 22.7066 26.2667 22.7066C26.8453 22.7066 27.2529 22.2774 27.2529 21.7583Z" fill="#170030"/>
<path d="M185.947 24.9826C184.604 21.5821 181.288 19.7302 177.699 20.3783L170.323 21.7065C169.099 21.9269 168.286 23.0987 168.504 24.3232C168.724 25.5478 169.894 26.3616 171.117 26.1431L178.492 24.8149C180.247 24.4984 181.331 25.5497 181.76 26.6367C182.19 27.7256 182.115 29.2346 180.62 30.2048L169.795 37.2299C168.788 37.8818 167.564 37.927 166.516 37.3562C165.467 36.7853 164.838 35.7285 164.838 34.5322V11.7688C164.838 10.5236 163.832 9.51378 162.589 9.51378C161.345 9.51378 160.339 10.5236 160.339 11.7688V34.5359C160.339 37.4108 161.844 39.9465 164.366 41.3199C165.538 41.9567 166.8 42.2751 168.057 42.2751C169.507 42.2751 170.952 41.8549 172.242 41.0166L183.067 33.9915C186.133 32.0021 187.29 28.3831 185.947 24.9826ZM147.87 20.3802L140.494 21.7084C139.272 21.9288 138.459 23.1006 138.677 24.3251C138.897 25.5497 140.067 26.3635 141.29 26.145L148.665 24.8168C150.422 24.5003 151.504 25.5515 151.935 26.6386C152.364 27.7275 152.29 29.2365 150.793 30.2067L139.968 37.2318C138.963 37.8836 137.739 37.9289 136.689 37.358C135.64 36.7872 135.013 35.7303 135.013 34.5341V17.2397C135.013 14.363 133.508 11.8272 130.986 10.4538C128.464 9.08236 125.52 9.1954 123.11 10.7572L95.8814 28.4264C92.8172 30.4139 91.6604 34.0329 93.0035 37.4334C94.3446 40.832 97.6589 42.682 101.251 42.0358L125.025 37.7555C126.248 37.5351 127.062 36.3633 126.842 35.1388C126.622 33.9142 125.452 33.0985 124.229 33.3189L100.456 37.5992C98.6991 37.9157 97.6175 36.8645 97.1887 35.7774C96.7579 34.6885 96.8313 33.1795 98.3286 32.2074L125.552 14.5419C126.554 13.892 127.781 13.8449 128.83 14.4157C129.88 14.9884 130.506 16.0453 130.506 17.2416V34.5359C130.506 37.4108 132.011 39.9465 134.534 41.3199C135.705 41.9567 136.969 42.2751 138.226 42.2751C139.676 42.2751 141.119 41.8549 142.409 41.0166L153.236 33.9915C156.299 32.004 157.455 28.385 156.114 24.9845C154.777 21.5821 151.459 19.734 147.87 20.3802Z" fill="#009C32"/>
</svg>
