<svg width="201" height="50" viewBox="0 0 201 50" fill="none" xmlns="http://www.w3.org/2000/svg">
<path d="M58.6184 22.3659L59.2625 20.3431L57.1675 20.4094C56.1863 20.3732 55.2411 20.0421 54.4465 19.4582H54.7294C56.0057 19.4522 57.1736 18.7237 57.7394 17.5799L58.6605 15.6114C57.9381 15.6174 57.2157 15.5752 56.4993 15.4849C55.813 15.3224 55.199 14.9492 54.7354 14.4194C54.1093 13.7512 53.2425 13.3719 52.3274 13.3659C51.9722 13.3659 51.617 13.4261 51.2739 13.5344C51.3221 13.3719 51.3642 13.2094 51.3943 13.0408C51.5388 11.8669 51.2077 10.6809 50.4792 9.74782L48.8899 7.7913L47.9147 10.0789C47.7582 10.404 47.5234 10.687 47.2224 10.8916C47.0538 10.0729 46.6565 9.32642 46.0665 8.73645C45.0793 7.72508 43.7247 7.1592 42.31 7.17124C42.0632 7.17124 41.8164 7.1893 41.5756 7.22542L39.6732 7.59866C39.8358 6.96053 40.0946 6.35251 40.4438 5.79264L41.4913 4.1612L38.8545 4.40803L38.0117 2.60201L36.3863 3.48696L34.8813 2L33.3762 3.48696L31.7508 2.64415L30.908 4.40803L28.2712 4.10702L29.3187 5.74448C29.6679 6.30435 29.9267 6.91237 30.0893 7.5505L28.2833 7.19532H28.2231C27.9702 7.1592 27.7174 7.14114 27.4645 7.14114C26.0498 7.1291 24.6953 7.69498 23.708 8.70635C23.112 9.30234 22.7027 10.0609 22.5401 10.8916C22.2512 10.693 22.0164 10.4221 21.8599 10.103L20.8786 7.79732L19.2773 9.75986C18.5609 10.693 18.2418 11.8729 18.3803 13.0408C18.4104 13.2094 18.4525 13.3719 18.5007 13.5344C18.1575 13.4261 17.8023 13.3659 17.4472 13.3659C16.5321 13.3719 15.6652 13.7512 15.0391 14.4194C14.5816 14.9431 13.9736 15.3164 13.2933 15.4849C12.5709 15.5933 11.8365 15.6354 11.102 15.6114L11.999 17.61C12.5649 18.7538 13.7328 19.4823 15.009 19.4883H15.292C14.5094 20.0602 13.5763 20.3913 12.607 20.4334L10.5 20.3431L11.1441 22.3659C11.6258 23.9492 12.9923 25.111 14.6358 25.3217C14.4672 26.3873 13.793 27.3084 12.8298 27.79L11.2164 28.4461L12.0833 29.9572C12.7997 31.0709 14.0338 31.7331 15.3522 31.7211C15.6953 31.7211 16.0385 31.6849 16.3756 31.6127C16.4599 31.9799 16.5682 32.3471 16.6886 32.7023C16.9896 33.497 17.0077 34.3639 16.7488 35.1706L15.9662 36.814L17.7181 37.2776C18.1094 37.3799 18.5187 37.4281 18.9221 37.4281C19.211 37.4281 19.494 37.398 19.7769 37.3318C19.9816 37.2836 20.1863 37.2234 20.3789 37.1451C20.6017 37.5485 20.8846 37.9217 21.2037 38.2528C22.3234 39.4027 23.9127 39.9866 25.9294 39.9866H27.3682L24.4003 41.2207L26.6518 42.3344C27.5609 42.7799 28.488 43.1833 29.4331 43.5384L29.1622 44.3211L29.9388 44.6762C31.2271 45.1819 32.5936 45.4649 33.9783 45.513H35.8264C37.205 45.4649 38.5655 45.1759 39.8478 44.6702L40.6003 44.3211L40.3354 43.5384C41.2926 43.1712 42.2318 42.7558 43.1468 42.2923L45.3562 41.2207L42.3943 40.0167H43.8391C45.8558 40.0167 47.4512 39.4147 48.5649 38.2829C48.8899 37.9518 49.1669 37.5786 49.3896 37.1752C49.5823 37.2535 49.7869 37.3137 49.9916 37.3619C50.2746 37.4281 50.5575 37.4582 50.8465 37.4582C51.2498 37.4582 51.6592 37.404 52.0505 37.3077L53.8083 36.8441L53.0438 35.2308C52.7548 34.412 52.7669 33.515 53.0739 32.7023C53.2003 32.3351 53.3027 31.9619 53.3869 31.5886C53.7241 31.6609 54.0732 31.697 54.4164 31.697C55.7468 31.709 56.9869 31.0227 57.6913 29.891L58.5461 28.398L56.9568 27.7478C55.9936 27.2662 55.3194 26.3451 55.1508 25.2796C56.7943 25.0629 58.1609 23.907 58.6425 22.3177L58.6184 22.3659Z" fill="white"/>
<path d="M42.1176 28.7592H27.6694V34.1772C27.6694 36.4047 29.2768 37.7893 31.6547 37.7893C33.6413 37.7893 34.1651 37.8675 34.8995 38.602C35.3631 38.1023 36.0192 37.8194 36.7055 37.8314V37.7471L37.1631 36.3384L36.3865 35.4896C36.0734 35.5859 35.7483 35.6221 35.4233 35.604C34.9356 35.598 34.454 35.5498 33.9784 35.4535H33.8279C33.7617 35.4535 33.7617 35.4535 33.7437 35.4896L33.6534 35.6401L33.4908 35.911L33.1778 35.8388L31.7871 35.5137L31.5945 35.8267V35.8629L31.7631 36.0495L31.6908 36.2903C31.5644 36.5853 31.3838 36.8501 31.155 37.0789L30.8059 37.4522L30.4868 37.0548L30.252 36.7598C29.9992 36.4287 29.939 35.9953 30.0835 35.604L29.6922 35.7665L29.5176 35.3813L29.4213 35.1103C29.1744 34.5384 29.361 33.8762 29.8607 33.515L30.9804 32.913L32.046 33.1237C32.046 33.0214 32.1122 32.6542 32.1423 32.5639H32.0821L31.4801 32.7926L30.8781 32.3833C30.7577 32.2629 30.7517 32.0642 30.8781 31.9378L31.45 31.0709L29.9992 29.2649L32.1724 30.1197L32.3229 29.9391L32.6239 29.5779L32.9671 29.903C33.0574 29.9933 33.1176 30.1017 33.1477 30.2281C33.7497 30.4689 34.8634 31.1732 34.9537 32.317L34.6105 32.4555C34.6527 32.5157 34.7069 32.5639 34.7731 32.594L36.3624 32.7505L36.5069 32.7083C36.7778 32.606 37.0667 32.5518 37.3557 32.5458C37.6447 32.5458 37.9276 32.612 38.1865 32.7384C38.3008 32.6963 38.4273 32.6722 38.5477 32.6662H38.6259C39.4748 32.6662 39.9022 33.3043 40.2393 33.81L40.4139 34.0629C40.7089 34.4843 41.1002 35.0983 41.1182 35.1224L41.2928 35.3933L41.0761 35.6461C40.8774 35.911 40.5644 36.0615 40.2333 36.0615C40.137 36.0675 40.0406 36.0675 39.9443 36.0615C39.86 36.0435 39.7758 36.0194 39.6915 35.9833C39.6915 36.0675 39.6915 36.1699 39.6433 36.2542L39.3965 37.6749C41.034 37.3438 42.1898 35.8749 42.1236 34.2013L42.1176 28.7592ZM27.6514 28.3197H38.9029C38.4453 27.8381 38.2888 27.1458 38.4935 26.5137C38.343 26.4415 38.1985 26.3451 38.0721 26.2368C37.6326 26.5619 36.2661 27.5371 35.941 27.7839L35.8688 27.8321L31.45 27.0495H31.3597C31.2152 27.0555 31.0708 27.0555 30.9263 27.0495C30.8841 27.2481 30.7096 27.3866 30.5109 27.3866H30.4387C30.2039 27.3445 30.0413 27.1217 30.0775 26.8869V26.7906C29.5055 26.3813 29.2346 25.6709 29.3851 24.9846V24.9063L29.4514 24.8582C29.4514 24.8582 29.5356 24.798 29.65 24.7318L29.331 24.6836C29.2106 24.6595 29.1323 24.5512 29.1504 24.4308C29.1684 24.3104 29.2768 24.2321 29.3972 24.2502H29.4032L30.1678 24.3706L30.24 21.6796L31.3778 20.4756L32.0882 21.9685L31.3417 24.5572L32.0159 24.6655C32.1363 24.6896 32.2146 24.798 32.1965 24.9184C32.1785 25.0267 32.0882 25.099 31.9798 25.099H31.9437L31.3958 25.0087V25.0508C31.456 25.1592 31.5464 25.2435 31.6607 25.2976L35.0259 25.3518L35.8868 24.503C35.2306 24.2742 34.7611 23.6963 34.6828 23.004C34.2614 22.8415 33.9183 22.5284 33.7256 22.1251C33.5631 21.7458 33.533 21.3184 33.6474 20.9211C33.1176 20.7104 32.636 20.3913 32.2447 19.9819H27.248C27.4888 20.5719 27.6273 21.198 27.6514 21.8301V28.3197Z" fill="#FCE527"/>
<path d="M66.4863 23.6722H71.4468V32.1003H75.0588V23.6722H80.0194V20.614H66.4863V23.6722ZM84.7873 27.2843V20.6622H81.2957V32.1003H84.378L90.398 25.406V32.1003H93.8897V20.614H90.8074L84.7873 27.2843ZM105.515 24.8762H99.9037V20.6622H96.412V32.1003H99.9037V27.814H105.515V32.1003H109.006V20.6622H105.515V24.8762ZM121.185 23.9853C120.36 23.7324 119.493 23.6301 118.632 23.6722H115.02V20.6622H111.529V32.1003L118.608 32.0522C119.349 32.0642 120.083 31.9799 120.8 31.7873C122.618 31.3418 123.87 29.6863 123.81 27.814C123.882 26.0983 122.816 24.5331 121.185 23.9853ZM119.403 29.1625C118.963 29.313 118.494 29.3732 118.03 29.3311H115.02V26.4174H118.03C118.482 26.3873 118.939 26.4415 119.379 26.5619C119.933 26.7244 120.306 27.2361 120.294 27.814C120.3 28.404 119.951 28.9398 119.403 29.1625ZM138.438 20.6622H134.056L129.842 24.9726H128.879V20.6622H125.387V32.1003H128.879V27.7659H129.842L134.008 32.1003H138.655L132.852 26.0803L138.438 20.6622Z" fill="#222220"/>
<path d="M145.952 20.3009C141.232 20.3009 138.414 22.9497 138.414 26.3691C138.414 29.7885 141.256 32.4373 145.927 32.4373C150.599 32.4373 153.416 29.7885 153.416 26.3691C153.416 22.9497 150.671 20.3009 145.952 20.3009ZM145.927 29.644C143.592 29.644 142.099 28.2474 142.099 26.3691C142.099 24.4909 143.616 23.1183 145.927 23.1183C148.239 23.1183 149.756 24.4909 149.756 26.3691C149.756 28.2474 148.263 29.644 145.927 29.644ZM164.921 21.1196V19.9638H161.429V21.1196C157.046 21.2159 154.422 23.0701 154.422 26.345C154.422 29.62 157.046 31.3297 161.429 31.426V32.5818H164.921V31.426C169.327 31.3297 171.952 29.62 171.952 26.345C171.952 23.0701 169.333 21.2159 164.921 21.1196ZM161.429 28.9698C159.021 28.8735 157.961 27.8862 157.961 26.345C157.961 24.8039 159.021 23.6962 161.429 23.5999V28.9698ZM164.921 28.9698V23.5999C167.353 23.6962 168.388 24.8039 168.388 26.345H168.394C168.394 27.8862 167.359 28.8735 164.921 28.9698ZM183.468 21.1196V19.9638H179.977V21.1196C175.594 21.2159 172.969 23.0701 172.969 26.345C172.969 29.62 175.594 31.3297 179.977 31.426V32.5818H183.468V31.426C187.875 31.3297 190.5 29.62 190.5 26.345C190.5 23.0701 187.875 21.2159 183.468 21.1196ZM179.977 28.9698C177.569 28.8735 176.509 27.8862 176.509 26.345C176.509 24.8039 177.569 23.6962 179.977 23.5999V28.9698ZM186.93 26.345C186.93 27.8862 185.901 28.8735 183.468 28.9698V23.5999C185.901 23.6962 186.936 24.8039 186.936 26.345H186.93ZM32.2688 31.125C32.1965 31.125 32.1303 31.1792 32.1243 31.2514V31.2574C32.1183 31.3357 32.1785 31.4079 32.2567 31.4139H32.2627C32.347 31.4139 32.4072 31.3477 32.4072 31.2695C32.4072 31.1852 32.347 31.125 32.2688 31.125ZM32.2628 31.1189C32.2688 31.1189 32.2688 31.125 32.2688 31.125C32.2748 31.125 32.2748 31.1189 32.2808 31.1189H32.2628ZM42.0995 40.9919L41.2687 40.6728L41.4975 39.8119L41.7503 38.8728C40.6125 39.4567 39.4206 39.9263 38.1925 40.2755C37.5905 40.444 37.157 40.5223 37.157 40.5223V41.1303C36.4166 41.2507 35.6701 41.3169 34.9176 41.323H34.8513C34.0988 41.3169 33.3523 41.2507 32.6119 41.1303V40.5283C32.6119 40.5283 32.1724 40.444 31.5704 40.2755C30.3423 39.9263 29.1503 39.4567 28.0125 38.8728L28.2594 39.8119L28.4941 40.6728L27.6574 40.9919L26.7544 41.335C27.9945 41.9791 29.2888 42.5149 30.6253 42.9363L30.3062 43.8032C31.757 44.3571 33.3102 44.628 34.8634 44.5919H34.8995C36.4527 44.628 38.0059 44.3571 39.4567 43.8032L39.1436 42.9363C40.4741 42.5149 41.7684 41.9791 43.0085 41.335L42.0995 40.9919ZM27.7597 41.3892L29.1082 40.9377L28.7049 39.6133C29.5898 40.0527 30.5049 40.42 31.45 40.7089L30.7878 42.5149C29.7463 42.238 28.7289 41.8588 27.7597 41.3892ZM34.9176 44.1644L34.8875 44.1404C33.563 44.1343 32.2446 43.9537 30.9684 43.6046L31.7811 41.4012C32.7925 41.6541 33.8339 41.7925 34.8814 41.7985H34.9477C35.9952 41.7865 37.0366 41.6541 38.048 41.4012L38.8607 43.6046C37.5784 43.9658 36.248 44.1524 34.9176 44.1644ZM39.0232 42.5511V42.533L38.361 40.727C39.3062 40.438 40.2212 40.0708 41.1062 39.6313L40.7028 40.9557L42.0694 41.4133C41.0941 41.8889 40.0707 42.2741 39.0232 42.5511ZM34.8814 6.62931C36.2419 6.59319 37.5784 7.00255 38.686 7.79118C38.8606 6.90021 39.1917 6.04536 39.6673 5.26877L38.3008 5.42529L37.5904 3.90222L36.2118 4.61259L34.8814 3.29419L33.5509 4.61259L32.1723 3.90222L31.462 5.42529L30.0954 5.26877C30.571 6.04536 30.9021 6.90021 31.0767 7.79118C32.1844 7.00255 33.5208 6.59319 34.8814 6.62931ZM31.4018 5.95506L31.781 5.9972L31.9436 5.65406L32.4192 4.63065L33.3041 5.08817L33.6473 5.26275L33.9242 5.00991L34.8814 4.04068L35.8386 5.00991L36.1155 5.28081L36.4586 5.10623L37.3376 4.64871L37.8192 5.67212L37.9817 6.01526L38.361 5.97312L38.7222 5.93098C38.5777 6.26208 38.4513 6.60523 38.3489 6.95439C36.1757 5.84068 33.5931 5.84068 31.4198 6.95439C31.3175 6.60523 31.1911 6.26208 31.0466 5.93098L31.4018 5.95506ZM52.737 19.0547L52.5744 18.8561C51.4547 17.4293 50.3891 16.0748 48.4868 15.4547C48.5651 15.3885 48.6433 15.3283 48.7276 15.2741C49.6306 14.7624 50.2687 13.8835 50.4734 12.8661C50.5758 11.945 50.3169 11.024 49.751 10.2895L49.149 9.537L48.7697 10.434C48.7697 10.4882 48.1015 11.927 46.753 11.927H46.3557C46.4279 10.9818 46.0848 10.0487 45.4166 9.37446C44.6039 8.54369 43.4841 8.08015 42.3223 8.08617C42.1055 8.08617 41.8888 8.10423 41.6781 8.13433L40.757 8.31493L41.3289 9.06744C41.7744 9.66944 42.1778 10.7109 41.7022 11.2708C41.4734 11.4695 41.2146 11.626 40.9316 11.7343C40.3296 12.0173 39.4627 12.4206 39.4627 13.432C39.4627 14.0882 39.9744 14.7745 40.8955 15.3584C43.6105 17.0802 45.2901 18.8561 46.0186 20.8547C47.1443 23.9009 45.6754 25.6347 44.2487 26.5497L43.6105 26.9591L44.1704 27.4708C44.6701 27.8982 45.2841 28.1631 45.9403 28.2293H46.4881C47.048 28.2293 47.6019 28.1511 48.1376 27.9885C48.0052 28.2233 47.8427 28.446 47.6681 28.6507C46.8554 29.5959 45.6513 30.1136 44.4052 30.0474H43.8694L43.8273 30.5832C43.8213 31.3357 44.1524 32.046 44.7243 32.5337C44.8748 32.6661 45.0433 32.7745 45.2239 32.8587C44.333 33.7256 43.8273 34.9116 43.8092 36.1577C43.8092 36.838 43.6527 37.5123 43.3577 38.1263L42.7557 39.0293H43.8273C45.5972 39.0293 46.9517 38.5417 47.8908 37.5725C48.3784 37.0608 48.7396 36.4407 48.9503 35.7664C49.2995 36.0614 49.7089 36.2661 50.1544 36.3684C50.3651 36.4166 50.5818 36.4407 50.7985 36.4407C51.1236 36.4407 51.4487 36.3985 51.7617 36.3263L52.448 36.1457L52.147 35.5076C51.7677 34.4902 51.7677 33.3644 52.147 32.347C52.3697 31.6848 52.5263 30.9985 52.6105 30.3002C53.1523 30.5771 53.7544 30.7156 54.3624 30.7096C55.3617 30.7216 56.2948 30.228 56.8366 29.3912L57.1677 28.7892L56.5657 28.5363C54.549 27.6996 54.1035 25.4481 54.0132 24.232C54.2119 24.2741 54.4105 24.2982 54.6152 24.3042L54.7838 24.4186C56.9751 24.4186 57.7095 22.1852 57.7396 22.0889L57.9865 21.3002H57.1617C55.4279 21.24 53.8085 20.4213 52.737 19.0547ZM54.7898 23.8106H54.7055C54.2661 23.8166 53.8326 23.6962 53.4594 23.4675C53.4594 23.4675 53.1403 27.82 56.3851 29.1685V29.1865C55.9577 29.8367 55.2233 30.222 54.4467 30.2099C53.5677 30.2641 52.7189 29.8909 52.1651 29.2106C52.1831 30.234 52.0146 31.2574 51.6714 32.2206C51.2319 33.3825 51.2319 34.6708 51.6714 35.8327C51.4005 35.8989 51.1296 35.935 50.8527 35.935C50.6841 35.935 50.5095 35.9169 50.347 35.8748C49.5463 35.6822 48.9082 35.0922 48.6493 34.3156C48.6493 34.3156 48.7758 38.4935 43.9055 38.4935H43.8694C44.2366 37.7952 44.4293 37.0186 44.4233 36.23C44.634 33.1417 46.7289 32.7022 46.7289 32.7022C46.151 32.63 45.6032 32.4253 45.1216 32.1002C44.6821 31.733 44.4293 31.1912 44.4172 30.6193C45.8259 30.6795 47.1865 30.0955 48.1075 29.024C48.6614 28.3919 49.0286 27.6213 49.1851 26.7965C48.4085 27.3805 47.4513 27.6755 46.4821 27.6333H45.9885C45.4647 27.5792 44.9651 27.3745 44.5617 27.0313C46.4159 25.8273 47.7162 23.7685 46.5664 20.644C45.6393 18.1397 43.4179 16.2675 41.1845 14.8588C40.444 14.4012 39.9985 13.8835 39.9985 13.438C39.9985 12.3905 41.4855 12.3604 42.0995 11.632C42.8039 10.8133 42.3644 9.48884 41.7503 8.69419C41.9249 8.66409 42.1055 8.65205 42.2801 8.65205C43.2855 8.64001 44.2547 9.04336 44.953 9.76576C45.6634 10.44 45.9343 11.4574 45.6634 12.3966L45.9885 12.4628C46.1871 12.4989 46.3858 12.517 46.5905 12.523H46.7229C48.4868 12.523 49.2814 10.6748 49.2814 10.6748C49.2814 10.6748 51.1597 12.9865 48.3965 14.7925C47.9209 15.0996 47.7102 15.3945 47.7945 15.6955L47.8366 15.8942L48.0353 15.9303C50.04 16.4721 51.0453 17.8568 52.2915 19.428C53.4714 20.927 55.2534 21.83 57.1617 21.8962H57.1978C57.1978 21.8962 56.5958 23.8106 54.7898 23.8106Z" fill="#222220"/>
<path d="M50.9244 15.7256C51.5986 16.1109 52.1826 16.6347 52.6401 17.2608C52.9833 17.7905 53.4709 18.2119 54.0488 18.4648C54.2655 18.537 54.5003 18.5731 54.7291 18.5731C55.6501 18.5731 56.493 18.0494 56.9144 17.2307L57.2635 16.4481L56.4147 16.3999C55.4996 16.2313 54.6749 15.7618 54.0669 15.0574C53.6154 14.5698 52.9833 14.2868 52.315 14.2808C51.7973 14.2868 51.2976 14.4434 50.8642 14.7203L50.0816 15.2681L50.9244 15.7256ZM52.3331 14.8648L52.315 14.8708C52.8267 14.8708 53.3083 15.0935 53.6515 15.4728C54.3558 16.2795 55.319 16.8153 56.3786 16.9899C56.0535 17.5979 55.4214 17.9771 54.7291 17.9832C54.5605 17.9832 54.392 17.9531 54.2294 17.8989C53.2542 17.5678 52.911 16.0929 51.2194 15.2019C51.5505 14.9852 51.9358 14.8708 52.3331 14.8648ZM51.3217 23.4855L51.3097 23.4735C50.8161 19.5002 47.9324 16.6287 44.7238 14.8889C44.4288 14.7263 44.1518 14.5939 43.887 14.4675C45.2114 14.7384 46.59 14.4133 47.6555 13.5825C47.6555 13.5825 45.7953 14.9491 41.9906 13.7089C43.0442 14.3952 45.091 15.3584 46.9632 16.9236C51.6348 21.0293 48.2937 25.0387 48.2937 25.0387C49.6903 23.7143 50.1779 21.6915 49.5518 19.8735C50.5391 21.5169 51.0147 23.4193 50.9124 25.3337C50.7799 28.4882 49.0281 31.2454 47.2221 33.4427C46.6803 34.135 46.307 34.9477 46.1505 35.8146C46.4575 34.9537 46.9211 34.1591 47.5231 33.4728C49.4796 31.1792 51.1351 28.8012 51.3699 25.3758C51.5746 25.9778 52.4054 27.7297 53.7298 28.3858C53.7298 28.3858 52.0682 27.3865 51.3217 23.4855ZM26.3987 38.1685C26.1097 37.5544 25.9532 36.8802 25.9472 36.1999C25.9291 34.9537 25.4174 33.7678 24.5264 32.9009C24.707 32.8166 24.8756 32.7083 25.0261 32.5758C25.598 32.0882 25.9291 31.3778 25.9231 30.6253L25.887 30.0895H25.3451C24.105 30.1497 22.901 29.638 22.0883 28.6929C21.9137 28.4882 21.7572 28.2654 21.6187 28.0307C22.1545 28.1932 22.7084 28.2715 23.2682 28.2715H23.8161C24.4722 28.2052 25.0923 27.9404 25.592 27.5129L26.1518 27.0012L25.5137 26.5919C24.0809 25.6768 22.6181 23.943 23.7438 20.8969C24.4722 18.9163 26.1518 17.1283 28.891 15.4066C29.812 14.8046 30.3177 14.1364 30.3177 13.4802C30.3177 12.4688 29.4689 12.0655 28.8488 11.7825C28.5659 11.6741 28.307 11.5176 28.0783 11.319C27.5967 10.7591 28 9.69354 28.4515 9.11561L29.0535 8.3631L28.1264 8.1825C27.9157 8.14638 27.699 8.13434 27.4823 8.13434C26.3084 8.09822 25.1766 8.54973 24.3458 9.37447C23.6656 10.0427 23.3104 10.9818 23.3766 11.933H23.0154C21.6609 11.933 21.0227 10.5002 20.9987 10.44L20.6194 9.54304L20.0174 10.2956C19.4575 11.03 19.1987 11.9511 19.301 12.8721C19.5057 13.8895 20.1378 14.7685 21.0408 15.2802C21.1251 15.3343 21.2094 15.3945 21.2816 15.4608C19.3793 16.0628 18.3137 17.4354 17.194 18.8621L17.0314 19.0668C15.9599 20.4333 14.3345 21.2521 12.6007 21.3123H11.7759L12.0288 22.1009C12.0288 22.1972 12.7873 24.4307 14.9846 24.4307H15.093C15.2977 24.4246 15.4963 24.4006 15.695 24.3584C15.6047 25.5624 15.1592 27.826 13.1365 28.6628L12.5345 28.9156L12.8656 29.5176C13.4074 30.3544 14.3405 30.8481 15.3398 30.836C15.9478 30.842 16.5438 30.7036 17.0856 30.4267C17.1699 31.125 17.3264 31.8113 17.5492 32.4735C17.9284 33.4909 17.9284 34.6166 17.5492 35.634L17.2482 36.2721L17.9344 36.4527C18.2475 36.525 18.5726 36.5671 18.8977 36.5671C19.1144 36.5671 19.3311 36.543 19.5418 36.4949C19.9873 36.3925 20.3967 36.1879 20.7458 35.8929C20.9565 36.5671 21.3177 37.1872 21.8054 37.6989C22.7505 38.6681 24.105 39.1497 25.8689 39.1557H26.9405L26.3987 38.1685ZM25.8809 38.5056C21.0107 38.5056 21.1311 34.3277 21.1311 34.3277C20.8722 35.1042 20.2341 35.6942 19.4334 35.8869C19.2709 35.929 19.0963 35.9471 18.9278 35.9471C18.6508 35.9471 18.3799 35.9109 18.1151 35.8447C18.5545 34.6828 18.5545 33.3945 18.1151 32.2327C17.7719 31.2695 17.6094 30.2461 17.6274 29.2226C17.0736 29.9029 16.2248 30.2762 15.3458 30.222H15.3157C14.5331 30.234 13.7987 29.8427 13.3712 29.1925C16.6161 27.844 16.297 23.4915 16.297 23.4915C15.9237 23.7203 15.4903 23.8407 15.0508 23.8347H14.9846C13.1786 23.8347 12.5766 21.9203 12.5766 21.9203H12.6127C14.5211 21.8601 16.309 20.9571 17.489 19.4581C18.7291 17.8869 19.7405 16.5022 21.7452 15.9604L21.9438 15.9243L21.986 15.7257C22.0401 15.4186 21.8294 15.1236 21.3839 14.8226C18.6207 13.0166 20.499 10.7049 20.499 10.7049C20.499 10.7049 21.2816 12.5531 23.0575 12.5531H23.1418C23.3465 12.5471 23.5451 12.529 23.7438 12.4929L24.0689 12.4267C23.792 11.4875 24.0689 10.4701 24.7793 9.79588C25.4776 9.07347 26.4468 8.67013 27.4522 8.68217C27.6268 8.68217 27.8074 8.69421 27.9819 8.72431C27.3799 9.52498 26.9344 10.8494 27.6388 11.6621C28.2408 12.3665 29.7338 12.3966 29.7338 13.4681C29.7338 13.9136 29.3184 14.4313 28.5779 14.8949C26.3385 16.3036 24.1171 18.1758 23.196 20.6802C22.0462 23.8046 23.3465 25.8815 25.2007 27.0675C24.7973 27.4046 24.2977 27.6153 23.7739 27.6695H23.2742C22.305 27.7116 21.3478 27.4166 20.5712 26.8327C20.7278 27.6574 21.095 28.428 21.6428 29.0601C22.5639 30.1256 23.9304 30.7156 25.3391 30.6554C25.3271 31.2273 25.0742 31.7691 24.6348 32.1364C24.1532 32.4614 23.6053 32.6661 23.0274 32.7384C23.0274 32.7384 25.1284 33.1658 25.3572 36.2661C25.3512 37.0547 25.5438 37.8313 25.911 38.5297L25.8809 38.5056Z" fill="#222220"/>
<path d="M15.0268 18.5671H15.0329C15.2616 18.5671 15.4964 18.531 15.7131 18.4588C16.2911 18.2059 16.7787 17.7845 17.1218 17.2547C17.5733 16.6287 18.1573 16.1049 18.8315 15.7196L19.6743 15.2681L18.8917 14.7203C18.4583 14.4434 17.9586 14.2868 17.4469 14.2808C16.7787 14.2868 16.1466 14.5698 15.6951 15.0634C15.0931 15.7618 14.2623 16.2374 13.3533 16.4059L12.5044 16.4481L12.8476 17.2307C13.269 18.0494 14.1058 18.5611 15.0268 18.5671ZM16.1105 15.4728C16.4476 15.0935 16.9292 14.8708 17.4409 14.8708C17.8322 14.8768 18.2175 14.9972 18.5486 15.2079C16.8449 16.1169 16.4897 17.5738 15.5386 17.9049C15.382 17.9591 15.2135 17.9892 15.0449 17.9892C14.3466 17.9892 13.7085 17.6039 13.3834 16.9899C14.4429 16.8153 15.4061 16.2795 16.1105 15.4728ZM18.8617 25.3578C18.7594 23.4434 19.229 21.541 20.2223 19.8976C19.5962 21.7156 20.0838 23.7384 21.4805 25.0628C21.4805 25.0628 18.1333 21.0534 22.8109 16.9477C24.6831 15.3825 26.724 14.4193 27.7775 13.733C23.9728 14.9731 22.1126 13.6066 22.1126 13.6066C23.1781 14.4374 24.5507 14.7624 25.8751 14.4915C25.6102 14.618 25.3333 14.7564 25.0383 14.9129C21.8296 16.6588 18.928 19.5303 18.4524 23.5036V23.4735C17.7059 27.3745 16.0444 28.3738 16.0444 28.3738C17.3627 27.7236 18.1995 25.9658 18.3982 25.3638C18.6209 28.7952 20.2945 31.1731 22.251 33.4608C22.847 34.147 23.3166 34.9417 23.6236 35.8026C23.4611 34.9417 23.0878 34.129 22.54 33.4427C20.734 31.2454 18.9882 28.4882 18.8617 25.3578ZM33.7793 18.1096C33.99 17.9049 34.285 17.8086 34.58 17.8447V18.9825C34.574 19.2654 34.5017 19.5363 34.3633 19.7832H35.5011C35.3626 19.5363 35.2904 19.2654 35.2844 18.9825V17.8447C35.5733 17.8086 35.8683 17.9049 36.079 18.1096V17.321H33.7793V18.1096ZM33.3038 12.6494H33.2918C33.4664 12.7999 33.6711 12.9203 33.8938 12.9925L34.0383 13.0588V12.3123L32.7018 11.7524C32.768 12.1256 32.9848 12.4507 33.3038 12.6494ZM36.4765 12.6434L36.4705 12.6494C36.7895 12.4507 37.0062 12.1256 37.0725 11.7524L35.736 12.3123V13.0527L35.8745 12.9865C36.0972 12.9143 36.3019 12.7939 36.4765 12.6434Z" fill="#222220"/>
<path d="M38.8727 9.62736C38.8727 8.5016 36.9764 7.49023 34.8874 7.49023C32.7984 7.49023 30.9021 8.5016 30.9021 9.62736L30.9443 9.90428L31.781 14.7203L30.9443 15.2079L28.759 16.4481C28.759 16.4481 28.2713 16.7009 28.0426 16.8514C27.2178 17.4534 27.0433 18.2601 27.5188 18.6093C27.6392 17.7905 28.3556 17.1885 29.1864 17.2126C29.8787 17.2307 30.5229 17.5798 30.9142 18.1517C31.0346 18.2962 31.1429 18.4527 31.2392 18.6093C31.3657 18.8139 31.4921 18.9945 31.6185 19.1691H26.0439C26.5135 19.9758 26.7844 20.8848 26.8446 21.818V34.2012C26.8446 37.2113 29.1503 38.626 31.6606 38.626C33.5871 38.626 33.8459 38.5357 34.9055 39.5952C35.965 38.5357 36.2239 38.626 38.1503 38.626C40.6426 38.626 42.9663 37.1992 42.9663 34.2012V21.83C43.0265 20.8969 43.2974 19.9879 43.767 19.1812H38.1322C38.2586 19.0066 38.3851 18.826 38.5115 18.6213C38.6138 18.4648 38.7222 18.3083 38.8366 18.1638C39.2339 17.5919 39.878 17.2427 40.5703 17.2246C41.4011 17.2006 42.1175 17.8026 42.2379 18.6213C42.7195 18.2782 42.5449 17.4173 41.7142 16.8634C41.4914 16.7069 41.0038 16.4601 41.0038 16.4601L38.8366 15.1838L37.9998 14.6962L38.8366 9.8802L38.8727 9.62736ZM31.7088 10.1812L34.6466 11.1745V15.7859L32.4854 14.642L31.7088 10.1812ZM27.2479 19.9818H32.3108C32.7021 20.3912 33.1837 20.7163 33.7135 20.921C33.5991 21.3183 33.6292 21.7457 33.7917 22.125C33.9844 22.5283 34.3275 22.8414 34.7489 23.0039C34.8272 23.6962 35.2968 24.2741 35.9529 24.5029C35.5917 24.8701 35.2366 25.2133 35.0921 25.3517L31.7269 25.2976C31.6125 25.2434 31.5222 25.1591 31.462 25.0507V25.0086L32.0098 25.0989H32.0459C32.1543 25.0989 32.2446 25.0267 32.2627 24.9183C32.2807 24.7979 32.2024 24.6895 32.082 24.6654L31.4078 24.5571L32.1543 21.9685L31.4439 20.4755L30.3061 21.6795L30.2339 24.3705L29.4693 24.2501C29.3489 24.226 29.2406 24.3042 29.2165 24.4246V24.4307C29.1984 24.5511 29.2767 24.6594 29.3971 24.6835L29.7162 24.7317C29.6018 24.7979 29.5235 24.846 29.5175 24.8581L29.4513 24.9062V24.9845C29.3008 25.6708 29.5777 26.3812 30.1436 26.7905V26.8869C30.1075 27.1216 30.27 27.3444 30.5048 27.3865H30.577C30.7757 27.3865 30.9503 27.2481 30.9924 27.0494C31.1369 27.0554 31.2754 27.0554 31.4198 27.0494H31.5101L35.9228 27.8501L35.9951 27.8019C36.3443 27.5551 37.6867 26.5979 38.1262 26.2547C38.2526 26.3631 38.3971 26.4594 38.5476 26.5317C38.3429 27.1638 38.4994 27.8561 38.957 28.3377H27.6513V21.83C27.6272 21.1979 27.4887 20.5718 27.2479 19.9818ZM37.7469 25.9357C37.2894 26.2728 36.1637 27.0915 35.7543 27.3805L31.7509 26.6822V26.5738C31.8172 26.3029 31.8533 26.026 31.8593 25.7491L35.2305 25.8032L35.2968 25.737C35.3509 25.6828 36.4165 24.6534 36.9583 24.0574C37.1028 24.238 37.2713 24.3885 37.464 24.5089C37.3677 25.0026 37.47 25.5143 37.7469 25.9357ZM31.0586 25.2133V25.2313C31.1489 25.3999 31.2814 25.5444 31.4439 25.6407C31.4379 25.8875 31.4138 26.1283 31.3717 26.3691C31.3717 26.4233 31.3717 26.4775 31.3295 26.5317V26.6159C31.0526 26.6159 30.7817 26.5738 30.5168 26.4895C30.0352 26.2307 29.7643 25.7009 29.8426 25.1591C30.0593 25.0086 30.3061 24.9123 30.565 24.8761C30.7877 24.8701 30.9864 25.0026 31.0586 25.2133ZM30.6433 24.4126L30.7095 21.8661L31.3115 21.2641L31.6787 22.0287L30.9623 24.5089L30.6433 24.4126ZM37.7168 37.8253H37.1389L37.5904 36.3504C37.6626 36.1457 37.2894 35.8808 37.1329 35.646C37.5001 35.8688 37.8794 36.0674 38.2707 36.248C38.2707 36.2962 37.7168 37.8253 37.7168 37.8253ZM39.264 36.1758L39.2158 36.1337L38.9028 37.7591C38.7041 37.7591 38.4934 37.8012 38.3008 37.8133L38.6319 36.248C38.7282 35.7845 37.482 35.646 36.868 34.725C36.4647 35.0621 35.9469 35.2186 35.4292 35.1644C34.9717 35.1584 34.5202 35.1103 34.0747 35.02C33.9964 35.0139 33.9182 35.0139 33.8399 35.02C33.6533 35.0079 33.4727 35.1042 33.3764 35.2668L33.2861 35.4173L31.5703 35.0019L31.161 35.7123C31.0948 35.8086 31.1068 35.941 31.1911 36.0253L31.3055 36.1517C31.1911 36.3745 31.0466 36.5792 30.872 36.7537L30.6192 36.4407C30.4265 36.1276 30.4446 35.7243 30.6613 35.4293L31.3356 34.2915L32.7744 34.5083L32.5516 33.9965C32.2506 33.3223 32.7081 32.4614 32.7563 31.9678C32.7563 32.1183 32.5998 32.1484 32.4433 32.1484H32.0279C31.9978 32.1424 31.9616 32.1424 31.9315 32.1484L31.5402 32.3832L31.2332 32.1002C31.1851 32.0099 31.2031 31.9016 31.2754 31.8353L31.9857 31.0347L31.1429 30.0534L32.3469 30.6554L32.7081 30.222C32.8045 30.3183 32.7623 30.5711 32.7623 30.5711C33.6352 30.7879 34.2433 31.5825 34.2192 32.4855V32.6601C34.3396 32.8527 34.5322 32.9852 34.7489 33.0394L36.3804 33.2019C36.7055 33.0996 37.0366 33.0333 37.3737 32.9912C37.6626 32.9912 37.9516 33.0815 38.1924 33.238C38.3068 33.1598 38.4453 33.1116 38.5837 33.1056H38.6379C39.3663 33.1056 39.6733 33.7678 40.0647 34.3096C40.3596 34.725 40.757 35.3511 40.757 35.3511C40.6426 35.5196 40.456 35.622 40.2513 35.622C40.179 35.628 40.1128 35.628 40.0406 35.622C39.258 35.4775 39.1436 33.8641 38.6981 33.7377H38.6259C38.5416 33.7377 38.4633 33.7858 38.4212 33.8641C38.6259 34.4119 38.5055 34.6347 38.7282 35.0681C38.8907 35.327 39.0954 35.5618 39.3302 35.7604C39.3302 35.7604 39.3001 36.0012 39.264 36.1758ZM30.4928 34.5986H30.4807L30.553 34.7852C30.5048 34.9477 29.9509 35.1825 29.9509 35.1825L29.8305 34.9176C29.674 34.5384 29.7884 34.1049 30.1195 33.8581L31.0285 33.3042L31.9978 33.5089C31.9917 33.7016 32.0519 33.8882 32.1663 34.0447L31.1489 33.8521L30.5469 34.2735C30.4506 34.3578 30.4325 34.4902 30.4928 34.5986ZM42.1356 34.2072C42.2018 35.8808 41.0399 37.3497 39.3964 37.6748L39.6733 36.218C39.6733 36.1337 39.7034 36.0313 39.7155 35.947C39.7998 35.9832 39.8841 36.0072 39.9683 36.0253C40.0647 36.0313 40.161 36.0313 40.2573 36.0253C40.5884 36.0253 40.9014 35.8748 41.1001 35.6099L41.3168 35.3571L41.1362 35.1103C41.1362 35.1103 40.7329 34.4721 40.4319 34.0507L40.2633 33.7979C39.9262 33.2922 39.4988 32.6541 38.6499 32.6541H38.5717C38.4513 32.6601 38.3249 32.6842 38.2105 32.7263C37.9516 32.5999 37.6687 32.5337 37.3797 32.5337C37.0907 32.5397 36.8018 32.5939 36.5309 32.6962L36.3864 32.7384L34.7971 32.5818C34.7309 32.5517 34.6767 32.5036 34.6346 32.4434L34.9777 32.3049C34.8814 31.1551 33.7737 30.4507 33.1717 30.2159C33.1416 30.0895 33.0814 29.9812 32.9911 29.8909L32.6479 29.5658L32.3469 29.927L32.1964 30.1076L29.969 29.1925L31.4198 30.9986L30.8479 31.8654C30.7275 31.9858 30.7215 32.1845 30.8479 32.3109L31.4499 32.7203L32.0519 32.4915H32.1121C32.1121 32.5818 32.0459 32.9491 32.0158 33.0514L30.9683 32.8708L29.8486 33.4728C29.3309 33.846 29.1503 34.5323 29.4212 35.1103L29.5476 35.3812L29.7222 35.7664L30.1135 35.6039C29.969 35.9952 30.0292 36.4287 30.282 36.7598L30.5168 37.0608L30.8299 37.4581L31.179 37.0848C31.4078 36.8561 31.5884 36.5912 31.7148 36.2962L31.7871 36.0554L31.6185 35.8688V35.8327L31.8111 35.5196L33.2018 35.8447L33.5148 35.9169L33.6834 35.64L33.7737 35.4895C33.7737 35.4594 33.7737 35.4534 33.858 35.4534H34.0085C34.4841 35.5497 34.9657 35.5979 35.4473 35.6039C35.7723 35.622 36.0974 35.5858 36.4105 35.4895L37.181 36.3685L36.7235 37.7771V37.8614C36.0372 37.8494 35.381 38.1323 34.9175 38.632C34.177 37.8975 33.6533 37.8193 31.6727 37.8193C29.2948 37.8193 27.6874 36.4287 27.6874 34.2072V28.7892H42.1356V34.2072ZM42.5269 19.9818C42.28 20.5658 42.1476 21.1919 42.1235 21.83V25.8875C41.5998 25.7731 41.2085 25.3277 41.1723 24.7919V24.6052H40.9917C40.6787 24.5812 40.3897 24.4367 40.173 24.2139C39.9081 23.9069 39.7636 23.5216 39.7576 23.1183C39.4988 23.5397 39.5228 24.0815 39.8239 24.4788C40.0586 24.7738 40.4018 24.9725 40.775 25.0206C40.8834 25.719 41.4432 26.2608 42.1416 26.3511V28.3377H39.6131C38.9509 28.0006 38.674 27.2119 38.969 26.5317L39.0653 26.3149L38.8426 26.2307C38.1202 25.9778 37.7228 25.2012 37.9516 24.4668L37.9998 24.2862L37.8312 24.2079C37.1991 23.8407 36.8499 23.1243 36.9523 22.4019C36.6212 22.739 36.5369 23.2507 36.7476 23.6721C36.6272 23.8106 36.4707 23.9731 36.2961 24.1537C35.664 24.0213 35.2065 23.4735 35.1824 22.8293V22.6788L35.0439 22.6246C34.6767 22.5163 34.3757 22.2634 34.2011 21.9263C34.0867 21.6494 34.0626 21.3364 34.1409 21.0474C34.2613 21.0715 34.3817 21.0895 34.5021 21.1016C34.6225 21.1076 34.7489 21.1076 34.8693 21.1016C35.8446 21.1016 36.7717 20.6802 37.4218 19.9578L42.5269 19.9818ZM38.6259 15.8762L39.6131 16.4782L39.86 16.6226C39.3483 16.7611 38.8847 17.038 38.5175 17.4233L38.4754 17.4594C38.3911 17.5497 38.3128 17.64 38.2346 17.7364L38.1864 17.7966C38.1081 17.8929 38.0359 17.9952 37.9697 18.1036L37.9336 18.1578C37.8493 18.2782 37.771 18.4106 37.6927 18.543C37.1449 19.6327 36.0794 20.3611 34.8693 20.4815C33.6593 20.3611 32.5938 19.6327 32.0459 18.543C31.9677 18.4106 31.8894 18.2842 31.8111 18.1578L31.763 18.0915L31.5703 17.7785L31.5162 17.7123C31.4379 17.616 31.3596 17.5256 31.2814 17.4414L31.2392 17.3992C30.872 17.0139 30.4085 16.737 29.8968 16.5986L30.1496 16.4541L31.1429 15.8521L32.1603 15.2501L34.8754 16.725L37.5904 15.2982L38.6259 15.8762ZM37.2894 14.6721L35.1282 15.8099V11.1805L38.06 10.1872L37.2894 14.6721ZM34.8814 10.6929L31.6667 9.40461C31.9376 8.75445 33.2018 8.2006 34.8814 8.2006C36.561 8.2006 37.8252 8.75445 38.0961 9.40461L34.8814 10.6929Z" fill="#222220"/>
</svg>
