<svg width="41" height="41" viewBox="0 0 41 41" fill="none" xmlns="http://www.w3.org/2000/svg">
<path d="M19.5209 28.5545C15.5106 28.0862 12.3689 24.6294 12.3689 20.5426C12.3689 18.4225 13.2373 16.3791 14.5656 14.8806C16.0556 13.3906 18.1841 12.4455 20.4574 12.4455C22.3391 12.4455 24.1526 13.0756 25.4894 14.2505H29.4996C27.4562 11.3387 24.1526 9.53363 20.4659 9.53363H19.5209C16.6175 9.84866 14.0206 11.1854 12.2156 13.2288C10.4872 15.1956 9.46552 17.7073 9.46552 20.5341C9.46552 26.5877 14.4123 31.5345 20.4659 31.5345C24.1611 31.5345 27.3795 29.7295 29.4229 26.8942H25.4894C24.076 27.9925 22.3476 28.6226 20.4574 28.6226C20.1424 28.6311 19.9125 28.6311 19.5209 28.5545ZM36.8048 16.1407L31.0662 20.5426L36.9581 25.0211H36.8048C34.7614 32.0964 28.2395 37.4349 20.4574 37.4349C13.3054 37.4349 7.17518 32.9564 4.66347 26.6728L7.80524 26.5962C10.0871 31.3131 14.8806 34.5315 20.4574 34.5315C26.4259 34.5315 31.6196 30.7597 33.5779 25.4127L27.2092 20.5426L33.4928 15.5958C31.526 10.334 26.3408 6.47701 20.4489 6.47701C15.102 6.47701 10.4702 9.54215 8.11175 13.944L4.96999 13.8674C7.56684 7.81375 13.5353 3.65028 20.4489 3.65028C28.2395 3.64176 34.7614 8.91209 36.8048 16.1407ZM28.9461 14.9572L22.5775 20.5341L29.9679 26.1109H25.8044L19.5209 21.4706V21.394V26.1109L16.8474 26.0428V14.9572H19.5209V19.904L25.2595 14.9572H28.9461ZM20.4574 0.5C31.4579 0.5 40.5 9.53363 40.5 20.5426C40.5 31.543 31.4664 40.5 20.4574 40.5C9.457 40.5 0.5 31.543 0.5 20.5426C0.5 9.53363 9.457 0.5 20.4574 0.5Z" fill="#006D78"/>
</svg>
