<svg width="201" height="50" viewBox="0 0 201 50" fill="none" xmlns="http://www.w3.org/2000/svg">
<path d="M25.5 27.53C25.5 32.25 28.15 37 34.07 37C39.99 37 42.64 32.25 42.64 27.53C42.64 24.31 41.55 20.6 39.74 17.61C37.98 14.72 35.86 13 34.07 13C32.28 13 30.16 14.72 28.41 17.61C26.59 20.61 25.5 24.31 25.5 27.53ZM86.36 20.07H80.36V14.29H98.79V20.08H92.79V35.72H86.36V20.07ZM112.5 20.07H121.93V14.29H112.5C103.84 14.29 99.21 18.6 99.21 25C99.21 31.41 103.84 35.71 112.5 35.71H121.93V29.92H112.5C108.49 29.92 105.85 28.49 105.85 24.99C105.85 21.5 108.49 20.07 112.5 20.07ZM63.85 27.08L67.28 14.29H78.64V35.72H72.21V18.27L67.54 35.71H60.17L55.5 18.28V35.71H49.07V14.29H60.43L63.85 27.08ZM137.94 20.5H135.67V22.6H137.94C138.51 22.6 138.86 22.3 138.86 21.76V21.37C138.85 20.81 138.56 20.5 137.94 20.5ZM138.51 25H132.64V14.29H141.27V16.85H135.66V18.25H138.5C140.88 18.25 142.03 19.43 142.03 21.51C142.04 23.7 140.89 25 138.51 25ZM149.02 20.62H146.63L147.83 16.66L149.02 20.62ZM153.62 25L150.31 14.29H145.81L142.5 25H145.33L145.94 22.95H149.73L150.35 25H153.62ZM161.27 25V20.85H157.81V25H154.71V14.29H157.81V18.22H161.27V14.29H164.38V25H161.27ZM169.89 18.21H169.35V14.29H166.25V25H169.35V20.85H169.8L172.67 25H176.26L172.38 19.39L175.95 14.28H172.67L169.89 18.21Z" fill="#E30600"/>
</svg>
