<svg width="200" height="51" viewBox="0 0 200 51" fill="none" xmlns="http://www.w3.org/2000/svg">
<path d="M56.9047 7.5L55.1768 12.2398H79.1136L80.8416 7.5H56.9047ZM54.3138 14.6076L52.5859 19.3464H76.5227L78.2507 14.6076H54.3138ZM51.7279 21.7152L50 26.453H73.9369L75.6628 21.7142C75.6638 21.7152 51.7279 21.7152 51.7279 21.7152Z" fill="#009FDF"/>
<path d="M100.322 27.9405V28.0389C101.397 28.4337 102.425 29.1249 102.962 29.5689C104.624 30.9513 105.358 32.7766 105.358 35.1455C105.358 39.0464 103.305 41.8583 99.9302 42.7474C98.9025 43.0438 97.8275 43.1422 95.8233 43.1422H85.6064V14.6133H94.652C96.5105 14.6133 97.7803 14.7117 98.9045 15.0071C102.181 15.8962 104.332 18.1666 104.332 21.7691C104.332 23.695 103.648 25.3244 102.524 26.4094C102.035 26.9027 101.351 27.4954 100.324 27.9394L100.322 27.9405ZM91.2775 30.9513V38.4537H95.1894C96.3618 38.4537 97.4388 38.3553 98.2203 37.6149C99.0029 36.8745 99.3445 35.9362 99.3445 34.7025C99.3445 33.7662 99.0994 32.8771 98.6111 32.2352C97.7803 31.1984 96.7526 30.9513 94.9935 30.9513H91.2765H91.2775ZM91.2272 26.0146H94.4058C95.3833 26.0146 95.8726 26.0146 96.3608 25.8669C97.6819 25.4711 98.5127 24.2887 98.5127 22.6592C98.5127 20.7344 97.6326 19.8945 96.3608 19.5007C95.8223 19.352 95.2859 19.3038 94.2099 19.3038H91.2272V26.0156V26.0146ZM113.865 43.1432V19.4013H105.701V14.6143H128.388L126.774 19.4013H119.537V43.1432H113.865ZM130.148 43.1432V14.6143H148.532L146.919 19.4013H135.772V25.7203H140.32C143.986 25.7203 145.893 26.6093 147.214 27.7435C148.242 28.6326 150.001 30.6057 150.001 34.5066C150.001 38.3563 148.193 40.478 146.676 41.565C144.916 42.7976 143.058 43.1442 139.292 43.1442H130.149H130.148V43.1432ZM135.771 38.3543H140.024C141.638 38.3543 142.615 37.9594 143.299 37.0704C143.641 36.6273 144.13 35.8357 144.13 34.3559C144.13 32.8761 143.641 31.8383 142.663 31.0979C142.078 30.6549 141.294 30.4088 139.974 30.4088H135.769V38.3543H135.771Z" fill="#0A2973"/>
</svg>
