<svg width="201" height="51" viewBox="0 0 201 51" fill="none" xmlns="http://www.w3.org/2000/svg">
<path d="M132.7 19.1001V32.0001H137.2V22.9001H141.5V32.0001H145.9V19.1001H132.7ZM124.3 18.4001H128.4L130.5 14.6001H123.9C119.1 14.7001 115.9 18.8001 115.9 23.9001C115.9 29.9001 119.3 32.3001 123.4 32.3001C127.6 32.3001 130.7 29.6001 130.6 25.9001C130.5 23.0001 128.1 20.2001 124.9 20.2001C123.1 20.2001 121.4 20.8001 120.3 21.9001C120.4 19.8001 122.2 18.4001 124.3 18.4001ZM123.2 23.5001C124.8 23.5001 125.9 24.8001 125.9 26.3001C125.9 27.8001 124.7 29.0001 123.1 29.0001C121.9 29.0001 120.5 27.9001 120.5 26.3001C120.5 24.8001 121.7 23.5001 123.2 23.5001ZM108.8 22.5001C110.7 22.4001 112.3 23.5001 112.3 23.5001L114 20.5001C112.5 19.4001 111 18.8001 109 18.8001C104.6 18.8001 101.5 22.4001 101.5 25.5001C101.5 29.2001 104.8 32.3001 108.9 32.3001C110.7 32.3001 112.5 31.7001 113.9 30.6001L112.3 27.5001C112.3 27.5001 110.8 28.5001 108.8 28.5001C107.5 28.5001 105.8 27.4001 105.8 25.5001C105.8 23.6001 107.5 22.5001 108.8 22.5001Z" fill="#1B0A40"/>
<path d="M66 25.5L59.5 29.3L53.5 39.8L78.2 25.5H66Z" fill="#874691"/>
<path d="M84.6996 14.7L78.1996 18.5L72.0996 29L96.7996 14.7H84.6996Z" fill="#DA1844"/>
<path d="M78.1996 11L72.0996 0.5V50.5L78.1996 40V11Z" fill="#F9B229"/>
<path d="M72.0996 0.5L78.1996 11L84.6996 14.7H96.8996L72.0996 0.5Z" fill="#F07F1A"/>
<path d="M72.0996 22V50.5L78.1996 40V32.5L72.0996 22Z" fill="#72B22C"/>
<path d="M84.6996 36.3L78.1996 40L72.0996 50.5L96.7996 36.3H84.6996Z" fill="#00743E"/>
<path d="M53.5 11.3V39.8L59.6 29.3V21.7L53.5 11.3Z" fill="#5F5A94"/>
<path d="M72.1 22L53.5 11.3L59.6 21.7L84.7 36.3H96.9L72.1 22Z" fill="#0D90CD"/>
</svg>
