<svg width="201" height="50" viewBox="0 0 201 50" fill="none" xmlns="http://www.w3.org/2000/svg">
<path d="M187.9 26.2H183.8V22.2H181.7V32.4H183.8V28H187.9V32.4H190V22.1H187.9V26.2ZM176.4 22.2H174L169.9 32.5H172.2L173 30.2H177.4L178.2 32.5H180.5L176.4 22.2ZM173.6 28.3L175.1 24.2L176.6 28.3H173.6ZM201 32.4L196.5 26.8L200.8 22.1H198.2L194.5 26.5V22.1H192.4V32.4H194.5V27.2L198.4 32.4H201ZM168.3 27C167.7 26.4 166.9 26.1 166.1 26H163.9V24H168.4V22.2H161.8V32.4H166.1C166.5 32.4 166.9 32.3 167.3 32.2C167.7 32.1 168 31.8 168.3 31.5C168.6 31.2 168.8 30.9 169 30.5C169.2 30.1 169.2 29.7 169.2 29.3C169.2 28.4 168.8 27.6 168.3 27ZM166.5 30.3C166.2 30.6 165.9 30.7 165.5 30.8H163.8V27.8H165.5C165.7 27.8 165.9 27.8 166.1 27.9C166.3 28 166.5 28.1 166.6 28.2C166.7 28.3 166.9 28.5 166.9 28.7C167 28.9 167 29.1 167 29.3C167 29.6 166.8 30 166.5 30.3ZM43.3002 34.1H38.4002L40.6002 30.2L35.1002 20.5H40.1002L43.0002 26.2L45.8002 20.5H50.6002L43.3002 34.1ZM104.5 34.1H98.4002C95.1002 34.1 92.4002 31.3 92.4002 27.5C92.4002 23.1 95.1002 20.5 98.4002 20.5H104.5V23.9H100.6C98.3002 23.9 96.9002 24.6 96.9002 27.4C96.9002 30.2 98.2002 30.8 100.6 30.8H104.5V34.1ZM120.4 34.1H115.9V24.5L110.8 34.1H105.4V20.5H109.9V29.8L115 20.5H120.4V34.1ZM87.8002 20.5H82.9002L78.1002 31.8L73.3002 20.5H68.3002L62.5002 34.2H67.2002L68.2002 31.3H73.2002L74.3002 34.2H81.7002L85.3002 24.3L88.8002 34.2H93.5002L87.8002 20.5ZM69.5002 28.2L71.0002 24.3L72.4002 28.2H69.5002ZM60.2002 20.5H51.0002V34.2H55.4002V30.2H60.2002C64.8002 30.2 64.8002 26.1 64.8002 25.2C64.8002 24.3 64.8002 20.5 60.2002 20.5ZM58.7002 26.8H55.5002V23.9H58.7002C59.2002 23.9 60.5002 23.9 60.5002 25.3C60.5002 26.7 59.2002 26.8 58.7002 26.8ZM130.3 25.6H125.8V23.8H134.3V20.4H121.3V34.1H130.3C135 34.1 135 31.3 135 29.8C135 28.3 135 25.7 130.3 25.6ZM129.5 31H125.7V28.8H129.5C130.5 28.8 130.5 29.5 130.5 29.8C130.5 30.1 130.5 31 129.5 31ZM15.3002 13.6C15.6002 13.6 16.0002 13.6 16.3002 13.7L16.2002 4.4H17.3002C17.2002 7.6 17.4002 10.7 17.7002 13.9C20.3002 14.5 22.7002 15.8 24.6002 17.8C26.5002 19.8 27.7002 22.2 28.2002 24.9C28.7002 27.6 28.3002 30.3 27.2002 32.8C26.1002 35.3 24.3002 37.3 22.0002 38.8C21.9002 38.7 21.8002 38.5 21.6002 38.3C17.5002 33.1 16.5002 25.4 16.2002 18.7C16.8002 18.8 17.3002 18.9 17.9002 19C18.8002 24.7 21.3002 30.1 25.3002 34.3C26.7002 32.6 27.5002 30.3 27.3002 28.1C27.2002 25.8 26.2002 23.7 24.7002 22.1C22.9002 20.2 20.7002 18.8 18.2002 18.2C17.0002 17.9 15.8002 17.7 14.6002 17.7C13.4002 17.7 12.1002 17.9 10.9002 18.2C5.7002 19.5 1.8002 23.6 1.8002 28.5C1.8002 30.6 2.5002 32.6 3.8002 34.3C7.8002 30.1 10.3002 24.7 11.2002 19C11.8002 18.9 12.3002 18.9 13.0002 18.7C12.7002 25.5 11.7002 33.1 7.6002 38.2C7.5002 38.4 7.3002 38.6 7.2002 38.7C4.9002 37.2 3.2002 35.1 2.1002 32.6C1.0002 30.1 0.700195 27.4 1.2002 24.7C1.7002 22 3.0002 19.6 4.8002 17.7C6.60019 15.8 9.10019 14.4 11.7002 13.9C12.1002 7 12.0002 4.4 12.0002 4.4H13.1002L13.0002 13.7C13.3002 13.6 13.6002 13.5 13.9002 13.6V0H15.1002C15.2002 0 15.2002 13.6 15.3002 13.6Z" fill="#0E3263"/>
<path d="M15.3 18.6C15.4 25.1 15.9 33.1 18 38.6C18.2 39.2 18.5 39.8 18.9 40.4C17.5 40.8 16.1 41 14.7 41.1C13.3 41.1 11.9 40.9 10.5 40.4C10.9 39.7 11.2 39.1 11.5 38.4C13.4 33 13.9 25 14 18.6H15.3ZM147.8 17H148.7V37.6H147.8V17Z" fill="#0E3263"/>
</svg>
