<svg width="201" height="50" viewBox="0 0 201 50" fill="none" xmlns="http://www.w3.org/2000/svg">
<path d="M121.5 24.2299C122.077 24.2603 122.643 24.0668 123.08 23.6899C123.286 23.4865 123.446 23.2408 123.548 22.9697C123.649 22.6987 123.691 22.4087 123.67 22.1199C123.685 21.8495 123.645 21.5789 123.552 21.3245C123.459 21.0701 123.316 20.8372 123.13 20.6399C122.916 20.4278 122.661 20.2616 122.381 20.1516C122.101 20.0415 121.801 19.9899 121.5 19.9999H119.25V24.1799L121.5 24.2299ZM117.05 18.0599H121.6C122.777 17.9999 123.934 18.3855 124.84 19.1399C125.24 19.5385 125.551 20.0172 125.753 20.5446C125.954 21.072 126.042 21.6362 126.01 22.1999C126.03 22.7385 125.942 23.2758 125.749 23.7793C125.557 24.2828 125.265 24.7422 124.89 25.1299C124.028 25.8578 122.915 26.2171 121.79 26.1299H119.32V30.7199H117.12V18.0599H117.05ZM131.05 21.1699C130.416 22.128 130.101 23.262 130.15 24.4099C130.067 25.5614 130.385 26.7062 131.05 27.6499C131.344 28.0336 131.723 28.3444 132.156 28.5583C132.59 28.7723 133.067 28.8835 133.55 28.8835C134.033 28.8835 134.51 28.7723 134.944 28.5583C135.377 28.3444 135.756 28.0336 136.05 27.6499C136.684 26.6918 136.999 25.5578 136.95 24.4099C137.033 23.2584 136.715 22.1136 136.05 21.1699C135.765 20.7696 135.387 20.4454 134.947 20.2257C134.508 20.006 134.021 19.8975 133.53 19.9099C133.038 19.8884 132.548 19.9928 132.107 20.2133C131.666 20.4338 131.288 20.763 131.01 21.1699H131.05ZM137.63 19.6399C138.723 20.9851 139.298 22.6774 139.25 24.4099C139.321 26.1458 138.743 27.846 137.63 29.1799C137.113 29.7505 136.479 30.2031 135.772 30.5068C135.064 30.8105 134.3 30.9582 133.53 30.9399C132.759 30.9685 131.991 30.8254 131.282 30.521C130.573 30.2166 129.94 29.7586 129.43 29.1799C128.337 27.8346 127.763 26.1424 127.81 24.4099C127.759 22.6648 128.362 20.9635 129.5 19.6399C130.018 19.0711 130.652 18.6204 131.359 18.3184C132.067 18.0165 132.831 17.8703 133.6 17.8899C134.368 17.8742 135.131 18.0221 135.838 18.3239C136.545 18.6256 137.18 19.0742 137.7 19.6399H137.63ZM169.25 18.1599V26.8899L175.15 18.1599H177.31V30.7099H175.15V21.9299L169.25 30.6999H167.05V18.1499L169.25 18.1599Z" fill="#CD1F45"/>
<path d="M185.19 19.9999C184.34 19.9999 182.26 19.6399 182.26 21.9999C182.26 22.9399 182.62 24.2099 185.26 24.2099H188.32V19.9999H185.19ZM182.4 30.7099H179.79L183.17 25.8899C182.266 25.7793 181.44 25.3249 180.863 24.6209C180.285 23.917 180.002 23.0177 180.07 22.1099C180.07 20.5399 180.75 18.1099 184.3 18.1099H190.5V30.7099H188.34V26.1199H185.5L182.4 30.7099ZM149.68 26.9999C149.566 27.2502 149.432 27.491 149.28 27.7199C148.998 28.1239 148.62 28.452 148.18 28.6753C147.741 28.8985 147.253 29.01 146.76 28.9999C146.268 29.0214 145.778 28.917 145.337 28.6965C144.896 28.476 144.518 28.1468 144.24 27.7399C143.606 26.7818 143.291 25.6478 143.34 24.4999C143.257 23.3484 143.575 22.2036 144.24 21.2599C144.525 20.8596 144.904 20.5354 145.343 20.3157C145.782 20.096 146.269 19.9875 146.76 19.9999C147.253 19.9784 147.742 20.0828 148.183 20.3033C148.624 20.5238 149.002 20.853 149.28 21.2599C149.52 21.611 149.714 21.9906 149.86 22.3899H152.2C151.971 21.4104 151.508 20.5011 150.85 19.7399C150.332 19.1711 149.698 18.7204 148.991 18.4184C148.283 18.1165 147.519 17.9703 146.75 17.9899C145.98 17.9601 145.212 18.1016 144.503 18.4042C143.794 18.7069 143.161 19.1631 142.65 19.7399C141.563 21.0886 140.99 22.7784 141.03 24.5099C140.959 26.2458 141.537 27.946 142.65 29.2799C143.167 29.8505 143.801 30.3031 144.508 30.6068C145.216 30.9105 145.98 31.0582 146.75 31.0399C147.521 31.0685 148.289 30.9254 148.998 30.621C149.707 30.3166 150.34 29.8586 150.85 29.2799C151.422 28.6208 151.839 27.8416 152.07 26.9999H149.68ZM162.5 26.9999C162.386 27.2502 162.252 27.491 162.1 27.7199C161.81 28.1355 161.42 28.4708 160.965 28.6947C160.51 28.9185 160.006 29.0235 159.5 28.9999C159.008 29.0214 158.518 28.917 158.077 28.6965C157.636 28.476 157.258 28.1468 156.98 27.7399C156.346 26.7818 156.031 25.6478 156.08 24.4999C155.997 23.3484 156.315 22.2036 156.98 21.2599C157.265 20.8596 157.644 20.5354 158.083 20.3157C158.522 20.096 159.009 19.9875 159.5 19.9999C159.993 19.9784 160.482 20.0828 160.923 20.3033C161.364 20.5238 161.742 20.853 162.02 21.2599C162.26 21.611 162.454 21.9906 162.6 22.3899H164.94C164.711 21.4104 164.248 20.5011 163.59 19.7399C163.072 19.1711 162.438 18.7204 161.731 18.4184C161.023 18.1165 160.259 17.9703 159.49 17.9899C158.72 17.9601 157.952 18.1016 157.243 18.4042C156.534 18.7069 155.901 19.1631 155.39 19.7399C154.303 21.0886 153.73 22.7784 153.77 24.5099C153.699 26.2458 154.277 27.946 155.39 29.2799C155.912 29.8446 156.549 30.2904 157.258 30.5872C157.967 30.8839 158.732 31.0247 159.5 30.9999C160.271 31.0285 161.039 30.8854 161.748 30.581C162.457 30.2766 163.09 29.8186 163.6 29.2399C164.178 28.5953 164.605 27.8301 164.85 26.9999H162.5ZM52.3498 23.2399V22.6099C51.8098 18.6099 48.1199 14.6099 44.8799 13.1099C42.8612 12.0939 40.6887 11.4181 38.4499 11.1099C36.7946 10.9347 35.1814 10.4782 33.6798 9.75994C33.5498 9.66994 33.4099 9.61994 33.2699 9.53994C33.1439 9.47684 33.0235 9.40325 32.9098 9.31994C32.18 8.76035 31.5098 8.127 30.9098 7.42994C30.5353 6.99848 30.2224 6.51724 29.9798 5.99994L29.7998 5.68994V23.4199H31.6899V10.8599C32.0159 11.1724 32.3786 11.4444 32.7699 11.6699C34.3 12.3543 35.9252 12.8028 37.5898 12.9999C39.5885 13.3013 41.5495 13.8142 43.4398 14.5299C47.5798 16.4199 50.1498 20.8299 50.4398 23.3099V26.4599H33.2699V35.2799C33.8498 35.2799 34.2698 35.2799 34.8498 35.1899H34.9798V28.1899H52.3498V23.2799" fill="#CD1F45"/>
<path d="M65.3604 28.8201H68.5004C69.0764 28.8464 69.641 28.6534 70.0804 28.2801C70.2524 28.1272 70.3896 27.9391 70.4827 27.7287C70.5759 27.5182 70.6228 27.2902 70.6204 27.0601C70.6211 26.8006 70.5692 26.5436 70.4678 26.3047C70.3664 26.0658 70.2176 25.8499 70.0304 25.6701C69.5288 25.2939 68.9045 25.1191 68.2804 25.1801H65.3104L65.3604 28.8201ZM63.1504 30.7501V18.1101H71.8404V20.1801H65.4004V23.2401H68.2404C69.4415 23.076 70.6606 23.3647 71.6604 24.0501C72.0828 24.4142 72.4187 24.868 72.6436 25.3783C72.8685 25.8886 72.9767 26.4427 72.9604 27.0001C72.9756 27.5217 72.879 28.0405 72.6772 28.5216C72.4754 29.0028 72.1731 29.4353 71.7904 29.7901C70.8734 30.5167 69.7175 30.8735 68.5504 30.7901L63.1504 30.7501ZM80.3404 20.9401C80.2328 20.5573 80.1592 20.1658 80.1204 19.7701C80.0857 20.1471 80.0256 20.5212 79.9404 20.8901L78.1904 26.7801H82.0604L80.3504 20.9301L80.3404 20.9401ZM83.3404 30.7101L82.7104 28.7101H77.6004L77.0104 30.7101H74.8104L78.8104 18.1101H81.5004L85.6404 30.7101H83.3404ZM87.8404 18.1101H90.0404V23.2401H95.6704V18.1101H97.8004V30.7501H95.6404V25.1701H90.0104V30.7501H87.8104L87.8404 18.1101Z" fill="#073D59"/>
<path d="M107.56 18.1499H110.26L104.69 23.9999L110.69 30.7499H107.94L102.5 24.9499V30.7599H100.3V18.1499H102.5V23.3299L107.5 18.1499H107.56Z" fill="#073D59"/>
<path d="M29.85 26.9999C28.1734 27.0715 26.5032 27.2518 24.85 27.5399C23.8958 27.7189 22.9513 27.9459 22.02 28.2199C21.5778 28.3429 21.1436 28.4932 20.72 28.6699C20.54 28.2199 20.45 27.8099 20.32 27.3599V27.1799C20.1672 26.5214 20.0603 25.8532 20 25.1799H29.85V26.9999ZM29.85 36.1299H29.76C29.4 36.0399 29.04 35.9899 28.68 35.8999C27.8686 35.6888 27.0837 35.3869 26.34 34.9999C25.8492 34.7602 25.3835 34.4721 24.95 34.1399C23.8461 33.3721 22.8878 32.4138 22.12 31.3099C21.94 31.0399 21.8 30.8199 21.67 30.5899C21.76 30.5899 21.85 30.5899 21.94 30.4999C22.03 30.4099 22.07 30.4999 22.12 30.4999C23.0493 30.1942 23.9939 29.9371 24.95 29.7299C26.5835 29.4153 28.238 29.2215 29.9 29.1499L29.85 36.1299ZM22.07 34.5999C21.4373 34.3681 20.8195 34.0976 20.22 33.7899L19.95 33.6999L18.42 32.8899C18.42 32.8899 18.29 32.8899 18.24 32.7999C18.2933 32.7293 18.337 32.652 18.37 32.5699L18.5 32.3899C18.7999 32.0925 19.1358 31.8338 19.5 31.6199H19.63C19.6594 31.6285 19.6906 31.6285 19.72 31.6199C19.81 31.7099 19.85 31.8499 19.94 31.9399L20.17 32.2999C20.7231 33.1 21.3419 33.8526 22.02 34.5499C22.11 34.6399 22.2 34.7799 22.29 34.8699C22.2 34.7299 22.11 34.6899 22.07 34.6899V34.5999ZM16.98 30.9999L16.58 31.5399C16.2885 31.3069 16.0175 31.0493 15.77 30.7699C14.1109 29.3155 13.0111 27.3281 12.66 25.1499H17.84C17.932 26.1999 18.1127 27.2403 18.38 28.2599C18.4821 28.7116 18.633 29.1508 18.83 29.5699C18.83 29.5699 18.7 29.6599 18.65 29.6999L18.43 29.8299C17.908 30.1694 17.4222 30.5615 16.98 30.9999ZM12.98 21.7299C13.2687 20.8938 13.6798 20.1053 14.2 19.3899C14.6563 18.7617 15.1683 18.176 15.73 17.6399C15.8382 17.5207 15.9589 17.4134 16.09 17.3199C16.1838 17.2195 16.2877 17.129 16.4 17.0499C16.9549 17.7282 17.6336 18.2949 18.4 18.7199H18.49C18.5909 18.7896 18.698 18.8498 18.81 18.8999C18.68 19.2599 18.54 19.6699 18.41 20.0699V20.2099C18.32 20.5299 18.23 20.8399 18.14 21.2099C18.008 21.8702 17.9178 22.5382 17.87 23.2099H12.66C12.7166 22.7033 12.8376 22.2059 13.02 21.7299H12.98ZM18.2 15.7299C18.2998 15.686 18.3911 15.6251 18.47 15.5499C19.01 15.2299 19.55 14.9699 20.14 14.6499H20.27L21.71 13.9999C21.851 13.9586 21.9856 13.898 22.11 13.8199H22.24L22.06 13.9999C21.3668 14.6835 20.7468 15.4376 20.21 16.2499L19.94 16.6499C19.8769 16.7759 19.8033 16.8963 19.72 17.0099C19.2745 16.7544 18.8644 16.4418 18.5 16.0799C18.3664 15.9595 18.2457 15.8254 18.14 15.6799C18.14 15.7699 18.14 15.7699 18.14 15.6799L18.2 15.7299ZM51.58 29.6299H36.38V31.4299H46.77C46.3626 31.8 45.9244 32.1345 45.46 32.4299C41.3361 34.9608 36.5781 36.2683 31.74 36.1999V25.1999H49.2V23.2399H19.9C19.9 22.6999 20.03 22.2399 20.12 21.6699C20.1718 21.4942 20.202 21.3129 20.21 21.1299C20.326 20.653 20.4764 20.1851 20.66 19.7299L20.93 19.8199C21.29 19.9499 21.65 20.0399 22.01 20.1799C22.9369 20.4707 23.8871 20.6814 24.85 20.8099H25.12C25.84 20.9399 26.65 21.0799 27.6 21.1699L29.85 21.2999V19.2799C29.1581 19.2771 28.4669 19.2337 27.78 19.1499C26.9943 19.0905 26.2128 18.9837 25.44 18.8299C25.2566 18.8257 25.0748 18.7954 24.9 18.7399C23.9386 18.5683 22.9923 18.3208 22.07 17.9999C21.94 17.9999 21.84 17.9999 21.71 17.9099C21.58 17.8199 21.62 17.9099 21.58 17.9099C21.6837 17.7069 21.8041 17.5129 21.94 17.3299C21.94 17.2399 22.03 17.1999 22.07 17.0999C22.8245 15.9821 23.7849 15.0183 24.9 14.2599C26.3125 13.2308 27.9459 12.546 29.67 12.2599H29.85V10.0999H29.72C29.6618 10.0793 29.5982 10.0793 29.54 10.0999C27.9965 10.1962 26.4623 10.4067 24.95 10.7299C23.9876 10.9283 23.0416 11.199 22.12 11.5399C21.54 11.7199 20.95 11.9399 20.27 12.2199C19.77 12.4399 19.19 12.7199 18.52 13.0699C17.5714 13.5745 16.668 14.16 15.82 14.8199C14.6036 15.7377 13.5287 16.8293 12.63 18.0599C11.9851 18.9652 11.467 19.9543 11.09 20.9999C10.706 22.0234 10.5062 23.1068 10.5 24.1999C10.5 27.5799 12.34 30.8599 15.68 33.4699C15.86 33.5999 16.08 33.7399 16.27 33.8799C16.46 34.0199 16.67 34.1499 16.86 34.2899L17.99 34.9599C18.12 35.0499 18.26 35.0999 18.39 35.1899C18.89 35.4599 19.39 35.6799 19.92 35.9099L20.14 35.9999C20.68 36.2299 21.27 36.4499 21.99 36.7199C22.9367 37.0332 23.88 37.3032 24.82 37.5299C27.0529 38.0214 29.3336 38.2629 31.62 38.2499C36.9162 38.3578 42.1289 36.9191 46.62 34.1099C47.3938 33.6265 48.1174 33.0671 48.78 32.4399C49.32 31.9499 50.94 30.3199 51.48 29.6499H51.62L51.58 29.6299Z" fill="#073D59"/>
</svg>
