<svg width="31" height="32" viewBox="0 0 31 32" fill="none" xmlns="http://www.w3.org/2000/svg">
<path d="M4.99143 32V0.288054H17.4497C21.5269 0.288054 24.7434 1.19411 27.0992 3.00622C29.4549 4.78813 30.6328 7.40059 30.6328 10.8436C30.6328 14.2866 29.4549 16.9142 27.0992 18.7263C24.7434 20.5384 21.5269 21.4445 17.4497 21.4445H7.52838L9.56701 19.3152V32H4.99143ZM9.56701 19.7682L7.52838 17.6843H17.4497C20.2283 17.6843 22.3575 17.0954 23.8374 15.9175C25.3173 14.7396 26.0572 13.0634 26.0572 10.8889C26.0572 8.74457 25.3173 7.09857 23.8374 5.9509C22.3575 4.80323 20.2283 4.2294 17.4497 4.2294H7.52838L9.56701 1.96426V19.7682ZM0.370543 26.6996V24.1173H19.6242V26.6996H0.370543Z" fill="#1F4193"/>
</svg>
