<svg width="201" height="51" viewBox="0 0 201 51" fill="none" xmlns="http://www.w3.org/2000/svg">
<path d="M77.3 30.9C77.1 30.8 77 30.6 77 30.5V25.2C77 24 77.2 22.7 76.7 21.6C75.8 19.7 73.2 19.7 71.4 20.2C70.1 20.6 69.6 22 69.5 23.2C69.5 23.4 69.4 23.6 69.4 23.8C69.4 23.9 69.4 24 69.6 24L71.9 24.4C72 24.4 72.1 24.4 72.1 24.2C72.1 23.6 72 22.9 72.5 22.4C72.8 22.2 73.3 22.1 73.6 22.3C74 22.5 74 23.2 74 23.7C74 24.2 73.5 24.6 73.1 24.8C71.8 25.3 70.1 25.9 69.7 27.6C69.4 29 69.3 30.7 69.7 32.1C69.9 32.8 70.6 33.3 71.2 33.4C72.1 33.6 72.9 33.4 73.5 32.8C73.7 32.6 73.7 32.5 73.9 32.4C74 32.3 74.1 32.4 74.1 32.4C74.2 32.6 74.2 32.8 74.4 33C75.1 33.6 76.3 33.3 77.2 33.4C77.3 33.4 77.4 33.3 77.4 33.2L77.5 31.2C77.7 30.9 77.5 30.9 77.3 30.9ZM74.1 29.7C74.1 29.9 74 30.2 73.9 30.3C73.8 30.5 73.5 30.6 73.3 30.7C73.1 30.7 72.9 30.6 72.7 30.5C72.5 30.2 72.5 29.8 72.5 29.4C72.5 28.6 72.5 27.9 73.2 27.4C73.4 27.2 73.6 27 73.9 26.9C74 26.8 74.1 27 74.1 27.1V29.7ZM111.5 21.2C110.9 20.2 109.5 19.7 108.4 20L107.6 20.4C107.5 20.4 107.3 20.5 107.3 20.2C107.3 19.6 107.9 18.9 108.5 18.6C109.3 18.2 110.4 17.9 111.2 17.4C112.2 16.7 112.6 16.1 112.6 15C112.6 14.9 112.6 14.8 112.5 14.8L110.1 14.4C110 14.4 109.9 14.4 109.9 14.5C109.9 15 109.6 15.6 109.1 15.8C107.9 16.4 107.1 16.3 106.1 17.3C104.7 18.8 104.8 21.7 104.7 23.7C104.7 25 104.7 27.9 104.8 28.5C104.8 29.3 104.9 30.2 105.1 30.9C105.6 32.5 106.9 33.2 108.4 33.2C109.9 33.2 111.3 32.6 111.8 30.9C112.1 29.8 112.2 27.7 112.1 26C112.2 24.5 112.3 22.6 111.5 21.2ZM109.3 29.1C109.3 29.8 109.2 30.6 108.9 30.9C108.8 31 108.7 31 108.5 31C108.4 31 108.2 31 108.2 30.9C107.9 30.6 107.7 29.7 107.7 29V24.5C107.7 23.8 107.7 22.9 108 22.4C108.1 22.2 108.3 22.1 108.5 22.1C108.7 22.1 109 22.3 109.1 22.4C109.3 22.8 109.3 23.8 109.4 24.5C109.4 26.1 109.4 27.6 109.3 29.1ZM121 19.9C121.1 19.9 121.2 20 121.1 20.2L118.9 25.6V25.8L121.4 33C121.4 33.1 121.4 33.2 121.3 33.2H118.8C118.6 33.1 118.6 33.1 118.6 32.9L116.7 27.3C116.6 27.1 116.4 27.2 116.4 27.4L116.5 32.9C116.5 33 116.5 33.1 116.3 33.1H113.8C113.7 33.1 113.6 33 113.6 32.9V20C113.6 19.9 113.6 19.8 113.8 19.8H116.2C116.3 19.8 116.4 19.9 116.4 20C116.4 21.8 116.3 22.4 116.4 24.2C116.4 24.4 116.6 24.4 116.7 24.2L118.4 20C118.4 19.9 118.5 19.8 118.7 19.9C119.5 20 120.2 19.9 121 19.9ZM163.6 20H166.2C166.3 20 166.3 20.1 166.3 20.1V33.1C166.3 33.2 166.2 33.3 166.1 33.3H163.6C163.5 33.3 163.4 33.2 163.4 33.1V27.1C163.4 27 163.3 26.9 163.2 26.9H161.8C161.7 26.9 161.6 27 161.6 27.1V33.2C161.6 33.3 161.5 33.4 161.4 33.4H158.9C158.8 33.4 158.7 33.3 158.7 33.2V20.2C158.7 20.1 158.8 20.1 158.8 20.1H161.4C161.5 20.1 161.5 20.2 161.5 20.2V24.4C161.5 24.5 161.5 24.6 161.7 24.6H163.1C163.2 24.6 163.3 24.5 163.3 24.4V20.2C163.5 20 163.6 20 163.6 20ZM175.1 19.9C175.2 19.9 175.3 20 175.2 20.2L173 25.6V25.8L175.5 33C175.5 33.1 175.5 33.2 175.4 33.2H172.9C172.7 33.1 172.7 33.1 172.7 32.9L170.8 27.3C170.7 27.1 170.5 27.2 170.5 27.4L170.6 32.9C170.6 33 170.6 33.1 170.4 33.1H167.9C167.8 33.1 167.7 33 167.7 32.9V20C167.7 19.9 167.7 19.8 167.9 19.8H170.3C170.4 19.8 170.5 19.9 170.5 20C170.5 21.8 170.4 22.4 170.5 24.2C170.5 24.4 170.7 24.4 170.8 24.2L172.5 20C172.5 19.9 172.6 19.8 172.8 19.9C173.6 20 174.3 19.9 175.1 19.9ZM157.5 30.9C157.3 30.8 157.2 30.6 157.2 30.5V25.2C157.2 24 157.4 22.7 156.9 21.6C156 19.7 153.4 19.7 151.6 20.2C150.3 20.6 149.8 22 149.7 23.2C149.7 23.4 149.6 23.6 149.6 23.8C149.6 23.9 149.6 24 149.8 24L152.1 24.4C152.2 24.4 152.3 24.4 152.3 24.2C152.3 23.6 152.2 22.9 152.7 22.4C153 22.2 153.5 22.1 153.8 22.3C154.2 22.5 154.2 23.2 154.2 23.7C154.2 24.2 153.7 24.6 153.3 24.8C152 25.3 150.3 25.9 149.9 27.6C149.6 29 149.5 30.7 149.9 32.1C150.1 32.8 150.8 33.3 151.4 33.4C152.3 33.6 153.1 33.4 153.7 32.8C153.9 32.6 153.9 32.5 154.1 32.4C154.2 32.3 154.3 32.4 154.3 32.4C154.4 32.6 154.4 32.8 154.6 33C155.3 33.6 156.5 33.3 157.4 33.4C157.5 33.4 157.6 33.3 157.6 33.2L157.7 31.2C157.8 30.9 157.6 30.9 157.5 30.9ZM154.3 29.7C154.3 29.9 154.2 30.2 154.1 30.3C154 30.5 153.7 30.6 153.5 30.7C153.3 30.7 153.1 30.6 152.9 30.5C152.7 30.2 152.7 29.8 152.7 29.4C152.7 28.6 152.7 27.9 153.4 27.4C153.6 27.2 153.8 27 154.1 26.9C154.2 26.8 154.3 27 154.3 27.1C154.2 28 154.3 28.9 154.3 29.7ZM130.6 20C131.5 20 132.2 20.1 133.4 20C133.5 20 133.6 20.1 133.7 20.2L135.1 26.2C135.1 26.4 135.4 26.4 135.4 26.2L136.8 20.2C136.8 20.1 136.9 20 137.1 20C138.1 20.1 138.8 20 139.9 20C140 20 140.1 20.1 140.1 20.2V33.1C140.1 33.2 140 33.3 139.9 33.3H137.5C137.4 33.3 137.3 33.2 137.3 33.1V26.1C137.3 25.9 137.1 25.9 137 26.1L136 31.5C136 31.6 135.9 31.7 135.7 31.7H134.6C134.5 31.7 134.4 31.6 134.3 31.5L133.3 26.1C133.3 25.9 133 25.9 133 26.1V33.1C133 33.2 132.9 33.3 132.8 33.3H130.5C130.4 33.3 130.3 33.2 130.3 33.1V20.2C130.3 20 130.4 20 130.6 20ZM128.8 26.2C128.8 24.5 128.9 22.6 128.1 21.1C127.9 20.7 127.5 20.4 127.1 20.2C126.5 19.8 125.9 19.8 125.1 19.8C124.3 19.8 123.7 19.8 123.1 20.2C122.7 20.4 122.3 20.7 122.1 21.1C121.3 22.6 121.4 24.4 121.4 26.2C121.4 27.9 121.4 29.7 121.7 31.1C121.9 32 122.8 32.9 123.6 33.2C124 33.3 124.5 33.4 125 33.4C125.5 33.4 126 33.3 126.4 33.2C127.3 32.9 128.1 32.1 128.3 31.1C128.8 29.7 128.9 27.9 128.8 26.2ZM125.9 24.5V29C125.9 29.7 125.8 30.6 125.5 30.9C125.4 31 125.3 30.9 125.2 30.9H124.9C124.6 30.6 124.5 29.7 124.5 29V24.5C124.5 23.8 124.5 23 124.8 22.4C124.9 22.2 125 22.2 125.2 22.2C125.4 22.2 125.6 22.3 125.6 22.4C125.9 23 125.9 23.8 125.9 24.5ZM96 30.6V20.2C96 20.1 96.1 20 96.1 20H98.6C98.7 20 98.8 20 98.8 20.2V30.4C98.8 30.7 99.1 31.2 99.6 31.1C100.1 31 100.3 30.8 100.3 30.3V20.1C100.3 20 100.4 19.9 100.5 19.9H103C103.1 19.9 103.2 20 103.2 20.1V33C103.2 33.1 103.1 33.2 103 33.2H100.5C100.4 33.2 100.4 33.2 100.3 33V32.5C100.3 32.4 100.2 32.4 100.1 32.4C99.8 32.5 99.6 32.8 99.3 33C98.6 33.4 97.5 33.4 96.8 33C96.1 32.5 96 31.5 96 30.6ZM94.4 21.2C94.9 22.2 94.7 23 94.8 24.2C94.8 24.4 94.8 24.7 94.7 24.7L92.3 25.1C92.2 25.1 92.1 25 92.1 24.9C92.1 24 92.2 23.7 92.1 22.8C92 22.5 92 22.2 91.6 22.1C91.4 22 91.1 22.1 91 22.2C90.5 22.6 90.6 23.3 90.6 23.9V29.6C90.6 30 90.6 30.6 91.1 30.8C91.4 30.9 91.6 30.9 91.9 30.7C92.1 30.4 92.2 30.1 92.2 29.8C92.3 28.9 92.2 27.8 92.2 26.9C92.2 26.8 92.3 26.7 92.4 26.7L94.8 27.2C94.9 27.2 95 27.3 95 27.4V27.8C94.9 29.7 95.4 32.3 93.3 33.1C92.1 33.6 90.6 33.5 89.4 33.1C88.5 32.8 87.9 31.8 87.8 30.8C87.6 27.5 87.8 26.9 87.7 23.4C87.7 22.1 88 20.8 89.2 20.1C90.2 19.6 91.5 19.6 92.6 19.8C93.2 20 94 20.4 94.4 21.2ZM86.2 33.1C86.2 33.2 86.1 33.3 86 33.3H83.5C83.4 33.3 83.3 33.3 83.3 33.1V22.2C83.3 22.1 83.3 22 83.1 22H82C81.9 22 81.8 22 81.8 22.2V33C81.8 33.1 81.8 33.2 81.6 33.2H79.1C79 33.2 78.9 33.1 78.9 33V20.1C78.9 20 79 19.9 79.1 19.9C81.1 19.9 83.5 20 86 19.9C86.1 19.9 86.2 20 86.2 20.1V33.1ZM60.8 16C60.3 17.2 60.4 18.4 60.3 19.8C60.3 20 60.4 20 60.5 20L63.2 20.5C63.3 20.5 63.4 20.4 63.4 20.3C63.4 19.3 63.3 18.8 63.5 17.9C63.6 17.6 63.8 17.1 64.2 17.1C64.5 17 64.7 17.1 64.9 17.2C65.5 17.8 65.3 19.4 65.3 20.2C65.1 21.2 64.2 22 63.3 22C63.1 22 63.1 22.1 63.1 22.3C63.2 23 63.1 23.7 63.1 24.4C63.1 24.5 63.2 24.6 63.3 24.6C64.5 24.6 65.3 24.9 65.3 25.6V29C65.3 29.5 65.3 30.1 64.7 30.3C64.4 30.4 64 30.4 63.7 30.1C63.4 29.8 63.4 29.5 63.3 29.1C63.2 28.1 63.3 27 63.3 26C63.3 25.9 63.2 25.8 63.1 25.8L60.4 26.5C60.3 26.5 60.2 26.5 60.2 26.8C60.3 28.9 59.8 32.1 62.1 33C63.5 33.6 65.2 33.5 66.6 33C67.6 32.6 68.3 31.5 68.4 30.4C68.5 28.8 68.5 27.5 68.5 25.8C68.5 24.7 68 23.6 67.2 23.3C67 23.3 67.1 23 67.2 22.9C67.9 22.4 68.5 21.4 68.5 20.3V18.5C68.5 17 68.2 15.5 66.8 14.8C65.7 14.2 64.1 14.2 62.9 14.4C62.1 14.7 61.2 15.2 60.8 16ZM148.1 21.2C147.5 20.2 146.1 19.7 145 20L144.2 20.4C144.1 20.4 143.9 20.5 143.9 20.2C143.9 19.6 144.5 18.9 145.1 18.6C145.9 18.2 147 17.9 147.8 17.4C148.8 16.7 149.2 16.1 149.2 15C149.2 14.9 149.2 14.8 149.1 14.8L146.7 14.4C146.6 14.4 146.5 14.4 146.5 14.5C146.5 15 146.2 15.6 145.7 15.8C144.5 16.4 143.7 16.3 142.7 17.3C141.3 18.8 141.4 21.7 141.3 23.7C141.3 25 141.3 27.9 141.4 28.5C141.4 29.3 141.5 30.2 141.7 30.9C142.2 32.5 143.5 33.2 145 33.2C146.5 33.2 147.9 32.6 148.4 30.9C148.7 29.8 148.8 27.7 148.7 26C148.8 24.5 148.9 22.6 148.1 21.2ZM145.9 29.1C145.9 29.8 145.8 30.6 145.5 30.9C145.4 31 145.3 31 145.1 31C145 31 144.8 31 144.8 30.9C144.5 30.6 144.3 29.7 144.3 29V24.5C144.3 23.8 144.3 22.9 144.6 22.4C144.7 22.2 144.9 22.1 145.1 22.1C145.3 22.1 145.6 22.3 145.7 22.4C145.9 22.8 145.9 23.8 146 24.5C145.9 26.1 145.9 27.6 145.9 29.1ZM41 9.5C32.5 9.5 25.5 16.5 25.5 25.1C25.5 33.6 32.5 40.6 41 40.6C49.6 40.6 56.6 33.6 56.6 25.1C56.6 16.5 49.6 9.5 41 9.5ZM41 38.2C35.4 38.2 30.7 34.7 28.7 29.8L31.1 29.7C32.9 33.4 36.6 35.9 40.9 35.9C45.5 35.9 49.6 33 51.1 28.8L46.2 25L51.1 21.2C49.6 17.1 45.5 14.1 41 14.1C36.8 14.1 33.2 16.5 31.4 19.9L29 19.8C31 15.1 35.7 11.9 41 11.9C47.1 11.9 52.1 16 53.7 21.6L49.2 25L53.8 28.5H53.7C52.1 34 47 38.2 41 38.2ZM44.7 20.7H47.6L42.7 25L48.4 29.3H45.2L40.3 25.7V29.3L38.2 29.2V20.6H40.3V24.4L44.7 20.7ZM44.9 20.2C43.9 19.3 42.5 18.8 41 18.8C39.2 18.8 37.6 19.5 36.4 20.7C35.4 21.9 34.7 23.5 34.7 25.1C34.7 28.3 37.1 31 40.3 31.3C40.6 31.4 40.8 31.4 41 31.4C42.5 31.4 43.8 30.9 44.9 30.1H48C46.4 32.3 43.9 33.7 41 33.7C36.3 33.7 32.5 29.9 32.5 25.2C32.5 23 33.3 21.1 34.6 19.5C36 17.9 38 16.9 40.3 16.6H41C43.9 16.6 46.4 18 48 20.3H44.9V20.2Z" fill="#006D78"/>
</svg>
