<svg width="200" height="50" viewBox="0 0 200 50" fill="none" xmlns="http://www.w3.org/2000/svg">
<path d="M55.5076 21.0259C56.6544 21.0259 57.931 21.0657 59.038 21.8137C59.776 22.3024 60.6436 23.2698 60.6436 24.9951C60.6436 26.89 59.4469 29.1239 56.1259 29.1239H53.3334V34.3199H50.8901V21.0259H55.5076ZM55.6073 27.1792C56.1458 27.1792 56.9237 27.1991 57.542 26.6207C57.9709 26.2318 58.2003 25.5735 58.2003 25.0151C58.2003 24.4965 57.9908 23.8682 57.562 23.4992C57.1331 23.1302 56.455 22.9506 55.697 22.9506H53.3334V27.1792H55.6073ZM62.8976 25.4439C63.5758 24.8056 64.5831 24.2471 66.089 24.2471C67.6049 24.2471 68.6122 24.8056 69.2903 25.4439C70.2976 26.3913 70.8162 27.8673 70.8162 29.3733C70.8162 30.8792 70.2976 32.3552 69.2903 33.3026C68.6122 33.9409 67.6049 34.5093 66.089 34.5093C64.5831 34.5093 63.5758 33.9409 62.8976 33.3026C61.8904 32.3552 61.3718 30.8792 61.3718 29.3733C61.3618 27.8574 61.8904 26.3913 62.8976 25.4439ZM64.5432 32.1657C64.7526 32.415 65.2413 32.8837 66.089 32.8837C66.9467 32.8837 67.4254 32.425 67.6348 32.1657C67.7944 31.9962 68.3728 31.2183 68.3728 29.3733C68.3728 27.5283 67.7944 26.7603 67.6348 26.5808C67.4254 26.3315 66.9367 25.8628 66.089 25.8628C65.2413 25.8628 64.7526 26.3215 64.5432 26.5808C64.3936 26.7603 63.8052 27.5283 63.8052 29.3733C63.8052 31.2083 64.3936 31.9862 64.5432 32.1657ZM78.5452 28.0568C78.5053 27.5582 78.3158 26.9698 78.0565 26.6008C77.8171 26.2517 77.3584 25.8628 76.5805 25.8628C75.8225 25.8628 75.3239 26.2517 75.0147 26.7703C74.526 27.5681 74.4961 28.8048 74.4961 29.3733C74.4961 30.2808 74.6258 31.3679 75.0147 31.9862C75.264 32.3751 75.7727 32.8738 76.5805 32.8738C77.1589 32.8738 77.6476 32.6444 78.0166 32.1358C78.3058 31.7269 78.5053 31.1484 78.5352 30.6398L80.5896 30.8892C80.4699 31.7967 80.071 32.8139 79.353 33.4622C78.7546 34.0007 77.8171 34.4894 76.5007 34.4894C75.0347 34.4894 74.0773 33.911 73.5188 33.3824C72.7608 32.6643 72.0428 31.3878 72.0428 29.3733C72.0428 27.4983 72.681 26.3714 73.1897 25.773C73.9077 24.9153 75.1244 24.2272 76.5605 24.2272C77.7872 24.2272 78.7945 24.656 79.4228 25.3143C80.061 25.9525 80.45 26.9199 80.5896 27.7876L78.5452 28.0568ZM88.1592 28.0568C88.1193 27.5582 87.9298 26.9698 87.6705 26.6008C87.4412 26.2517 86.9724 25.8628 86.1945 25.8628C85.4366 25.8628 84.9379 26.2517 84.6288 26.7703C84.1501 27.5681 84.1102 28.8048 84.1102 29.3733C84.1102 30.2808 84.2498 31.3679 84.6288 31.9862C84.8781 32.3751 85.3867 32.8738 86.1945 32.8738C86.773 32.8738 87.2616 32.6444 87.6306 32.1358C87.9199 31.7269 88.1193 31.1484 88.1492 30.6398L90.2037 30.8892C90.094 31.7967 89.6851 32.8139 88.967 33.4622C88.3686 34.0007 87.4412 34.4894 86.1247 34.4894C84.6487 34.4894 83.7013 33.911 83.1428 33.3824C82.3849 32.6643 81.6668 31.3878 81.6668 29.3733C81.6668 27.4983 82.3051 26.3714 82.8137 25.773C83.5317 24.9153 84.7485 24.2272 86.1846 24.2272C87.4013 24.2272 88.4085 24.656 89.0468 25.3143C89.6851 25.9525 90.074 26.9199 90.2136 27.7876L88.1592 28.0568ZM100.576 31.4476C100.227 32.6045 99.5284 33.2827 98.95 33.6916C98.1721 34.2101 97.1648 34.5093 96.0977 34.5093C94.7613 34.5093 93.405 33.9409 92.5872 33.1131C91.8293 32.3452 91.2708 30.9988 91.2708 29.4131C91.2708 27.3986 92.1085 26.0622 93.0161 25.3043C93.5446 24.8555 94.532 24.2372 96.0179 24.2372C97.9028 24.2372 99.0996 25.1048 99.7379 26.0024C100.416 26.9299 100.735 28.2264 100.735 29.3533V29.8021H93.7242C93.7242 29.9118 93.7042 30.8094 94.0533 31.5274C94.5719 32.6145 95.5293 32.8837 96.1875 32.8837C96.7061 32.8837 97.3643 32.7242 97.9128 32.1657C98.2419 31.8166 98.3815 31.4875 98.4314 31.1784L100.576 31.4476ZM98.2918 28.3261C98.2918 27.7676 98.1522 27.1293 97.8629 26.7005C97.4939 26.1619 96.8357 25.7929 96.1177 25.7929C95.3797 25.7929 94.7414 26.1619 94.3524 26.6207C94.0433 27.0097 93.774 27.608 93.774 28.3261H98.2918ZM110.299 24.4366V34.3199H108.046V26.1121H105.492C105.433 27.4485 105.393 27.987 105.353 28.9045C105.293 29.9317 105.223 32.0959 104.346 33.2827C103.857 33.9209 103.258 34.1703 102.83 34.2899C102.58 34.3697 102.311 34.3996 102.032 34.3996C101.842 34.3996 101.643 34.3797 101.453 34.3199V32.6145H101.643C101.932 32.5945 102.321 32.4449 102.57 32.2455C103.348 31.6271 103.418 30.2309 103.498 29.1239C103.598 27.6679 103.618 26.8002 103.627 25.4838L103.647 24.4366H110.299ZM114.917 27.9571H117.4C118.038 27.9571 119.275 28.0369 120.093 28.8447C120.831 29.5627 120.901 30.57 120.901 31.1086C120.901 32.5247 120.322 33.2428 119.873 33.6118C119.714 33.7315 118.986 34.3099 117.59 34.3099H112.673V24.4366H114.917V27.9571ZM114.917 32.6843H116.682C117.111 32.6843 117.57 32.6643 117.959 32.3352C118.188 32.1158 118.467 31.7568 118.467 31.1285C118.467 30.59 118.308 30.1611 117.869 29.8719C117.48 29.6226 116.991 29.5827 116.692 29.5827H114.927V32.6843H114.917ZM124.172 24.4366L125.997 27.5083L127.892 24.4366H129.946L127.054 28.9045L130.485 34.3099H127.852L125.608 30.59L123.244 34.3099H121.19L124.561 29.1838L121.539 24.4366H124.172ZM132.22 25.4439C132.898 24.8056 133.906 24.2471 135.411 24.2471C136.927 24.2471 137.935 24.8056 138.613 25.4439C139.62 26.3913 140.139 27.8673 140.139 29.3733C140.139 30.8792 139.61 32.3552 138.613 33.3026C137.935 33.9409 136.927 34.5093 135.411 34.5093C133.906 34.5093 132.898 33.9409 132.22 33.3026C131.213 32.3552 130.694 30.8792 130.694 29.3733C130.694 27.8574 131.213 26.3913 132.22 25.4439ZM133.866 32.1657C134.075 32.415 134.564 32.8837 135.411 32.8837C136.269 32.8837 136.748 32.425 136.967 32.1657C137.117 31.9962 137.705 31.2183 137.705 29.3733C137.705 27.5283 137.127 26.7603 136.967 26.5808C136.758 26.3315 136.269 25.8628 135.411 25.8628C134.564 25.8628 134.075 26.3215 133.866 26.5808C133.706 26.7603 133.128 27.5283 133.128 29.3733C133.128 31.2083 133.716 31.9862 133.866 32.1657ZM141.345 27.1094C141.635 25.9126 142.392 25.2544 142.931 24.9253C143.26 24.7159 144.168 24.2471 145.723 24.2471C146.691 24.2471 147.678 24.4167 148.416 24.8256C149.503 25.424 149.772 26.2916 149.772 26.9199C149.772 27.5981 149.443 28.8946 147.758 29.084V29.1239C148.336 29.2037 148.975 29.453 149.364 29.8619C149.713 30.2309 149.982 30.8493 149.982 31.5075C149.982 32.4948 149.403 33.3625 148.665 33.8511C147.778 34.4296 146.551 34.5093 145.644 34.5093C144.726 34.5093 143.34 34.4096 142.363 33.6417C141.824 33.2129 141.315 32.4749 141.166 31.5474L143.2 31.1983C143.28 31.5075 143.45 31.9762 143.679 32.2455C144.188 32.8339 144.975 32.8837 145.484 32.8837C145.993 32.8837 146.531 32.8239 146.96 32.5347C147.349 32.2654 147.539 31.8964 147.539 31.4077C147.539 30.9989 147.459 30.6697 147.11 30.3805C146.661 30.0115 146.063 29.9517 145.504 29.9517H144.477V28.4358H145.504C145.893 28.4358 146.451 28.356 146.761 28.2064C147.17 27.997 147.399 27.6479 147.399 27.0795C147.399 26.7703 147.279 26.4711 146.99 26.2417C146.541 25.8727 145.903 25.8528 145.574 25.8528C145.125 25.8528 144.467 25.9126 143.928 26.3714C143.699 26.5609 143.39 26.9299 143.29 27.5083L141.345 27.1094ZM161.481 23.3496H155.068V26.2916H157.92C158.948 26.2916 159.935 26.3714 160.942 27.0695C161.93 27.7477 162.548 28.7549 162.548 30.211C162.548 31.5673 162.039 32.5746 161.401 33.2128C160.434 34.1802 159.327 34.3199 158.17 34.3199H151.967V21.0259H161.481V23.3496ZM155.068 31.9862H157.571C158.04 31.9862 158.469 31.9662 158.908 31.5174C159.337 31.0886 159.396 30.6099 159.396 30.2409C159.396 29.822 159.277 29.3932 158.908 29.0242C158.469 28.5854 157.9 28.5355 157.492 28.5355H155.068V31.9862ZM164.144 27.1792C164.453 25.8428 165.32 25.1646 165.849 24.8555C166.617 24.4067 167.644 24.2372 168.931 24.2372C170.556 24.2372 172.202 24.4466 172.94 25.9824C173.329 26.7803 173.289 27.628 173.289 28.366V32.1856C173.289 32.9835 173.398 33.7215 173.578 34.3199H170.766C170.686 33.9309 170.626 33.4123 170.616 32.7541C170.247 33.4123 169.349 34.5193 167.305 34.5193C166.397 34.5193 165.46 34.2899 164.822 33.7614C164.203 33.2527 163.814 32.4449 163.814 31.5573C163.814 30.57 164.243 29.3832 165.929 28.6851C167.016 28.2363 168.781 28.0867 169.569 28.0468L170.496 28.007V27.7975C170.496 27.5282 170.476 26.9498 170.207 26.6307C169.838 26.2018 169.1 26.1819 168.811 26.1819C168.412 26.1819 167.923 26.2218 167.514 26.4711C167.265 26.6207 166.936 26.9398 166.816 27.4784L164.144 27.1792ZM169.629 29.6425C168.661 29.7223 167.694 29.822 167.145 30.4902C166.996 30.6797 166.836 30.9789 166.836 31.3778C166.836 31.8067 167.046 32.0959 167.265 32.2455C167.534 32.4549 167.943 32.5546 168.332 32.5546C168.911 32.5546 169.589 32.3053 169.978 31.8366C170.038 31.7767 170.496 31.1983 170.496 30.0714V29.5528L169.629 29.6425ZM178.415 24.4366V28.1366H181.536V24.4366H184.419V34.3099H181.536V30.1611H178.415V34.3099H175.533V24.4366H178.415ZM189.555 24.4366V28.2363H190.333C191.17 28.2363 191.519 27.8274 191.729 27.3787C192.138 26.511 192.118 25.8328 192.487 25.1547C192.776 24.6161 193.165 24.4765 193.414 24.4366H195.798C195.489 24.7657 195.219 25.1547 195.04 25.5037C194.731 26.142 194.442 27.1892 194.262 27.638C194.033 28.2563 193.644 28.8746 192.656 28.9544V28.9943C193.185 29.0741 193.724 29.3433 194.132 29.9417C194.382 30.3107 194.551 30.7894 194.831 31.5474C195.1 32.3253 195.219 32.5945 195.469 33.1929C195.668 33.6417 195.778 33.911 196.107 34.3199H193.394C192.966 34.1802 192.676 33.891 192.327 32.8837C192.058 32.1158 192.018 31.8366 191.839 31.4077L191.699 31.0587C191.41 30.3207 191.021 30.1711 190.422 30.1711H189.555V34.3199H186.673V24.4366H189.555Z" fill="#19502E"/>
<path d="M24.3223 49C12.5641 49 3 39.4459 3 27.6877C3 20.936 6.1016 14.7228 11.507 10.6539L11.7264 10.4743V1H23.9632V6.37544H24.3223C36.0704 6.37544 45.6345 15.9395 45.6345 27.6977C45.6345 39.4459 36.0704 49 24.3223 49Z" fill="#19502E"/>
<path d="M18.1487 28.0267L22.5867 23.6685V20.7065L18.1487 25.0448V28.0267ZM18.1487 16.9866L22.5867 12.6184V9.82604L18.1487 14.1642V16.9866ZM18.1487 20.6367L22.5867 16.2785V13.4861L18.1487 17.8243V20.6367ZM16.8822 9.85596L16.2938 9.2875V2.37622H15.6157V8.62929L15.0372 8.05085V2.37622H14.3591V7.40261L13.7707 6.82417V2.37622H13.1025V8.96837L17.5504 13.3265V2.37622H16.8822V9.85596ZM18.1487 24.2868L22.5867 19.9286V17.1362L18.1487 21.4744V24.2868ZM13.1025 23.6685L17.5504 28.0267V25.0448L13.1025 20.7065V23.6685ZM21.9185 6.82417L21.3301 7.40261V2.37622H20.6619V8.06083L20.0735 8.62929V2.37622H19.4053V9.27753L18.8169 9.85596V2.37622H18.1487V13.3265L22.5867 8.96837V2.37622H21.9185V6.82417ZM13.1025 12.6184L17.5504 16.9866V14.1642L13.1025 9.82604V12.6184ZM13.1025 16.2785L17.5504 20.6367V17.8243L13.1025 13.4861V16.2785ZM13.1025 19.9286L17.5504 24.2868V21.4744L13.1025 17.1362V19.9286ZM39.5608 22.2324H28.7601C28.9895 21.8734 29.1191 21.4545 29.1191 21.0057C29.1191 19.7192 28.0719 18.682 26.7854 18.682C25.4989 18.682 24.4617 19.7292 24.4617 21.0057C24.4617 21.5144 24.6213 21.9731 24.9005 22.3521C24.7011 22.4817 24.5614 22.7111 24.5614 22.9804C24.5614 23.2397 24.7011 23.4691 24.9005 23.5987C24.6313 23.9777 24.4617 24.4464 24.4617 24.9451C24.4617 26.2316 25.4989 27.2688 26.7854 27.2688C28.0719 27.2688 29.1191 26.2316 29.1191 24.9451C29.1191 24.4963 28.9895 24.0674 28.7601 23.7184H36.7983V24.2071H36.0005V24.8952H36.7983V25.6033H36.0005V26.9097H36.7983V26.3213H37.9751V26.9097H38.763V25.6033H37.9751V24.8952H38.763V24.2071H37.9751V23.7184H39.5608C39.87 23.7184 40.1193 23.4591 40.1193 23.1499V22.8009C40.1193 22.4917 39.86 22.2324 39.5608 22.2324ZM27.9922 24.9451C27.9922 25.6033 27.4536 26.1418 26.7854 26.1418C26.1272 26.1418 25.5887 25.6033 25.5887 24.9451C25.5887 24.7057 25.6585 24.4763 25.7881 24.2868L26.1172 23.7184C25.9078 23.5389 25.7781 23.2696 25.7781 22.9704C25.7781 22.6712 25.9078 22.402 26.1172 22.2224L25.7881 21.654C25.6585 21.4645 25.5887 21.2451 25.5887 20.9958C25.5887 20.3375 26.1272 19.799 26.7854 19.799C27.4436 19.799 27.9922 20.3375 27.9922 20.9958C27.9922 21.4844 27.4237 22.6513 27.4237 22.6513V23.2796C27.4237 23.2896 27.9922 24.4564 27.9922 24.9451Z" fill="#FFCB05"/>
<path d="M9.06348 20.8164V23.7186C9.06348 26.4911 10.2702 28.2762 10.9683 28.9644C11.3772 29.3633 15.506 33.4323 15.5659 33.4821C16.8524 34.7387 17.0718 35.1476 17.361 35.8657V32.6544C17.361 29.7921 15.9149 28.6851 15.1669 27.9571C13.4217 26.2617 12.2648 25.1447 11.3174 24.2072C9.54218 22.4221 9.06348 20.8164 9.06348 20.8164ZM15.167 35.1277C13.4317 33.4223 12.2648 32.3153 11.3274 31.3778C9.54222 29.5927 9.07349 28.3859 9.07349 28.3859V30.8891C9.07349 33.6616 10.3301 35.4269 10.9684 36.1549C11.3772 36.5538 15.516 40.6028 15.5659 40.6527C16.8524 41.9093 17.0718 42.5077 17.361 43.2158V39.8249C17.361 36.9627 15.905 35.8557 15.167 35.1277Z" fill="white"/>
<path d="M24.322 7.7417C24.0029 7.7417 23.6837 7.75167 23.3646 7.76165V9.11797C23.6837 9.09803 23.9929 9.09803 24.322 9.09803C34.5842 9.09803 42.9017 17.4155 42.9017 27.6877C42.9017 37.9499 34.5842 46.2674 24.322 46.2674C14.0598 46.2674 5.73231 37.9499 5.73231 27.6877C5.73231 21.9931 8.29537 16.8969 12.3345 13.4862V11.7509C7.49753 15.391 4.37598 21.1753 4.37598 27.6877C4.37598 38.6979 13.3018 47.6237 24.322 47.6237C35.3322 47.6237 44.258 38.6979 44.258 27.6877C44.258 16.6775 35.3322 7.7417 24.322 7.7417Z" fill="white"/>
<path d="M38.4243 38.0995C38.7334 37.6806 39.0227 37.2418 39.3019 36.793V34.1203H38.4243V38.0995ZM40.9774 33.1429C41.107 32.754 41.2167 32.3651 41.3164 31.9761H38.4243V32.6842H38.8631C39.631 32.6642 40.4987 32.6543 40.9774 33.1429Z" fill="white"/>
<path d="M21.7195 31.8765H20.9316V39.8249H21.7195V31.8765Z" fill="white"/>
<path d="M19.1263 30.3505H21.7192C22.3874 30.3505 22.8562 30.4901 23.1254 30.7494C23.3947 31.0087 23.5244 31.4775 23.5244 32.1457V39.5755C23.5244 40.2437 23.3947 40.7125 23.1254 40.9718C22.7165 41.3806 21.9586 41.3806 21.3303 41.3806C21.1907 41.3707 21.0511 41.3707 20.9314 41.3707V44.8911C21.1907 44.941 21.45 44.9909 21.7192 45.0308V42.1386C22.916 42.1386 23.6939 41.7297 24.0629 40.9119V45.2202H24.3222C24.4818 45.2202 24.6513 45.2202 24.8109 45.2103V32.2753C24.8109 31.5872 24.9505 31.1085 25.2098 30.8392C25.4691 30.5699 25.9378 30.4303 26.596 30.4303C27.2642 30.4303 28.2516 30.3306 28.7602 30.8392C29.0195 31.1085 29.1391 31.5971 29.1391 32.2753V36.085H27.364V32.016H26.596V45.0707C26.8553 45.0407 27.1047 45.0008 27.364 44.951V36.8529H29.1391V44.5421C29.5081 44.4424 29.8672 44.3227 30.2262 44.193V37.1521C30.2262 36.3543 30.4157 35.7559 31.2235 35.4866L30.3259 30.5899H32.1211L32.4203 35.9354H32.6397L32.9389 30.5899H34.8337L33.8165 35.4866C34.6642 35.7858 34.8337 36.3044 34.8337 37.1521V41.6998C35.3623 41.3009 35.8609 40.882 36.3396 40.4232V30.54H41.6054C41.6453 30.3007 41.6752 30.0713 41.7051 29.822H29.3984L29.568 30.7095C29.179 29.9915 28.441 29.6325 27.354 29.6325H26.5861C25.2796 29.6325 24.4917 30.1511 24.1826 31.1883C23.9033 30.1012 23.0756 29.5627 21.7093 29.5627H18.3384V44.1531C18.5977 44.2429 18.857 44.3326 19.1163 44.4124V30.3505H19.1263ZM35.472 35.9653L34.6243 35.1575L35.472 30.7694V35.9653Z" fill="white"/>
<path d="M32.1309 43.3851C32.4002 43.2455 32.6694 43.1059 32.9387 42.9563V36.9426H32.1309V43.3851Z" fill="white"/>
</svg>
