<svg width="201" height="50" viewBox="0 0 201 50" fill="none" xmlns="http://www.w3.org/2000/svg">
<path d="M18.5 40.64H40.29V45.16H18.5V40.64ZM176.08 26.13L182.95 18.55H177.83L172.2 24.85V18.55H168.12V34.48H172.22V27.77L178.24 34.48H183.5L176.08 26.13ZM42.69 27.18C42.58 30.18 42.2 30.75 40.54 30.75V34.49H41.16C45.33 34.49 46.32 32.34 46.47 27.55L46.65 22.25H50.5V34.48H54.58V18.55H42.97L42.69 27.18ZM24.98 29.92H33.58L35.01 34.48H39.78L33.35 15.32C32.73 13.47 32.01 12 29.55 12C27.09 12 26.34 13.47 25.68 15.32L18.94 34.48H23.42L24.98 29.92ZM29.34 17H29.45L32.33 26.08H26.27L29.34 17ZM124.65 20.81H120.1V16.31H130.66V12.31H115.82V34.48H124.65C129.54 34.48 132.35 32.04 132.35 27.58C132.35 23.35 129.5 20.81 124.65 20.81ZM124.44 30.47H120.1V24.71H124.44C126.7 24.71 127.97 25.71 127.97 27.59C127.97 29.47 126.7 30.47 124.44 30.47ZM84.09 18.18V12.28H80.02V18.18C77.8829 18.2505 75.8611 19.1663 74.3986 20.7262C72.9362 22.2862 72.1526 24.3628 72.22 26.5C72.1472 28.6416 72.928 30.7244 74.3908 32.2903C75.8535 33.8563 77.8784 34.777 80.02 34.85V40.85H84.1V34.85C85.1608 34.8151 86.2044 34.5714 87.1708 34.1326C88.1373 33.6939 89.0077 33.0688 89.7323 32.2932C90.4568 31.5175 91.0212 30.6066 91.3932 29.6125C91.7652 28.6184 91.9374 27.5607 91.9 26.5C91.9428 25.4386 91.7737 24.3793 91.4028 23.384C91.0318 22.3886 90.4663 21.4771 89.7393 20.7026C89.0123 19.9282 88.1383 19.3062 87.1684 18.8731C86.1984 18.44 85.152 18.2044 84.09 18.18ZM80.03 31C78.9502 30.8814 77.9603 30.3431 77.2738 29.5013C76.5872 28.6595 76.259 27.5816 76.36 26.5C76.272 25.4211 76.6049 24.35 77.2891 23.5112C77.9732 22.6723 78.9555 22.1308 80.03 22V31ZM84.11 31V22C85.1845 22.1308 86.1668 22.6723 86.8509 23.5112C87.5351 24.35 87.868 25.4211 87.78 26.5C87.8757 27.5805 87.5456 28.6556 86.86 29.4963C86.1745 30.3369 85.1877 30.8765 84.11 31ZM107.19 29.59V24.22C107.19 20.3 104.7 17.85 100.52 17.85C96.34 17.85 93.9 20.45 93.7 23.16H97.83C97.97 22.58 98.59 21.55 100.51 21.55C100.869 21.5038 101.233 21.5416 101.574 21.6606C101.916 21.7796 102.225 21.9763 102.477 22.2354C102.729 22.4944 102.918 22.8086 103.028 23.153C103.138 23.4975 103.166 23.8628 103.11 24.22H99.11C95.49 24.22 93.34 26.13 93.34 29.29C93.3118 30.0441 93.4422 30.7957 93.7228 31.4962C94.0035 32.1967 94.4281 32.8304 94.9692 33.3564C95.5102 33.8824 96.1557 34.2889 96.8639 34.5497C97.572 34.8104 98.327 34.9195 99.08 34.87C99.9301 34.9147 100.778 34.7492 101.549 34.3882C102.32 34.0271 102.99 33.4817 103.5 32.8C103.832 33.3615 104.316 33.8173 104.897 34.1146C105.477 34.412 106.13 34.5387 106.78 34.48H108.19V30.8C107.5 30.8 107.19 30.47 107.19 29.59ZM103.11 28.59C103.127 28.9839 103.06 29.3769 102.913 29.743C102.767 30.1091 102.545 30.4401 102.262 30.7141C101.978 30.9881 101.64 31.1989 101.269 31.3327C100.898 31.4664 100.503 31.52 100.11 31.49C98.64 31.49 97.48 30.96 97.48 29.37C97.48 27.78 98.77 27.55 99.86 27.55H103.11V28.59ZM64.74 23.39H61.81V18.55H57.73V34.48H64.81C69.24 34.48 70.81 31.6 70.81 28.88C70.83 25.37 68.63 23.39 64.74 23.39ZM64.44 31H61.81V27H64.44C65.85 27 66.7 27.64 66.7 29C66.7 30.36 65.89 31 64.44 31ZM147.92 29.59V24.22C147.92 20.3 145.43 17.85 141.25 17.85C137.07 17.85 134.63 20.45 134.43 23.16H138.56C138.7 22.58 139.32 21.55 141.24 21.55C141.599 21.5038 141.963 21.5416 142.304 21.6606C142.646 21.7796 142.955 21.9763 143.207 22.2354C143.459 22.4944 143.648 22.8086 143.758 23.153C143.868 23.4975 143.896 23.8628 143.84 24.22H139.84C136.22 24.22 134.07 26.13 134.07 29.29C134.042 30.0441 134.172 30.7957 134.453 31.4962C134.733 32.1967 135.158 32.8304 135.699 33.3564C136.24 33.8824 136.886 34.2889 137.594 34.5497C138.302 34.8104 139.057 34.9195 139.81 34.87C140.668 34.9231 141.526 34.7617 142.307 34.4004C143.087 34.039 143.765 33.489 144.28 32.8C144.607 33.3517 145.082 33.8012 145.651 34.098C146.22 34.3948 146.86 34.5271 147.5 34.48H148.91V30.8C148.2 30.8 147.92 30.47 147.92 29.59ZM143.86 28.59C143.875 28.9835 143.807 29.3757 143.66 29.7411C143.513 30.1065 143.291 30.4368 143.008 30.7105C142.725 30.9841 142.387 31.195 142.017 31.3294C141.647 31.4637 141.253 31.5184 140.86 31.49C139.39 31.49 138.23 30.96 138.23 29.37C138.23 27.78 139.52 27.55 140.61 27.55H143.86V28.59ZM160.95 24.48H155.32V18.55H151.24V34.49H155.32V28.21H160.95V34.48H165.03V18.55H160.95V24.48Z" fill="#EF3124"/>
</svg>
