<svg width="45" height="45" viewBox="0 0 45 45" fill="none" xmlns="http://www.w3.org/2000/svg">
<path d="M33.9228 34.6122L34.2458 35.8198L33.9228 34.6122C33.2708 34.7866 32.7296 35.2407 32.4446 35.8526L29.5905 41.9811L23.4648 39.1209C22.8533 38.8354 22.1467 38.8354 21.5352 39.1209L15.4095 41.9811L12.5554 35.8526C12.2704 35.2407 11.7292 34.7866 11.0772 34.6122L10.7542 35.8198L11.0772 34.6122L4.54612 32.8657L6.29911 26.3364C6.47411 25.6845 6.35141 24.9887 5.96403 24.436L2.0836 18.9L7.62343 15.0251C8.17647 14.6383 8.52976 14.0263 8.58825 13.354L9.17414 6.61886L15.9087 7.21141C16.581 7.27056 17.2449 7.0289 17.7219 6.55144L16.8376 5.66799L17.7219 6.55144L22.5 1.76864L27.2781 6.55144C27.7551 7.0289 28.419 7.27056 29.0913 7.21141L35.8259 6.61886L36.4118 13.354C36.4702 14.0263 36.8235 14.6383 37.3766 15.0251L42.9164 18.9L39.036 24.436C38.6486 24.9887 38.5259 25.6845 38.7009 26.3364L40.4539 32.8657L33.9228 34.6122ZM1.90358 19.026L1.90398 19.0257C1.90385 19.0258 1.90371 19.0259 1.90358 19.026L1.77779 18.8461L1.90358 19.026Z" stroke="#1F4193" stroke-width="2.5"/>
<path d="M16.0176 30.0517L26.2788 15.0248H28.8334L18.5722 30.0517H16.0176ZM17.3271 23.1393C16.5972 23.1393 15.9532 22.9747 15.395 22.6456C14.8369 22.3021 14.3932 21.8227 14.0641 21.2073C13.7492 20.5776 13.5918 19.8405 13.5918 18.9962C13.5918 18.1518 13.7492 17.4219 14.0641 16.8065C14.3932 16.1911 14.8369 15.7117 15.395 15.3682C15.9532 15.0248 16.5972 14.853 17.3271 14.853C18.0569 14.853 18.701 15.0248 19.2591 15.3682C19.8172 15.7117 20.2537 16.1911 20.5686 16.8065C20.8834 17.4219 21.0409 18.1518 21.0409 18.9962C21.0409 19.8405 20.8834 20.5776 20.5686 21.2073C20.2537 21.8227 19.8172 22.3021 19.2591 22.6456C18.701 22.9747 18.0569 23.1393 17.3271 23.1393ZM17.3271 21.379C17.7993 21.379 18.1786 21.1858 18.4648 20.7994C18.751 20.3987 18.8942 19.7976 18.8942 18.9962C18.8942 18.1947 18.751 17.6008 18.4648 17.2144C18.1786 16.8137 17.7993 16.6133 17.3271 16.6133C16.8691 16.6133 16.4899 16.8137 16.1893 17.2144C15.9031 17.6008 15.76 18.1947 15.76 18.9962C15.76 19.7833 15.9031 20.3772 16.1893 20.7779C16.4899 21.1787 16.8691 21.379 17.3271 21.379ZM27.5239 30.2234C26.8084 30.2234 26.1643 30.0589 25.5919 29.7297C25.0337 29.3862 24.5972 28.9068 24.2824 28.2914C23.9675 27.6617 23.8101 26.9247 23.8101 26.0803C23.8101 25.2359 23.9675 24.506 24.2824 23.8907C24.5972 23.2753 25.0337 22.7958 25.5919 22.4524C26.1643 22.1089 26.8084 21.9372 27.5239 21.9372C28.2681 21.9372 28.9193 22.1089 29.4774 22.4524C30.0356 22.7958 30.4721 23.2753 30.7869 23.8907C31.1018 24.506 31.2592 25.2359 31.2592 26.0803C31.2592 26.9247 31.1018 27.6617 30.7869 28.2914C30.4721 28.9068 30.0356 29.3862 29.4774 29.7297C28.9193 30.0589 28.2681 30.2234 27.5239 30.2234ZM27.5239 28.4631C27.9962 28.4631 28.3754 28.2699 28.6617 27.8835C28.9479 27.4828 29.091 26.8817 29.091 26.0803C29.091 25.2932 28.9479 24.6993 28.6617 24.2985C28.3754 23.8978 27.9962 23.6975 27.5239 23.6975C27.066 23.6975 26.6867 23.8978 26.3862 24.2985C26.0999 24.6849 25.9568 25.2789 25.9568 26.0803C25.9568 26.8817 26.0999 27.4828 26.3862 27.8835C26.6867 28.2699 27.066 28.4631 27.5239 28.4631Z" fill="#1F4193"/>
</svg>
