<svg width="201" height="50" viewBox="0 0 201 50" fill="none" xmlns="http://www.w3.org/2000/svg">
<path d="M54.8522 42.5899H42.0493V37.1798H54.8239V42.5899H54.8522ZM57.4298 34.4606H39.5V48H42.0493V45.2808H57.3732V34.4606H57.4298ZM42.0493 10.1293L47.1761 4.71921V23.6687H42.0493V10.1293ZM39.5 26.3596H49.697V2H45.9015L39.5 8.7697V26.3596ZM54.8522 4.71921H59.9791V23.6687H54.8522V4.71921ZM52.303 26.3596H62.5V2H52.303V26.3596ZM80.3732 26.3596H82.9224V2H79.0702V2.02833L75.218 6.07882V2H71.3658L65.0209 8.7697V26.3596H67.5702V10.1293L72.697 4.71921V26.3596H75.2463V10.1293L80.3732 4.71921V26.3596ZM39.5 31.7697H82.9507V29.0505H39.5V31.7697ZM72.7254 37.1798H80.3732V42.5899H72.7254V37.1798ZM70.1761 42.5899H62.5V37.1798H70.1761V42.5899ZM72.7254 45.2808H82.9507V34.4606H59.9791V45.2808H70.1761V48H72.7254V45.2808ZM120.963 25.9064H123.201C124.192 25.9064 124.787 26.6145 124.787 27.5776C124.787 28.5973 124.192 29.2488 123.201 29.2488H120.963V25.9064ZM120.963 23.782V21.3461H126.288V19.2217H118.669V31.4015H123.286C125.58 31.4015 127.025 29.8153 127.025 27.6059C127.025 25.3966 125.608 23.8103 123.286 23.8103C123.314 23.782 120.963 23.782 120.963 23.782ZM135.324 27.2377H132.463L133.936 22.819L135.324 27.2377ZM136.627 31.4015H138.978L134.814 19.2217H133.058L128.894 31.4015H131.245L131.953 29.2488H136.004L136.627 31.4015ZM147.447 31.4015H149.685V19.2217H147.447V24.2069H143.566V19.2217H141.329V31.4015H143.566V26.303H147.447V31.4015ZM157.927 24.915L161.78 19.2217H159.117L155.435 25V19.2217H153.197V31.4015H155.435V25.0283L159.457 31.4015H162.204L157.927 24.915Z" fill="#384249"/>
<path d="M102.807 7.18347H100.824V42.8165H102.807V7.18347Z" fill="#99C45A"/>
</svg>
