<svg width="41" height="40" viewBox="0 0 41 40" fill="none" xmlns="http://www.w3.org/2000/svg">
<path d="M40.42 19.7V19C39.9 15.16 36.42 11.41 33.31 10C31.3845 9.02157 29.3035 8.38543 27.16 8.12C25.5825 7.9339 24.0439 7.502 22.6 6.84L22.24 6.6C22.12 6.52 22 6.48 21.88 6.4C21.175 5.87334 20.531 5.2696 19.96 4.6C19.6421 4.20757 19.3735 3.7777 19.16 3.32L19 3V19.86H20.8V7.86C21.105 8.14855 21.4403 8.40335 21.8 8.62C23.2631 9.26758 24.8127 9.69876 26.4 9.9C28.3006 10.1792 30.1628 10.6757 31.95 11.38C35.95 13.18 38.34 17.38 38.62 19.73V22.73H22.24V31.12C22.7624 31.122 23.2841 31.0819 23.8 31H23.96V24.38H40.5V22.66C40.5 21.78 40.5 20.66 40.42 19.66" fill="#CD1F45"/>
<path d="M18.9598 23.26C17.3629 23.3213 15.7723 23.4951 14.1998 23.78C13.2798 23.94 12.3598 24.18 11.4798 24.42C11.0798 24.54 10.6398 24.7 10.2398 24.86C10.0798 24.42 9.95976 24.02 9.83976 23.62V23.46C9.6875 22.8275 9.57396 22.1864 9.49976 21.54H18.9698L18.9598 23.26ZM18.9598 31.97H18.8398C18.5198 31.89 18.1598 31.85 17.8398 31.73C17.0611 31.5258 16.3093 31.2304 15.5998 30.85C15.1236 30.6107 14.6715 30.326 14.2498 30C13.1929 29.2705 12.2836 28.3476 11.5698 27.28C11.4092 27.0627 11.2622 26.8356 11.1298 26.6C11.2098 26.6 11.2898 26.6 11.3698 26.52C11.43 26.5103 11.4858 26.4824 11.5298 26.44C12.3298 26.2 13.2498 25.92 14.2098 25.72C15.7681 25.4231 17.3453 25.236 18.9298 25.16V32L18.9598 31.97ZM11.5698 30.53C10.969 30.3107 10.3814 30.0569 9.80977 29.77L9.56976 29.65C9.08976 29.41 8.56976 29.17 8.12976 28.89C8.12976 28.89 8.00976 28.89 7.96976 28.77C7.92976 28.65 8.04976 28.65 8.12976 28.57L8.24976 28.41C8.53459 28.1314 8.84234 27.8771 9.16976 27.65C9.16976 27.65 9.24976 27.65 9.28976 27.57C9.30869 27.5618 9.32912 27.5575 9.34977 27.5575C9.37041 27.5575 9.39084 27.5618 9.40976 27.57C9.48535 27.6709 9.55226 27.7779 9.60976 27.89C9.66727 28.0022 9.73418 28.1092 9.80977 28.21C10.3301 28.9692 10.9193 29.6789 11.5698 30.33C11.6397 30.4316 11.7201 30.5255 11.8098 30.61C11.73 30.6169 11.6497 30.6169 11.5698 30.61V30.53ZM6.72976 27.1C6.60623 27.2807 6.47269 27.4543 6.32976 27.62C6.04976 27.38 5.76976 27.14 5.52976 26.9C3.93417 25.523 2.87248 23.6296 2.52976 21.55H7.49976C7.57292 22.5648 7.74711 23.5698 8.01976 24.55C8.14019 24.9615 8.30097 25.3601 8.49976 25.74L8.29976 25.86L8.09976 25.98C7.60028 26.2977 7.14038 26.6737 6.72976 27.1ZM2.92977 18.27C3.19596 17.4792 3.58763 16.7364 4.08976 16.07C4.53569 15.47 5.03073 14.9081 5.56976 14.39C5.68623 14.2936 5.79337 14.1865 5.88976 14.07C5.99285 13.987 6.08672 13.8931 6.16976 13.79C6.7086 14.4342 7.35897 14.9762 8.08976 15.39H8.16976L8.44976 15.55C8.32976 15.87 8.16976 16.27 8.04976 16.67V16.83C7.96977 17.15 7.84976 17.47 7.80976 17.75C7.66567 18.3929 7.56213 19.0442 7.49976 19.7H2.49977C2.5723 19.2094 2.69288 18.7271 2.85976 18.26L2.92977 18.27ZM7.77976 12.55C7.86839 12.5109 7.94959 12.4568 8.01976 12.39C8.53976 12.07 9.01976 11.83 9.57976 11.55H9.69976C10.1421 11.3261 10.5962 11.1258 11.0598 10.95L11.4598 10.79H11.5798L11.3798 10.99C10.7152 11.6428 10.1248 12.3672 9.61976 13.15C9.53976 13.27 9.45976 13.43 9.37976 13.55L9.13977 13.91C8.75378 13.6509 8.40113 13.3453 8.08976 13C7.95771 12.8781 7.8372 12.7442 7.72976 12.6C7.77349 12.5794 7.81393 12.5525 7.84976 12.52L7.77976 12.55ZM39.6998 25.78H25.1998V27.5H35.1998C34.8146 27.8669 34.3999 28.2013 33.9598 28.5C30.0331 30.9161 25.4998 32.1648 20.8898 32.1V21.54H37.4998V19.7H9.49976C9.49976 19.18 9.61976 18.7 9.69976 18.22C9.69976 18.06 9.77976 17.86 9.81976 17.7C9.92345 17.2516 10.0571 16.8106 10.2198 16.38L10.4598 16.46C10.7857 16.5888 11.1197 16.6957 11.4598 16.78C12.348 17.0561 13.2579 17.2568 14.1798 17.38H14.4198C15.0998 17.5 15.8998 17.62 16.7798 17.7C17.4598 17.78 18.1798 17.78 18.9398 17.82V15.82C18.2714 15.8179 17.6037 15.7778 16.9398 15.7C16.1798 15.62 15.4198 15.54 14.6998 15.42C14.5237 15.4164 14.3489 15.3895 14.1798 15.34C13.2698 15.1851 12.3736 14.9577 11.4998 14.66C11.3798 14.66 11.2598 14.66 11.1798 14.58C11.0998 14.5 11.0998 14.58 11.0598 14.58L11.4998 14C11.5306 13.9283 11.571 13.861 11.6198 13.8C12.3663 12.7596 13.2705 11.8419 14.2998 11.08C15.6391 10.1282 17.1783 9.49537 18.7998 9.23003H18.9598V7.23003H18.7998C18.748 7.21173 18.6916 7.21173 18.6398 7.23003C17.1632 7.34859 15.6943 7.5489 14.2398 7.83003C13.314 8.02673 12.4047 8.29418 11.5198 8.63003C10.9192 8.80285 10.3311 9.01669 9.75976 9.27003C9.18409 9.51753 8.62316 9.79799 8.07976 10.11C7.18545 10.6155 6.32375 11.1766 5.49976 11.79C4.35352 12.6788 3.3429 13.7298 2.49977 14.91C1.90043 15.742 1.42857 16.6588 1.09976 17.63C0.771986 18.597 0.596557 19.6091 0.579761 20.63C0.499761 23.9 2.25976 27 5.49976 29.49C5.69308 29.6138 5.87999 29.7473 6.05976 29.89C6.25976 30.01 6.41976 30.17 6.61976 30.29C6.97976 30.49 7.33976 30.73 7.69976 30.93C7.82763 31.0188 7.96126 31.099 8.09976 31.17C8.57976 31.41 9.09977 31.65 9.53976 31.85L9.77976 31.97C10.3529 32.2303 10.9406 32.4574 11.5398 32.65C12.4198 32.93 13.3398 33.21 14.2598 33.41C16.3826 33.8921 18.553 34.1336 20.7298 34.13C25.7888 34.2288 30.7653 32.8378 35.0398 30.13C35.7738 29.6517 36.4692 29.1168 37.1198 28.53C38.0359 27.686 38.9039 26.7912 39.7198 25.85L39.6998 25.78Z" fill="#073D59"/>
</svg>
