<svg width="40" height="41" viewBox="0 0 40 41" fill="none" xmlns="http://www.w3.org/2000/svg">
<path d="M1.00217 20.5141C1.00217 30.9775 9.53023 39.5026 20.0145 39.5026C30.4794 39.5026 38.9978 30.9775 38.9978 20.5141C38.9978 10.0319 30.4794 1.50682 20.0145 1.50682C9.5206 1.49741 1.00217 10.0225 1.00217 20.5141ZM0 20.5141C0 9.47671 8.97133 0.5 20.0145 0.5C31.0287 0.5 40 9.4673 40 20.5141C40 31.5327 31.0287 40.5 20.0145 40.5C8.97133 40.5 0 31.5327 0 20.5141Z" fill="#0D356C"/>
<path d="M14.0397 7.877C13.3459 8.1781 12.6907 8.55449 12.0836 8.98733C16.8439 6.87018 22.6545 7.00191 25.7767 8.39452C26.7596 8.84618 27.4148 9.12847 27.7135 9.67422C24.4758 8.80854 23.0882 8.64858 20.3804 8.71445C16.5259 8.78032 11.3994 10.3047 9.44328 11.4714L8.57602 12.5535C11.3994 10.8881 16.6608 9.79655 19.5806 9.70245C22.8376 9.6554 25.3719 9.95651 27.6943 10.794C27.5594 11.3868 27.2606 11.6785 26.7596 11.9796C17.4606 10.3611 11.9679 12.2713 7.00531 15.5081L6.63914 16.5808C12.1799 12.7794 18.9638 11.7255 25.5068 12.8641C23.1652 13.6827 20.3611 13.8709 18.0099 14.4072C16.0055 14.8683 14.9359 15 12.2667 15.8939C9.55891 16.7784 7.9593 17.6912 6.95713 18.8579C6.47532 19.4037 6.10914 20.0435 6.02242 20.7304C5.98387 21.1351 6.00314 21.5114 6.13805 21.869C6.24405 22.1889 6.50423 22.5089 6.77404 22.8288C6.45605 23.3745 6.1766 24.0802 6.63914 24.9083C6.8415 25.2941 7.37149 25.6799 7.87257 26.0468L7.72803 26.4515C7.66058 26.9313 7.59312 27.5053 7.91112 27.9758C8.45075 28.8415 9.11565 29.4155 10.166 29.9612C10.3298 30.6669 10.5707 31.2409 11.12 31.7396C12.2859 32.8123 14.8781 34.8636 19.5035 35.1835C22.9725 35.4093 25.449 34.3649 26.3837 33.9038L27.5208 33.311C25.5839 34.0826 22.3269 34.5437 19.6577 34.3084C15.7839 33.9885 12.3245 31.4573 11.8909 30.7234C12.0258 30.8175 12.2088 30.8834 12.363 30.9492C16.9017 33.1416 22.7509 34.3272 30.2575 31.2691L30.8742 30.6763C24.0518 32.7935 18.087 32.7276 11.6789 29.3778C11.7463 29.0579 11.8909 28.7756 12.1799 28.5592C13.8181 29.2837 15.3984 29.8859 17.3064 30.2623C19.542 30.6763 22.0956 30.7704 24.1867 30.6763C26.3067 30.5822 30.4984 29.5378 32.4835 28.4839C32.6666 28.324 32.7533 28.0511 32.9364 27.8723C29.0626 29.2837 24.4565 29.9424 21.6813 29.7354C18.9638 29.5284 16.5548 29.2085 13.3652 27.75C13.9819 27.5053 14.6179 27.2983 15.2539 27.1101C17.3546 27.75 19.4938 28.1358 22.0185 28.2487C24.524 28.3616 30.3828 27.43 34.0735 25.2C34.1891 24.8801 34.3047 24.5319 34.3047 24.5319C34.3047 24.5319 29.1783 27.2701 23.3676 27.2701C20.6502 27.2701 18.9928 26.8843 17.7593 26.5832C20.496 26.0845 23.9361 25.6705 27.8099 24.6919C29.7661 24.1932 32.1848 23.0452 33.2833 22.0948C34.218 21.248 34.9504 20.1565 34.6998 19.0367C34.6516 18.7356 34.2469 18.0299 33.7362 17.7853C34.218 17.1736 34.1698 16.6467 34.1024 16.195C34.0542 15.8469 33.8904 15.4611 33.6977 15.1224C33.3797 14.7083 33.0809 14.3884 32.4642 14.0214C32.5606 13.5415 32.4931 13.0523 32.2811 12.61C31.7993 11.7914 30.9417 11.0857 29.4577 10.3329C29.3903 10.0318 29.2072 9.64599 28.8892 9.2602C27.0197 7.41593 23.9651 6.52202 21.3922 6.47498H20.9682C17.9617 6.5032 15.543 7.18069 14.0397 7.877ZM28.629 12.4406C28.8603 12.1866 29.1975 11.8008 29.2843 11.4809C29.9299 11.8949 30.6526 12.5065 30.7393 13.1463C30.0648 12.8923 29.3324 12.6194 28.629 12.4406ZM29.1975 15.2164C28.1086 14.9153 27.145 14.5578 25.873 14.332C26.6536 14.0308 27.1739 13.7203 27.6268 13.3534C28.6483 13.6262 29.6023 13.965 30.3828 14.3131C30.2479 14.5107 29.4673 15.2353 29.2264 15.2353C29.2168 15.2259 29.2072 15.2259 29.1975 15.2164ZM31.1826 16.0163C31.4813 15.7904 31.7511 15.5364 32.0017 15.2447C32.6184 15.7716 32.8015 16.1292 32.5028 16.7032C32.0884 16.4021 31.6548 16.2421 31.1826 16.0163ZM7.77621 21.6714C6.08987 19.3472 11.939 17.6818 13.0568 17.343C15.8995 16.4961 19.2337 15.8657 22.2402 15.4987C24.312 15.2447 25.4105 15.4799 27.3666 15.9974C22.3269 17.343 17.3546 17.7758 12.6232 19.1685C8.80729 20.2694 7.79548 21.6714 7.77621 21.6714ZM9.02892 22.7911C10.8116 21.2856 14.4348 20.4387 15.755 20.1471C19.966 19.2343 23.888 18.6603 25.5068 18.2557C27.463 17.7758 28.8314 17.3242 29.7853 16.8631C29.8335 16.7973 31.385 17.55 31.5391 17.7288C31.0188 18.1616 30.2864 18.5286 29.4866 18.8015C27.0968 19.6672 22.7413 20.5799 20.4382 20.928C18.1159 21.3138 16.1693 21.6055 13.6061 22.2924C12.1221 22.6876 11.12 23.1393 10.3876 23.6192C9.848 23.2898 9.53001 23.1957 9.02892 22.7911ZM12.3341 24.6166C13.0857 24.2967 13.9048 24.0426 14.695 23.845C18.7037 22.857 22.2402 22.6782 27.1161 21.3609C29.4577 20.7399 31.173 20.0812 32.2426 19.2626C32.3968 19.1214 32.5606 19.0085 32.7244 18.8768C34.1409 21.0692 28.8314 22.7535 25.1985 23.5345C23.3002 23.9109 21.4018 24.2684 19.5035 24.6072C17.133 24.993 16.3621 25.2 14.7143 25.6799C13.9048 25.3411 13.0857 25.0024 12.3341 24.6166ZM8.0653 23.9297C8.43148 24.1649 8.70129 24.3437 9.13492 24.5695C8.9711 24.7107 8.76874 24.8424 8.61456 25.0024C8.25802 24.7954 7.89185 24.3437 8.0653 23.9297ZM9.96364 26.028C10.1949 25.821 10.484 25.6234 10.802 25.4164C11.4861 25.7363 12.1896 26.028 12.8545 26.3291C12.4112 26.4891 11.9872 26.6961 11.5825 26.9502C11.0332 26.6396 10.4936 26.3385 9.96364 26.028ZM9.36619 27.1383C9.75164 27.3924 10.1371 27.5994 10.5321 27.797C10.3683 28.0228 10.2527 28.2016 10.1949 28.4369C9.61673 27.9664 9.34692 27.5806 9.36619 27.1383Z" fill="#0D356C"/>
</svg>
