<svg width="41" height="41" viewBox="0 0 41 41" fill="none" xmlns="http://www.w3.org/2000/svg">
<path d="M13.0996 20.5L7.89961 23.5L3.09961 31.9L22.8996 20.5H13.0996Z" fill="#874691"/>
<path d="M28.1 11.8999L22.9 14.8999L18 23.2999L37.8 11.8999H28.1Z" fill="#DA1844"/>
<path d="M22.9 8.9L18 0.5V40.5L22.9 32.1V8.9Z" fill="#F9B229"/>
<path d="M18 0.5L22.9 8.9L28.1 11.9H37.9L18 0.5Z" fill="#F07F1A"/>
<path d="M18 17.7V40.5L22.9 32.1V26.1L18 17.7Z" fill="#72B22C"/>
<path d="M28.1 29.1001L22.9 32.1001L18 40.5001L37.8 29.1001H28.1Z" fill="#00743E"/>
<path d="M3.09961 9.1001V31.9001L7.99961 23.5001V17.5001L3.09961 9.1001Z" fill="#5F5A94"/>
<path d="M17.9996 17.7001L3.09961 9.1001L7.99961 17.5001L28.0996 29.2001H37.8996L17.9996 17.7001Z" fill="#0D90CD"/>
</svg>
