<svg width="40" height="40" viewBox="0 0 40 40" fill="none" xmlns="http://www.w3.org/2000/svg">
<path d="M19.7686 40C9.97093 40 2 32.0339 2 22.2411C2 16.6105 4.58268 11.4355 9.08419 8.04361L9.27317 7.90309V0H19.4682V4.47729C19.5651 4.47729 19.6669 4.47244 19.7638 4.47244C29.5615 4.47244 37.5276 12.4434 37.5276 22.2411C37.5324 32.0339 29.5615 40 19.7686 40Z" fill="#19502E"/>
<path d="M17.2783 5.33499L17.7677 4.85528V1.14844H18.325V6.63844L14.6278 10.2726V1.14844H15.185V7.38466L15.6744 6.90495V1.14844H16.2317V6.3574L16.7211 5.88254V1.14844H17.2783V5.33499ZM13.5666 7.38467L13.0772 6.90496V1.14845H12.5152V6.35742L12.0306 5.87771V1.14845H11.4685V5.33501L10.9791 4.8553V1.14845H10.4219V6.63846L14.1239 10.2726V1.14845H13.5666V7.38467ZM14.6278 13.3205L18.325 9.68145V7.35558L14.6278 10.9752V13.3205ZM14.6278 22.527L18.325 18.8928V16.4216L14.6278 20.0412V22.527ZM18.325 12.7293L14.6278 16.3635V14.0182L18.325 10.4034V12.7293ZM18.325 15.7772L14.6278 19.4113V17.0661L18.325 13.4513V15.7772ZM10.4219 18.8928L14.1239 22.527V20.0412L10.4219 16.4216V18.8928ZM10.4219 9.68629L14.1239 13.3205V10.9752L10.4219 7.35558V9.68629ZM14.1239 16.3635L10.4219 12.7293V10.4034L14.1239 14.0182V16.3635ZM10.4219 15.7772L14.1239 19.4113V17.0661L10.4219 13.4464V15.7772ZM23.8634 17.696H32.4691C32.7211 17.696 32.9343 17.9092 32.9294 18.1709V18.4616C32.9294 18.7232 32.7211 18.9365 32.4643 18.9365H31.1414V19.3435H31.8004V19.9152H31.1414V20.5064H31.8004V21.5967H31.1414V21.1024H30.1626V21.5967H29.5036V20.5064H30.1626V19.9152H29.5036V19.3435H30.1626V18.9365H23.4709C23.6599 19.232 23.7713 19.5809 23.7713 19.9589C23.7713 21.0297 22.8991 21.8971 21.8283 21.8971C20.7574 21.8971 19.8901 21.0297 19.8901 19.9589C19.8901 19.5373 20.0257 19.1497 20.2535 18.8347C20.0839 18.7232 19.9724 18.5343 19.9724 18.3162C19.9724 18.0982 20.0839 17.9092 20.2535 17.7977C20.0257 17.4779 19.8901 17.0951 19.8901 16.6736C19.8901 15.6027 20.7574 14.7354 21.8283 14.7354C22.8991 14.7354 23.7713 15.6027 23.7713 16.6736C23.7713 17.0515 23.6599 17.4004 23.4709 17.696H23.8634ZM21.8283 20.9522C22.3807 20.9522 22.8313 20.5064 22.8313 19.954C22.8313 19.547 22.3613 18.5779 22.3613 18.5779V18.0497C22.3613 18.0497 22.8313 17.0758 22.8313 16.6687C22.8313 16.1163 22.3807 15.6657 21.8283 15.6657C21.2807 15.6657 20.8301 16.1163 20.8301 16.6687C20.8301 16.8722 20.8882 17.0612 20.9948 17.2163L21.2759 17.6911C21.1014 17.8462 20.9948 18.0691 20.9948 18.3162C20.9948 18.5633 21.1014 18.7862 21.2759 18.9365L20.9948 19.4065C20.8882 19.5615 20.8301 19.7505 20.8301 19.954C20.8301 20.5064 21.2807 20.9522 21.8283 20.9522Z" fill="#FFCB05"/>
<path d="M19.7686 5.62085C19.5021 5.62085 19.2356 5.6257 18.974 5.64023V6.77409C19.2356 6.75955 19.5021 6.75471 19.7686 6.75471C28.321 6.75471 35.255 13.6887 35.255 22.2459C35.255 30.7935 28.321 37.7275 19.7686 37.7275C11.2114 37.7226 4.27745 30.7886 4.27745 22.2411C4.27745 17.4924 6.41434 13.2429 9.77715 10.4034V8.95943C5.7505 11.9927 3.14844 16.8092 3.14844 22.2411C3.14844 31.4137 10.5912 38.8516 19.7686 38.8516C28.9461 38.8516 36.3889 31.4137 36.3889 22.2411C36.384 13.0636 28.9461 5.62085 19.7686 5.62085ZM7.05881 18.9364V16.5185C7.05881 16.5185 7.4513 17.8558 8.93404 19.3483C9.41277 19.827 9.96448 20.3623 10.6541 21.0314L10.6543 21.0316L10.6549 21.0322L10.6558 21.033V21.0331L10.6566 21.0339C11.0902 21.4545 11.5783 21.9281 12.1369 22.4736C12.1889 22.5245 12.2451 22.5775 12.3044 22.6335L12.3045 22.6336C12.952 23.245 13.9685 24.2049 13.9685 26.3889V29.0588C13.7263 28.4627 13.5421 28.1187 12.4713 27.0721C12.447 27.0478 11.5743 26.1896 10.6654 25.2959C9.75716 24.4028 8.81285 23.4742 8.64331 23.3071C8.06669 22.7305 7.05881 21.2477 7.05881 18.9364ZM10.6541 27.0011L10.6548 27.0018C11.0888 27.4229 11.5775 27.897 12.1369 28.4434C12.1874 28.4923 12.2419 28.5434 12.2992 28.5972L12.2993 28.5973C12.9465 29.2047 13.9689 30.1643 13.9734 32.3586V35.1884L13.9554 35.1442C13.7214 34.5675 13.5204 34.0721 12.4761 33.0515C12.4325 33.003 8.9825 29.6305 8.64331 29.301C8.1103 28.6953 7.05881 27.2223 7.05881 24.9158V22.8274C7.05881 22.8274 7.4513 23.8304 8.93404 25.318C9.41276 25.7967 9.96446 26.332 10.6541 27.0011ZM32.2556 29.8292C32.0279 30.2023 31.7808 30.5609 31.524 30.9146V27.5954H32.2556V29.8292ZM33.656 26.7862C33.7626 26.4664 33.8547 26.1417 33.937 25.8122H31.524V26.4082H31.8922C32.5318 26.3937 33.249 26.384 33.656 26.7862ZM16.9437 25.7347H17.5979V32.3537H16.9437V25.7347ZM15.4416 24.4555H17.5979C18.1551 24.4555 18.5427 24.5718 18.7753 24.7898C19.0031 25.003 19.1048 25.3955 19.1048 25.9528V32.1405C19.1048 32.7026 18.9982 33.0902 18.7753 33.3083C18.4313 33.6475 17.8014 33.6475 17.2781 33.6475C17.1618 33.6378 17.0503 33.6378 16.9486 33.6378V36.5693C17.0053 36.5794 17.0617 36.5898 17.118 36.6002C17.2782 36.6298 17.4378 36.6593 17.6027 36.6808V34.2726C18.596 34.2726 19.2502 33.9334 19.5555 33.255V36.8407H19.7687C19.9043 36.8407 20.0449 36.8407 20.1805 36.8358V26.069C20.1805 25.4973 20.2968 25.0999 20.51 24.8722C20.7281 24.6445 21.1157 24.533 21.6681 24.533C21.7441 24.533 21.8247 24.5315 21.9084 24.5299H21.9085C22.4443 24.5199 23.1061 24.5076 23.4707 24.8722C23.6887 25.0999 23.7905 25.5021 23.7905 26.069V29.2429H22.3077V25.8558H21.6681V36.7292C21.8813 36.705 22.0945 36.6711 22.3077 36.6323V29.8776H23.7905V36.2835C24.0957 36.1962 24.3962 36.0993 24.6917 35.9927V30.1296C24.6917 29.4658 24.8516 28.9667 25.5252 28.7389L24.779 24.6638H26.2762L26.5282 29.1169H26.7123L26.9643 24.6638H28.544L27.7008 28.7389C28.4083 28.9861 28.544 29.4222 28.544 30.1296V33.9188C28.9801 33.5893 29.4016 33.2356 29.799 32.8577V24.6299H34.1842C34.2132 24.4361 34.2423 24.2326 34.2665 24.0339H24.0037L24.149 24.7704C23.8244 24.1744 23.209 23.874 22.3077 23.874H21.6681C20.5827 23.874 19.9189 24.3053 19.6669 25.1678C19.4343 24.2665 18.7463 23.8159 17.6027 23.8159H14.7923V35.9733C15.0055 36.0509 15.2235 36.1236 15.4416 36.1914V24.4555ZM29.0673 29.1363L28.3598 28.4627L29.0673 24.8092V29.1363ZM26.9497 34.9606C26.7269 35.0866 26.504 35.2029 26.2762 35.3192V29.9455H26.9497V34.9606Z" fill="white"/>
</svg>
