<svg width="68" height="68" viewBox="0 0 68 68" fill="none" xmlns="http://www.w3.org/2000/svg">
<g id="Compass">
<path id="Vector" d="M13.7018 15.8196C14.508 15.9002 15.2337 15.4165 15.5562 14.7715L16.2818 15.2552C15.7174 16.1421 14.7499 16.6259 13.7018 16.6259C11.8474 16.6259 10.5574 15.3359 10.5574 13.2396C10.5574 11.1433 11.8474 9.77268 13.7018 9.77268C14.7499 9.69205 15.7174 10.1758 16.2818 11.0627L15.5562 11.6271C15.153 10.9821 14.4274 10.5789 13.7018 10.6596C12.4924 10.6596 11.5249 11.5464 11.5249 13.2396C11.5249 14.9327 12.4924 15.8196 13.7018 15.8196Z" fill="#00A06E"/>
<path id="Vector_2" d="M10.7992 55.2456C11.2829 55.81 12.0086 56.2131 12.7342 56.2131C13.863 56.2131 14.508 55.7294 14.508 55.0037C14.508 53.9556 13.5405 53.875 12.7342 53.875H12.1698V53.0687H12.7342C13.7823 53.0687 14.2661 52.6656 14.2661 52.0206C14.2661 51.3756 13.6211 51.0531 12.7342 51.0531C12.0086 51.0531 11.3636 51.3756 10.9604 51.94L10.3154 51.295C10.8798 50.5693 11.7667 50.1662 12.7342 50.1662C14.2661 50.1662 15.153 50.8112 15.153 51.8593C15.2336 52.585 14.6692 53.23 13.9436 53.3106V53.3912C15.0723 53.6331 15.3948 54.2781 15.3948 55.0037C15.3948 56.0519 14.5886 57.1 12.6536 57.1C11.6054 57.1806 10.6379 56.6969 9.99292 55.8906L10.7992 55.2456Z" fill="#00A06E"/>
<path id="Vector_3" d="M9.58988 19.9315L8.54175 19.2865L9.75113 17.3515L10.7993 18.0771C10.3155 18.6415 9.91239 19.2865 9.58988 19.9315Z" fill="#00A06E"/>
<path id="Vector_4" d="M6.36477 43.5549C5.88102 42.1036 5.47789 40.6523 5.15539 39.1204L6.36477 38.8786C6.60665 40.3298 7.00978 41.7811 7.49353 43.1517L6.36477 43.5549ZM4.75226 35.331C4.75226 34.7667 4.67163 34.2023 4.67163 33.6379C4.67163 32.6704 4.75226 31.7029 4.83288 30.7354L6.04227 30.8966C5.96164 31.7835 5.88102 32.751 5.88102 33.6379C5.88102 34.2023 5.88102 34.686 5.96164 35.2504L4.75226 35.331ZM6.60665 27.3491L5.39726 27.1072C5.71977 25.6559 6.20352 24.1241 6.7679 22.7534L7.89666 23.2372C7.33228 24.6078 6.92915 25.9784 6.60665 27.3491Z" fill="#00A06E"/>
<path id="Vector_5" d="M9.02549 48.9568C8.62236 48.3118 8.29986 47.6668 7.89673 47.0218L9.02549 46.4574C9.34799 47.1024 9.6705 47.7474 10.0736 48.3118L9.02549 48.9568Z" fill="#00A06E"/>
<path id="Vector_6" d="M49.6608 10.7402C49.0964 10.3371 48.4514 9.93393 47.8064 9.61143L48.4514 8.56329L50.3864 9.77268L49.6608 10.7402Z" fill="#00A06E"/>
<path id="Vector_7" d="M44.4201 7.91831C43.0494 7.35393 41.5176 6.87018 40.0663 6.54767L40.3082 5.33829C41.9207 5.66079 43.4526 6.14455 44.9038 6.78955L44.4201 7.91831ZM23.6186 7.67643L23.1349 6.54767C24.6668 5.98329 26.1987 5.49954 27.7306 5.17704L27.9724 6.38642C26.5212 6.70893 25.0699 7.11205 23.6186 7.67643ZM36.3575 5.90267C34.8256 5.74142 33.2937 5.74142 31.7618 5.90267L31.6812 4.69328C33.2937 4.61266 34.8256 4.61266 36.4381 4.69328L36.3575 5.90267Z" fill="#00A06E"/>
<path id="Vector_8" d="M18.378 10.4177L17.733 9.36954L19.6681 8.16016L20.2324 9.20829C19.6681 9.61142 19.023 10.0145 18.378 10.4177Z" fill="#00A06E"/>
<path id="Vector_9" d="M60.3034 46.0543L59.1747 45.5705C59.4972 44.9255 59.7391 44.2805 59.9809 43.5549L61.1097 43.958C60.9485 44.6836 60.6259 45.4093 60.3034 46.0543Z" fill="#00A06E"/>
<path id="Vector_10" d="M62.1578 40.8136L60.9484 40.5717C61.2709 39.3623 61.4322 38.0723 61.5934 36.7823L62.8028 36.9436C62.6415 38.2336 62.3997 39.5236 62.1578 40.8136ZM61.674 33.6379C61.674 32.3479 61.5934 31.1385 61.4322 29.8485L62.6415 29.6872C62.8028 30.9772 62.8834 32.3479 62.8834 33.6379H61.674ZM60.7871 26.7041C60.4646 25.4947 60.0615 24.2853 59.5778 23.0759L60.7065 22.5922C61.1903 23.8015 61.674 25.0916 61.9965 26.3816L60.7871 26.7041Z" fill="#00A06E"/>
<path id="Vector_11" d="M58.2071 20.1734C57.8846 19.5284 57.4815 18.964 57.0784 18.319L58.1265 17.674C58.5296 18.319 58.9328 18.964 59.2553 19.609L58.2071 20.1734Z" fill="#00A06E"/>
<path id="Vector_12" d="M20.555 59.7606C19.91 59.4381 19.265 59.035 18.62 58.6319L19.265 57.5837C19.8294 57.9869 20.4744 58.39 21.1194 58.7125L20.555 59.7606Z" fill="#00A06E"/>
<path id="Vector_13" d="M33.7776 62.8244C32.8907 62.8244 32.0039 62.8244 31.1976 62.7438L31.2782 61.5344C32.5682 61.615 33.9389 61.615 35.3095 61.615L35.3901 62.8244H33.7776ZM38.857 62.4213L38.6958 61.2119C40.0664 60.97 41.3564 60.6475 42.6465 60.2444L43.0496 61.4538C41.679 61.8569 40.3083 62.1794 38.857 62.4213ZM27.8113 62.3406C26.4407 62.0988 25.07 61.6956 23.78 61.2119L24.1832 60.0831C25.4732 60.5669 26.7632 60.8894 28.0532 61.1313L27.8113 62.3406Z" fill="#00A06E"/>
<path id="Vector_14" d="M46.194 60.1638L45.6296 59.035L47.5647 58.0675L48.2097 59.1156C47.5647 59.5188 46.839 59.8413 46.194 60.1638Z" fill="#00A06E"/>
<path id="Vector_15" d="M31.9231 35.573L18.9424 18.7222L35.7932 31.7835L31.9231 35.573Z" fill="#00A06E"/>
<path id="Vector_16" d="M35.7933 31.7835L47.7259 47.5862L31.9232 35.5729L35.7933 31.7835Z" fill="#00A06E"/>
<path id="Vector_17" d="M19.023 59.8413L19.4261 58.3094L20.7161 57.5838L17.1686 56.7775L19.023 59.8413Z" fill="#00A06E"/>
<path id="Vector_18" d="M61.4323 45.5705H59.9004L58.9329 44.4418L58.7716 47.9893L61.4323 45.5705Z" fill="#00A06E"/>
<path id="Vector_19" d="M52.2408 9.93396H54.6596C56.1915 9.93396 56.9171 10.579 56.9171 11.5465C56.9978 12.1915 56.514 12.8365 55.869 12.9977V13.0784C56.6753 13.159 57.2396 13.8846 57.2396 14.6909C57.2396 15.739 56.514 16.4646 54.9015 16.4646H52.2408V9.93396ZM54.4984 12.7559C55.4659 12.7559 55.9496 12.4334 55.9496 11.7077C55.9496 10.9821 55.4659 10.7402 54.4984 10.7402H53.2084V12.7559H54.4984ZM53.2084 15.6584H54.8209C55.7884 15.6584 56.2721 15.2553 56.2721 14.5296C56.2721 13.804 55.7884 13.4815 54.7402 13.4815H53.289L53.2084 15.6584Z" fill="#00A06E"/>
<path id="Vector_20" d="M53.8535 51.0531C55.3047 51.0531 56.4335 52.1819 56.4335 53.6331C56.4335 55.0844 55.3047 56.2131 53.8535 56.2131C52.4022 56.2131 51.2734 55.0844 51.2734 53.6331C51.2734 52.1819 52.4022 51.0531 53.8535 51.0531ZM55.7078 53.6331C55.7078 52.585 54.9016 51.7787 53.8535 51.7787C52.8053 51.7787 51.9991 52.585 51.9991 53.6331C51.9991 54.6813 52.8053 55.4875 53.8535 55.4875C54.821 55.4875 55.7078 54.6813 55.7078 53.6331C55.7078 53.7138 55.7078 53.6331 55.7078 53.6331Z" fill="#00A06E"/>
<path id="Vector_21" d="M53.8533 56.3743C52.4021 56.3743 51.1927 55.165 51.1121 53.7137C51.1121 52.9881 51.3539 52.2624 51.9183 51.7787C52.4021 51.2949 53.1277 50.9724 53.8533 50.9724C55.3046 50.9724 56.5946 52.1012 56.5946 53.6331C56.5946 54.3587 56.3527 55.0843 55.7884 55.5681C55.3046 56.0518 54.579 56.3743 53.8533 56.3743ZM53.8533 51.2143C53.2083 51.2143 52.5633 51.4562 52.0796 51.9399C51.5958 52.4237 51.3539 53.0687 51.3539 53.7137C51.3539 55.0843 52.4021 56.1325 53.7727 56.1325H53.8533C54.4983 56.1325 55.1434 55.8906 55.6271 55.4068C56.1109 54.9231 56.3527 54.2781 56.3527 53.6331C56.3527 52.2624 55.3046 51.2143 53.934 51.2143H53.8533ZM53.8533 55.6487C52.8052 55.6487 51.9183 54.7618 51.9183 53.7137C51.9183 53.2299 52.0796 52.6656 52.4827 52.343C52.8052 51.9399 53.3696 51.7787 53.8533 51.7787C54.9015 51.7787 55.7884 52.6656 55.7884 53.7137C55.7884 54.1974 55.6271 54.7618 55.224 55.0843C54.8208 55.4068 54.3371 55.6487 53.8533 55.6487ZM53.8533 51.7787V51.9399C52.9665 51.9399 52.1602 52.6656 52.1602 53.5524V53.6331C52.1602 54.6006 52.8858 55.3262 53.8533 55.3262C54.8209 55.3262 55.5465 54.6006 55.5465 53.6331C55.5465 52.6656 54.8209 51.9399 53.8533 51.9399V51.7787Z" fill="#00A06E"/>
<path id="Vector_22" d="M53.934 59.2769C53.6921 59.2769 53.5309 59.1157 53.5309 58.9544C53.5309 58.9544 53.5309 58.9544 53.5309 58.8738V57.4225C53.5309 57.1807 53.6921 57.0194 53.8534 57.0194C53.8534 57.0194 53.8534 57.0194 53.934 57.0194C54.1759 57.0194 54.3371 57.1807 54.3371 57.3419C54.3371 57.3419 54.3371 57.3419 54.3371 57.4225V58.8738C54.3371 59.1157 54.1759 59.2769 53.934 59.2769Z" fill="#00A06E"/>
<path id="Vector_23" d="M53.934 59.3576C53.6115 59.3576 53.3696 59.1157 53.3696 58.7932V57.3419C53.3696 57.0194 53.6115 56.7775 53.934 56.7775C54.2565 56.7775 54.4984 57.0194 54.4984 57.3419V58.7932C54.4984 58.9544 54.4178 59.1157 54.3371 59.1963C54.2565 59.2769 54.0953 59.3576 53.934 59.3576ZM53.934 57.1C53.7728 57.1 53.6115 57.1807 53.6115 57.3419V57.4225V58.8738C53.6115 59.0351 53.7728 59.1963 53.934 59.1963C54.0953 59.1963 54.2565 59.1157 54.2565 58.9544V58.8738V57.4225C54.2565 57.2613 54.0953 57.1 53.934 57.1Z" fill="#00A06E"/>
<path id="Vector_24" d="M53.8533 50.3275C53.6114 50.3275 53.4502 50.1662 53.4502 50.005C53.4502 50.005 53.4502 50.005 53.4502 49.9243V48.4731C53.4502 48.2312 53.6114 48.0699 53.7727 48.0699C53.7727 48.0699 53.7727 48.0699 53.8533 48.0699C54.0952 48.0699 54.2565 48.2312 54.2565 48.3924C54.2565 48.3924 54.2565 48.3925 54.2565 48.4731V49.9243C54.3371 50.0856 54.0952 50.3275 53.8533 50.3275Z" fill="#00A06E"/>
<path id="Vector_25" d="M53.8534 50.4081C53.5309 50.4081 53.2891 50.1662 53.2891 49.8437V48.3924C53.2891 48.0699 53.5309 47.8281 53.8534 47.8281C54.176 47.8281 54.4178 48.0699 54.4178 48.3924V49.8437C54.4178 50.1662 54.176 50.4081 53.8534 50.4081ZM53.8534 48.1506C53.6922 48.1506 53.5309 48.3118 53.5309 48.4731V49.9243C53.5309 50.0856 53.6922 50.2468 53.8534 50.2468C54.0147 50.2468 54.176 50.0856 54.176 49.9243V48.4731C54.176 48.3118 54.0147 48.1506 53.8534 48.1506Z" fill="#00A06E"/>
<path id="Vector_26" d="M48.2902 53.6331C48.2902 53.3912 48.4514 53.23 48.6127 53.23C48.6127 53.23 48.6127 53.23 48.6933 53.23H50.1446C50.3864 53.23 50.5477 53.3912 50.5477 53.5525C50.5477 53.5525 50.5477 53.5525 50.5477 53.6331C50.5477 53.875 50.3864 54.0362 50.2252 54.0362C50.2252 54.0362 50.2252 54.0362 50.1446 54.0362H48.6933C48.4514 54.1169 48.2902 53.875 48.2902 53.6331Z" fill="#00A06E"/>
<path id="Vector_27" d="M48.6933 54.1975C48.3708 54.1975 48.1289 53.9556 48.1289 53.6331C48.1289 53.3106 48.3708 53.0687 48.6933 53.0687H50.1446C50.4671 53.0687 50.7089 53.3106 50.7089 53.6331C50.7089 53.9556 50.4671 54.1975 50.1446 54.1975H48.6933ZM50.1446 53.3912H48.6933C48.532 53.3912 48.3708 53.4719 48.3708 53.6331V53.7137C48.3708 53.875 48.532 54.0362 48.6933 54.0362H50.1446C50.3058 54.0362 50.4671 53.875 50.4671 53.7137C50.4671 53.5525 50.3058 53.3912 50.1446 53.3912Z" fill="#00A06E"/>
<path id="Vector_28" d="M57.2396 53.6331C57.2396 53.3912 57.4009 53.23 57.5621 53.23C57.5621 53.23 57.5621 53.23 57.6428 53.23H59.094C59.3359 53.23 59.4971 53.3912 59.4971 53.5525C59.4971 53.5525 59.4971 53.5525 59.4971 53.6331C59.4971 53.875 59.3359 54.0362 59.1746 54.0362C59.1746 54.0362 59.1746 54.0362 59.094 54.0362H57.6428C57.4009 54.0362 57.2396 53.875 57.2396 53.6331Z" fill="#00A06E"/>
<path id="Vector_29" d="M57.6427 54.1975C57.3202 54.1975 57.0784 53.9556 57.0784 53.6331C57.0784 53.3106 57.3202 53.0687 57.6427 53.0687H59.094C59.4165 53.0687 59.6584 53.3106 59.6584 53.6331C59.6584 53.9556 59.4165 54.1975 59.094 54.1975H57.6427ZM59.094 53.3106H57.6427C57.4815 53.3106 57.3202 53.3912 57.3202 53.5525V53.6331C57.3202 53.7944 57.4815 53.9556 57.6427 53.9556H59.094C59.2553 53.9556 59.4165 53.875 59.4165 53.7137V53.6331C59.4165 53.4719 59.2553 53.3106 59.094 53.3106Z" fill="#00A06E"/>
<path id="Vector_30" d="M49.9027 49.6825C50.0639 49.5212 50.3058 49.5212 50.4671 49.6825L51.5152 50.65C51.6765 50.8112 51.6765 51.0531 51.5152 51.2143C51.354 51.3756 51.1121 51.3756 50.9508 51.2143L49.9027 50.2468C49.7414 50.0856 49.7414 49.8437 49.9027 49.6825Z" fill="#00A06E"/>
<path id="Vector_31" d="M51.1926 51.5368C51.0314 51.5368 50.8701 51.4562 50.7895 51.3756L49.7414 50.4081C49.4995 50.1662 49.5801 49.8437 49.822 49.6018C50.0639 49.4406 50.3058 49.4406 50.5476 49.6018L51.5958 50.5693C51.8377 50.8112 51.8377 51.1337 51.5958 51.3756C51.5151 51.4562 51.3539 51.5368 51.1926 51.5368ZM50.2251 49.6825C50.1445 49.6825 50.0639 49.6825 49.9833 49.7631C49.9026 49.9243 49.9026 50.005 49.9833 50.1662L51.0314 51.1337C51.1926 51.2143 51.2733 51.2143 51.4345 51.1337C51.5152 50.9725 51.5152 50.8112 51.4345 50.65L50.3864 49.6825H50.2251Z" fill="#00A06E"/>
<path id="Vector_32" d="M56.2722 55.9712C56.4334 55.81 56.6753 55.81 56.8366 55.9712L57.8847 56.9387C58.0459 57.1 58.0459 57.3419 57.8847 57.5031C57.7234 57.6644 57.4816 57.6644 57.3203 57.5031L56.2722 56.5356C56.1109 56.455 56.1109 56.1325 56.2722 55.9712Z" fill="#00A06E"/>
<path id="Vector_33" d="M57.5622 57.8256C57.4009 57.8256 57.2396 57.745 57.159 57.6644L56.1109 56.6969C55.869 56.455 55.9496 56.1325 56.1915 55.8906C56.4334 55.7293 56.6753 55.7293 56.9171 55.8906L57.9653 56.8581C58.2072 57.1 58.2072 57.4225 57.9653 57.6644C57.8847 57.8256 57.7234 57.8256 57.5622 57.8256ZM56.5946 55.9712C56.514 55.9712 56.4334 55.9712 56.3528 56.0518C56.2721 56.2131 56.2721 56.2937 56.3528 56.455L57.4009 57.4225C57.5622 57.5031 57.6428 57.5031 57.804 57.4225C57.8847 57.2612 57.8847 57.1 57.804 56.9387L56.7559 55.9712C56.7559 56.0518 56.6753 55.9712 56.5946 55.9712Z" fill="#00A06E"/>
<path id="Vector_34" d="M49.9027 57.6644C49.7414 57.5031 49.7414 57.2612 49.9027 57.1L50.8702 56.0518C51.0314 55.8906 51.2733 55.8906 51.4346 56.0518C51.5958 56.2131 51.5958 56.455 51.4346 56.6162L50.4671 57.6644C50.3864 57.8256 50.0639 57.8256 49.9027 57.6644Z" fill="#00A06E"/>
<path id="Vector_35" d="M50.2252 57.9062C50.0639 57.9062 49.9027 57.8256 49.822 57.745C49.5802 57.5838 49.5802 57.1806 49.7414 57.0194C49.7414 57.0194 49.7414 57.0194 49.822 56.9387L50.7895 55.8906C51.0314 55.6487 51.3539 55.7294 51.5958 55.9712C51.757 56.2131 51.757 56.455 51.5958 56.6969L50.6283 57.745C50.5477 57.8256 50.3864 57.9062 50.2252 57.9062ZM51.2733 56.0519C51.1927 56.0519 51.112 56.0519 51.0314 56.1325L50.0639 57.1806C49.9833 57.2612 49.9833 57.5031 50.0639 57.5837C50.1445 57.6644 50.3864 57.6644 50.467 57.5837L51.4345 56.5356C51.5152 56.3744 51.5152 56.2937 51.4345 56.1325C51.4345 56.0519 51.3539 56.0519 51.2733 56.0519Z" fill="#00A06E"/>
<path id="Vector_36" d="M56.2722 51.295C56.1109 51.1337 56.1109 50.8918 56.2722 50.7306L57.2397 49.6825C57.4009 49.5212 57.6428 49.5212 57.8041 49.6825C57.9653 49.8437 57.9653 50.0856 57.8041 50.2468L56.8366 51.295C56.6753 51.4562 56.4334 51.4562 56.2722 51.295Z" fill="#00A06E"/>
<path id="Vector_37" d="M56.514 51.5368C56.1915 51.5368 55.9496 51.295 55.9496 50.9725C55.9496 50.8112 56.0302 50.7306 56.1108 50.5693L57.0783 49.5212C57.2396 49.2793 57.6427 49.2793 57.804 49.4406C57.804 49.4406 57.804 49.4406 57.8846 49.5212C58.1265 49.7631 58.1265 50.0856 57.8846 50.3275L56.9171 51.3756C56.8365 51.4562 56.6752 51.5368 56.514 51.5368ZM57.5621 49.6824C57.4815 49.6824 57.4008 49.6824 57.3202 49.7631L56.3527 50.8112C56.2721 50.9725 56.2721 51.1337 56.3527 51.295C56.514 51.3756 56.5946 51.3756 56.7558 51.295L57.7233 50.2468C57.804 50.0856 57.804 49.9243 57.7233 49.7631C57.7233 49.6824 57.6427 49.6824 57.5621 49.6824Z" fill="#00A06E"/>
</g>
</svg>
