<svg width="67" height="68" viewBox="0 0 67 68" fill="none" xmlns="http://www.w3.org/2000/svg">
<path d="M13.3837 16.0665C14.1899 16.1471 14.9156 15.6634 15.2381 15.0184L15.9637 15.5021C15.3993 16.389 14.4318 16.8728 13.3837 16.8728C11.5293 16.8728 10.2393 15.5827 10.2393 13.4865C10.2393 11.3902 11.5293 10.0196 13.3837 10.0196C14.4318 9.93894 15.3993 10.4227 15.9637 11.3096L15.2381 11.874C14.8349 11.2289 14.1093 10.8258 13.3837 10.9064C12.1743 10.9064 11.2068 11.7933 11.2068 13.4865C11.2068 15.1796 12.1743 16.0665 13.3837 16.0665Z" fill="#28662D"/>
<path d="M10.4811 55.4924C10.9648 56.0568 11.6904 56.4599 12.4161 56.4599C13.5448 56.4599 14.1898 55.9761 14.1898 55.2505C14.1898 54.2024 13.2223 54.1217 12.4161 54.1217H11.8517V53.3155H12.4161C13.4642 53.3155 13.948 52.9124 13.948 52.2674C13.948 51.6224 13.303 51.2998 12.4161 51.2998C11.6904 51.2998 11.0454 51.6223 10.6423 52.1867L9.99731 51.5417C10.5617 50.8161 11.4486 50.413 12.4161 50.413C13.948 50.413 14.8349 51.058 14.8349 52.1061C14.9155 52.8317 14.3511 53.4767 13.6255 53.5574V53.638C14.7542 53.8799 15.0767 54.5249 15.0767 55.2505C15.0767 56.2986 14.2705 57.3468 12.3355 57.3468C11.2873 57.4274 10.3198 56.9436 9.6748 56.1374L10.4811 55.4924Z" fill="#28662D"/>
<path d="M9.27177 20.1784L8.22363 19.5334L9.43302 17.5984L10.4812 18.324C9.9974 18.8884 9.59427 19.5334 9.27177 20.1784Z" fill="#28662D"/>
<path d="M6.04666 43.8017C5.5629 42.3504 5.15977 40.8992 4.83727 39.3673L6.04666 39.1254C6.28853 40.5767 6.69166 42.0279 7.17542 43.3986L6.04666 43.8017ZM4.43414 35.5779C4.43414 35.0135 4.35352 34.4491 4.35352 33.8847C4.35352 32.9172 4.43414 31.9497 4.51477 30.9822L5.72415 31.1434C5.64353 32.0303 5.5629 32.9978 5.5629 33.8847C5.5629 34.4491 5.5629 34.9329 5.64353 35.4972L4.43414 35.5779ZM6.28853 27.5959L5.07915 27.354C5.40165 25.9028 5.8854 24.3709 6.44978 23.0002L7.57854 23.484C7.01416 24.8546 6.61104 26.2253 6.28853 27.5959Z" fill="#28662D"/>
<path d="M8.70786 49.2036C8.30473 48.5586 7.98223 47.9136 7.5791 47.2686L8.70786 46.7042C9.03037 47.3492 9.35287 47.9942 9.756 48.5586L8.70786 49.2036Z" fill="#28662D"/>
<path d="M49.3427 10.9871C48.7783 10.5839 48.1333 10.1808 47.4883 9.85832L48.1333 8.81018L50.0683 10.0196L49.3427 10.9871Z" fill="#28662D"/>
<path d="M44.1026 8.16514C42.7319 7.60076 41.2 7.117 39.7488 6.7945L39.9907 5.58511C41.6032 5.90762 43.1351 6.39137 44.5863 7.03638L44.1026 8.16514ZM23.3011 7.92326L22.8174 6.7945C24.3493 6.23012 25.8812 5.74637 27.4131 5.42386L27.6549 6.63325C26.2037 6.95575 24.7524 7.35888 23.3011 7.92326ZM36.04 6.14949C34.5081 5.98824 32.9762 5.98824 31.4443 6.14949L31.3637 4.94011C32.9762 4.85948 34.5081 4.85948 36.1206 4.94011L36.04 6.14949Z" fill="#28662D"/>
<path d="M18.06 10.6645L17.415 9.61637L19.3501 8.40698L19.9144 9.45512C19.3501 9.85825 18.7051 10.2614 18.06 10.6645Z" fill="#28662D"/>
<path d="M59.9852 46.3012L58.8564 45.8174C59.1789 45.1724 59.4208 44.5274 59.6627 43.8018L60.7915 44.2049C60.6302 44.9305 60.3077 45.6562 59.9852 46.3012Z" fill="#28662D"/>
<path d="M61.8398 41.0604L60.6304 40.8185C60.9529 39.6091 61.1142 38.3191 61.2754 37.0291L62.4848 37.1904C62.3235 38.4804 62.0817 39.7704 61.8398 41.0604ZM61.356 33.8847C61.356 32.5947 61.2754 31.3853 61.1142 30.0953L62.3235 29.9341C62.4848 31.2241 62.5654 32.5947 62.5654 33.8847H61.356ZM60.4692 26.9509C60.1466 25.7415 59.7435 24.5321 59.2598 23.3227L60.3885 22.839C60.8723 24.0484 61.356 25.3384 61.6785 26.6284L60.4692 26.9509Z" fill="#28662D"/>
<path d="M57.8895 20.4203C57.567 19.7753 57.1639 19.2109 56.7607 18.5659L57.8089 17.9209C58.212 18.5659 58.6151 19.2109 58.9376 19.8559L57.8895 20.4203Z" fill="#28662D"/>
<path d="M20.2368 60.0075C19.5918 59.685 18.9468 59.2818 18.3018 58.8787L18.9468 57.8306C19.5111 58.2337 20.1562 58.6368 20.8012 58.9593L20.2368 60.0075Z" fill="#28662D"/>
<path d="M33.4595 63.0712C32.5726 63.0712 31.6857 63.0712 30.8795 62.9906L30.9601 61.7812C32.2501 61.8618 33.6208 61.8618 34.9914 61.8618L35.072 63.0712H33.4595ZM38.5389 62.6681L38.3777 61.4587C39.7483 61.2168 41.0383 60.8943 42.3283 60.4912L42.7315 61.7006C41.3608 62.1037 39.9902 62.4262 38.5389 62.6681ZM27.4932 62.5875C26.1226 62.3456 24.7519 61.9425 23.4619 61.4587L23.865 60.33C25.1551 60.8137 26.4451 61.1362 27.7351 61.3781L27.4932 62.5875Z" fill="#28662D"/>
<path d="M45.8759 60.4106L45.3115 59.2818L47.2465 58.3143L47.8916 59.3625C47.2465 59.7656 46.5209 60.0881 45.8759 60.4106Z" fill="#28662D"/>
<path d="M31.6057 35.8198L18.625 18.969L35.4758 32.0304L31.6057 35.8198Z" fill="#28662D"/>
<path d="M35.4755 32.0304L47.4081 47.833L31.6055 35.8198L35.4755 32.0304Z" fill="#28662D"/>
<path d="M18.705 60.0881L19.1081 58.5562L20.3981 57.8305L16.8506 57.0243L18.705 60.0881Z" fill="#28662D"/>
<path d="M61.1147 45.8174H59.5829L58.6154 44.6886L58.4541 48.2361L61.1147 45.8174Z" fill="#28662D"/>
<path d="M51.9229 10.1808H54.3416C55.8735 10.1808 56.5991 10.8258 56.5991 11.7933C56.6798 12.4383 56.196 13.0833 55.551 13.2446V13.3252C56.3573 13.4058 56.9216 14.1314 56.9216 14.9377C56.9216 15.9858 56.196 16.7115 54.5835 16.7115H51.9229V10.1808ZM54.1804 13.0027C55.1479 13.0027 55.6316 12.6802 55.6316 11.9546C55.6316 11.2289 55.1479 10.987 54.1804 10.987H52.8904V13.0027H54.1804ZM52.8904 15.9052H54.5029C55.4704 15.9052 55.9541 15.5021 55.9541 14.7765C55.9541 14.0508 55.4704 13.7283 54.4223 13.7283H52.971L52.8904 15.9052Z" fill="#28662D"/>
<path d="M53.5351 51.2999C54.9864 51.2999 56.1151 52.4287 56.1151 53.88C56.1151 55.3312 54.9864 56.46 53.5351 56.46C52.0838 56.46 50.9551 55.3312 50.9551 53.88C50.9551 52.4287 52.0838 51.2999 53.5351 51.2999ZM55.3895 53.88C55.3895 52.8318 54.5832 52.0256 53.5351 52.0256C52.487 52.0256 51.6807 52.8318 51.6807 53.88C51.6807 54.9281 52.487 55.7343 53.5351 55.7343C54.5026 55.7343 55.3895 54.9281 55.3895 53.88C55.3895 53.9606 55.3895 53.88 55.3895 53.88Z" fill="#28662D"/>
<path d="M53.5352 56.6212C52.084 56.6212 50.8746 55.4118 50.7939 53.9605C50.7939 53.2349 51.0358 52.5093 51.6002 52.0255C52.084 51.5417 52.8096 51.2192 53.5352 51.2192C54.9865 51.2192 56.2765 52.348 56.2765 53.8799C56.2765 54.6055 56.0346 55.3312 55.4702 55.8149C54.9865 56.2987 54.2609 56.6212 53.5352 56.6212ZM53.5352 51.4611C52.8902 51.4611 52.2452 51.703 51.7615 52.1867C51.2777 52.6705 51.0358 53.3155 51.0358 53.9605C51.0358 55.3312 52.084 56.3793 53.4546 56.3793H53.5352C54.1802 56.3793 54.8252 56.1374 55.309 55.6537C55.7927 55.1699 56.0346 54.5249 56.0346 53.8799C56.0346 52.5093 54.9865 51.4611 53.6158 51.4611H53.5352ZM53.5352 55.8955C52.4871 55.8955 51.6002 55.0087 51.6002 53.9605C51.6002 53.4768 51.7615 52.9124 52.1646 52.5899C52.4871 52.1867 53.0515 52.0255 53.5352 52.0255C54.5834 52.0255 55.4702 52.9124 55.4702 53.9605C55.4702 54.4443 55.309 55.0087 54.9059 55.3312C54.5027 55.6537 54.019 55.8955 53.5352 55.8955ZM53.5352 52.0255V52.1867C52.6483 52.1867 51.8421 52.9124 51.8421 53.7993V53.8799C51.8421 54.8474 52.5677 55.573 53.5352 55.573C54.5027 55.573 55.2284 54.8474 55.2284 53.8799C55.2284 52.9124 54.5027 52.1867 53.5352 52.1867V52.0255Z" fill="#28662D"/>
<path d="M53.616 59.5238C53.3741 59.5238 53.2129 59.3625 53.2129 59.2013C53.2129 59.2013 53.2129 59.2013 53.2129 59.1206V57.6694C53.2129 57.4275 53.3741 57.2662 53.5354 57.2662C53.5354 57.2662 53.5354 57.2662 53.616 57.2662C53.8579 57.2662 54.0191 57.4275 54.0191 57.5887C54.0191 57.5887 54.0191 57.5887 54.0191 57.6694V59.1206C54.0191 59.3625 53.8579 59.5238 53.616 59.5238Z" fill="#28662D"/>
<path d="M53.6161 59.6043C53.2936 59.6043 53.0518 59.3624 53.0518 59.0399V57.5887C53.0518 57.2662 53.2936 57.0243 53.6161 57.0243C53.9386 57.0243 54.1805 57.2662 54.1805 57.5887V59.0399C54.1805 59.2012 54.0999 59.3624 54.0193 59.4431C53.9386 59.5237 53.7774 59.6043 53.6161 59.6043ZM53.6161 57.3468C53.4549 57.3468 53.2936 57.4274 53.2936 57.5887V57.6693V59.1206C53.2936 59.2818 53.4549 59.4431 53.6161 59.4431C53.7774 59.4431 53.9386 59.3624 53.9386 59.2012V59.1206V57.6693C53.9386 57.508 53.7774 57.3468 53.6161 57.3468Z" fill="#28662D"/>
<path d="M53.5359 50.5743C53.2941 50.5743 53.1328 50.413 53.1328 50.2518C53.1328 50.2518 53.1328 50.2518 53.1328 50.1712V48.7199C53.1328 48.478 53.2941 48.3168 53.4553 48.3168C53.4553 48.3168 53.4553 48.3168 53.5359 48.3168C53.7778 48.3168 53.9391 48.478 53.9391 48.6393C53.9391 48.6393 53.9391 48.6393 53.9391 48.7199V50.1712C54.0197 50.3324 53.7778 50.5743 53.5359 50.5743Z" fill="#28662D"/>
<path d="M53.5351 50.6549C53.2126 50.6549 52.9707 50.413 52.9707 50.0905V48.6392C52.9707 48.3167 53.2126 48.0748 53.5351 48.0748C53.8576 48.0748 54.0995 48.3167 54.0995 48.6392V50.0905C54.0995 50.413 53.8576 50.6549 53.5351 50.6549ZM53.5351 48.3973C53.3738 48.3973 53.2126 48.5586 53.2126 48.7198V50.1711C53.2126 50.3323 53.3738 50.4936 53.5351 50.4936C53.6963 50.4936 53.8576 50.3323 53.8576 50.1711V48.7198C53.8576 48.5586 53.6963 48.3973 53.5351 48.3973Z" fill="#28662D"/>
<path d="M47.9727 53.8799C47.9727 53.6381 48.1339 53.4768 48.2952 53.4768C48.2952 53.4768 48.2952 53.4768 48.3758 53.4768H49.827C50.0689 53.4768 50.2302 53.6381 50.2302 53.7993C50.2302 53.7993 50.2302 53.7993 50.2302 53.8799C50.2302 54.1218 50.0689 54.2831 49.9077 54.2831C49.9077 54.2831 49.9077 54.2831 49.827 54.2831H48.3758C48.1339 54.3637 47.9727 54.1218 47.9727 53.8799Z" fill="#28662D"/>
<path d="M48.3749 54.4443C48.0524 54.4443 47.8105 54.2024 47.8105 53.8799C47.8105 53.5574 48.0524 53.3156 48.3749 53.3156H49.8262C50.1487 53.3156 50.3906 53.5574 50.3906 53.8799C50.3906 54.2024 50.1487 54.4443 49.8262 54.4443H48.3749ZM49.8262 53.6381H48.3749C48.2137 53.6381 48.0524 53.7187 48.0524 53.8799V53.9606C48.0524 54.1218 48.2137 54.2831 48.3749 54.2831H49.8262C49.9874 54.2831 50.1487 54.1218 50.1487 53.9606C50.1487 53.7993 49.9874 53.6381 49.8262 53.6381Z" fill="#28662D"/>
<path d="M56.9219 53.8799C56.9219 53.6381 57.0831 53.4768 57.2444 53.4768C57.2444 53.4768 57.2444 53.4768 57.325 53.4768H58.7763C59.0181 53.4768 59.1794 53.6381 59.1794 53.7993C59.1794 53.7993 59.1794 53.7993 59.1794 53.8799C59.1794 54.1218 59.0181 54.2831 58.8569 54.2831C58.8569 54.2831 58.8569 54.2831 58.7763 54.2831H57.325C57.0831 54.2831 56.9219 54.1218 56.9219 53.8799Z" fill="#28662D"/>
<path d="M57.3251 54.4443C57.0026 54.4443 56.7607 54.2024 56.7607 53.8799C56.7607 53.5574 57.0026 53.3156 57.3251 53.3156H58.7764C59.0989 53.3156 59.3408 53.5574 59.3408 53.8799C59.3408 54.2024 59.0989 54.4443 58.7764 54.4443H57.3251ZM58.7764 53.5574H57.3251C57.1639 53.5574 57.0026 53.6381 57.0026 53.7993V53.8799C57.0026 54.0412 57.1639 54.2024 57.3251 54.2024H58.7764C58.9376 54.2024 59.0989 54.1218 59.0989 53.9606V53.8799C59.0989 53.7187 58.9376 53.5574 58.7764 53.5574Z" fill="#28662D"/>
<path d="M49.5848 49.9293C49.7461 49.768 49.9879 49.768 50.1492 49.9293L51.1973 50.8968C51.3586 51.058 51.3586 51.2999 51.1973 51.4612C51.0361 51.6224 50.7942 51.6224 50.6329 51.4612L49.5848 50.4937C49.4236 50.3324 49.4236 50.0905 49.5848 49.9293Z" fill="#28662D"/>
<path d="M50.8747 51.7836C50.7134 51.7836 50.5521 51.703 50.4715 51.6224L49.4234 50.6549C49.1815 50.413 49.2621 50.0905 49.504 49.8486C49.7459 49.6873 49.9878 49.6873 50.2296 49.8486L51.2778 50.8161C51.5197 51.058 51.5197 51.3805 51.2778 51.6224C51.1972 51.703 51.0359 51.7836 50.8747 51.7836ZM49.9071 49.9292C49.8265 49.9292 49.7459 49.9292 49.6653 50.0099C49.5846 50.1711 49.5846 50.2517 49.6653 50.413L50.7134 51.3805C50.8747 51.4611 50.9553 51.4611 51.1165 51.3805C51.1972 51.2192 51.1972 51.058 51.1165 50.8967L50.0684 49.9292H49.9071Z" fill="#28662D"/>
<path d="M55.9539 56.2181C56.1152 56.0569 56.3571 56.0569 56.5183 56.2181L57.5665 57.1856C57.7277 57.3469 57.7277 57.5887 57.5665 57.75C57.4052 57.9113 57.1633 57.9113 57.0021 57.75L55.9539 56.7825C55.7927 56.7019 55.7927 56.3794 55.9539 56.2181Z" fill="#28662D"/>
<path d="M57.2448 58.0724C57.0835 58.0724 56.9223 57.9918 56.8416 57.9112L55.7935 56.9437C55.5516 56.7018 55.6323 56.3793 55.8741 56.1374C56.116 55.9762 56.3579 55.9762 56.5998 56.1374L57.6479 57.1049C57.8898 57.3468 57.8898 57.6693 57.6479 57.9112C57.5673 58.0724 57.406 58.0724 57.2448 58.0724ZM56.2773 56.218C56.1966 56.218 56.116 56.218 56.0354 56.2987C55.9548 56.4599 55.9548 56.5406 56.0354 56.7018L57.0835 57.6693C57.2448 57.7499 57.3254 57.7499 57.4866 57.6693C57.5673 57.5081 57.5673 57.3468 57.4866 57.1856L56.4385 56.218C56.4385 56.2987 56.3579 56.218 56.2773 56.218Z" fill="#28662D"/>
<path d="M49.5848 57.9112C49.4236 57.7499 49.4236 57.5081 49.5848 57.3468L50.5523 56.2987C50.7136 56.1374 50.9554 56.1374 51.1167 56.2987C51.278 56.4599 51.278 56.7018 51.1167 56.863L50.1492 57.9112C50.0686 58.0724 49.7461 58.0724 49.5848 57.9112Z" fill="#28662D"/>
<path d="M49.9077 58.1531C49.7464 58.1531 49.5852 58.0725 49.5045 57.9919C49.2627 57.8306 49.2627 57.4275 49.4239 57.2663C49.4239 57.2663 49.4239 57.2663 49.5045 57.1856L50.472 56.1375C50.7139 55.8956 51.0364 55.9762 51.2783 56.2181C51.4395 56.46 51.4395 56.7019 51.2783 56.9438L50.3108 57.9919C50.2302 58.0725 50.0689 58.1531 49.9077 58.1531ZM50.9558 56.2988C50.8752 56.2988 50.7945 56.2988 50.7139 56.3794L49.7464 57.4275C49.6658 57.5081 49.6658 57.75 49.7464 57.8306C49.827 57.9113 50.0689 57.9113 50.1495 57.8306L51.117 56.7825C51.1977 56.6213 51.1977 56.5406 51.117 56.3794C51.117 56.2988 51.0364 56.2988 50.9558 56.2988Z" fill="#28662D"/>
<path d="M55.9539 51.5418C55.7927 51.3805 55.7927 51.1387 55.9539 50.9774L56.9215 49.9293C57.0827 49.768 57.3246 49.768 57.4858 49.9293C57.6471 50.0905 57.6471 50.3324 57.4858 50.4937L56.5183 51.5418C56.3571 51.703 56.1152 51.703 55.9539 51.5418Z" fill="#28662D"/>
<path d="M56.1962 51.7836C55.8737 51.7836 55.6318 51.5417 55.6318 51.2192C55.6318 51.058 55.7125 50.9773 55.7931 50.8161L56.7606 49.768C56.9218 49.5261 57.325 49.5261 57.4862 49.6873C57.4862 49.6873 57.4862 49.6873 57.5669 49.768C57.8087 50.0098 57.8087 50.3323 57.5669 50.5742L56.5993 51.6224C56.5187 51.703 56.3575 51.7836 56.1962 51.7836ZM57.2443 49.9292C57.1637 49.9292 57.0831 49.9292 57.0025 50.0098L56.035 51.058C55.9543 51.2192 55.9543 51.3805 56.035 51.5417C56.1962 51.6224 56.2768 51.6224 56.4381 51.5417L57.4056 50.4936C57.4862 50.3323 57.4862 50.1711 57.4056 50.0098C57.4056 49.9292 57.325 49.9292 57.2443 49.9292Z" fill="#28662D"/>
</svg>
