<svg width="64" height="65" viewBox="0 0 64 65" fill="none" xmlns="http://www.w3.org/2000/svg">
<rect y="0.71875" width="64" height="64" rx="32" fill="#F6F6F9"/>
<path fill-rule="evenodd" clip-rule="evenodd" d="M55.6187 33.2977C55.6049 33.7053 55.2525 34.0139 54.8455 33.9876C54.4385 33.9613 54.1311 33.61 54.1442 33.2024C54.1519 32.96 54.1558 32.7165 54.1558 32.4721C54.1558 32.2277 54.1519 31.9842 54.1442 31.7418C54.1311 31.3342 54.4385 30.9829 54.8455 30.9566C55.2525 30.9303 55.6049 31.2389 55.6187 31.6465C55.6281 31.9206 55.6328 32.1958 55.6328 32.4721C55.6328 32.7484 55.6281 33.0236 55.6187 33.2977ZM54.4539 27.9555C54.8539 27.8764 55.1153 27.4876 55.0237 27.0901C54.8997 26.552 54.7576 26.0208 54.5979 25.4972C54.4789 25.1071 54.0584 24.9006 53.6722 25.0316C53.286 25.1627 53.0804 25.5817 53.1986 25.9721C53.3385 26.4342 53.4638 26.9027 53.5741 27.3769C53.6665 27.7742 54.0538 28.0347 54.4539 27.9555ZM52.8379 21.2524C53.0298 21.6123 52.8788 22.0558 52.5131 22.2364C52.1475 22.4171 51.7057 22.2665 51.5131 21.907C51.2835 21.4787 51.0405 21.0588 50.7844 20.6476C50.5688 20.3014 50.6585 19.8434 50.9974 19.6165C51.3363 19.3896 51.796 19.4798 52.0123 19.8256C52.3033 20.2907 52.5787 20.7666 52.8379 21.2524ZM49.2122 16.1814C49.4905 16.4795 49.4593 16.9469 49.1528 17.216C48.8462 17.485 48.3805 17.4537 48.1016 17.1561C47.7695 16.8019 47.4261 16.4584 47.0718 16.1263C46.7742 15.8474 46.743 15.3817 47.012 15.0752C47.281 14.7687 47.7484 14.7374 48.0465 15.0157C48.4483 15.3908 48.8371 15.7796 49.2122 16.1814ZM44.4023 12.2156C44.7481 12.4319 44.8383 12.8916 44.6114 13.2305C44.3845 13.5694 43.9265 13.6591 43.5803 13.4435C43.1692 13.1875 42.7492 12.9444 42.3209 12.7149C41.9614 12.5222 41.8108 12.0804 41.9915 11.7148C42.1722 11.3491 42.6156 11.1982 42.9755 11.3901C43.4614 11.6492 43.9372 11.9246 44.4023 12.2156ZM20.5362 11.3901C20.896 11.1982 21.3395 11.3492 21.5202 11.7148C21.7008 12.0804 21.5502 12.5222 21.1907 12.7149C20.7625 12.9444 20.3425 13.1875 19.9314 13.4435C19.5852 13.6591 19.1271 13.5694 18.9003 13.2305C18.6734 12.8916 18.7636 12.4319 19.1093 12.2156C19.5744 11.9246 20.0503 11.6492 20.5362 11.3901ZM15.4651 15.0157C15.7632 14.7374 16.2307 14.7687 16.4997 15.0752C16.7687 15.3817 16.7374 15.8474 16.4399 16.1263C16.0856 16.4584 15.7421 16.8019 15.41 17.1561C15.1311 17.4537 14.6654 17.485 14.3589 17.216C14.0524 16.9469 14.0211 16.4795 14.2995 16.1814C14.6746 15.7796 15.0634 15.3908 15.4651 15.0157ZM11.4993 19.8256C11.7156 19.4798 12.1753 19.3896 12.5142 19.6165C12.8531 19.8434 12.9428 20.3015 12.7272 20.6476C12.4712 21.0588 12.2281 21.4787 11.9986 21.907C11.8059 22.2665 11.3642 22.4171 10.9985 22.2364C10.6329 22.0558 10.4819 21.6123 10.6738 21.2524C10.9329 20.7666 11.2083 20.2907 11.4993 19.8256ZM8.91376 25.4972C9.03273 25.1071 9.45323 24.9006 9.83943 25.0316C10.2256 25.1627 10.4312 25.5817 10.3131 25.9721C10.1732 26.4342 10.0478 26.9027 9.93752 27.3769C9.84515 27.7742 9.45789 28.0347 9.0578 27.9555C8.65771 27.8764 8.39638 27.4876 8.48794 27.0902C8.61191 26.552 8.75408 26.0208 8.91376 25.4972ZM8.66618 30.9566C8.25919 30.9303 7.90676 31.2389 7.89291 31.6465C7.8836 31.9206 7.87891 32.1958 7.87891 32.4721C7.87891 32.7484 7.8836 33.0236 7.89291 33.2977C7.90676 33.7053 8.25919 34.0139 8.66618 33.9876C9.07317 33.9613 9.38054 33.61 9.36749 33.2024C9.35974 32.96 9.35583 32.7165 9.35583 32.4721C9.35583 32.2277 9.35974 31.9842 9.36749 31.7418C9.38054 31.3342 9.07317 30.9829 8.66618 30.9566ZM8.48794 37.8541C8.39638 37.4566 8.65772 37.0678 9.0578 36.9887C9.45789 36.9095 9.84515 37.17 9.93752 37.5673C10.0478 38.0415 10.1732 38.51 10.3131 38.9721C10.4312 39.3625 10.2256 39.7815 9.83944 39.9126C9.45323 40.0436 9.03273 39.8371 8.91376 39.447C8.75408 38.9234 8.61191 38.3922 8.48794 37.8541ZM10.6738 43.6918C10.4819 43.3319 10.6329 42.8884 10.9985 42.7078C11.3642 42.5271 11.8059 42.6777 11.9986 43.0372C12.2281 43.4655 12.4712 43.8854 12.7272 44.2966C12.9428 44.6428 12.8531 45.1008 12.5142 45.3277C12.1753 45.5546 11.7156 45.4644 11.4993 45.1186C11.2083 44.6535 10.9329 44.1776 10.6738 43.6918ZM14.2995 48.7628C14.0211 48.4647 14.0524 47.9973 14.3589 47.7282C14.6654 47.4592 15.1311 47.4905 15.41 47.7881C15.7421 48.1423 16.0856 48.4858 16.4399 48.8179C16.7374 49.0968 16.7687 49.5625 16.4997 49.869C16.2307 50.1756 15.7632 50.2068 15.4651 49.9285C15.0634 49.5534 14.6746 49.1646 14.2995 48.7628ZM19.1093 52.7286C18.7636 52.5123 18.6734 52.0526 18.9003 51.7137C19.1271 51.3748 19.5852 51.2851 19.9314 51.5007C20.3425 51.7567 20.7625 51.9998 21.1907 52.2293C21.5502 52.422 21.7008 52.8638 21.5202 53.2294C21.3395 53.5951 20.896 53.7461 20.5362 53.5541C20.0503 53.295 19.5744 53.0196 19.1093 52.7286ZM42.9755 53.5541C42.6156 53.746 42.1722 53.5951 41.9915 53.2294C41.8108 52.8638 41.9615 52.422 42.3209 52.2293C42.7492 51.9998 43.1692 51.7567 43.5803 51.5007C43.9265 51.2851 44.3845 51.3748 44.6114 51.7137C44.8383 52.0526 44.7481 52.5123 44.4023 52.7286C43.9372 53.0196 43.4614 53.295 42.9755 53.5541ZM48.0465 49.9285C47.7484 50.2068 47.281 50.1756 47.012 49.869C46.743 49.5625 46.7742 49.0968 47.0718 48.8179C47.4261 48.4858 47.7695 48.1423 48.1016 47.7881C48.3805 47.4905 48.8462 47.4592 49.1528 47.7282C49.4593 47.9973 49.4905 48.4647 49.2122 48.7628C48.8371 49.1646 48.4483 49.5534 48.0465 49.9285ZM50.9974 45.3277C51.3363 45.5546 51.796 45.4644 52.0123 45.1186C52.3033 44.6535 52.5788 44.1776 52.8379 43.6918C53.0298 43.3319 52.8788 42.8884 52.5131 42.7078C52.1475 42.5271 51.7057 42.6777 51.5131 43.0372C51.2835 43.4655 51.0405 43.8854 50.7844 44.2966C50.5688 44.6428 50.6585 45.1008 50.9974 45.3277ZM54.5979 39.447C54.4789 39.8371 54.0584 40.0436 53.6722 39.9126C53.286 39.7815 53.0804 39.3625 53.1986 38.9721C53.3385 38.51 53.4638 38.0415 53.5741 37.5673C53.6665 37.17 54.0538 36.9095 54.4539 36.9887C54.8539 37.0678 55.1153 37.4566 55.0237 37.854C54.8997 38.3922 54.7576 38.9234 54.5979 39.447Z" fill="#2E3443"/>
<path d="M29.7549 32.5241L31.7656 17.0244L33.7345 32.566L29.7549 32.5241Z" fill="#F79009"/>
<path d="M33.7334 32.5655L31.7227 46.976L29.7538 32.5236L33.7334 32.5655Z" fill="#7FA0EF"/>
<path d="M34.4529 56.1832C34.4734 56.2668 34.4599 56.3552 34.4153 56.4288C34.3707 56.5024 34.2988 56.5554 34.2153 56.5759L33.6564 56.7134L33.8024 57.2591C33.8247 57.3423 33.8131 57.4309 33.7701 57.5055C33.7271 57.5801 33.6563 57.6346 33.5732 57.6569C33.4901 57.6792 33.4015 57.6676 33.327 57.6246C33.2524 57.5815 33.198 57.5106 33.1757 57.4274L32.9786 56.6912L32.0832 56.1734V57.2079L32.6369 57.7622C32.6671 57.7924 32.691 57.8283 32.7073 57.8678C32.7237 57.9072 32.7321 57.9495 32.7321 57.9923C32.7321 58.035 32.7237 58.0773 32.7073 58.1168C32.691 58.1563 32.6671 58.1921 32.6369 58.2223C32.6067 58.2525 32.5709 58.2765 32.5314 58.2929C32.492 58.3092 32.4498 58.3176 32.4071 58.3176C32.3644 58.3176 32.3221 58.3092 32.2827 58.2929C32.2433 58.2765 32.2074 58.2525 32.1773 58.2223L31.7587 57.8033L31.3394 58.2234C31.3092 58.2536 31.2734 58.2776 31.234 58.2939C31.1945 58.3103 31.1523 58.3187 31.1096 58.3187C31.0669 58.3187 31.0247 58.3103 30.9852 58.2939C30.9458 58.2776 30.91 58.2536 30.8798 58.2234C30.8496 58.1932 30.8257 58.1573 30.8093 58.1179C30.793 58.0784 30.7846 58.0361 30.7846 57.9934C30.7846 57.9506 30.793 57.9083 30.8093 57.8688C30.8257 57.8294 30.8496 57.7935 30.8798 57.7633L31.4343 57.2079V56.1734L30.5389 56.6912L30.3418 57.4274C30.3195 57.5106 30.2651 57.5815 30.1905 57.6246C30.116 57.6676 30.0274 57.6792 29.9443 57.6569C29.8612 57.6346 29.7904 57.5801 29.7474 57.5055C29.7044 57.4309 29.6928 57.3423 29.7151 57.2591L29.861 56.7134L29.3022 56.5759C29.2599 56.5667 29.2198 56.549 29.1844 56.5241C29.149 56.4991 29.119 56.4673 29.096 56.4305C29.0731 56.3937 29.0578 56.3527 29.0509 56.3098C29.0441 56.267 29.0459 56.2233 29.0562 56.1811C29.0666 56.139 29.0852 56.0994 29.1111 56.0646C29.1369 56.0298 29.1695 56.0006 29.2068 55.9786C29.2442 55.9566 29.2855 55.9424 29.3285 55.9366C29.3714 55.9309 29.4151 55.9338 29.4569 55.9453L30.2109 56.1307L31.1099 55.611L30.2109 55.0913L29.4569 55.2767C29.4316 55.2831 29.4056 55.2862 29.3795 55.2862C29.3003 55.286 29.2239 55.2569 29.1647 55.2042C29.1055 55.1515 29.0676 55.079 29.0581 55.0003C29.0487 54.9216 29.0683 54.8421 29.1133 54.7769C29.1583 54.7116 29.2256 54.6651 29.3025 54.6461L29.8613 54.5086L29.7153 53.963C29.693 53.8798 29.7046 53.7911 29.7476 53.7165C29.7906 53.6419 29.8615 53.5874 29.9446 53.5651C30.0277 53.5428 30.1163 53.5544 30.1908 53.5975C30.2653 53.6405 30.3197 53.7114 30.342 53.7946L30.5391 54.5308L31.4343 55.0483V54.0141L30.8806 53.4587C30.8504 53.4285 30.8265 53.3927 30.8101 53.3532C30.7938 53.3137 30.7854 53.2714 30.7854 53.2287C30.7854 53.1424 30.8196 53.0596 30.8806 52.9986C30.9415 52.9376 31.0242 52.9033 31.1104 52.9033C31.1531 52.9033 31.1953 52.9117 31.2348 52.9281C31.2742 52.9444 31.31 52.9684 31.3402 52.9986L31.7587 53.4187L32.1781 52.9986C32.2083 52.9684 32.2441 52.9444 32.2835 52.9281C32.3229 52.9117 32.3652 52.9033 32.4079 52.9033C32.4506 52.9033 32.4928 52.9117 32.5323 52.9281C32.5717 52.9444 32.6075 52.9684 32.6377 52.9986C32.6679 53.0288 32.6918 53.0647 32.7081 53.1042C32.7245 53.1436 32.7329 53.1859 32.7329 53.2287C32.7329 53.2714 32.7245 53.3137 32.7081 53.3532C32.6918 53.3927 32.6679 53.4285 32.6377 53.4587L32.0832 54.0141V55.0491L32.9786 54.5316L33.1757 53.7954C33.198 53.7122 33.2524 53.6413 33.327 53.5983C33.4015 53.5552 33.4901 53.5436 33.5732 53.5659C33.6563 53.5882 33.7271 53.6427 33.7701 53.7173C33.8131 53.7919 33.8247 53.8806 33.8024 53.9638L33.6564 54.5094L34.2153 54.6469C34.2915 54.6666 34.3579 54.7133 34.4023 54.7783C34.4467 54.8433 34.4659 54.9223 34.4564 55.0005C34.447 55.0787 34.4095 55.1508 34.3509 55.2033C34.2923 55.2559 34.2166 55.2853 34.138 55.2862C34.1118 55.2863 34.0857 55.2831 34.0604 55.2767L33.3063 55.0913L32.4076 55.611L33.3066 56.1307L34.0606 55.9453C34.1442 55.9248 34.2324 55.9383 34.306 55.9829C34.3795 56.0275 34.4324 56.0996 34.4529 56.1832Z" fill="#7FA0EF"/>
<path d="M31.7546 11.9185C31.8525 11.9185 31.9465 11.9574 32.0157 12.0267C32.085 12.0959 32.1239 12.1898 32.1239 12.2878V12.657C32.1239 12.7549 32.085 12.8488 32.0157 12.9181C31.9465 12.9873 31.8525 13.0262 31.7546 13.0262C31.6567 13.0262 31.5628 12.9873 31.4935 12.9181C31.4243 12.8488 31.3854 12.7549 31.3854 12.657V12.2878C31.3854 12.1898 31.4243 12.0959 31.4935 12.0267C31.5628 11.9574 31.6567 11.9185 31.7546 11.9185ZM34.1045 11.1616L34.3656 11.4226C34.4328 11.4923 34.4701 11.5856 34.4692 11.6824C34.4684 11.7792 34.4295 11.8718 34.3611 11.9402C34.2926 12.0087 34.2 12.0475 34.1032 12.0484C34.0064 12.0492 33.9131 12.012 33.8435 11.9447L33.5824 11.6837C33.5151 11.6141 33.4779 11.5208 33.4788 11.424C33.4796 11.3272 33.5184 11.2346 33.5869 11.1661C33.6554 11.0976 33.748 11.0588 33.8448 11.058C33.9416 11.0571 34.0349 11.0943 34.1045 11.1616ZM29.4047 11.1616C29.4711 11.0954 29.5603 11.0569 29.6541 11.0541C29.7478 11.0512 29.8392 11.0841 29.9096 11.1462C29.9799 11.2082 30.024 11.2947 30.0329 11.3881C30.0418 11.4815 30.0148 11.5748 29.9575 11.649L29.9268 11.6837L29.6657 11.9447C29.5993 12.011 29.5101 12.0494 29.4164 12.0523C29.3226 12.0551 29.2312 12.0222 29.1609 11.9602C29.0905 11.8981 29.0464 11.8116 29.0375 11.7182C29.0286 11.6248 29.0556 11.5316 29.113 11.4574L29.1436 11.4226L29.4047 11.1616ZM31.7546 7.11852C32.3422 7.11852 32.9057 7.35193 33.3212 7.7674C33.7367 8.18286 33.9701 8.74635 33.9701 9.33391C33.9701 9.92147 33.7367 10.485 33.3212 10.9004C32.9057 11.3159 32.3422 11.5493 31.7546 11.5493C31.167 11.5493 30.6035 11.3159 30.188 10.9004C29.7725 10.485 29.5391 9.92147 29.5391 9.33391C29.5391 8.74635 29.7725 8.18286 30.188 7.7674C30.6035 7.35193 31.167 7.11852 31.7546 7.11852ZM31.7546 7.85699C31.3629 7.85699 30.9872 8.01259 30.7102 8.28957C30.4332 8.56654 30.2776 8.9422 30.2776 9.33391C30.2776 9.72561 30.4332 10.1013 30.7102 10.3783C30.9872 10.6552 31.3629 10.8108 31.7546 10.8108C32.1463 10.8108 32.522 10.6552 32.799 10.3783C33.076 10.1013 33.2316 9.72561 33.2316 9.33391C33.2316 8.9422 33.076 8.56654 32.799 8.28957C32.522 8.01259 32.1463 7.85699 31.7546 7.85699ZM28.8006 8.96468C28.8947 8.96478 28.9852 9.00082 29.0537 9.06542C29.1221 9.13003 29.1633 9.21832 29.1688 9.31227C29.1743 9.40622 29.1437 9.49873 29.0833 9.57089C29.0229 9.64306 28.9373 9.68944 28.8438 9.70056L28.8006 9.70314H28.4313C28.3372 9.70304 28.2467 9.667 28.1783 9.6024C28.1098 9.53779 28.0687 9.4495 28.0631 9.35555C28.0576 9.2616 28.0882 9.16909 28.1486 9.09693C28.209 9.02476 28.2947 8.97838 28.3881 8.96726L28.4313 8.96468H28.8006ZM35.0779 8.96468C35.1758 8.96468 35.2697 9.00358 35.339 9.07282C35.4082 9.14207 35.4471 9.23598 35.4471 9.33391C35.4471 9.43184 35.4082 9.52575 35.339 9.59499C35.2697 9.66424 35.1758 9.70314 35.0779 9.70314H34.7086C34.6107 9.70314 34.5168 9.66424 34.4475 9.59499C34.3783 9.52575 34.3394 9.43184 34.3394 9.33391C34.3394 9.23598 34.3783 9.14207 34.4475 9.07282C34.5168 9.00358 34.6107 8.96468 34.7086 8.96468H35.0779ZM29.1436 6.72308C29.2072 6.65951 29.2918 6.62132 29.3815 6.61567C29.4713 6.61003 29.56 6.63732 29.631 6.69243L29.6657 6.72308L29.9268 6.98412C29.993 7.05057 30.0315 7.13973 30.0343 7.2335C30.0372 7.32726 30.0043 7.4186 29.9422 7.48897C29.8802 7.55933 29.7937 7.60344 29.7003 7.61233C29.6069 7.62123 29.5136 7.59425 29.4394 7.53686L29.4047 7.50622L29.1436 7.24517C29.0744 7.17593 29.0355 7.08203 29.0355 6.98412C29.0355 6.88622 29.0744 6.79232 29.1436 6.72308ZM34.3656 6.72308C34.4348 6.79232 34.4737 6.88622 34.4737 6.98412C34.4737 7.08203 34.4348 7.17593 34.3656 7.24517L34.1045 7.50622C34.0705 7.54148 34.0297 7.56961 33.9847 7.58896C33.9396 7.60831 33.8912 7.6185 33.8421 7.61892C33.7931 7.61935 33.7445 7.61001 33.6991 7.59144C33.6537 7.57288 33.6125 7.54546 33.5778 7.51079C33.5431 7.47613 33.5157 7.4349 33.4972 7.38952C33.4786 7.34415 33.4693 7.29553 33.4697 7.2465C33.4701 7.19747 33.4803 7.14902 33.4996 7.10398C33.519 7.05893 33.5471 7.01819 33.5824 6.98412L33.8435 6.72308C33.9127 6.65386 34.0066 6.61497 34.1045 6.61497C34.2024 6.61497 34.2963 6.65386 34.3656 6.72308ZM31.7546 5.6416C31.8525 5.6416 31.9465 5.6805 32.0157 5.74975C32.085 5.81899 32.1239 5.91291 32.1239 6.01083V6.38006C32.1239 6.47799 32.085 6.5719 32.0157 6.64115C31.9465 6.71039 31.8525 6.74929 31.7546 6.74929C31.6567 6.74929 31.5628 6.71039 31.4935 6.64115C31.4243 6.5719 31.3854 6.47799 31.3854 6.38006V6.01083C31.3854 5.91291 31.4243 5.81899 31.4935 5.74975C31.5628 5.6805 31.6567 5.6416 31.7546 5.6416Z" fill="#F79009"/>
</svg>
