<svg width="32" height="32" viewBox="0 0 32 32" xmlns="http://www.w3.org/2000/svg">
<path fill="#ffffff" d="M10.2727 9.59095C10.2727 10.2031 9.90615 10.7 9.45452 10.7C9.00288 10.7 8.63633 10.2031 8.63633 9.59095V8.60906C8.63633 7.99686 9.00288 7.5 9.45452 7.5C9.90615 7.5 10.2727 7.99686 10.2727 8.60906V9.59095Z"></path>
<path fill="#ffffff" fill-rule="evenodd" clip-rule="evenodd" d="M20.8587 12.3451C23.0134 12.3451 24.042 13.3039 24.5248 14.109C25.1949 15.227 25.1548 16.5545 24.4138 17.845C23.3973 19.6168 21.2586 21.0054 19.5466 21.0054C19.4955 21.0054 19.4465 20.9999 19.3972 20.9944C19.3588 20.9902 19.3202 20.9859 19.2804 20.9841C18.2505 22.9695 17.3049 23.5 16.6508 23.5H11.1148C10.4233 23.5 9.40549 22.9271 8.30337 20.6393C7.21494 18.3759 7.03796 14.0392 7.00438 13.2165L7.0033 13.1899C6.9712 12.4419 7.17049 12.3 7.7376 12.3H20.0281C20.1792 12.3 20.2996 12.3119 20.4013 12.3411L20.8587 12.3451ZM20.048 18.9298C20.9267 18.6791 22.0917 17.8688 22.6695 16.8622C23.0494 16.1991 23.0935 15.6155 22.8006 15.1248C22.6826 14.9294 22.3234 14.3344 20.8585 14.3344L20.702 14.3331C20.6231 15.52 20.4439 17.3502 20.048 18.9298Z"></path>
<path fill="#ffffff" d="M13.5455 10.7C13.9971 10.7 14.3637 10.2031 14.3637 9.59095V8.60906C14.3637 7.99686 13.9971 7.5 13.5455 7.5C13.0939 7.5 12.7273 7.99686 12.7273 8.60906V9.59095C12.7273 10.2031 13.0939 10.7 13.5455 10.7Z"></path>
<path fill="#ffffff" d="M18.4544 9.59095C18.4544 10.2031 18.0878 10.7 17.6362 10.7C17.1846 10.7 16.818 10.2031 16.818 9.59095V8.60906C16.818 7.99686 17.1846 7.5 17.6362 7.5C18.0878 7.5 18.4544 7.99686 18.4544 8.60906V9.59095Z"></path>
</svg>