<svg width="32" height="32" viewBox="0 0 32 32" xmlns="http://www.w3.org/2000/svg">
<path fill="#ffffff" d="M24.0918 13.8661C23.8573 13.8661 23.6227 13.7554 23.5054 13.6446L16.1173 8.77077L8.7291 13.6446C8.26001 13.9769 7.55638 13.8661 7.20456 13.4231C6.85274 12.98 6.97002 12.3154 7.43911 11.9831L15.4136 6.66615C15.7655 6.44462 16.2345 6.44462 16.5864 6.66615L24.5609 11.9831C25.03 12.3154 25.1473 12.8692 24.7954 13.4231C24.7954 13.7554 24.4436 13.8661 24.0918 13.8661Z"></path>
<path fill="#ffffff" d="M20.8079 20.623C20.2215 20.623 19.7524 20.1799 19.7524 19.6261V15.1953C19.7524 14.6415 20.2215 14.1984 20.8079 14.1984C21.3942 14.1984 21.8633 14.6415 21.8633 15.1953V19.6261C21.8633 20.1799 21.3942 20.623 20.8079 20.623ZM16.117 20.623C15.5306 20.623 15.0615 20.1799 15.0615 19.6261V15.1953C15.0615 14.6415 15.5306 14.1984 16.117 14.1984C16.7033 14.1984 17.1724 14.6415 17.1724 15.1953V19.6261C17.1724 20.1799 16.7033 20.623 16.117 20.623ZM11.4261 20.623C10.8397 20.623 10.3706 20.1799 10.3706 19.6261V15.1953C10.3706 14.6415 10.8397 14.1984 11.4261 14.1984C12.0124 14.1984 12.4815 14.6415 12.4815 15.1953V19.6261C12.4815 20.1799 12.0124 20.623 11.4261 20.623Z"></path>
<path fill="#ffffff" d="M23.1533 24.5H9.08063C8.49427 24.5 8.02518 24.0569 8.02518 23.5031C8.02518 22.9492 8.49427 22.5062 9.08063 22.5062H23.1533C23.7397 22.5062 24.2088 22.9492 24.2088 23.5031C24.2088 24.0569 23.7397 24.5 23.1533 24.5Z"></path>
</svg>