<svg width="32" height="32" viewBox="0 0 32 32" xmlns="http://www.w3.org/2000/svg">
<path fill="#ffffff" d="M13.6581 7.49864C13.4021 7.36978 13.4021 7.11207 13.6581 6.98321L14.298 6.59664C14.5539 6.46779 14.6819 6.46779 14.8099 6.59664C15.9617 7.49864 16.4736 8.52949 16.6016 9.94691C16.2177 10.0758 15.8337 10.0758 15.4498 10.0758C15.0659 9.04492 14.5539 8.14292 13.6581 7.49864ZM16.7296 10.5912C21.4648 7.75635 26.5839 11.622 24.5363 17.5495C23.3845 20.7709 20.8249 26.1828 16.3456 23.9923C16.2177 23.8634 15.9617 23.8634 15.7058 23.9923C11.2265 26.1828 8.66695 20.7709 7.51514 17.5495C5.33951 11.622 10.4586 7.75635 15.3218 10.5912C15.7058 10.7201 16.2177 10.7201 16.7296 10.5912Z"></path>
</svg>