<svg width="32" height="32" viewBox="0 0 32 32" xmlns="http://www.w3.org/2000/svg">
<path fill="#ffffff" d="M16.0496 26.5C15.4545 26.5 15.0579 26.0484 15.0579 25.371V21.3065L12.7769 20.0645C12.281 19.8387 12.0826 19.1613 12.281 18.5968C12.4793 18.0323 13.0744 17.8065 13.5702 18.0323L14.9587 18.8226V13.629H10.9917C10.3967 13.629 10 13.1774 10 12.5C10 11.8226 10.3967 11.371 10.9917 11.371H14.9587V9.79032H13.9669C13.3719 9.79032 12.9752 9.33871 12.9752 8.66129C12.9752 7.98387 13.3719 7.53226 13.9669 7.53226H14.9587V6.62903C14.9587 5.95161 15.3554 5.5 15.9504 5.5C16.5455 5.5 16.9421 5.95161 16.9421 6.62903V7.53226H18.1322C18.7273 7.53226 19.124 7.98387 19.124 8.66129C19.124 9.33871 18.7273 9.79032 18.1322 9.79032H17.0413V11.371H21.0083C21.6033 11.371 22 11.8226 22 12.5C22 13.1774 21.6033 13.629 21.0083 13.629H17.0413V19.9516L19.5207 21.3065C20.0165 21.5323 20.2149 22.2097 20.0165 22.7742C19.8182 23.3387 19.2231 23.5645 18.7273 23.3387L17.0413 22.3226V25.371C17.0413 26.0484 16.6446 26.5 16.0496 26.5Z"></path>
</svg>