<svg xmlns="http://www.w3.org/2000/svg" xmlns:xlink="http://www.w3.org/1999/xlink" width="17" height="20" viewBox="0 0 17 20"><defs><path id="i5v7a" d="M752.93 396.4v-1.23h-8.7v1.24a.6.6 0 0 1-.58.59h-1.62a.6.6 0 0 1-.6-.6V395a2.32 2.32 0 0 1-1.43-2.14v-13.54a2.32 2.32 0 0 1 2.32-2.32h12.18a2.32 2.32 0 0 1 2.31 2.32v13.54c0 .82-.43 1.54-1.08 1.96v1.59a.6.6 0 0 1-.6.59h-1.6a.6.6 0 0 1-.6-.6zm2.48-4.03a1.4 1.4 0 1 0-2.8 0 1.4 1.4 0 0 0 2.8 0zm-11.2 0a1.4 1.4 0 0 0-2.8 0 1.4 1.4 0 0 0 2.8 0zm9.8-3.52h.05c.74 0 1.35-.6 1.35-1.35v-4.95c0-.74-.6-1.35-1.35-1.35h-11.3c-.75 0-1.36.6-1.36 1.35v4.95c0 .75.6 1.35 1.35 1.35h5.65zm1.4-9.75c0-.38-.33-.7-.74-.7h-12.53c-.4 0-.74.32-.74.7 0 .39.33.7.74.7h12.53c.41 0 .74-.31.74-.7z"/></defs><g><g transform="translate(-740 -377)"><use fill="#ffffff" xlink:href="#i5v7a"/></g></g></svg>