<svg width="40" height="40" viewBox="0 0 40 40" fill="none" xmlns="http://www.w3.org/2000/svg">
<path d="M0 20C0 8.95431 8.95431 0 20 0C31.0457 0 40 8.95431 40 20C40 31.0457 31.0457 40 20 40C8.95431 40 0 31.0457 0 20Z" fill="#273747"/>
<path fill-rule="evenodd" clip-rule="evenodd" d="M16.6172 18.6169C16.6172 20.2711 17.963 21.616 19.6172 21.616C21.2713 21.616 22.6172 20.2711 22.6172 18.6169C22.6172 16.9618 21.2713 15.616 19.6172 15.616C17.963 15.616 16.6172 16.9618 16.6172 18.6169ZM18.0016 18.6172C18.0016 17.7255 18.7262 17.0009 19.617 17.0009C20.5077 17.0009 21.2324 17.7255 21.2324 18.6172C21.2324 19.508 20.5077 20.2317 19.617 20.2317C18.7262 20.2317 18.0016 19.508 18.0016 18.6172Z" fill="#FCFCFC"/>
<path fill-rule="evenodd" clip-rule="evenodd" d="M12 18.6735C12 23.8751 17.9594 29 19.6154 29C21.2714 29 27.2308 23.8751 27.2308 18.6735C27.2308 14.4422 23.8145 11 19.6154 11C15.4163 11 12 14.4422 12 18.6735ZM13.3856 18.6732C13.3856 15.2061 16.1807 12.3843 19.6164 12.3843C23.0521 12.3843 25.8471 15.2061 25.8471 18.6732C25.8471 23.0837 20.6557 27.3815 19.6164 27.6113C18.577 27.3824 13.3856 23.0846 13.3856 18.6732Z" fill="#FCFCFC"/>
</svg>
