<svg width="32" height="32" viewBox="0 0 32 32" xmlns="http://www.w3.org/2000/svg">
<path fill="#ffffff" fill-rule="evenodd" clip-rule="evenodd" d="M11.6966 23.133C9.87429 23.133 8.39343 21.667 8.39343 19.8665C8.39343 18.0644 9.87429 16.5985 11.6966 16.5985C13.519 16.5985 14.9998 18.0644 14.9998 19.8665C14.9998 21.667 13.519 23.133 11.6966 23.133ZM25.9979 10.5262C25.9979 10.5262 25.9884 9.11077 24.7357 7.7521C23.357 6.50863 21.9288 6.50232 21.9288 6.50232C21.9288 6.50232 20.3011 6.40448 18.9447 7.48068C17.5899 8.55689 17.432 10.1444 17.432 10.1444C17.3586 10.9018 16.4123 13.4834 15.9383 14.1194L12.4053 10.6257C11.9378 10.1633 11.1814 10.1633 10.7138 10.6257C10.2463 11.088 10.2463 11.8376 10.7138 12.2999L12.7772 14.3403C12.4261 14.274 12.067 14.2314 11.6968 14.2314C8.5548 14.2314 6 16.7594 6 19.8665C6 22.972 8.5548 25.5 11.6968 25.5C14.8389 25.5 17.3937 22.972 17.3937 19.8665C17.3937 19.5004 17.3522 19.1453 17.2851 18.7982L19.2112 20.7028C19.4442 20.9332 19.7506 21.05 20.057 21.05C20.3634 21.05 20.6697 20.9332 20.9043 20.7028C21.3703 20.2405 21.3703 19.4909 20.9043 19.0286L18.5059 16.6584C19.1442 16.0414 21.5314 15.0441 22.3134 14.9683C22.3134 14.9683 23.9171 14.8153 25.0054 13.474C26.0921 12.1342 25.9979 10.5262 25.9979 10.5262Z"></path>
</svg>