<svg width="32" height="32" viewBox="0 0 32 32" xmlns="http://www.w3.org/2000/svg">
<path fill="#ffffff" fill-rule="evenodd" clip-rule="evenodd" d="M21.6174 10.9892C21.6174 7.9183 18.9655 5.5 15.6925 5.5C12.4165 5.5 9.76297 8.21742 9.76297 11.5722C9.76297 12.9832 10.7939 13.4906 10.7939 13.4906C10.7939 13.4906 9 14.2557 9 16.3037C9 18.5247 10.7603 20.3258 12.9291 20.3258C13.6086 20.3258 13.8218 20.1339 14.3798 19.8219V25.1389C14.3798 25.7598 15.0037 26.5 15.8946 26.5C16.7854 26.5 17.2688 25.7598 17.2688 25.1389V19.8219C17.796 20.0574 18.0971 20.1654 18.7077 20.1654C21.0772 20.1654 23 18.1978 23 15.7698C23 13.2873 20.7947 12.9539 20.7947 12.9539C20.7947 12.9539 21.6174 12.2236 21.6174 10.9892Z"></path>
</svg>