<svg viewBox="0 0 18 18" xmlns="http://www.w3.org/2000/svg"> <path fill="#ffffff" d="M7.47945 6.08754L8.99998 7.60873L13.1829 3.42513C13.3048 3.3032 13.4495 3.20647 13.6088 3.14048C13.7681 3.07449 13.9388 3.04052 14.1112 3.04052C14.2836 3.04052 14.4543 3.07449 14.6136 3.14048C14.7729 3.20647 14.9176 3.3032 15.0394 3.42513L15.5034 3.8891L7.47945 11.9124C7.71727 12.4733 7.75263 13.0994 7.57945 13.6834C7.40627 14.2675 7.03534 14.7731 6.53023 15.1137C6.02513 15.4543 5.4173 15.6085 4.81092 15.5501C4.20453 15.4917 3.63736 15.2241 3.20659 14.7934C2.77583 14.3626 2.5083 13.7954 2.44986 13.189C2.39141 12.5827 2.54569 11.9748 2.88626 11.4697C3.22682 10.9646 3.73246 10.5937 4.31652 10.4205C4.90058 10.2473 5.52669 10.2827 6.08754 10.5205L7.60873 8.99998L6.08754 7.47945C5.52669 7.71727 4.90058 7.75263 4.31652 7.57945C3.73246 7.40627 3.22682 7.03534 2.88626 6.53023C2.54569 6.02513 2.39141 5.4173 2.44986 4.81092C2.5083 4.20453 2.77583 3.63736 3.20659 3.20659C3.63736 2.77583 4.20453 2.5083 4.81092 2.44986C5.4173 2.39141 6.02513 2.54569 6.53023 2.88626C7.03534 3.22682 7.40627 3.73246 7.57945 4.31652C7.75263 4.90058 7.71727 5.52669 7.47945 6.08754ZM5.06248 6.37498C5.41057 6.37498 5.74441 6.2367 5.99055 5.99055C6.2367 5.74441 6.37498 5.41057 6.37498 5.06248C6.37498 4.71438 6.2367 4.38054 5.99055 4.1344C5.74441 3.88826 5.41057 3.74998 5.06248 3.74998C4.71438 3.74998 4.38054 3.88826 4.1344 4.1344C3.88826 4.38054 3.74998 4.71438 3.74998 5.06248C3.74998 5.41057 3.88826 5.74441 4.1344 5.99055C4.38054 6.2367 4.71438 6.37498 5.06248 6.37498ZM5.06248 14.25C5.41057 14.25 5.74441 14.1117 5.99055 13.8656C6.2367 13.6194 6.37498 13.2856 6.37498 12.9375C6.37498 12.5894 6.2367 12.2555 5.99055 12.0094C5.74441 11.7633 5.41057 11.625 5.06248 11.625C4.71438 11.625 4.38054 11.7633 4.1344 12.0094C3.88826 12.2555 3.74998 12.5894 3.74998 12.9375C3.74998 13.2856 3.88826 13.6194 4.1344 13.8656C4.38054 14.1117 4.71438 14.25 5.06248 14.25ZM11.3198 9.92726L15.5034 14.1115L15.0394 14.5755C14.9176 14.6974 14.7729 14.7941 14.6136 14.8601C14.4543 14.9261 14.2836 14.9601 14.1112 14.9601C13.9388 14.9601 13.7681 14.9261 13.6088 14.8601C13.4495 14.7941 13.3048 14.6974 13.1829 14.5755L9.92791 11.3198L11.3192 9.92726H11.3198Z"></path> </svg>