<svg viewBox="0 0 18 18" xmlns="http://www.w3.org/2000/svg"> <path fill="#ffffff" d="M11.625 2.4375C11.9873 2.4375 12.2813 2.7315 12.2813 3.09375V5.0625H14.9063C15.2685 5.0625 15.5625 5.3565 15.5625 5.71875V14.9063C15.5625 15.2685 15.2685 15.5625 14.9063 15.5625H3.09375C2.7315 15.5625 2.4375 15.2685 2.4375 14.9063V5.71875C2.4375 5.3565 2.7315 5.0625 3.09375 5.0625H5.71875V3.09375C5.71875 2.7315 6.01275 2.4375 6.375 2.4375H11.625ZM9.65625 7.6875H8.34375V9.65625H6.375V10.9688H8.34309L8.34375 12.9375H9.65625L9.65559 10.9688H11.625V9.65625H9.65625V7.6875ZM10.9688 3.75H7.03125V5.0625H10.9688V3.75Z"></path> </svg>