<svg width="32" height="32" viewBox="0 0 32 32" xmlns="http://www.w3.org/2000/svg">
<path fill="#ffffff" d="M16 6.5C14.22 6.5 12.4799 7.02784 10.9999 8.01677C9.51983 9.00571 8.36628 10.4113 7.68509 12.0558C7.0039 13.7004 6.82567 15.51 7.17294 17.2558C7.5202 19.0016 8.37737 20.6053 9.63604 21.864C10.8947 23.1226 12.4984 23.9798 14.2442 24.3271C15.99 24.6743 17.7996 24.4961 19.4442 23.8149C21.0887 23.1337 22.4943 21.9802 23.4832 20.5001C24.4722 19.0201 25 17.28 25 15.5C25 13.1131 24.0518 10.8239 22.364 9.13604C20.6761 7.44821 18.387 6.5 16 6.5ZM19.6 11.4837C19.9209 11.4815 20.2352 11.5746 20.5031 11.7513C20.771 11.9279 20.9803 12.1802 21.1047 12.476C21.229 12.7718 21.2627 13.0979 21.2015 13.4128C21.1403 13.7278 20.9869 14.0175 20.7607 14.2452C20.5346 14.4729 20.246 14.6283 19.9315 14.6917C19.6169 14.7552 19.2906 14.7238 18.9939 14.6015C18.6973 14.4792 18.4436 14.2716 18.2651 14.0049C18.0866 13.7383 17.9913 13.4246 17.9913 13.1037C17.9912 12.676 18.1604 12.2657 18.4618 11.9622C18.7631 11.6587 19.1723 11.4867 19.6 11.4837V11.4837ZM12.4 11.4837C12.7209 11.4815 13.0352 11.5746 13.3031 11.7513C13.571 11.9279 13.7803 12.1802 13.9047 12.476C14.029 12.7718 14.0627 13.0979 14.0015 13.4128C13.9403 13.7278 13.7869 14.0175 13.5607 14.2452C13.3346 14.4729 13.046 14.6283 12.7315 14.6917C12.4169 14.7552 12.0906 14.7238 11.7939 14.6015C11.4973 14.4792 11.2436 14.2716 11.0651 14.0049C10.8866 13.7383 10.7913 13.4246 10.7913 13.1037C10.7912 12.676 10.9604 12.2657 11.2618 11.9622C11.5631 11.6587 11.9723 11.4867 12.4 11.4837V11.4837ZM21.5575 18.4475C21.0321 19.4552 20.2301 20.2921 19.2457 20.8601C18.2613 21.428 17.1354 21.7033 16 21.6537C14.8591 21.6907 13.7302 21.412 12.7377 20.8482C11.7451 20.2845 10.9275 19.4576 10.375 18.4587C10.2972 18.2959 10.2866 18.109 10.3455 17.9385C10.4045 17.7679 10.5282 17.6275 10.69 17.5475C10.8549 17.472 11.0424 17.4626 11.214 17.5212C11.3856 17.5798 11.5282 17.702 11.6125 17.8625C12.0534 18.6278 12.6953 19.2577 13.4687 19.6841C14.2422 20.1105 15.1176 20.317 16 20.2812C16.866 20.3175 17.725 20.1114 18.4802 19.686C19.2355 19.2607 19.857 18.6331 20.275 17.8737C20.3626 17.7294 20.5003 17.6224 20.6618 17.5732C20.8233 17.524 20.9972 17.5361 21.1504 17.6071C21.3036 17.6781 21.4252 17.8031 21.492 17.9581C21.5588 18.1132 21.5661 18.2874 21.5125 18.4475H21.5575Z"></path>
</svg>