<svg width="32" height="32" viewBox="0 0 32 32" xmlns="http://www.w3.org/2000/svg">
<path fill="#ffffff" d="M23.8571 13.3571H18.1429V7.64286C18.1429 7.07454 17.9171 6.52949 17.5152 6.12763C17.1134 5.72576 16.5683 5.5 16 5.5C15.4317 5.5 14.8866 5.72576 14.4848 6.12763C14.0829 6.52949 13.8571 7.07454 13.8571 7.64286V13.3571H8.14286C7.57454 13.3571 7.02949 13.5829 6.62763 13.9848C6.22576 14.3866 6 14.9317 6 15.5C6 16.0683 6.22576 16.6134 6.62763 17.0152C7.02949 17.4171 7.57454 17.6429 8.14286 17.6429H13.8571V23.3571C13.8571 23.9255 14.0829 24.4705 14.4848 24.8724C14.8866 25.2742 15.4317 25.5 16 25.5C16.5683 25.5 17.1134 25.2742 17.5152 24.8724C17.9171 24.4705 18.1429 23.9255 18.1429 23.3571V17.6429H23.8571C24.4255 17.6429 24.9705 17.4171 25.3724 17.0152C25.7742 16.6134 26 16.0683 26 15.5C26 14.9317 25.7742 14.3866 25.3724 13.9848C24.9705 13.5829 24.4255 13.3571 23.8571 13.3571Z"></path>
</svg>