<svg width="32" height="32" viewBox="0 0 32 32" xmlns="http://www.w3.org/2000/svg">
<path fill="#ffffff" fill-rule="evenodd" clip-rule="evenodd" d="M21.521 24C23.4874 24 25 22.4 25 20.5091C25 18.6182 23.3361 17.0182 21.521 17.0182C19.5546 17.0182 18.042 18.6182 18.042 20.5091C18.042 22.5455 19.5546 24 21.521 24ZM10.479 24C12.4454 24 13.958 22.4 13.958 20.5091C13.958 18.6182 12.2941 17.0182 10.479 17.0182C8.66387 17.0182 7 18.6182 7 20.5091C7 22.5455 8.51261 24 10.479 24ZM15.9244 14.9818C17.8908 14.9818 19.4034 13.3818 19.4034 11.4909C19.4034 9.6 17.7395 8 15.9244 8C14.1092 8 12.4454 9.6 12.4454 11.4909C12.4454 13.3818 13.958 14.9818 15.9244 14.9818Z"></path>
</svg>