<svg viewBox="0 0 18 18" xmlns="http://www.w3.org/2000/svg"> <path fill="#ffffff" d="M4.46438 5.34812L2.4375 3.32187L3.32188 2.4375L5.34813 4.46438H14.8744C14.9718 4.46437 15.0679 4.48713 15.1549 4.53085C15.242 4.57458 15.3176 4.63804 15.3758 4.71619C15.4339 4.79433 15.473 4.88499 15.4899 4.98093C15.5068 5.07687 15.5011 5.17543 15.4731 5.26875L13.9731 10.2687C13.9345 10.3976 13.8554 10.5105 13.7476 10.5908C13.6397 10.671 13.5088 10.7144 13.3744 10.7144H5.71438V11.9644H12.5894V13.2144H5.08938C4.92361 13.2144 4.76464 13.1485 4.64743 13.0313C4.53022 12.9141 4.46438 12.7551 4.46438 12.5894V5.34812ZM5.40188 15.7144C5.15323 15.7144 4.91478 15.6156 4.73896 15.4398C4.56315 15.264 4.46438 15.0255 4.46438 14.7769C4.46438 14.5282 4.56315 14.2898 4.73896 14.114C4.91478 13.9381 5.15323 13.8394 5.40188 13.8394C5.65052 13.8394 5.88897 13.9381 6.06479 14.114C6.2406 14.2898 6.33938 14.5282 6.33938 14.7769C6.33938 15.0255 6.2406 15.264 6.06479 15.4398C5.88897 15.6156 5.65052 15.7144 5.40188 15.7144ZM12.9019 15.7144C12.6532 15.7144 12.4148 15.6156 12.239 15.4398C12.0631 15.264 11.9644 15.0255 11.9644 14.7769C11.9644 14.5282 12.0631 14.2898 12.239 14.114C12.4148 13.9381 12.6532 13.8394 12.9019 13.8394C13.1505 13.8394 13.389 13.9381 13.5648 14.114C13.7406 14.2898 13.8394 14.5282 13.8394 14.7769C13.8394 15.0255 13.7406 15.264 13.5648 15.4398C13.389 15.6156 13.1505 15.7144 12.9019 15.7144Z"></path> </svg>