<svg width="32" height="32" viewBox="0 0 32 32"  xmlns="http://www.w3.org/2000/svg">
<path fill="#ffffff" fill-rule="evenodd" clip-rule="evenodd" d="M13.5399 7.5H17.7664C20.3473 7.5 23 9.26222 23 12.2489C23 15.2356 20.3473 16.9978 17.7664 16.9978H14.7766V19.0857H18.7205C19.4195 19.0857 19.9752 19.5616 19.9752 20.1602C19.9752 20.7589 19.4195 21.2348 18.7205 21.2348H14.7766V23.4255C14.7766 24.0241 14.221 24.5 13.522 24.5C12.823 24.5 12.2673 24.0241 12.2673 23.4255V21.2348H10.2546C9.55563 21.2348 9 20.7589 9 20.1602C9 19.5616 9.55563 19.0857 10.2546 19.0857H12.2673V16.9978H10.2546C9.55563 16.9978 9 16.522 9 15.9233C9 15.3246 9.55563 14.8487 10.2546 14.8487H12.2673V8.66664C12.2673 8.55919 12.2853 8.45173 12.3211 8.34428C12.4466 7.85306 12.9484 7.5 13.5399 7.5ZM14.7767 14.8488H17.7664C18.9673 14.8488 20.4908 13.9597 20.4908 12.2489C20.5263 10.6634 18.9673 9.64911 17.7664 9.64911H14.7767V14.8488Z"></path>
</svg>