<svg width="32" height="32" viewBox="0 0 32 32" xmlns="http://www.w3.org/2000/svg">
<path fill="#ffffff" d="M28 12.771L16 7.5L4 12.6168L16 18.5748L23.665 14.8598V20.7056C23.665 20.8692 23.7345 21.0261 23.8583 21.1418C23.9821 21.2574 24.15 21.3224 24.325 21.3224H25.09C25.265 21.3224 25.4329 21.2574 25.5567 21.1418C25.6805 21.0261 25.75 20.8692 25.75 20.7056V13.8505L28 12.771Z"></path>
<path fill="#ffffff" d="M10.495 18.028V23.1729C10.495 23.1729 14.65 25.5 16 25.5C17.35 25.5 21.535 23.1729 21.535 23.1729V18.028C19.7366 18.9054 17.8889 19.6915 16 20.3832C14.106 19.7247 12.2661 18.9375 10.495 18.028Z"></path>
</svg>