<svg width="40" height="40" viewBox="0 0 40 40" fill="none" xmlns="http://www.w3.org/2000/svg">
<rect width="40" height="40" rx="20" fill="#313C4F"/>
<g clip-path="url(#clip0_4181_45097)">
<g clip-path="url(#clip1_4181_45097)">
<path d="M21.6393 21.6393C20.3036 23.0175 20.2064 24.7357 20.0911 28.5C23.6004 28.5 26.0229 28.4879 27.2736 27.2736C28.4879 26.0229 28.5 23.485 28.5 20.0911C24.7357 20.2125 23.0175 20.3036 21.6393 21.6393ZM11.5 20.0911C11.5 23.485 11.5121 26.0229 12.7264 27.2736C13.9771 28.4879 16.3996 28.5 19.9089 28.5C19.7875 24.7357 19.6964 23.0175 18.3607 21.6393C16.9825 20.3036 15.2643 20.2064 11.5 20.0911ZM19.9089 11.5C16.4057 11.5 13.9771 11.5121 12.7264 12.7264C11.5121 13.9771 11.5 16.515 11.5 19.9089C15.2643 19.7875 16.9825 19.6964 18.3607 18.3607C19.6964 16.9825 19.7936 15.2643 19.9089 11.5ZM21.6393 18.3607C20.3036 16.9825 20.2064 15.2643 20.0911 11.5C23.6004 11.5 26.0229 11.5121 27.2736 12.7264C28.4879 13.9771 28.5 16.515 28.5 19.9089C24.7357 19.7875 23.0175 19.6964 21.6393 18.3607Z" fill="white"/>
<path d="M28.5 20.0911V19.9089C24.7357 19.7875 23.0175 19.6964 21.6393 18.3607C20.3036 16.9825 20.2064 15.2643 20.0911 11.5H19.9089C19.7875 15.2643 19.6964 16.9825 18.3607 18.3607C16.9825 19.6964 15.2643 19.7936 11.5 19.9089V20.0911C15.2643 20.2125 16.9825 20.3036 18.3607 21.6393C19.6964 23.0175 19.7936 24.7357 19.9089 28.5H20.0911C20.2125 24.7357 20.3036 23.0175 21.6393 21.6393C23.0175 20.3036 24.7357 20.2064 28.5 20.0911Z" fill="#2E3443"/>
</g>
</g>
<defs>
<clipPath id="clip0_4181_45097">
<rect width="18" height="18" fill="white" transform="translate(11 11)"/>
</clipPath>
<clipPath id="clip1_4181_45097">
<rect width="17" height="17" fill="white" transform="translate(11.5 11.5)"/>
</clipPath>
</defs>
</svg>
