<svg width="40" height="40" viewBox="0 0 40 40" fill="none" xmlns="http://www.w3.org/2000/svg">
<rect width="40" height="40" rx="20" fill="#F6F6F9"/>
<g clip-path="url(#clip0_4181_44965)">
<path d="M27.6538 15.1624C24.9613 10.9999 19.4639 9.76235 15.2007 12.3499C11.0496 14.9374 9.70331 20.5624 12.3959 24.725L12.6203 25.0625L11.7227 28.4375L15.0885 27.5375L15.425 27.7625C16.8835 28.55 18.4542 29 20.0249 29C21.7077 29 23.3906 28.55 24.8491 27.65C29.0001 24.95 30.2342 19.4374 27.6538 15.1624ZM25.2978 23.825C24.8491 24.5 24.2881 24.95 23.5028 25.0625C23.054 25.0625 22.4931 25.2875 20.2493 24.3875C18.342 23.4875 16.7713 22.0249 15.6494 20.3374C14.9763 19.5499 14.6397 18.5374 14.5275 17.5249C14.5275 16.6249 14.8641 15.8374 15.425 15.2749C15.6494 15.0499 15.8738 14.9374 16.0982 14.9374H16.6591C16.8835 14.9374 17.1079 14.9374 17.2201 15.3874C17.4445 15.9499 18.0054 17.2999 18.0054 17.4124C18.1176 17.5249 18.1176 17.7499 18.0054 17.8624C18.1176 18.0874 18.0054 18.3124 17.8932 18.4249C17.7811 18.5374 17.6689 18.7624 17.5567 18.8749C17.3323 18.9874 17.2201 19.2124 17.3323 19.4374C17.7811 20.1124 18.342 20.7874 18.903 21.3499C19.5761 21.9124 20.2493 22.3624 21.0346 22.7C21.259 22.8125 21.4834 22.8125 21.5955 22.5875C21.7077 22.3624 22.2687 21.7999 22.4931 21.5749C22.7175 21.3499 22.8296 21.3499 23.054 21.4624L24.8491 22.3624C25.0735 22.475 25.2978 22.5875 25.41 22.7C25.5222 23.0375 25.5222 23.4875 25.2978 23.825Z" fill="#343A48"/>
</g>
<defs>
<clipPath id="clip0_4181_44965">
<rect width="18" height="18" fill="white" transform="translate(11 11)"/>
</clipPath>
</defs>
</svg>
