<svg width="18" height="18" viewBox="0 0 18 18" fill="none" xmlns="http://www.w3.org/2000/svg">
<g clip-path="url(#clip0_4181_44980)">
<g clip-path="url(#clip1_4181_44980)">
<path d="M10.6393 10.6393C9.30357 12.0175 9.20643 13.7357 9.09107 17.5C12.6004 17.5 15.0229 17.4879 16.2736 16.2736C17.4879 15.0229 17.5 12.485 17.5 9.09107C13.7357 9.2125 12.0175 9.30357 10.6393 10.6393ZM0.5 9.09107C0.5 12.485 0.512143 15.0229 1.72643 16.2736C2.97714 17.4879 5.39964 17.5 8.90893 17.5C8.7875 13.7357 8.69643 12.0175 7.36071 10.6393C5.9825 9.30357 4.26429 9.20643 0.5 9.09107ZM8.90893 0.5C5.40571 0.5 2.97714 0.512143 1.72643 1.72643C0.512143 2.97714 0.5 5.515 0.5 8.90893C4.26429 8.7875 5.9825 8.69643 7.36071 7.36071C8.69643 5.9825 8.79357 4.26429 8.90893 0.5ZM10.6393 7.36071C9.30357 5.9825 9.20643 4.26429 9.09107 0.5C12.6004 0.5 15.0229 0.512143 16.2736 1.72643C17.4879 2.97714 17.5 5.515 17.5 8.90893C13.7357 8.7875 12.0175 8.69643 10.6393 7.36071Z" fill="#2C3036"/>
<path d="M17.5 9.09107V8.90893C13.7357 8.7875 12.0175 8.69643 10.6393 7.36071C9.30357 5.9825 9.20643 4.26429 9.09107 0.5H8.90893C8.7875 4.26429 8.69643 5.9825 7.36071 7.36071C5.9825 8.69643 4.26429 8.79357 0.5 8.90893V9.09107C4.26429 9.2125 5.9825 9.30357 7.36071 10.6393C8.69643 12.0175 8.79357 13.7357 8.90893 17.5H9.09107C9.2125 13.7357 9.30357 12.0175 10.6393 10.6393C12.0175 9.30357 13.7357 9.20643 17.5 9.09107Z" fill="white"/>
</g>
</g>
<defs>
<clipPath id="clip0_4181_44980">
<rect width="18" height="18" fill="white"/>
</clipPath>
<clipPath id="clip1_4181_44980">
<rect width="17" height="17" fill="white" transform="translate(0.5 0.5)"/>
</clipPath>
</defs>
</svg>
