<svg width="40" height="40" viewBox="0 0 40 40" fill="none" xmlns="http://www.w3.org/2000/svg">
<rect width="40" height="40" rx="20" fill="#F6F6F9"/>
<g clip-path="url(#clip0_4181_44975)">
<path d="M17.5065 26.883H12.4974V24.766H17.4954V26.883H17.5065ZM18.515 23.702H11.5V29H12.4974V27.936H18.4929V23.702H18.515ZM12.4974 14.181L14.5033 12.064V19.4791H12.4974V14.181ZM11.5 20.532H15.4896V11H14.0046L11.5 13.649V20.532ZM17.5065 12.064H19.5124V19.4791H17.5065V12.064ZM16.5091 20.532H20.4987V11H16.5091V20.532ZM27.4916 20.532H28.4889V11H26.9818V11.0111L25.4746 12.5961V11H23.9674L21.485 13.649V20.532H22.4824V14.181L24.4883 12.064V20.532H25.4857V14.181L27.4916 12.064V20.532ZM11.5 22.649H28.5V21.585H11.5V22.649ZM24.4994 24.766H27.4916V26.883H24.4994V24.766ZM23.502 26.883H20.4987V24.766H23.502V26.883ZM24.4994 27.936H28.5V23.702H19.5124V27.936H23.502V29H24.4994V27.936Z" fill="#343A48"/>
</g>
<defs>
<clipPath id="clip0_4181_44975">
<rect width="18" height="18" fill="white" transform="translate(11 11)"/>
</clipPath>
</defs>
</svg>

