<svg width="25" height="25" viewBox="0 0 25 25" fill="none" xmlns="http://www.w3.org/2000/svg">
<path d="M8.775 17.4702C9.08571 17.7099 9.44673 17.9063 9.57738 17.9063C9.59188 17.9063 9.62551 17.879 9.67647 17.8267L8.55535 16.9729C8.50763 17.2211 8.60646 17.3401 8.775 17.4702Z" fill="#1F4193"/>
<path d="M13.3021 13.0018C15.2065 10.3239 16.0641 9.0948 16.3455 8.45474L9.67647 17.8267C10.0836 17.4092 11.5973 15.3993 13.3021 13.0018Z" fill="#1F4193"/>
<path d="M16.225 7.66137C15.9143 7.42168 15.5533 7.22534 15.4226 7.22534L16.4566 8.04936C16.4591 7.8723 16.3667 7.77077 16.225 7.66137Z" fill="#1F4193"/>
<path fill-rule="evenodd" clip-rule="evenodd" d="M7.4494 1.64926C6.95655 2.55651 6.55208 3.38931 6.5503 3.50052C6.54881 3.61173 5.71071 3.8577 4.6875 4.04745C2.79226 4.39866 1.96905 5.03041 2.20565 5.95242C2.2747 6.22039 2.4125 7.07832 2.5125 7.85866C2.6875 9.22425 2.64375 9.32948 1.34702 10.6728C0.60625 11.4402 0 12.2922 0 12.5658C0 12.8394 0.60625 13.6914 1.34702 14.4588C2.64375 15.8021 2.6875 15.9074 2.5125 17.273C2.4125 18.0533 2.2747 18.9112 2.20565 19.1792C1.97202 20.0902 2.79196 20.733 4.62143 21.0719C6.39196 21.4002 6.42679 21.4269 7.25059 23.0875C7.70952 24.0129 8.29881 24.8567 8.55982 24.9626C8.82083 25.0682 9.8619 24.7835 10.8735 24.3299L12.7125 23.5047L14.2613 24.3334C15.1327 24.7993 16.0491 25.0817 16.3563 24.9789C16.6562 24.8784 17.2804 24.0331 17.7432 23.1004C18.5741 21.425 18.606 21.4005 20.3786 21.0719C22.208 20.733 23.028 20.0902 22.7943 19.1792C22.7253 18.9112 22.5875 18.0533 22.4875 17.273C22.3125 15.9074 22.3563 15.8021 23.653 14.4588C24.3937 13.6914 25 12.8394 25 12.5658C25 12.2922 24.3937 11.4402 23.653 10.6728C22.3563 9.32948 22.3125 9.22425 22.4875 7.85866C22.5875 7.07832 22.7253 6.22039 22.7943 5.95242C23.028 5.0414 22.208 4.39866 20.3786 4.0597C18.5991 3.72985 18.5771 3.71288 17.7226 1.9898C17.2485 1.03417 16.6711 0.175607 16.4396 0.0819918C16.2077 -0.0119376 15.2554 0.296239 14.3226 0.766828L12.6271 1.62225L10.8896 0.811123C9.93393 0.365037 8.97054 0 8.74881 0C8.52679 0 7.94226 0.742011 7.4494 1.64926ZM10.5789 7.05413C11.0396 7.54011 11.3095 8.18411 11.3095 8.79607C11.3095 9.40802 11.0396 10.052 10.5789 10.538C10.1185 11.0243 9.50833 11.3092 8.92857 11.3092C8.34881 11.3092 7.73869 11.0243 7.27827 10.538C6.81756 10.052 6.54762 9.40802 6.54762 8.79607C6.54762 8.18411 6.81756 7.54011 7.27827 7.05413C7.73869 6.56783 8.34881 6.28291 8.92857 6.28291C9.50833 6.28291 10.1185 6.56783 10.5789 7.05413ZM16.3455 8.45474C16.0641 9.0948 15.2065 10.3239 13.3021 13.0018C11.5973 15.3993 10.0836 17.4092 9.67647 17.8267C9.62551 17.879 9.59188 17.9063 9.57738 17.9063C9.44673 17.9063 9.08571 17.7099 8.775 17.4702C8.60646 17.3401 8.50763 17.2211 8.55535 16.9729L8.40774 16.8605L8.98027 16.0741C9.42928 15.3329 10.2689 14.1392 11.6979 12.1298C13.6161 9.43221 15.2923 7.22534 15.4226 7.22534C15.5533 7.22534 15.9143 7.42168 16.225 7.66137C16.3667 7.77077 16.4591 7.8723 16.4566 8.04936L16.5698 8.13953L16.3455 8.45474ZM8.04762 7.99562C7.58482 8.58402 7.74643 9.4209 8.40774 9.86039C9.43899 10.5459 10.6003 9.0012 9.80952 7.99562C9.35 7.411 8.50714 7.411 8.04762 7.99562ZM17.7217 14.5936C18.1824 15.0796 18.4524 15.7236 18.4524 16.3356C18.4524 16.9475 18.1824 17.5915 17.7217 18.0775C16.2455 19.636 13.6905 18.5317 13.6905 16.3356C13.6905 15.7236 13.9604 15.0796 14.4211 14.5936C14.8815 14.1073 15.4917 13.8224 16.0714 13.8224C16.6512 13.8224 17.2613 14.1073 17.7217 14.5936ZM15.1905 15.5351C14.3997 16.5407 15.561 18.0853 16.5923 17.3999C17.2536 16.9604 17.4152 16.1235 16.9524 15.5351C16.4929 14.9505 15.65 14.9505 15.1905 15.5351Z" fill="#1F4193"/>
</svg>
