<svg width="40" height="40" viewBox="0 0 40 40" fill="none" xmlns="http://www.w3.org/2000/svg">
<rect width="40" height="40" rx="20" fill="#F6F6F9"/>
<g clip-path="url(#clip0_4181_44960)">
<path d="M26.2003 18.5988C26.2207 16.1392 24.1259 13.8846 21.5311 13.5724C21.4751 13.5654 21.4192 13.5569 21.3636 13.5469C21.2331 13.5219 21.1009 13.5077 20.9681 13.5044C20.4357 13.5044 20.2937 13.8786 20.2563 14.1006C20.2197 14.3175 20.2546 14.5003 20.3592 14.6423C20.5352 14.8813 20.8456 14.9238 21.0948 14.9579C21.1671 14.9681 21.236 14.9774 21.2938 14.9902C23.6259 15.5115 24.4108 16.3305 24.7944 18.643C24.8038 18.6991 24.808 18.7689 24.8131 18.8428C24.8301 19.1193 24.8641 19.6942 25.4824 19.6942C25.5335 19.6942 25.5896 19.6899 25.6474 19.6814C26.2224 19.5938 26.2045 19.0682 26.196 18.8156C26.1934 18.7442 26.1909 18.677 26.1977 18.6319C26.1991 18.6206 26.1996 18.6093 26.1994 18.5979L26.2003 18.5988Z" fill="#343A48"/>
<path d="M20.8174 12.6702C20.8872 12.6753 20.9518 12.6804 21.0062 12.6881C24.8359 13.2774 26.5973 15.0915 27.0846 18.951C27.0931 19.0165 27.0948 19.0964 27.0957 19.1806C27.1008 19.4825 27.111 20.1102 27.7846 20.1229H27.805C28.0167 20.1229 28.1843 20.0591 28.305 19.9333C28.5143 19.7147 28.5007 19.389 28.4879 19.127C28.4853 19.0624 28.4828 19.002 28.4828 18.9484C28.5321 15.0022 25.1149 11.4225 21.1721 11.2899C21.1551 11.2899 21.1398 11.2899 21.1245 11.2924C21.1089 11.2944 21.0933 11.2952 21.0777 11.295C21.0377 11.295 20.9901 11.2916 20.9382 11.2882C20.877 11.2839 20.8064 11.2788 20.7341 11.2788C20.1064 11.2788 19.9874 11.7253 19.9721 11.9915C19.9372 12.6064 20.5317 12.6498 20.8174 12.6702ZM26.9001 23.939C26.8179 23.8766 26.7365 23.8131 26.656 23.7485C26.2375 23.4117 25.7927 23.1022 25.3632 22.8019L25.0953 22.6148C24.5442 22.2279 24.0493 22.0399 23.5815 22.0399C22.9504 22.0399 22.401 22.3886 21.9469 23.0749C21.7462 23.3794 21.5021 23.5274 21.2019 23.5274C20.9933 23.5201 20.7887 23.4688 20.6014 23.3769C18.8239 22.5706 17.5533 21.334 16.827 19.7019C16.4757 18.9127 16.5897 18.3973 17.2072 17.9772C17.5584 17.739 18.2107 17.2959 18.1656 16.4463C18.1129 15.4827 15.9859 12.5817 15.0895 12.2526C14.7063 12.1128 14.2862 12.1116 13.9022 12.2492C12.8723 12.5953 12.1341 13.2043 11.7641 14.008C11.4069 14.7853 11.4239 15.6979 11.81 16.647C12.9284 19.3915 14.5001 21.7848 16.4825 23.7596C18.4225 25.6927 20.8072 27.2755 23.5696 28.4653C23.8188 28.5724 24.0799 28.6311 24.2712 28.6736C24.3359 28.6881 24.392 28.7009 24.4328 28.7119C24.4553 28.718 24.4784 28.7211 24.5017 28.7213H24.5238C25.8234 28.7213 27.384 27.534 27.8628 26.1809C28.2829 24.9953 27.5158 24.4093 26.9001 23.939ZM21.3924 15.8059C21.1704 15.811 20.7069 15.8229 20.5444 16.2941C20.4679 16.5152 20.4772 16.7057 20.5716 16.863C20.7094 17.0927 20.9739 17.1641 21.2138 17.2032C22.0855 17.3427 22.5337 17.8241 22.623 18.7196C22.6647 19.1364 22.9462 19.4281 23.3059 19.4281C23.3332 19.4281 23.3605 19.4263 23.3876 19.423C23.8213 19.372 24.0314 19.053 24.0127 18.4756C24.0195 17.8734 23.7048 17.1896 23.1682 16.6453C22.6307 16.0993 21.9826 15.7914 21.3924 15.8059Z" fill="#343A48"/>
</g>
<defs>
<clipPath id="clip0_4181_44960">
<rect width="18" height="18" fill="white" transform="translate(11 11)"/>
</clipPath>
</defs>
</svg>
