<svg width="18" height="18" viewBox="0 0 18 18" fill="none" xmlns="http://www.w3.org/2000/svg">
<g clip-path="url(#clip0_4181_45079)">
<path d="M15.2003 7.59876C15.2207 5.13918 13.1259 2.88456 10.5311 2.57243C10.4751 2.56544 10.4192 2.55693 10.3636 2.54692C10.2331 2.52195 10.1009 2.50773 9.96811 2.50439C9.43571 2.50439 9.29368 2.8786 9.25626 3.10058C9.21969 3.31745 9.25456 3.5003 9.35916 3.64233C9.53521 3.88132 9.84564 3.92384 10.0948 3.95786C10.1671 3.96807 10.236 3.97742 10.2938 3.99018C12.6259 4.51152 13.4108 5.33053 13.7944 7.64298C13.8038 7.69912 13.808 7.76886 13.8131 7.84285C13.8301 8.11925 13.8641 8.69418 14.4824 8.69418C14.5335 8.69418 14.5896 8.68992 14.6474 8.68142C15.2224 8.59382 15.2045 8.06822 15.196 7.81563C15.1934 7.74419 15.1909 7.677 15.1977 7.63193C15.1991 7.62064 15.1996 7.60927 15.1994 7.59791L15.2003 7.59876Z" fill="white"/>
<path d="M9.81744 1.67019C9.88717 1.67529 9.95181 1.6804 10.0062 1.68805C13.8359 2.27743 15.5973 4.0915 16.0846 7.95097C16.0931 8.01646 16.0948 8.09641 16.0957 8.1806C16.1008 8.48252 16.111 9.11018 16.7846 9.12293H16.805C17.0167 9.12293 17.1843 9.05915 17.305 8.93328C17.5143 8.7147 17.5007 8.38897 17.4879 8.12702C17.4853 8.06239 17.4828 8.002 17.4828 7.94842C17.5321 4.0022 14.1149 0.422539 10.1721 0.289865C10.1551 0.289865 10.1398 0.289865 10.1245 0.292416C10.1089 0.294374 10.0933 0.295226 10.0777 0.294968C10.0377 0.294968 9.99008 0.291566 9.9382 0.288164C9.87697 0.283911 9.80638 0.278809 9.73409 0.278809C9.10644 0.278809 8.98737 0.72531 8.97206 0.991509C8.93719 1.60641 9.53168 1.64978 9.81744 1.67019ZM15.9001 12.939C15.8179 12.8766 15.7365 12.8131 15.656 12.7485C15.2375 12.4117 14.7927 12.1022 14.3632 11.8019L14.0953 11.6148C13.5442 11.2279 13.0493 11.0399 12.5815 11.0399C11.9504 11.0399 11.401 11.3886 10.9469 12.0749C10.7462 12.3794 10.5021 12.5274 10.2019 12.5274C9.99333 12.5201 9.78871 12.4688 9.60141 12.3769C7.82392 11.5706 6.5533 10.334 5.82699 8.70195C5.47574 7.9127 5.58971 7.39731 6.20715 6.97718C6.5584 6.73904 7.21072 6.29594 7.16564 5.44632C7.11291 4.48272 4.98587 1.58174 4.08946 1.25261C3.70625 1.11282 3.2862 1.11162 2.9022 1.2492C1.87227 1.59535 1.13405 2.20429 0.764093 3.00799C0.406892 3.78533 0.423902 4.69789 0.810019 5.64703C1.9284 8.39152 3.50008 10.7848 5.48255 12.7596C7.42249 14.6927 9.80723 16.2755 12.5696 17.4653C12.8188 17.5724 13.0799 17.6311 13.2712 17.6736C13.3359 17.6881 13.392 17.7009 13.4328 17.7119C13.4553 17.718 13.4784 17.7211 13.5017 17.7213H13.5238C14.8234 17.7213 16.384 16.534 16.8628 15.1809C17.2829 13.9953 16.5158 13.4093 15.9001 12.939ZM10.3924 4.8059C10.1704 4.81101 9.70687 4.82291 9.54443 5.29408C9.46789 5.5152 9.47724 5.70571 9.57165 5.86305C9.70942 6.09268 9.97392 6.16412 10.2138 6.20324C11.0855 6.34272 11.5337 6.82409 11.623 7.71964C11.6647 8.13638 11.9462 8.42809 12.3059 8.42809C12.3332 8.42805 12.3605 8.42635 12.3876 8.42299C12.8213 8.37196 13.0314 8.05303 13.0127 7.47556C13.0195 6.87342 12.7048 6.18963 12.1682 5.64533C11.6307 5.09932 10.9826 4.79145 10.3924 4.8059Z" fill="white"/>
</g>
<defs>
<clipPath id="clip0_4181_45079">
<rect width="18" height="18" fill="white"/>
</clipPath>
</defs>
</svg>
