<svg width="42" height="26" viewBox="0 0 42 26" fill="none" xmlns="http://www.w3.org/2000/svg">
<path d="M1.295 25V22.62L11.27 12.995C12.1567 12.155 12.81 11.42 13.23 10.79C13.6733 10.1367 13.965 9.54167 14.105 9.005C14.2683 8.445 14.35 7.90833 14.35 7.395C14.35 6.135 13.9067 5.14333 13.02 4.42C12.1333 3.69667 10.8383 3.335 9.135 3.335C7.82833 3.335 6.65 3.55667 5.6 4C4.55 4.42 3.64 5.085 2.87 5.995L0.49 3.93C1.42333 2.74 2.67167 1.83 4.235 1.2C5.82167 0.546666 7.56 0.22 9.45 0.22C11.1533 0.22 12.635 0.5 13.895 1.06C15.155 1.59667 16.1233 2.37833 16.8 3.405C17.5 4.43167 17.85 5.645 17.85 7.045C17.85 7.83833 17.745 8.62 17.535 9.39C17.325 10.16 16.9283 10.9767 16.345 11.84C15.7617 12.7033 14.9217 13.6717 13.825 14.745L4.935 23.32L4.095 21.955H18.9V25H1.295ZM31.4035 25.28C29.4901 25.28 27.7751 24.79 26.2585 23.81C24.7651 22.83 23.5751 21.4067 22.6885 19.54C21.8251 17.6733 21.3935 15.41 21.3935 12.75C21.3935 10.09 21.8251 7.82667 22.6885 5.96C23.5751 4.09333 24.7651 2.67 26.2585 1.69C27.7751 0.71 29.4901 0.22 31.4035 0.22C33.2935 0.22 34.9968 0.71 36.5135 1.69C38.0301 2.67 39.2201 4.09333 40.0835 5.96C40.9468 7.82667 41.3785 10.09 41.3785 12.75C41.3785 15.41 40.9468 17.6733 40.0835 19.54C39.2201 21.4067 38.0301 22.83 36.5135 23.81C34.9968 24.79 33.2935 25.28 31.4035 25.28ZM31.4035 22.165C32.6868 22.165 33.8068 21.815 34.7635 21.115C35.7435 20.415 36.5018 19.365 37.0385 17.965C37.5985 16.565 37.8785 14.8267 37.8785 12.75C37.8785 10.6733 37.5985 8.935 37.0385 7.535C36.5018 6.135 35.7435 5.085 34.7635 4.385C33.8068 3.685 32.6868 3.335 31.4035 3.335C30.1201 3.335 28.9885 3.685 28.0085 4.385C27.0285 5.085 26.2585 6.135 25.6985 7.535C25.1618 8.935 24.8935 10.6733 24.8935 12.75C24.8935 14.8267 25.1618 16.565 25.6985 17.965C26.2585 19.365 27.0285 20.415 28.0085 21.115C28.9885 21.815 30.1201 22.165 31.4035 22.165Z" fill="#1F4193"/>
</svg>
