<svg width="18" height="18" viewBox="0 0 18 18" fill="none" xmlns="http://www.w3.org/2000/svg">
<g clip-path="url(#clip0_4181_44985)">
<g clip-path="url(#clip1_4181_44985)">
<path d="M17.6255 4.88031C17.5235 4.51673 17.325 4.18757 17.051 3.92781C16.7692 3.66006 16.4238 3.46853 16.0475 3.37131C14.639 3.00006 8.99596 3.00006 8.99596 3.00006C6.64346 2.97329 4.29153 3.09101 1.95346 3.35256C1.57711 3.45697 1.23239 3.65277 0.949963 3.92256C0.672463 4.18956 0.471463 4.51881 0.366463 4.87956C0.114233 6.23836 -0.0083181 7.61807 0.000462887 9.00006C-0.00853711 10.3808 0.113713 11.7601 0.366463 13.1206C0.469213 13.4798 0.669463 13.8076 0.947713 14.0723C1.22596 14.3371 1.57246 14.5283 1.95346 14.6296C3.38071 15.0001 8.99596 15.0001 8.99596 15.0001C11.3515 15.0269 13.7064 14.9091 16.0475 14.6476C16.4238 14.5503 16.7692 14.3588 17.051 14.0911C17.3249 13.8313 17.5232 13.5021 17.6247 13.1386C17.8835 11.7803 18.0094 10.4 18.0005 9.01731C18.0199 7.62876 17.8942 6.24198 17.6255 4.87956V4.88031ZM7.20196 11.5681V6.43281L11.897 9.00081L7.20196 11.5681Z" fill="#343A48"/>
</g>
</g>
<defs>
<clipPath id="clip0_4181_44985">
<rect width="18" height="18" fill="white"/>
</clipPath>
<clipPath id="clip1_4181_44985">
<rect width="18" height="18" fill="white"/>
</clipPath>
</defs>
</svg>
