<svg width="40" height="40" viewBox="0 0 40 40" fill="none" xmlns="http://www.w3.org/2000/svg">
<rect width="40" height="40" rx="20" fill="#313C4F"/>
<g clip-path="url(#clip0_4181_45102)">
<g clip-path="url(#clip1_4181_45102)">
<path d="M28.6255 15.8803C28.5235 15.5167 28.325 15.1876 28.051 14.9278C27.7692 14.6601 27.4238 14.4685 27.0475 14.3713C25.639 14.0001 19.996 14.0001 19.996 14.0001C17.6435 13.9733 15.2915 14.091 12.9535 14.3526C12.5771 14.457 12.2324 14.6528 11.95 14.9226C11.6725 15.1896 11.4715 15.5188 11.3665 15.8796C11.1142 17.2384 10.9917 18.6181 11.0005 20.0001C10.9915 21.3808 11.1137 22.7601 11.3665 24.1206C11.4692 24.4798 11.6695 24.8076 11.9477 25.0723C12.226 25.3371 12.5725 25.5283 12.9535 25.6296C14.3807 26.0001 19.996 26.0001 19.996 26.0001C22.3515 26.0269 24.7064 25.9091 27.0475 25.6476C27.4238 25.5503 27.7692 25.3588 28.051 25.0911C28.3249 24.8313 28.5232 24.5021 28.6247 24.1386C28.8835 22.7803 29.0094 21.4 29.0005 20.0173C29.0199 18.6288 28.8942 17.242 28.6255 15.8796V15.8803ZM18.202 22.5681V17.4328L22.897 20.0008L18.202 22.5681Z" fill="white"/>
</g>
</g>
<defs>
<clipPath id="clip0_4181_45102">
<rect width="18" height="18" fill="white" transform="translate(11 11)"/>
</clipPath>
<clipPath id="clip1_4181_45102">
<rect width="18" height="18" fill="white" transform="translate(11 11)"/>
</clipPath>
</defs>
</svg>
