<svg width="18" height="18" viewBox="0 0 18 18" fill="none" xmlns="http://www.w3.org/2000/svg">
<path d="M17.0897 15H15.1643C14.5594 15 14.2466 14.6154 13.6788 13.917C13.4444 13.6287 13.1526 13.2697 12.7675 12.844C11.5379 11.533 11.1265 11.533 10.9913 11.533C10.7401 11.533 10.6877 11.533 10.6877 12.0417V13.9509C10.6877 14.7256 10.2752 15 9.11219 15C6.9057 15 4.649 13.5083 3.07493 11.0096C0.547624 7.09192 0 4.30345 0 3.82334C0 3.44783 0.149206 3 0.860037 3H2.78572C3.40875 3 3.64276 3.35804 3.83636 3.9766C4.84641 7.22948 6.38207 9.51218 6.82969 9.51218C6.9105 9.51218 6.9869 9.51218 6.9869 8.92105V5.78582C6.9465 4.97685 6.69689 4.63496 6.49628 4.36051C6.35507 4.16723 6.22167 3.98478 6.22167 3.71055C6.22167 3.36114 6.47988 3 6.9117 3H9.93763C10.6101 3 10.6879 3.57278 10.6879 4.0038V8.222C10.6879 8.51126 10.7731 8.60326 10.7941 8.61056C10.9385 8.60989 11.0901 8.52165 11.5433 8.02031C12.8832 6.36412 13.8564 3.76562 13.8662 3.73952C14.0568 3.24791 14.4004 3.00022 14.8888 3.00022H16.8145C17.1505 3.00022 17.3893 3.10173 17.5244 3.30231C17.6518 3.49161 17.674 3.74638 17.5906 4.05953C17.3319 5.33666 15.0654 8.87638 14.969 9.02676C14.791 9.34234 14.7528 9.41023 14.9638 9.71011C15.0592 9.8574 15.2767 10.0929 15.5071 10.3424C15.7621 10.6186 16.0513 10.932 16.2849 11.2371C17.2885 12.4853 17.7864 13.2551 17.947 13.8073C18.0626 14.2452 17.9676 14.5121 17.8674 14.6594C17.7618 14.8147 17.5412 15 17.0897 15Z" fill="#343A48"/>
</svg>
