<svg width="40" height="40" viewBox="0 0 40 40" fill="none" xmlns="http://www.w3.org/2000/svg">
<rect width="40" height="40" rx="20" fill="#313C4F"/>
<path d="M28.0897 26H26.1643C25.5594 26 25.2466 25.6154 24.6788 24.917C24.4444 24.6287 24.1526 24.2697 23.7675 23.844C22.5379 22.533 22.1265 22.533 21.9913 22.533C21.7401 22.533 21.6877 22.533 21.6877 23.0417V24.9509C21.6877 25.7256 21.2752 26 20.1122 26C17.9057 26 15.649 24.5083 14.0749 22.0096C11.5476 18.0919 11 15.3035 11 14.8233C11 14.4478 11.1492 14 11.86 14H13.7857C14.4087 14 14.6428 14.358 14.8364 14.9766C15.8464 18.2295 17.3821 20.5122 17.8297 20.5122C17.9105 20.5122 17.9869 20.5122 17.9869 19.9211V16.7858C17.9465 15.9769 17.6969 15.635 17.4963 15.3605C17.3551 15.1672 17.2217 14.9848 17.2217 14.7106C17.2217 14.3611 17.4799 14 17.9117 14H20.9376C21.6101 14 21.6879 14.5728 21.6879 15.0038V19.222C21.6879 19.5113 21.7731 19.6033 21.7941 19.6106C21.9385 19.6099 22.0901 19.5217 22.5433 19.0203C23.8832 17.3641 24.8564 14.7656 24.8662 14.7395C25.0568 14.2479 25.4004 14.0002 25.8888 14.0002H27.8145C28.1505 14.0002 28.3893 14.1017 28.5244 14.3023C28.6518 14.4916 28.674 14.7464 28.5906 15.0595C28.3319 16.3367 26.0654 19.8764 25.969 20.0268C25.791 20.3423 25.7528 20.4102 25.9638 20.7101C26.0592 20.8574 26.2767 21.0929 26.5071 21.3424C26.7621 21.6186 27.0513 21.932 27.2849 22.2371C28.2885 23.4853 28.7864 24.2551 28.947 24.8073C29.0626 25.2452 28.9676 25.5121 28.8674 25.6594C28.7618 25.8147 28.5412 26 28.0897 26Z" fill="white"/>
</svg>


