<svg width="53" height="54" viewBox="0 0 53 54" fill="none" xmlns="http://www.w3.org/2000/svg">
<g id="logo">
<path id="Vector" d="M46.7019 10.9219C47.9404 12.5446 48.9889 14.3076 49.826 16.1753L26.0775 33.9173L16.1523 27.6119V20.0262L26.0775 26.3316L46.7019 10.9219Z" fill="white"/>
<path id="Vector_2" d="M6.02311 27.0781C6.02311 26.7377 6.0313 26.3995 6.04768 26.0634L0.0327583 25.7646C0.0122855 26.2004 7.26875e-06 26.6403 7.26875e-06 27.0842C-0.00255191 30.5531 0.670691 33.9881 1.98113 37.1925C3.29157 40.3971 5.21339 43.3078 7.63637 45.7577L11.9029 41.4359C10.0378 39.5533 8.55817 37.3156 7.54912 34.8516C6.54006 32.3876 6.02146 29.7458 6.02311 27.0781Z" fill="white"/>
<path id="Vector_3" d="M26.0726 6.76116C26.4083 6.76116 26.7419 6.77362 27.0736 6.79021L27.3745 0.692274C26.9433 0.671525 26.5093 0.661152 26.0726 0.661152C22.6481 0.65692 19.2568 1.33824 16.0931 2.66599C12.9293 3.99374 10.0555 5.94177 7.63672 8.39822L11.9033 12.7222C13.7609 10.8313 15.9691 9.33127 18.4008 8.30827C20.8325 7.28527 23.4396 6.75948 26.0726 6.76116Z" fill="white"/>
<path id="Vector_4" d="M26.0716 47.3964C25.7359 47.3964 25.4022 47.3964 25.0686 47.3694L24.7676 53.4652C25.2002 53.4874 25.635 53.4985 26.0716 53.4985C29.4946 53.5021 32.8843 52.8203 36.0464 51.4922C39.2084 50.1641 42.0803 48.2158 44.4973 45.7594L40.239 41.4375C38.381 43.3273 36.173 44.8265 33.7418 45.8492C31.3106 46.8718 28.704 47.3977 26.0716 47.3964Z" fill="white"/>
<path id="Vector_5" d="M37.3738 10.3052L42.4428 6.51867C37.8096 2.71645 32.0262 0.646672 26.0645 0.657267V6.75935C30.1015 6.75428 34.0448 7.9907 37.3738 10.3052Z" fill="white"/>
<path id="Vector_6" d="M52.1432 27.0785C52.1465 25.4911 52.0095 23.9064 51.7337 22.3438L46.1222 26.5349C46.1222 26.7155 46.1222 26.896 46.1222 27.0785C46.1236 29.9175 45.5364 32.7251 44.3987 35.3193C43.2609 37.9135 41.5979 40.2365 39.5176 42.1376L43.5651 46.6713C46.2697 44.1968 48.4309 41.174 49.9086 37.7988C51.3865 34.4235 52.1477 30.7711 52.1432 27.0785Z" fill="white"/>
<path id="Vector_7" d="M26.0728 47.3975C23.2713 47.3985 20.5008 46.8032 17.9407 45.6502C15.3807 44.4972 13.0881 42.812 11.2115 40.7041L6.74023 44.804C9.18153 47.5454 12.1641 49.736 15.4946 51.2341C18.825 52.732 22.4289 53.5039 26.0728 53.4995V47.3975Z" fill="white"/>
<path id="Vector_8" d="M12.6277 12.0189L8.58223 7.48535C5.87689 9.95933 3.71486 12.982 2.23637 16.3573C0.757894 19.7325 -0.00403084 23.385 1.60367e-05 27.078H6.02312C6.02188 24.2392 6.60917 21.4316 7.7469 18.8373C8.88465 16.2432 10.5475 13.9202 12.6277 12.0189Z" fill="white"/>
</g>
</svg>
