<svg width="180" height="34" viewBox="0 0 180 34" fill="none" xmlns="http://www.w3.org/2000/svg">
<g clip-path="url(#clip0_2108_11475)">
<path d="M15.4694 0C17.0018 0 18.4174 0.116448 19.7162 0.465793C21.0151 0.69869 22.0804 1.17904 23.029 1.76128C23.9776 2.34352 24.6781 3.17322 25.1597 4.23581C25.6267 5.2984 25.8748 6.59389 25.8748 8.00582C25.8748 9.65066 25.5246 11.0626 24.6927 12.1252C23.9776 13.1878 22.8101 14.1339 21.3799 14.8326C23.3939 15.4148 24.9262 16.4774 25.8602 17.8894C26.7942 19.3013 27.3926 21.0626 27.3926 23.0713C27.3926 24.7162 27.0423 26.1281 26.444 27.3071C25.8602 28.4862 24.9116 29.5488 23.8463 30.2475C22.7809 30.9607 21.4821 31.5429 20.0665 31.8923C18.6509 32.2416 17.2353 32.4745 15.8197 32.4745L0 32.5036V0H15.4694ZM14.5208 13.1878C15.8197 13.1878 16.885 12.8384 17.7023 12.2416C18.5195 11.6448 18.8844 10.5968 18.8844 9.30131C18.8844 8.58806 18.7676 7.88937 18.5341 7.42358C18.3006 6.95779 17.9504 6.59389 17.4688 6.24454C17.0018 6.01165 16.5202 5.77875 15.9364 5.6623C15.3527 5.54585 14.7543 5.54585 14.0538 5.54585H7.20934V13.2023C7.20934 13.1878 14.5208 13.1878 14.5208 13.1878ZM14.8711 27.0888C15.5862 27.0888 16.2867 26.9723 16.885 26.8559C17.4688 26.7394 18.0671 26.5066 18.5341 26.1427C19.0011 25.7787 19.366 25.4294 19.7162 24.8472C19.9497 24.2649 20.1832 23.5517 20.1832 22.722C20.1832 21.0771 19.7162 19.8981 18.7676 19.0684C17.819 18.3552 16.5202 18.0058 14.9878 18.0058H7.20934V27.0742H14.8711V27.0888Z" fill="#343A48"/>
<path d="M37.6666 26.9723C38.6152 27.9184 40.0308 28.3842 41.9134 28.3842C43.2123 28.3842 44.3944 28.0349 45.343 27.4381C46.2916 26.7248 46.8753 26.0261 47.1088 25.3129H52.888C51.9394 28.1368 50.5238 30.1455 48.6412 31.441C46.7586 32.62 44.5111 33.3187 41.7967 33.3187C39.9141 33.3187 38.2504 32.9694 36.718 32.3726C35.1857 31.7903 34.0036 30.9606 32.9382 29.7816C31.8729 28.719 31.0556 27.4235 30.574 25.8951C29.9903 24.3668 29.7422 22.7219 29.7422 20.8296C29.7422 19.0684 29.9757 17.409 30.574 15.8806C31.1724 14.3522 31.9896 13.0567 33.055 11.8777C34.1203 10.8151 35.4192 9.86894 36.8348 9.2867C38.3671 8.70446 39.8995 8.34056 41.7967 8.34056C43.8106 8.34056 45.5765 8.6899 47.1088 9.5196C48.6412 10.3493 49.8233 11.2809 50.7719 12.6928C51.7205 13.9883 52.421 15.5167 52.9026 17.1615C53.1361 18.8064 53.2528 20.4657 53.1361 22.3435H36.0175C36.0175 24.2649 36.718 26.0261 37.6666 26.9723ZM45.1095 14.5997C44.2776 13.77 42.9788 13.3042 41.4464 13.3042C40.3811 13.3042 39.5638 13.5371 38.8487 13.8864C38.1336 14.2358 37.6666 14.7161 37.1996 15.1819C36.7326 15.6477 36.4845 16.2445 36.3678 16.8267C36.251 17.409 36.1343 17.8893 36.1343 18.3551H46.7586C46.5251 16.6084 45.9267 15.4293 45.1095 14.5997ZM34.7187 2.24158H47.9407V5.41479H34.7187V2.24158Z" fill="#343A48"/>
<path d="M62.3439 0V12.2416H62.4606C63.2924 10.8297 64.3432 9.88355 65.642 9.30131C66.9409 8.71907 68.123 8.35517 69.4218 8.35517C71.1877 8.35517 72.6033 8.58806 73.6686 9.06841C74.734 9.53421 75.6826 10.2475 76.2663 11.0771C76.8501 11.9068 77.3317 12.9549 77.5652 14.1339C77.7987 15.313 77.9154 16.6084 77.9154 18.1368V32.6201H71.4212V19.3159C71.4212 17.3071 71.0709 15.8952 70.4726 14.9636C69.8743 14.032 68.8381 13.5371 67.3057 13.5371C65.5399 13.5371 64.241 14.1194 63.5259 15.0655C62.6941 16.1281 62.3439 17.8894 62.3439 20.2475V32.6201H55.8496V0H62.3439Z" fill="#343A48"/>
<path d="M82.6596 12.4891C83.3747 11.4265 84.1919 10.7278 85.2573 10.0146C86.3226 9.43234 87.5047 8.95199 88.8036 8.7191C90.1024 8.4862 91.4013 8.36975 92.7001 8.36975C93.8822 8.36975 95.0643 8.4862 96.3632 8.60265C97.5453 8.7191 98.7274 9.06844 99.6759 9.54879C100.741 10.0146 101.442 10.7278 102.157 11.5575C102.741 12.3872 103.105 13.5663 103.105 14.9782V27.3508C103.105 28.4134 103.222 29.476 103.339 30.4076C103.456 31.3537 103.806 32.1689 104.171 32.6492H97.5598C97.3263 32.4163 97.2096 31.936 97.0928 31.5866C96.9761 31.2373 96.9761 30.7569 96.9761 30.4076C95.9107 31.4702 94.7287 32.1689 93.3131 32.6492C91.8975 33.115 90.4819 33.2315 89.0663 33.2315C87.8842 33.2315 86.9356 33.115 85.8848 32.7657C84.9362 32.5328 84.119 32.0524 83.2871 31.4702C82.572 30.8879 81.9883 30.1747 81.5213 29.2286C81.171 28.2824 80.9375 27.3508 80.9375 26.0553C80.9375 24.7599 81.171 23.5808 81.6526 22.7511C82.1196 21.9214 82.7179 21.2227 83.4184 20.6259C84.1335 20.1601 85.0676 19.6798 86.0162 19.4469C86.9647 19.214 87.8987 18.9811 88.9641 18.8647C89.9127 18.7482 90.8467 18.6318 91.7953 18.5153C92.7439 18.3989 93.5611 18.2824 94.2762 18.166C94.9913 17.9331 95.5751 17.7002 96.0421 17.3363C96.5091 16.9869 96.6258 16.5066 96.6258 15.8079C96.6258 15.0946 96.5091 14.5124 96.2756 14.1631C96.0421 13.8137 95.6918 13.4498 95.327 13.2169C94.9767 12.984 94.4951 12.8676 94.0281 12.7511C93.5611 12.6347 92.9628 12.6347 92.379 12.6347C91.0802 12.6347 90.1316 12.8676 89.4311 13.4644C88.716 14.0466 88.249 14.9927 88.1323 16.1718H81.638C81.5942 14.7162 82.0612 13.4207 82.6596 12.4891ZM95.5313 21.674C95.1811 21.7904 94.6995 21.9069 94.2325 22.0233C93.7655 22.1398 93.2839 22.1398 92.7001 22.2562C92.2331 22.3727 91.6348 22.3727 91.1678 22.4891C90.7008 22.6056 90.2192 22.722 89.7522 22.8385C89.2852 22.9549 88.8036 23.1878 88.5701 23.4207C88.2198 23.6536 87.9863 24.0029 87.7382 24.3668C87.388 24.8326 87.388 25.313 87.388 25.8952C87.388 26.4775 87.5047 26.9578 87.7382 27.3072C87.9717 27.6565 88.2052 28.0204 88.5701 28.2533C88.9203 28.4862 89.4019 28.6026 89.8689 28.7191C90.3359 28.8355 90.8175 28.8355 91.4013 28.8355C92.7001 28.8355 93.6487 28.6026 94.3492 28.2533C95.0643 27.7875 95.5313 27.3072 95.8816 26.7249C96.2318 26.1427 96.4653 25.5459 96.4653 24.9636C96.5821 24.3814 96.5821 23.901 96.5821 23.5517V21.0772C96.2318 21.3101 95.8816 21.5575 95.5313 21.674Z" fill="#343A48"/>
<path d="M112.883 8.95199V12.2562H113C113.832 10.8443 114.883 9.89814 116.181 9.31589C117.48 8.73365 118.896 8.36975 120.195 8.36975C121.961 8.36975 123.376 8.60265 124.442 9.083C125.624 9.54879 126.455 10.262 127.039 11.0917C127.623 11.9214 128.105 12.9695 128.455 14.1485C128.688 15.3275 128.805 16.623 128.805 18.1514V32.6347H122.311V19.3304C122.311 17.3217 121.961 15.9098 121.362 14.9782C120.778 14.0321 119.713 13.4498 118.049 13.4498C116.284 13.4498 114.985 14.1631 114.153 15.2111C113.321 16.2737 112.971 18.035 112.971 20.393V32.7657H106.477V8.95199C106.506 8.95199 112.883 8.95199 112.883 8.95199Z" fill="#343A48"/>
<path d="M143.355 13.1878C142.29 13.1878 141.473 13.4207 140.758 13.9011C140.042 14.3669 139.459 14.9637 138.992 15.7788C138.525 16.4921 138.277 17.3072 138.043 18.2533C137.81 19.1995 137.81 20.0146 137.81 20.9608C137.81 21.7904 137.926 22.722 138.043 23.5517C138.277 24.4979 138.51 25.1966 138.992 25.9098C139.459 26.6231 139.94 27.2053 140.641 27.6711C141.356 28.1369 142.173 28.3843 143.239 28.3843C144.771 28.3843 145.953 27.9185 146.902 27.0889C147.733 26.2592 148.317 25.0801 148.434 23.5517H154.695C154.228 26.7249 153.046 29.083 151.032 30.7424C149.018 32.3872 146.42 33.2169 143.239 33.2169C141.473 33.2169 139.809 32.8676 138.393 32.2708C136.861 31.6886 135.679 30.8589 134.614 29.7963C133.548 28.7337 132.731 27.4382 132.133 26.0263C131.549 24.4979 131.301 22.9695 131.301 21.1937C131.301 19.3159 131.534 17.6565 132.133 16.1281C132.716 14.5998 133.431 13.1878 134.497 12.0088C135.562 10.8298 136.861 10.0001 138.277 9.30137C139.809 8.71913 141.458 8.35522 143.355 8.35522C144.771 8.35522 146.07 8.58812 147.369 8.93747C148.667 9.28681 149.85 9.88361 150.798 10.5823C151.863 11.2955 152.681 12.2271 153.279 13.4062C153.863 14.4688 154.228 15.8807 154.344 17.4091H147.967C147.719 14.5998 146.186 13.1878 143.355 13.1878Z" fill="#343A48"/>
<path d="M164.486 26.9723C165.435 27.9185 166.967 28.3842 168.733 28.3842C170.032 28.3842 171.214 28.0349 172.163 27.4381C173.111 26.7249 173.695 26.0262 173.929 25.3129H179.591C178.642 28.1368 177.227 30.1455 175.344 31.441C173.462 32.6201 171.214 33.3187 168.5 33.3187C166.617 33.3187 164.954 32.9694 163.421 32.3726C161.889 31.7904 160.707 30.9607 159.641 29.7816C158.576 28.719 157.759 27.4235 157.277 25.8952C156.693 24.3668 156.445 22.7219 156.445 20.8297C156.445 19.0684 156.679 17.409 157.277 15.8806C157.861 14.3522 158.693 13.0567 159.758 11.8777C160.823 10.8151 162.122 9.86896 163.538 9.28672C165.07 8.70448 166.719 8.34058 168.5 8.34058C170.514 8.34058 172.28 8.68992 173.695 9.51962C175.228 10.3493 176.41 11.2809 177.358 12.6928C178.307 13.9883 179.007 15.5167 179.489 17.1615C179.956 18.8064 180.073 20.5822 179.956 22.4599H162.837C162.837 24.2649 163.538 26.0262 164.486 26.9723ZM172.046 14.5997C171.214 13.77 169.915 13.3042 168.383 13.3042C167.318 13.3042 166.5 13.5371 165.785 13.8864C165.07 14.2358 164.486 14.7161 164.136 15.1819C163.786 15.6477 163.421 16.2445 163.304 16.8267C163.188 17.409 163.071 17.8893 163.071 18.3551H173.695C173.345 16.6084 172.747 15.4294 172.046 14.5997Z" fill="#343A48"/>
</g>
<defs>
<clipPath id="clip0_2108_11475">
<rect width="180" height="33.3333" fill="white"/>
</clipPath>
</defs>
</svg>
