<svg width="181" height="24" viewBox="0 0 181 24" fill="none" xmlns="http://www.w3.org/2000/svg">
<g clip-path="url(#clip0_2082_9065)">
<path fill-rule="evenodd" clip-rule="evenodd" d="M0.724609 2.08222H4.89015L9.35974 14.669L14.8327 0.838707L20.3969 14.669L24.7753 2.08222H28.9712L20.7922 23.0097L14.8327 9.36134L8.87326 23.0097L0.724609 2.08222ZM66.7043 21.7055L61.8395 14.3961H60.076V21.7055H56.4881V2.08222H62.5996C64.0591 2.08222 65.3057 2.32486 66.3699 2.84047C67.4037 3.35607 68.255 4.05365 68.8327 4.96354C69.4408 5.90376 69.7449 6.99563 69.7449 8.20882C69.7449 9.45233 69.4408 10.5442 68.8327 11.4844C68.255 12.3943 67.4037 13.1222 66.3699 13.6378C66.1266 13.7591 65.853 13.8501 65.5489 13.9715L71.0523 21.7055H66.7043ZM62.5084 11.3631C63.2381 11.3631 63.8665 11.2418 64.3935 10.9991C64.9205 10.7565 65.326 10.4128 65.6097 9.96794C65.9138 9.50288 66.0658 8.94684 66.0658 8.29981C66.0658 7.63255 65.9138 7.07651 65.6097 6.63167C65.326 6.18684 64.9205 5.8431 64.3935 5.60047C63.8665 5.35783 63.2381 5.23651 62.5084 5.23651H60.1064V11.3631H62.5084ZM84.7347 21.7055L77.4983 13.0009V21.7055H73.8192V2.08222H77.4983V9.81629L84.4307 2.08222H88.8395L80.5084 11.2721L89.2347 21.7055H84.7347ZM96.9577 22.0998C95.8327 22.0998 94.7381 21.8875 93.7651 21.4022C92.7922 20.9473 91.9104 20.3407 91.1807 19.5824C90.4205 18.8242 89.8428 17.975 89.4172 17.0651L89.3564 16.9438L92.0624 15.033L92.1537 15.215C92.5793 15.9429 93.005 16.6101 93.4915 17.1257C93.9577 17.6717 94.4847 18.0963 95.0726 18.3996C95.6401 18.7029 96.2685 18.8545 96.9577 18.8545C97.8091 18.8545 98.478 18.6119 98.9949 18.1569C99.5118 17.7323 99.7854 17.1561 99.7854 16.4282C99.7854 15.7609 99.6233 15.2352 99.2989 14.851C98.9746 14.4264 98.5084 14.0726 97.9003 13.7895C97.2922 13.4862 96.5624 13.1829 95.7719 12.9099C95.2854 12.7279 94.7381 12.5156 94.1604 12.2123C93.5523 11.9293 92.9847 11.5653 92.4577 11.1205C91.88 10.6655 91.4239 10.1196 91.0895 9.48266C90.7246 8.81541 90.5422 8.02684 90.5422 7.08662C90.5422 6.02508 90.8158 5.08486 91.3631 4.29629C91.9104 3.47739 92.6705 2.84047 93.5827 2.38552C94.5253 1.9609 95.5895 1.71827 96.7753 1.71827C97.9307 1.71827 98.9645 1.93057 99.8158 2.35519C100.698 2.77981 101.427 3.32574 102.035 3.93233C102.644 4.56926 103.1 5.26684 103.404 5.93409L103.495 6.08574L100.576 7.75387L100.485 7.60222C100.241 7.13717 99.9374 6.70244 99.5726 6.29805C99.2077 5.89365 98.7922 5.57014 98.326 5.3275C97.88 5.10508 97.3428 4.99387 96.7145 4.99387C95.8631 4.99387 95.2449 5.17585 94.8597 5.53981C94.4645 5.93409 94.282 6.35871 94.282 6.87431C94.282 7.33937 94.4138 7.75387 94.6773 8.11783C94.9814 8.48178 95.4374 8.83563 96.0455 9.17937C96.6841 9.51299 97.5354 9.87695 98.5388 10.2409C99.1469 10.4532 99.7246 10.6958 100.333 11.0295C100.921 11.3328 101.458 11.7271 101.944 12.2123C102.4 12.6673 102.826 13.2435 103.1 13.8805C103.404 14.5477 103.586 15.306 103.586 16.1855C103.586 17.0954 103.373 17.9446 103.008 18.6726C102.644 19.4005 102.157 20.0374 101.519 20.553C100.91 21.0383 100.181 21.4326 99.4205 21.7055C98.63 21.9785 97.8091 22.0998 96.9577 22.0998ZM107.508 21.7055V2.08222H113.498C114.927 2.08222 116.204 2.32486 117.238 2.81014C118.302 3.32574 119.154 4.02332 119.731 4.96354C120.339 5.87343 120.644 6.9653 120.644 8.20882C120.644 9.48266 120.339 10.5745 119.731 11.5148C119.154 12.4246 118.302 13.1526 117.238 13.6378C116.204 14.1534 114.927 14.3961 113.498 14.3961H111.096V21.7055H107.508ZM113.529 11.1811C114.593 11.1811 115.475 10.9385 116.113 10.4229C116.752 9.93761 117.086 9.2097 117.086 8.20882C117.086 7.23827 116.752 6.51035 116.113 6.02508C115.475 5.53981 114.593 5.29717 113.529 5.29717H111.127V11.1811H113.529ZM134.873 21.7055L132.654 16.7315H125.782L123.562 21.7055H119.519L129.218 0.778047L138.978 21.7055H134.873ZM131.589 13.6378L129.187 8.14816L126.846 13.6378H131.589ZM149.194 22.0088C147.765 22.0088 146.397 21.7662 145.15 21.2809C143.934 20.826 142.839 20.098 141.927 19.1882C141.015 18.2783 140.285 17.1864 139.769 15.9429C139.252 14.7297 139.008 13.3649 139.008 11.8787C139.008 10.3926 139.252 9.02772 139.769 7.7842C140.285 6.54069 141.015 5.47915 141.927 4.56926C142.839 3.65937 143.934 2.96178 145.15 2.44618C146.397 1.9609 147.765 1.71827 149.194 1.71827C150.623 1.71827 151.839 1.90025 152.782 2.2642C153.755 2.59783 154.637 3.14376 155.458 3.81101L155.519 3.87167V8.26948L155.214 7.93585C154.789 7.43036 154.282 6.97541 153.694 6.57101C153.116 6.1464 152.478 5.8431 151.748 5.60047C151.019 5.38816 150.198 5.26684 149.285 5.26684C148.16 5.26684 147.096 5.53981 146.123 6.08574C145.15 6.60134 144.36 7.38992 143.782 8.3908C143.174 9.36134 142.87 10.5442 142.87 11.8787C142.87 13.2132 143.174 14.3657 143.782 15.3666C144.36 16.3372 145.15 17.1257 146.123 17.6717C147.096 18.2479 148.16 18.5209 149.285 18.5209C150.198 18.5209 151.019 18.3996 151.748 18.1569C152.478 17.9446 153.116 17.611 153.694 17.2167C154.272 16.7921 154.789 16.3372 155.214 15.8216L155.519 15.4576V19.8857L155.458 19.9464C154.637 20.6137 153.755 21.1293 152.782 21.4932C151.839 21.8572 150.623 22.0088 149.194 22.0088ZM159.38 21.7055V2.08222H171.481V5.29717H162.937V9.63431H170.934V12.7583H162.937V18.4906H171.481V21.7055H159.38ZM29.7618 11.909C29.7618 5.66112 34.8395 0.596069 41.1334 0.596069C47.3969 0.596069 52.4746 5.66112 52.4746 11.909C52.4746 18.1569 47.3969 23.222 41.1334 23.222C34.8395 23.222 29.7618 18.1569 29.7618 11.909ZM41.4374 1.47563H40.8293L38.5793 8.3908H31.282C31.2212 8.57277 31.1604 8.76486 31.0996 8.96706L36.9983 13.2132L34.7483 20.1284L35.2347 20.4923L41.103 16.2158L47.032 20.4923L47.5185 20.1284L45.2685 13.2435L51.1672 8.96706C51.1064 8.76486 51.0456 8.57277 50.9847 8.3908H43.6874L41.4374 1.47563ZM180.451 3.75036C180.451 4.09409 180.39 4.41761 180.269 4.7209C180.127 5.0242 179.954 5.28706 179.752 5.50948C179.529 5.71167 179.265 5.87343 178.961 5.99475C178.657 6.11607 178.333 6.17673 177.988 6.17673C177.644 6.17673 177.319 6.11607 177.015 5.99475C176.711 5.87343 176.448 5.71167 176.225 5.50948C176.022 5.28706 175.85 5.0242 175.708 4.7209C175.586 4.41761 175.525 4.09409 175.525 3.75036C175.525 3.3864 175.586 3.05277 175.708 2.74948C175.85 2.44618 176.022 2.19343 176.225 1.99123C176.448 1.76882 176.711 1.59695 177.015 1.47563C177.319 1.35431 177.644 1.29365 177.988 1.29365C178.333 1.29365 178.657 1.35431 178.961 1.47563C179.265 1.59695 179.529 1.76882 179.752 1.99123C179.954 2.19343 180.127 2.44618 180.269 2.74948C180.39 3.05277 180.451 3.3864 180.451 3.75036ZM180.056 3.75036C180.056 3.44706 180.005 3.16398 179.904 2.90112C179.802 2.63827 179.66 2.41585 179.478 2.23387C179.275 2.03167 179.052 1.88003 178.809 1.77893C178.566 1.67783 178.292 1.62728 177.988 1.62728C177.684 1.62728 177.41 1.67783 177.167 1.77893C176.904 1.88003 176.681 2.03167 176.498 2.23387C176.316 2.41585 176.174 2.63827 176.073 2.90112C175.971 3.16398 175.921 3.44706 175.921 3.75036C175.921 4.05365 175.971 4.32662 176.073 4.56926C176.174 4.83211 176.316 5.05453 176.498 5.23651C176.681 5.43871 176.904 5.59036 177.167 5.69145C177.41 5.79255 177.684 5.8431 177.988 5.8431C178.292 5.8431 178.566 5.79255 178.809 5.69145C179.052 5.59036 179.275 5.43871 179.478 5.23651C179.66 5.05453 179.802 4.83211 179.904 4.56926C180.005 4.32662 180.056 4.05365 180.056 3.75036ZM178.323 3.93233L179.144 5.08486H178.566L177.866 3.99299H177.562V5.08486H177.076V2.23387H177.958C178.262 2.23387 178.515 2.31475 178.718 2.47651C178.9 2.63827 178.991 2.85057 178.991 3.11343C178.991 3.37629 178.9 3.5886 178.718 3.75036C178.596 3.85145 178.464 3.91211 178.323 3.93233ZM177.562 3.59871H177.927C178.11 3.59871 178.252 3.55827 178.353 3.47739C178.454 3.39651 178.505 3.27519 178.505 3.11343C178.505 2.97189 178.454 2.86068 178.353 2.77981C178.252 2.69893 178.11 2.65849 177.927 2.65849H177.562V3.59871Z" fill="#343A48"/>
</g>
<defs>
<clipPath id="clip0_2082_9065">
<rect width="180" height="22.7473" fill="white" transform="translate(0.572266 0.626343)"/>
</clipPath>
</defs>
</svg>
