<svg width="102" height="62" viewBox="0 0 102 62" fill="none" xmlns="http://www.w3.org/2000/svg">
<path fill-rule="evenodd" clip-rule="evenodd" d="M45.1084 0.897648C39.0741 1.92302 31.818 5.41795 28.4216 8.93523L27.4421 9.94958L33.3456 15.869L39.2486 21.7884L40.7109 20.6681C41.5148 20.052 42.6755 19.2904 43.2899 18.9758C44.5972 18.3064 47.7744 17.4379 48.9159 17.4379H49.7113V9.01304V0.588229L48.1089 0.624378C47.2275 0.643985 45.8775 0.76714 45.1084 0.897648ZM50.6269 8.96893V17.4379H51.6881C52.9755 17.4379 53.2194 17.1024 54.7616 13.212C55.3824 11.6459 55.9336 10.4082 55.9867 10.4612C56.0395 10.5145 54.9847 14.0015 53.6424 18.2102C50.1248 29.2403 48.4904 34.8334 48.4904 35.8416C48.4904 36.4479 48.7325 36.8832 49.2629 37.2322C49.6878 37.5119 50.1084 37.6672 50.1978 37.5778C50.2869 37.4883 51.4415 33.1815 52.7634 28.0072C54.0853 22.8328 55.2329 18.5334 55.3134 18.4525C55.5713 18.1936 58.0591 19.4543 59.5372 20.593L60.9699 21.6965L66.8001 15.6925L72.6299 9.68825L71.7921 8.81054C70.4425 7.39671 66.689 4.92747 63.8832 3.60768C60.8063 2.16015 56.4256 0.985574 53.0521 0.703113L50.6269 0.5V8.96893ZM25.5273 11.8986C21.4536 16.4465 18.2947 23.6201 17.7984 29.4501C17.7084 30.5101 17.5759 31.7564 17.5042 32.2196L17.3741 33.0621H25.8438H34.3131L34.6695 30.8128C35.0944 28.1325 36.0775 25.7962 37.6408 23.7506L38.7865 22.2516L32.8542 16.2967L26.9215 10.342L25.5273 11.8986ZM68.165 15.3699C65.4763 18.1082 62.8924 20.7799 62.423 21.3078L61.5693 22.2673L62.8021 23.9023C64.2326 25.7993 65.4297 28.8187 65.7401 31.3137L65.9577 33.0621H74.3159H82.6741V31.2509C82.6741 24.8934 79.1938 16.5206 74.481 11.5405C73.8831 10.9088 73.3172 10.3916 73.2235 10.3916C73.1298 10.3916 70.8533 12.632 68.165 15.3699ZM0.572266 53.5604V61.2469H1.79311H3.01396V58.796V56.3452H5.72576H8.43786L9.71854 58.4728C10.423 59.6431 11.1597 60.7337 11.356 60.8964C11.8498 61.306 14.0016 61.681 14.0013 61.3575C14.0009 61.2126 13.2547 59.9228 12.3427 58.4918L10.6848 55.8899L11.7103 55.0416C12.97 53.9994 13.508 52.4664 13.3167 50.4659C13.1509 48.7359 12.4163 47.5809 10.9174 46.6949C10.0298 46.1702 9.21371 46.0672 5.22674 45.9781L0.572266 45.8742V53.5604ZM17.1123 51.9796C17.202 57.7511 17.2392 58.0764 17.9186 59.0329C19.3687 61.0732 23.0135 61.9632 25.9268 60.9877C27.1858 60.5662 28.7741 59.0304 29.2435 57.7805C29.4279 57.2894 29.5673 54.5524 29.5673 51.4236V45.929H28.8415C28.4426 45.929 27.9769 46.1015 27.8069 46.312C27.6366 46.5228 27.4412 48.9696 27.3729 51.7498C27.292 55.0257 27.1122 57.0532 26.8622 57.5106C25.5889 59.8389 21.3523 60.0794 19.8812 57.9064C19.4261 57.2339 19.3272 56.2462 19.2423 51.5201L19.1416 45.929H18.0798H17.018L17.1123 51.9796ZM32.6857 46.312C32.758 46.5228 33.7664 49.9754 34.9268 53.9847L37.0368 61.2745L38.4017 61.1841L39.7669 61.0937L41.3543 55.2729C42.2275 52.0715 43.0159 49.6589 43.1059 49.9117C43.1962 50.1644 43.9205 52.8248 44.7153 55.8235L46.1608 61.276L47.5244 61.1847L48.8881 61.0937L51.0887 53.588L53.2893 46.0822L52.373 45.983C51.8691 45.9284 51.2776 46.0663 51.0585 46.2893C50.8393 46.5123 50.0278 49.0386 49.2547 51.903C47.6822 57.729 47.5455 58.1585 47.4042 57.7238C47.3492 57.5553 46.5893 54.8327 45.7155 51.6732L44.1262 45.929H42.9866H41.8466L40.2647 51.6732C39.3945 54.8327 38.6391 57.5553 38.586 57.7238C38.4502 58.1551 38.3144 57.7376 36.7413 52.0562C35.9716 49.276 35.2696 46.7599 35.1811 46.4652C35.0624 46.0697 34.6964 45.929 33.7872 45.929C32.9341 45.929 32.5947 46.047 32.6857 46.312ZM58.9259 48.1501C57.9181 50.5988 53.9949 60.2561 53.7611 60.8639C53.6583 61.1311 53.9824 61.2469 54.833 61.2469H56.0521L57.0364 58.796L58.0206 56.3452L61.1146 56.3461L64.2088 56.3473L65.1345 58.7204C66.041 61.0435 66.0843 61.0959 67.1947 61.1887C67.8189 61.2411 68.3344 61.1721 68.3408 61.0355C68.3469 60.8992 67.0128 57.4441 65.3763 53.3582L62.4004 45.929H61.1204H59.8403L58.9259 48.1501ZM71.3813 53.5604V61.2469H72.6021H73.823V58.796V56.3452L76.4936 56.351L79.1642 56.3565L80.6902 58.7216C82.017 60.7775 82.368 61.1213 83.3773 61.3541C84.0161 61.5015 84.6159 61.5444 84.7102 61.4497C84.8045 61.355 84.1129 60.0659 83.1728 58.5853L81.4639 55.8927L82.339 55.2055C83.344 54.416 84.2002 52.501 84.2002 51.0428C84.2002 49.5581 82.9979 47.421 81.7585 46.702C80.841 46.1698 80.0328 46.0675 76.0358 45.9781L71.3813 45.8742V53.5604ZM88.4731 53.5886V61.3069L92.5172 61.1914C95.9493 61.0934 96.7529 60.9742 97.8288 60.4044C100.556 58.9596 101.747 56.4591 101.552 52.5837C101.412 49.8072 100.511 48.2325 98.3229 46.9416C96.951 46.1322 96.6229 46.0761 92.6698 45.9762L88.4731 45.8702V53.5886ZM95.5775 48.0919C98.4331 48.8878 99.9723 51.8377 99.1802 54.9954C98.4105 58.0629 96.9055 59.1024 93.2341 59.1024H90.9148V53.4348V47.7672L92.6698 47.769C93.6352 47.77 94.9436 47.9152 95.5775 48.0919ZM10.0573 48.969C10.7562 49.6706 10.9494 50.1393 10.9494 51.1337C10.9494 53.7255 9.71426 54.507 5.61802 54.507H3.01396V51.2903V48.0735H6.08957C9.08186 48.0735 9.18929 48.0977 10.0573 48.969ZM80.8663 48.969C81.8915 49.9981 82.0551 51.5106 81.3 52.9762C80.7235 54.0956 79.3613 54.5031 76.1884 54.5052L73.823 54.507V51.2903V48.0735H76.8986C79.8909 48.0735 79.9983 48.0977 80.8663 48.969ZM63.444 54.4305C63.4449 54.4724 62.4157 54.507 61.1567 54.507C59.8977 54.507 58.8676 54.4105 58.8676 54.2926C58.8676 54.1743 59.3697 52.777 59.9835 51.187L61.0993 48.2963L62.2707 51.3252C62.915 52.9909 63.443 54.3885 63.444 54.4305Z" fill="#343A48"/>
</svg>
