<svg width="71" height="70" viewBox="0 0 71 70" fill="none" xmlns="http://www.w3.org/2000/svg">
<path d="M35.5234 2.625C17.6345 2.625 3.14844 17.1111 3.14844 35C3.14844 48.7083 11.6554 60.4236 23.7109 65.1389C23.4193 62.5625 23.1762 58.6736 23.8082 55.8542C24.3915 53.3264 27.5998 39.7639 27.5998 39.7639C27.5998 39.7639 26.6276 37.8194 26.6276 34.9514C26.6276 30.4306 29.2526 27.0764 32.4609 27.0764C35.2318 27.0764 36.5443 29.1667 36.5443 31.6458C36.5443 34.4167 34.7943 38.5972 33.8707 42.4375C33.0929 45.6458 35.4748 48.2708 38.6832 48.2708C44.4193 48.2708 48.8429 42.1944 48.8429 33.4444C48.8429 25.7153 43.2526 20.2708 35.329 20.2708C26.1415 20.2708 20.6971 27.1736 20.6971 34.3194C20.6971 37.0903 21.7665 40.1042 23.1276 41.7083C23.3707 42.0486 23.4193 42.2917 23.3707 42.6319C23.1276 43.6528 22.5929 45.8403 22.4957 46.2778C22.3498 46.8611 22.0096 47.0069 21.4262 46.7153C17.3915 44.8194 14.8637 38.9375 14.8637 34.1736C14.8637 23.9653 22.3012 14.5833 36.2526 14.5833C47.4818 14.5833 56.1832 22.6042 56.1832 33.25C56.1832 44.3819 49.1345 53.375 39.4123 53.375C36.1554 53.375 33.0443 51.6736 31.9748 49.6806C31.9748 49.6806 30.3707 55.8542 29.9818 57.3611C29.2526 60.1806 27.2596 63.6806 25.9471 65.8681C28.9609 66.7917 32.1693 67.3264 35.5234 67.3264C53.4123 67.3264 67.8984 52.8403 67.8984 34.9514C67.8984 17.1111 53.4123 2.625 35.5234 2.625Z" fill="#343A48"/>
</svg>
