<svg width="214" height="60" viewBox="0 0 214 60" fill="none" xmlns="http://www.w3.org/2000/svg">
<rect width="96.1905" height="60" fill="#343A48"/>
<path fill-rule="evenodd" clip-rule="evenodd" d="M107.143 42.4001V45.7526H109.093C111.79 45.7526 112.575 45.3114 112.575 43.7963C112.575 43.0668 112.115 42.3043 111.674 42.3043C111.451 42.3043 111.503 42.1562 111.879 41.7149C112.429 41.0694 112.474 40.8449 112.196 40.1229C111.888 39.3235 111.067 39.0476 108.996 39.0476H107.143V42.4001ZM149.634 40.3225C149.634 41.5455 149.62 41.5846 149.279 41.2804C148.685 40.7493 147.422 40.8668 146.679 41.5223C146.083 42.0476 146.045 42.1581 146.045 43.358C146.045 44.5578 146.083 44.6683 146.679 45.1936C147.411 45.8394 148.666 45.9599 149.397 45.4543C149.787 45.1844 149.828 45.1844 149.828 45.4543C149.828 45.6447 150.004 45.7526 150.313 45.7526H150.798V42.4001V39.0476H150.216H149.634V40.3225ZM153.903 39.5265C153.903 39.9097 154 40.0055 154.388 40.0055C154.776 40.0055 154.873 39.9097 154.873 39.5265C154.873 39.1434 154.776 39.0476 154.388 39.0476C154 39.0476 153.903 39.1434 153.903 39.5265ZM165.35 39.5265C165.35 39.9309 165.441 40.0055 165.933 40.0055C166.424 40.0055 166.515 39.9309 166.515 39.5265C166.515 39.1221 166.424 39.0476 165.933 39.0476C165.441 39.0476 165.35 39.1221 165.35 39.5265ZM181.649 42.4001V45.7526H182.134H182.619V42.4001V39.0476H182.134H181.649V42.4001ZM169.813 40.197C169.813 40.8355 169.748 40.9633 169.425 40.9633C169.166 40.9633 169.037 41.0911 169.037 41.3465C169.037 41.6018 169.166 41.7296 169.425 41.7296C169.784 41.7296 169.813 41.8574 169.813 43.424C169.813 45.3922 170.075 45.8248 171.2 45.7181C171.926 45.6493 172.286 44.9863 171.597 44.9863C170.951 44.9863 170.761 44.5317 170.822 43.1357C170.878 41.8648 170.896 41.8235 171.414 41.7649C171.791 41.7219 171.947 41.5955 171.947 41.3338C171.947 41.0499 171.811 40.9633 171.365 40.9633C170.816 40.9633 170.783 40.9208 170.783 40.197C170.783 39.5074 170.735 39.4307 170.298 39.4307C169.862 39.4307 169.813 39.5074 169.813 40.197ZM110.842 40.2037C111.351 40.4727 111.32 41.2535 110.786 41.6229C110.528 41.8014 109.944 41.9212 109.331 41.9212H108.307V40.9633V40.0055H109.387C109.981 40.0055 110.635 40.0947 110.842 40.2037ZM116.217 41.3399C115.065 42.2346 114.979 44.2727 116.052 45.2196C116.544 45.6537 116.838 45.7526 117.638 45.7526C118.465 45.7526 118.71 45.6641 119.187 45.1926C119.889 44.4995 119.928 44.0285 119.282 44.0285C118.981 44.0285 118.766 44.1668 118.687 44.4112C118.548 44.8459 117.838 45.0817 117.168 44.9158C116.27 44.6934 115.971 43.1037 116.664 42.2344C117.158 41.6137 118.055 41.5555 118.538 42.1127C118.92 42.5534 119.754 42.6308 119.754 42.2256C119.754 42.0769 119.486 41.7321 119.157 41.4593C118.394 40.825 116.955 40.7666 116.217 41.3399ZM123.275 41.4486C122.26 42.2917 122.05 43.7907 122.79 44.906C123.595 46.1198 126.105 45.9959 126.697 44.7133C126.906 44.2604 126.888 44.22 126.474 44.22C126.226 44.22 125.865 44.3924 125.672 44.6032C124.99 45.3474 123.441 44.9047 123.441 43.9654C123.441 43.6898 123.686 43.6453 125.213 43.6453H126.984L126.874 42.8311C126.641 41.1177 124.611 40.338 123.275 41.4486ZM135.059 41.2512C134.33 41.6428 133.847 42.7484 133.999 43.6832C134.234 45.1367 134.988 45.7526 136.532 45.7526C138.713 45.7526 139.671 42.9691 138 41.4901C137.524 41.0687 137.221 40.9648 136.486 40.971C135.981 40.9752 135.339 41.1012 135.059 41.2512ZM153.903 43.358V45.7526H154.388H154.873V43.358V40.9633H154.388H153.903V43.358ZM158.493 41.3568C158.215 41.5731 157.892 42.0976 157.776 42.5221C157.183 44.6991 158.872 46.3953 160.704 45.4603C161.263 45.1748 161.276 45.1788 161.276 45.6411C161.276 46.5432 160.034 46.9997 159.182 46.4106C158.944 46.2457 158.516 46.1378 158.232 46.1712L157.715 46.2315L158.217 46.8062C158.681 47.3359 158.82 47.3809 159.993 47.3809C162.055 47.3809 162.427 46.7179 162.435 43.0227L162.44 40.9633H161.858C161.446 40.9633 161.276 41.0558 161.276 41.2804C161.276 41.5754 161.251 41.5754 160.921 41.2804C160.416 40.8292 159.12 40.87 158.493 41.3568ZM165.35 43.358V45.7526H165.933H166.515V43.358V40.9633H165.933H165.35V43.358ZM175.037 41.5233C174.725 41.8313 174.47 42.1762 174.47 42.2896C174.47 42.6645 175.417 42.5127 175.639 42.1024C175.812 41.7842 176.008 41.72 176.665 41.7671C177.384 41.8187 177.484 41.8844 177.537 42.3388C177.593 42.8187 177.536 42.8601 176.664 42.9752C175.424 43.1388 174.69 43.4309 174.462 43.8505C173.909 44.8708 174.593 45.7526 175.938 45.7526C176.425 45.7526 177.002 45.6583 177.22 45.5432C177.506 45.3919 177.674 45.3919 177.828 45.5432C177.944 45.6583 178.284 45.7526 178.583 45.7526C178.987 45.7526 179.126 45.6595 179.126 45.3899C179.126 45.1905 178.995 44.9777 178.835 44.917C178.608 44.8309 178.544 44.4497 178.544 43.1832C178.544 41.7227 178.501 41.5298 178.113 41.2616C177.853 41.0817 177.269 40.9633 176.643 40.9633C175.753 40.9633 175.522 41.0438 175.037 41.5233ZM125.661 42.1555C125.827 42.3896 125.963 42.6482 125.963 42.7302C125.963 42.812 125.396 42.879 124.702 42.879C123.366 42.879 123.177 42.7183 123.762 42.08C124.223 41.5765 125.28 41.6187 125.661 42.1555ZM137.411 42.1127C137.684 42.3823 137.799 42.7512 137.799 43.358C137.799 44.3942 137.305 44.9863 136.441 44.9863C135.576 44.9863 135.082 44.3942 135.082 43.358C135.082 42.3217 135.576 41.7296 136.441 41.7296C136.764 41.7296 137.195 41.8999 137.411 42.1127ZM149.279 42.0467C149.751 42.4675 149.772 44.1352 149.313 44.6359C148.887 45.1007 147.85 45.0909 147.417 44.6181C146.863 44.0143 146.808 42.875 147.302 42.2564C147.792 41.6421 148.717 41.544 149.279 42.0467ZM160.921 42.0467C161.286 42.3731 161.424 43.8968 161.127 44.335C160.671 45.0104 159.654 45.0817 159.046 44.4811C158.662 44.1026 158.668 42.7012 159.056 42.1555C159.422 41.6388 160.401 41.5817 160.921 42.0467ZM111.036 42.8857C111.295 43.0227 111.411 43.2876 111.411 43.7411C111.411 44.5808 111.02 44.7947 109.484 44.7947H108.307V43.7411V42.6875H109.484C110.131 42.6875 110.829 42.7767 111.036 42.8857ZM177.574 44.0217C177.574 44.7011 177.063 45.0363 176.158 44.9499C175.645 44.9009 175.526 44.7999 175.476 44.3723C175.424 43.9298 175.51 43.8273 176.058 43.6712C177.28 43.3237 177.574 43.3919 177.574 44.0217Z" fill="#343A48"/>
<path d="M12.5843 23.9691C13.8174 21.3763 16.3728 19.4752 19.488 18.8328C20.389 18.6471 21.5951 18.58 23.1396 18.6299C26.7289 18.7456 28.6612 19.5008 30.5082 21.5096C31.4726 22.5584 32.7499 24.8475 32.6075 25.272C32.5506 25.4416 26.8694 26.8283 26.7679 26.6974C26.7539 26.6793 26.5625 26.3098 26.3428 25.8766C24.9662 23.1622 20.9959 22.9431 19.261 25.4857C18.4386 26.6907 18.177 28.0906 18.2749 30.7648C18.3756 33.5223 18.8791 34.8225 20.1776 35.6765C20.9086 36.1574 21.1669 36.2158 22.563 36.2158C23.9285 36.2158 24.2255 36.1522 24.886 35.7176C25.6819 35.1942 26.5544 33.8176 26.7889 32.716C26.8654 32.3561 27.0197 32.1171 27.1458 32.1633C27.2678 32.2082 28.6335 32.6115 30.1807 33.0594L32.9938 33.8736L32.8054 34.5672C32.4014 36.054 31.4184 37.7599 30.3621 38.8069C28.3535 40.7976 25.8566 41.5811 22.0825 41.4044C18.322 41.2282 16.5282 40.5615 14.5819 38.6159C12.2534 36.288 11.4377 34.062 11.4279 30.0074C11.4208 27.0856 11.6357 25.9637 12.5843 23.9691Z" fill="white"/>
<path d="M65.7918 22.6201C66.7072 20.6661 68.6915 19.3065 71.318 18.8333C74.2143 18.3118 78.0039 18.5913 80.0125 19.4744C81.8591 20.2863 83.4318 22.3591 83.705 24.3418L83.8211 25.1827L82.1166 25.3054C81.1793 25.373 79.7567 25.4775 78.9555 25.5379L77.4987 25.6477L77.1742 24.8036C76.6547 23.4515 75.9185 22.8835 74.5576 22.7857C73.1826 22.687 72.5542 22.8222 72.0472 23.3261C71.5436 23.8266 71.5465 24.8725 72.0526 25.3275C72.277 25.5295 73.8186 26.0189 75.7522 26.502C82.5734 28.2064 84.7563 30.1694 84.5036 34.3714C84.3076 37.6304 82.3101 39.9092 78.6743 41.0215C77.1083 41.5006 72.1369 41.5094 70.3732 41.0361C67.0095 40.1332 65.0972 38.0344 64.4793 34.5674L64.3557 33.874L66.2338 33.7506C67.2668 33.6828 68.7302 33.5771 69.4859 33.516L70.8594 33.4046L71.1596 34.431C71.4833 35.5377 72.3335 36.5234 73.2657 36.8728C74.1351 37.1985 75.9135 37.1203 76.6578 36.7236C77.0209 36.5301 77.481 36.0594 77.6803 35.6777C77.988 35.0884 78.0091 34.8819 77.8202 34.3132C77.4283 33.1328 76.8644 32.8659 71.9559 31.5375C68.7536 30.671 66.6441 29.2677 65.7785 27.4285C65.142 26.0756 65.1476 23.9953 65.7918 22.6201Z" fill="white"/>
<path d="M36.3046 41.0871V30.0074V18.9277H40.7924H45.2803L46.9729 25.5197C47.9039 29.1455 48.7168 32.0615 48.7793 32C48.8419 31.9385 49.6368 28.9936 50.5457 25.4557L52.1984 19.0232L56.7438 18.972L61.2893 18.9208V30.0039V41.0871H58.5026H55.7158V32.9301C55.7158 28.1173 55.6453 24.8475 55.5436 24.9547C55.4491 25.0546 54.4935 28.5747 53.4203 32.7773C52.3471 36.9799 51.4242 40.5688 51.3694 40.7528C51.2808 41.0492 50.9824 41.0871 48.7297 41.0871H46.1897L44.082 32.865L41.9742 24.6429L41.9241 32.865L41.8741 41.0871H39.0893H36.3046Z" fill="white"/>
<path fill-rule="evenodd" clip-rule="evenodd" d="M180.771 13.8625V15.3441H182.855H184.939V13.8625V12.381H182.855H180.771V13.8625ZM112.965 16.7137C112.511 16.9191 111.953 17.2727 111.725 17.4995L111.31 17.9121V17.2207V16.5293H109.226H107.143V22.0605V27.5917H109.326H111.509V24.0503V20.5088L112.046 20.0883C112.421 19.7943 112.735 19.7046 113.088 19.7906C114.134 20.0454 114.183 20.2246 114.254 24.0426L114.319 27.5917H116.387H118.455V24.4604C118.455 22.6543 118.549 21.0602 118.678 20.6931C119.051 19.6272 120.554 19.416 121.086 20.3547C121.237 20.622 121.351 22.0242 121.398 24.1841L121.471 27.5917H123.535H125.599V23.3366C125.599 19.4577 125.564 19.0126 125.198 18.2995C124.678 17.2846 123.547 16.5495 122.275 16.3996C120.872 16.2342 120.022 16.4369 118.862 17.2138C117.886 17.8677 117.855 17.8744 117.588 17.4941C116.813 16.393 114.528 16.0074 112.965 16.7137ZM130.892 16.6151C129.282 17.0455 127.981 18.3453 127.981 19.5217V20.0851H129.933C131.812 20.0851 131.895 20.0667 132.107 19.6019C132.542 18.6531 134.751 18.8034 134.878 19.7906C134.972 20.5183 134.616 20.6945 132.3 21.0643C129.335 21.5382 128.333 21.974 127.795 23.0237C126.657 25.2429 127.987 27.4577 130.618 27.728C132.112 27.8815 133.38 27.661 134.203 27.1045C134.933 26.6119 135.125 26.6379 135.125 27.2296C135.125 27.5589 135.324 27.5917 137.33 27.5917C139.356 27.5917 139.521 27.5636 139.38 27.246C139.295 27.0557 139.174 25.0292 139.11 22.7424C138.987 18.2926 138.901 17.9175 137.851 17.2336C136.581 16.4059 132.897 16.0786 130.892 16.6151ZM143.781 16.6226C142.678 17.0141 141.547 18.1956 141.141 19.3807C140.724 20.5969 140.694 22.4137 141.069 23.7232C141.426 24.9663 142.664 26.283 143.758 26.5822C145.409 27.0336 147.311 26.7351 148.266 25.8744C148.603 25.571 148.621 25.6159 148.621 26.7709C148.621 28.2848 148.229 28.7769 147.023 28.7769C146.418 28.7769 146.105 28.6533 145.754 28.2759C145.304 27.7934 145.211 27.777 143.233 27.8315C140.931 27.8947 140.915 27.9097 141.656 29.3695C142.377 30.7914 143.958 31.42 146.834 31.4285C149.167 31.4356 150.54 31.0143 151.59 29.9697C152.687 28.8781 152.788 28.1999 152.788 21.973V16.5293H150.704H148.621V17.1593V17.7891L148.195 17.3349C147.285 16.3616 145.382 16.0547 143.781 16.6226ZM158.047 16.5961C156.189 17.2091 155.388 17.9769 155.076 19.4431L154.94 20.0851H156.917C158.798 20.0851 158.91 20.0612 159.214 19.6005C159.815 18.6875 161.722 18.7657 162.025 19.7159C162.234 20.3719 161.572 20.7972 160.093 20.9566C158.447 21.1342 156.376 21.6348 155.805 21.9931C155.01 22.4929 154.576 23.4368 154.575 24.671C154.575 25.6483 154.656 25.8922 155.179 26.4854C155.511 26.8625 156.177 27.3204 156.657 27.503C157.865 27.9621 159.938 27.8348 161.104 27.2298C161.798 26.8697 162.012 26.8299 162.143 27.036C162.234 27.1786 162.31 27.3621 162.311 27.4435C162.313 27.5249 163.294 27.5917 164.492 27.5917H166.67L166.477 27.085C166.371 26.8062 166.283 24.9231 166.283 22.9003C166.283 19.5843 166.243 19.1389 165.873 18.3773C165.545 17.7041 165.237 17.423 164.354 16.9932C163.386 16.5216 162.969 16.4462 161.044 16.394C159.594 16.3547 158.57 16.4239 158.047 16.5961ZM193.373 16.7253C192.937 16.9371 192.378 17.2571 192.133 17.4365C191.695 17.7563 191.686 17.7506 191.686 17.1461V16.5293H189.602H187.519V22.0605V27.5917H189.702H191.885V24.1566C191.885 21.1753 191.931 20.6665 192.232 20.3052C192.762 19.6699 193.667 19.5739 194.319 20.0839L194.862 20.5088V24.0503V27.5917H197.045H199.228L199.223 23.3939C199.218 18.1606 198.988 17.4651 196.994 16.6356C195.983 16.2151 194.342 16.2558 193.373 16.7253ZM205.216 16.625C203.496 17.1591 202.075 18.4921 201.502 20.1068C201.088 21.2745 201.133 23.5512 201.589 24.5298C203.115 27.8022 208.482 28.8862 211.566 26.5445C212.371 25.9339 213.318 24.7749 213.318 24.4018C213.318 24.3091 212.409 24.2335 211.297 24.2335C209.474 24.2335 209.229 24.2771 208.8 24.6779C208.11 25.3235 206.754 25.296 206.078 24.6228C205.802 24.348 205.493 23.8368 205.392 23.487L205.209 22.8507H209.39H213.571L213.469 21.5892C213.279 19.2327 211.716 17.2873 209.481 16.6269C208.263 16.2668 206.372 16.266 205.216 16.625ZM168.268 18.0109V19.4925H170.666C171.985 19.4925 173.034 19.5654 172.998 19.6545C172.962 19.7435 171.749 20.8604 170.302 22.1368L167.673 24.4569V26.0244V27.5917H173.329H178.985V26.0167V24.4419L176.207 24.387L173.429 24.3322L176.009 22.006L178.588 19.6797V18.1045V16.5293H173.428H168.268V18.0109ZM180.771 22.0605V27.5917H182.855H184.939V22.0605V16.5293H182.855H180.771V22.0605ZM208.248 19.1794C208.88 19.4423 209.349 19.9909 209.349 20.4671C209.349 20.6023 208.637 20.6777 207.365 20.6777C205.24 20.6777 205.075 20.5833 205.732 19.7481C206.064 19.3255 206.802 18.938 207.321 18.9123C207.461 18.9056 207.878 19.0257 208.248 19.1794ZM148.171 19.9338C149.123 20.8188 148.918 22.9801 147.829 23.5409C147.038 23.9482 146.389 23.914 145.774 23.4326C144.454 22.3985 144.818 19.8162 146.338 19.4332C146.949 19.2793 147.682 19.4794 148.171 19.9338ZM134.927 23.4322C134.927 24.4383 134.29 25.1939 133.312 25.3488C132.743 25.4391 132.501 25.3749 132.171 25.0459C131.334 24.2125 131.775 23.5739 133.538 23.068C134.247 22.8645 134.85 22.6879 134.877 22.6755C134.904 22.6632 134.927 23.0038 134.927 23.4322ZM162.116 23.2556C162.116 24.2544 161.611 24.981 160.735 25.2421C160.069 25.4404 159.874 25.426 159.446 25.1465C158.863 24.7664 158.776 24.0237 159.266 23.6156C159.528 23.3977 161.302 22.7807 161.967 22.6764C162.049 22.6636 162.116 22.9242 162.116 23.2556Z" fill="#343A48"/>
</svg>
