<svg width="140" height="102" viewBox="0 0 140 102" fill="none" xmlns="http://www.w3.org/2000/svg">
<g clip-path="url(#clip0_17_23529)">
<path d="M14.6329 48.7362L22.1447 65.7589H7.12103L14.6329 48.7362ZM3.7342 65.7589H0V74.0137H3.08289V69.0701H26.2262V74.0137H29.3091V65.7589H25.5749L14.6329 40.9944L3.7342 65.7589ZM105.339 0L88.1879 10.6333L92.4866 18.6084L105.339 10.6333V92.0624H96.7418V101.25H113.893V0H105.339ZM122.49 0V101.25H139.598V92.0624H131.044V0H122.49ZM49.5433 63.8467C47.8499 65.3391 45.7222 66.2252 43.4209 66.2252C37.9499 66.2252 33.5209 61.3283 33.5209 55.2654C33.5209 49.2026 37.9499 44.259 43.4209 44.259C45.7222 44.259 47.8933 45.1451 49.5433 46.6375L51.7143 44.3056C49.4564 42.2069 46.5472 40.9944 43.3775 40.9944C36.213 40.9944 30.3946 47.3837 30.3946 55.2654C30.3946 63.1472 36.213 69.5365 43.3775 69.5365C46.5472 69.5365 49.4564 68.2773 51.7143 66.2252L49.5433 63.8467ZM58.184 41.4607H61.2669V69.0235H58.184V41.4607ZM66.7814 55.2188L79.634 41.4607H75.2485L62.4393 55.2188L75.2485 69.0235H79.634L66.7814 55.2188Z" fill="#E0E0E7"/>
</g>
<defs>
<clipPath id="clip0_17_23529">
<rect width="139.65" height="101.25" fill="white"/>
</clipPath>
</defs>
</svg>
