<svg width="128" height="44" viewBox="0 0 128 44" fill="none" xmlns="http://www.w3.org/2000/svg">
<g id="1 501" clip-path="url(#clip0_1299_9570)">
<path id="Vector" d="M114.383 0H13.617C6.09655 0 0 6.15608 0 13.75V30.25C0 37.8439 6.09655 44 13.617 44H114.383C121.903 44 128 37.8439 128 30.25V13.75C128 6.15608 121.903 0 114.383 0Z" fill="#888795"/>
<path id="Vector_2" d="M54.1113 15.8125H52.5535V10.6755L50.5055 15.8125H49.8301L47.7821 10.6755V15.8125H46.2352V8.47546H48.403L50.1678 12.9085L51.9325 8.47546H54.1113V15.8125ZM55.5547 8.47546H57.1016V11.0825H58.9535C60.5221 11.0825 61.3936 12.1715 61.3936 13.4475C61.3936 14.7345 60.5317 15.8125 58.9535 15.8125H55.5547V8.47546ZM58.7438 12.4575H57.1002V14.4375H58.7451C59.3538 14.4375 59.8113 14.0635 59.8113 13.4475C59.8113 12.8425 59.3538 12.4575 58.7438 12.4575ZM63.5601 15.8125H62.001V8.47546H63.5601V15.8125ZM74.323 15.8125H72.7652V12.7325H69.3337V15.8125H67.7868V8.47546H69.3337V11.3575H72.7652V8.47546H74.323V15.8125ZM82.53 15.8125H80.7652L80.3186 14.5695H77.203L76.7455 15.8125H74.9821L77.7913 8.47546H79.7317L82.53 15.8125ZM79.8937 13.1945L78.7635 10.0375L77.6306 13.1945H79.8937ZM33.4869 35.0625C32.1151 35.0617 30.7732 34.6575 29.6251 33.8992C28.4882 33.1493 27.598 32.0748 27.0679 30.8123C26.543 29.5586 26.4063 28.1737 26.6757 26.84C26.9453 25.5062 27.6084 24.2825 28.5821 23.3227C29.5618 22.3589 30.7998 21.7059 32.1429 21.4445C33.4912 21.1795 34.8868 21.3156 36.1599 21.8363C37.4235 22.3523 38.5083 23.2334 39.2782 24.3691C39.9125 25.3038 40.3036 26.3847 40.4154 27.5122C40.5273 28.6396 40.3563 29.7774 39.9182 30.8206C39.5671 31.6579 39.0547 32.4165 38.4108 33.0522C37.7607 33.6926 36.9928 34.1985 36.1504 34.5413C35.3062 34.8865 34.4006 35.0638 33.4869 35.0625ZM35.0324 26.1057L33.6707 21.9903H33.3126L31.9604 26.0961H27.5853L27.4682 26.4302L31.0045 28.9602L29.6619 33.0756L29.9506 33.286L33.4869 30.756L37.0314 33.286L37.3215 33.077L36.0074 28.9891L39.5424 26.4398C39.5128 26.3267 39.4773 26.2152 39.4362 26.1057H35.0324ZM116.942 24.1958C116.832 24.3919 116.668 24.5511 116.469 24.6537C116.278 24.765 116.062 24.8236 115.841 24.8236C115.621 24.8236 115.404 24.765 115.214 24.6537C115.015 24.5513 114.85 24.3921 114.74 24.1958C114.632 24.0051 114.576 23.7895 114.576 23.5702C114.576 23.3509 114.632 23.1353 114.74 22.9446C114.849 22.7493 115.012 22.5898 115.214 22.4867C115.404 22.3767 115.621 22.3217 115.84 22.3245C116.06 22.3224 116.277 22.3783 116.469 22.4867C116.665 22.5901 116.826 22.75 116.932 22.946C117.044 23.1346 117.104 23.3502 117.106 23.5703C117.108 23.7903 117.051 24.0055 116.942 24.1958ZM116.72 23.0683C116.631 22.9116 116.501 22.7829 116.344 22.6971C116.194 22.6214 116.028 22.5821 115.86 22.5821C115.693 22.5821 115.527 22.6214 115.377 22.6971C115.22 22.7829 115.09 22.9116 115.001 23.0683C114.909 23.2209 114.862 23.3969 114.865 23.5757C114.864 23.7503 114.911 23.9217 115.001 24.0707C115.085 24.2315 115.216 24.3622 115.377 24.4447C115.524 24.5288 115.691 24.573 115.86 24.573C116.03 24.573 116.196 24.5288 116.344 24.4447C116.504 24.3622 116.635 24.2321 116.72 24.0721C116.809 23.9225 116.857 23.7507 116.856 23.5757C116.859 23.3974 116.812 23.2205 116.72 23.0683ZM116.179 23.8136L116.274 23.9772L116.44 24.244H116.092L115.986 24.024C115.943 23.9234 115.88 23.8327 115.802 23.7572C115.745 23.717 115.677 23.6967 115.608 23.6995H115.54V24.244H115.271V22.8786H115.967C116.041 22.8819 116.113 22.9011 116.179 22.935C116.23 22.9658 116.273 23.0082 116.304 23.0587C116.318 23.1221 116.318 23.1878 116.304 23.2512C116.306 23.2969 116.299 23.3426 116.283 23.3852C116.266 23.4279 116.241 23.4665 116.209 23.4987C116.139 23.5699 116.046 23.6138 115.948 23.6225L116.043 23.6706L116.131 23.7765L116.179 23.8136ZM116.035 23.4038C116.044 23.3725 116.044 23.3389 116.035 23.3076C116.044 23.2735 116.044 23.2372 116.035 23.2031C116.014 23.1736 115.983 23.1531 115.948 23.1453C115.848 23.1367 115.748 23.1367 115.648 23.1453H115.542V23.5083H115.648C115.747 23.518 115.848 23.518 115.948 23.5083C115.982 23.4944 116.012 23.4716 116.035 23.4423V23.4038ZM107.486 24.7885V26.8991H111.349V29.2943H107.486V31.6057H112.113V34.0697H104.742V22.3341H112.316L111.542 24.7885H107.486ZM99.3334 31.7872C99.9461 31.7817 100.553 31.6593 101.12 31.4242C101.769 31.1464 102.372 30.7699 102.908 30.3077L102.724 33.4111C102.216 33.7548 101.655 34.0161 101.063 34.1838C100.454 34.3653 99.8236 34.4547 99.189 34.4506C97.8235 34.4643 96.4931 34.0139 95.4117 33.1718C94.6693 32.5948 94.0679 31.8534 93.6537 31.0048C93.2866 30.1862 93.0838 29.3022 93.0572 28.4039C93.0305 27.5056 93.1805 26.6109 93.4985 25.7716C93.7963 25.0162 94.2438 24.3302 94.8135 23.7557C95.3832 23.1811 96.0631 22.7301 96.8115 22.4303C97.5701 22.1213 98.3806 21.9626 99.1986 21.9628C99.8521 21.9585 100.503 22.0512 101.129 22.2378C101.745 22.4276 102.328 22.7081 102.859 23.0697L102.559 26.0672C102.109 25.5936 101.584 25.1998 101.004 24.9026C100.484 24.6579 99.9169 24.5311 99.3429 24.5313C98.8842 24.5156 98.4275 24.5986 98.003 24.7747C97.5795 24.9507 97.1996 25.2161 96.8891 25.5516C96.2368 26.2641 95.8898 27.2081 95.9237 28.1778C95.904 28.6556 95.9794 29.1325 96.1455 29.5803C96.3115 30.0281 96.5649 30.4377 96.8905 30.7848C97.2091 31.1093 97.5945 31.3623 98.0207 31.5273C98.4483 31.6923 98.9058 31.7638 99.362 31.7391L99.3334 31.7872ZM89.1914 32.3702H84.3615L83.5989 34.0697H80.7489L86.7948 22.0096H86.9691L92.8816 34.0683H89.9254L89.1724 32.3702H89.1914ZM86.7758 26.6887L85.2016 30.3545H88.3118L86.7867 26.697L86.7758 26.6887ZM80.7298 28.7705C79.7229 29.5095 78.4951 29.8769 77.252 29.8113H76.7019V34.0876H73.8709V22.3341H76.9239C77.6728 22.3162 78.4217 22.3836 79.1557 22.5348C79.6827 22.6627 80.1783 22.8923 80.6127 23.2127C81.0484 23.5235 81.4038 23.9318 81.6476 24.4062C81.8873 24.8737 82.0098 25.3907 82.0044 25.9146C82.0343 26.4577 81.9349 27.0008 81.713 27.4972C81.491 27.995 81.1547 28.4336 80.7298 28.7787V28.7705ZM78.8561 24.893C78.3129 24.6049 77.7006 24.4763 77.0886 24.5217H76.7019V27.6526H77.2139C77.7885 27.6925 78.3604 27.5481 78.8466 27.2415C79.0318 27.1093 79.1807 26.9319 79.2796 26.7258C79.3772 26.521 79.4208 26.2941 79.4062 26.0672C79.4233 25.8415 79.3815 25.6152 79.285 25.4108C79.1885 25.2065 79.0406 25.0312 78.8561 24.9026V24.893ZM67.4968 34.4423C67.0142 34.4362 66.5329 34.3911 66.0575 34.3076C65.483 34.1971 64.9152 34.0539 64.3567 33.8786L64.1157 30.756C64.7012 31.1313 65.3235 31.4517 65.9703 31.7116C66.4496 31.8848 66.9562 31.9756 67.4682 31.9783C67.8849 31.9948 68.2975 31.8821 68.6461 31.6538C68.7817 31.5673 68.8935 31.4475 68.9711 31.3057C69.0487 31.1639 69.0896 31.0046 69.09 30.8426C69.09 30.3641 68.5589 29.8196 67.5063 29.2283L67.1114 28.9987L66.308 28.5505C65.6283 28.1991 65.0369 27.6959 64.5787 27.0792C64.1968 26.5189 64.0013 25.8506 64.0204 25.1707C64.0047 24.7275 64.0934 24.287 64.2791 23.8851C64.4668 23.4813 64.7446 23.1269 65.0907 22.8497C65.8786 22.2055 66.8687 21.867 67.8822 21.8955C68.3397 21.903 68.7956 21.9536 69.2439 22.0467C69.7973 22.1618 70.3431 22.312 70.8779 22.4963V25.2367C70.3646 24.9104 69.821 24.6355 69.2547 24.4158C68.8362 24.2451 68.3917 24.1484 67.9407 24.1298C67.5991 24.1047 67.2589 24.1952 66.9739 24.387C66.8644 24.4631 66.776 24.5662 66.7171 24.6865C66.6583 24.8069 66.6309 24.9404 66.6376 25.0745C66.6341 25.2812 66.7063 25.482 66.8404 25.6382C67.0038 25.8431 67.2122 26.0095 67.4478 26.125L68.8394 26.8798C69.73 27.3116 70.5279 27.9111 71.187 28.6453C71.5901 29.2008 71.7998 29.8718 71.7861 30.5566C71.8069 31.0754 71.712 31.5923 71.5084 32.0691C71.3036 32.5498 70.9957 32.9786 70.6069 33.3245C69.7257 34.0551 68.6072 34.4295 67.4682 34.375L67.4968 34.4423ZM60.2621 34.0601L56.0598 28.6068V33.9927H53.2588V22.3341H56.0598V27.423L59.9244 22.3341H63.2946L58.8227 27.9015L63.6527 34.0312L60.2621 34.0601ZM48.9027 34.0601L45.7341 29.4676H45.3392V34.0601H42.5858V22.3341H45.6673C46.4281 22.3164 47.1886 22.3805 47.9359 22.5252C48.4507 22.638 48.9368 22.8525 49.3657 23.155C49.7933 23.4575 50.1446 23.8521 50.3897 24.31C50.6307 24.761 50.7574 25.2628 50.7574 25.7716C50.7651 26.4522 50.566 27.1187 50.1868 27.6815C49.7729 28.259 49.205 28.7127 48.5446 28.9891L52.1572 34.012L48.9027 34.0601ZM47.5982 24.8352C47.0527 24.5438 46.4364 24.4151 45.8212 24.464H45.3582V27.7007H45.9465C46.5252 27.7365 47.1012 27.5907 47.5887 27.28C47.7754 27.1372 47.9243 26.95 48.0219 26.735C48.1196 26.52 48.163 26.284 48.1484 26.048C48.1672 25.8165 48.1269 25.5841 48.0313 25.3728C47.934 25.1601 47.785 24.9743 47.5982 24.8352ZM21.1227 34.3846L18.5913 27.7007L16.1102 34.3832H15.8964L10.8936 22.3355H13.7913L16.0898 28.6467L18.5722 21.9642H18.7846L21.2765 28.6467L23.5669 22.3355H26.2032L21.2779 34.4148L21.1227 34.3846Z" fill="white"/>
</g>
<defs>
<clipPath id="clip0_1299_9570">
<rect width="128" height="44" fill="white"/>
</clipPath>
</defs>
</svg>
