<svg width="130" height="28" viewBox="0 0 130 28" fill="none" xmlns="http://www.w3.org/2000/svg">
<path d="M15.0409 13.2881C16.1605 13.8722 17.0366 14.6754 17.6694 15.6976C18.3022 16.7198 18.6186 17.9002 18.6186 19.2388C18.6186 21.3319 17.8763 23.072 16.3917 24.4593C14.9071 25.8466 13.0939 26.5402 10.9521 26.5402H0V0.985229H10.149C12.242 0.985229 14.0066 1.6667 15.4425 3.02963C16.9028 4.36822 17.6329 6.04755 17.6329 8.06761C17.6329 10.2824 16.7689 12.0225 15.0409 13.2881ZM10.149 4.928H4.19832V11.6453H10.149C11.0738 11.6453 11.8526 11.3289 12.4854 10.6961C13.1182 10.039 13.4346 9.23583 13.4346 8.28665C13.4346 7.33746 13.1182 6.54648 12.4854 5.91369C11.8526 5.25656 11.0738 4.928 10.149 4.928ZM10.9521 22.5974C11.9257 22.5974 12.741 22.2567 13.3981 21.5752C14.0796 20.8694 14.4203 20.0176 14.4203 19.0197C14.4203 18.0219 14.0796 17.1822 13.3981 16.5007C12.741 15.7949 11.9257 15.442 10.9521 15.442H4.19832V22.5974H10.9521Z" fill="#498BEE"/>
<path d="M30.8205 27.0148C28.1434 27.0148 25.8677 26.0899 23.9937 24.2402C22.1197 22.3906 21.1827 20.1149 21.1827 17.4134C21.1827 14.7119 22.1197 12.4363 23.9937 10.5866C25.8677 8.7369 28.1434 7.81206 30.8205 7.81206C33.5221 7.81206 35.7977 8.7369 37.6474 10.5866C39.5214 12.4363 40.4584 14.7119 40.4584 17.4134C40.4584 20.1149 39.5214 22.3906 37.6474 24.2402C35.7977 26.0899 33.5221 27.0148 30.8205 27.0148ZM26.7683 21.5387C27.8635 22.6339 29.2142 23.1815 30.8205 23.1815C32.4269 23.1815 33.7776 22.6339 34.8728 21.5387C35.968 20.4435 36.5157 19.0684 36.5157 17.4134C36.5157 15.7584 35.968 14.3833 34.8728 13.2881C33.7776 12.1929 32.4269 11.6453 30.8205 11.6453C29.2142 11.6453 27.8635 12.1929 26.7683 13.2881C25.673 14.3833 25.1254 15.7584 25.1254 17.4134C25.1254 19.0684 25.673 20.4435 26.7683 21.5387Z" fill="#498BEE"/>
<path d="M58.8948 8.28665V26.5402H54.952V12.0834H48.8553V18.8737C48.8553 21.7699 48.2225 23.8265 46.957 25.0434C45.6914 26.2603 43.8904 26.7592 41.5539 26.5402V22.853C42.6735 23.0477 43.5131 22.8165 44.0729 22.1593C44.6327 21.5022 44.9126 20.3462 44.9126 18.6912V8.28665H58.8948Z" fill="#498BEE"/>
<path d="M75.7921 8.28665H79.7349V26.5402H75.7921V19.2753H67.432V26.5402H63.4893V8.28665H67.432V15.5516H75.7921V8.28665Z" fill="#498BEE"/>
<path d="M98.7665 8.28665H102.709V26.5402H98.7665V23.9117C97.2819 25.9804 95.1523 27.0148 92.3778 27.0148C89.871 27.0148 87.7292 26.0899 85.9525 24.2402C84.1758 22.3662 83.2875 20.0906 83.2875 17.4134C83.2875 14.7119 84.1758 12.4363 85.9525 10.5866C87.7292 8.7369 89.871 7.81206 92.3778 7.81206C95.1523 7.81206 97.2819 8.83425 98.7665 10.8787V8.28665ZM88.8731 21.6117C89.9683 22.7069 91.3434 23.2546 92.9984 23.2546C94.6534 23.2546 96.0285 22.7069 97.1237 21.6117C98.2189 20.4922 98.7665 19.0927 98.7665 17.4134C98.7665 15.7341 98.2189 14.3468 97.1237 13.2516C96.0285 12.1321 94.6534 11.5723 92.9984 11.5723C91.3434 11.5723 89.9683 12.1321 88.8731 13.2516C87.7779 14.3468 87.2303 15.7341 87.2303 17.4134C87.2303 19.0927 87.7779 20.4922 88.8731 21.6117Z" fill="#498BEE"/>
<path d="M126.38 8.41154L130 10.1231C129.303 12.6176 128.056 14.2097 126.259 14.8997C124.489 15.5631 122.384 15.2579 119.943 13.9842C117.905 12.9493 116.457 12.5114 115.599 12.6706C114.741 12.8298 114.084 13.6392 113.628 15.0987L110.008 13.3871C110.705 10.8927 111.952 9.31377 113.749 8.65036C115.572 7.96042 117.691 8.25232 120.104 9.52606C122.169 10.561 123.604 10.9988 124.408 10.8396C125.24 10.6539 125.897 9.8445 126.38 8.41154Z" fill="#498BEE"/>
<path d="M126.38 19.7113L130 21.4229C129.303 23.9174 128.056 25.5095 126.259 26.1995C124.489 26.8629 122.384 26.5577 119.943 25.284C117.905 24.2491 116.457 23.8112 115.599 23.9704C114.741 24.1296 114.084 24.939 113.628 26.3985L110.008 24.6869C110.705 22.1925 111.952 20.6136 113.749 19.9502C115.572 19.2602 117.691 19.5521 120.104 20.8259C122.169 21.8608 123.604 22.2986 124.408 22.1394C125.24 21.9537 125.897 21.1443 126.38 19.7113Z" fill="#498BEE"/>
</svg>
