<svg width="59" height="60" viewBox="0 0 59 60" fill="none" xmlns="http://www.w3.org/2000/svg">
<path d="M29.499 59.4971C45.7909 59.4971 58.9981 46.2899 58.9981 29.9981C58.9981 13.7062 45.7909 0.499023 29.499 0.499023C13.2072 0.499023 0 13.7062 0 29.9981C0 46.2899 13.2072 59.4971 29.499 59.4971Z" fill="#FF3737"/>
<path fill-rule="evenodd" clip-rule="evenodd" d="M42.3351 45.2476C40.4213 45.2476 39.0754 44.7971 38.2993 43.8954C37.5224 42.9942 37.1342 41.434 37.1342 39.2145V12.9187H41.1285V38.7568C41.1285 39.8945 41.2878 40.6571 41.607 41.0452C41.9256 41.434 42.6265 41.6277 43.7082 41.6277H44.6235V45.1644C44.1243 45.2196 43.3611 45.2476 42.3351 45.2476ZM30.082 44.0202C28.5697 45.0883 26.0806 45.6221 22.6134 45.6221C18.6744 45.6221 15.3458 44.721 12.6277 42.9175L14.708 39.7554C17.1212 41.3091 19.8393 42.0854 22.8631 42.0854C24.9155 42.0854 26.3581 41.8565 27.1903 41.399C28.0224 40.9413 28.4384 40.0331 28.4384 38.6736C28.4384 37.6199 28.0641 36.8917 27.315 36.4892C26.5661 36.0874 25.082 35.6921 22.8631 35.3033C21.5868 35.0818 20.5675 34.8808 19.8049 34.7C19.0417 34.52 18.2239 34.2496 17.35 33.8887C16.4763 33.5286 15.8172 33.1191 15.3738 32.6614C14.9298 32.2036 14.5552 31.5939 14.2503 30.8305C13.9449 30.0681 13.7926 29.1734 13.7926 28.1469C13.7926 25.9561 14.5065 24.3053 15.9354 23.1956C17.3637 22.0866 19.673 21.5313 22.8631 21.5313C26.4134 21.5313 29.3538 22.2113 31.6839 23.5701L29.7699 26.8988C27.8001 25.8168 25.526 25.2759 22.9463 25.2759C21.0324 25.2759 19.701 25.5119 18.9519 25.9834C18.203 26.4553 17.8287 27.1763 17.8287 28.1469C17.8287 29.1734 18.1887 29.9016 18.9104 30.3313C19.6313 30.7616 21.0045 31.1569 23.0294 31.5172C24.4442 31.7667 25.5117 31.9749 26.2332 32.1412C26.9543 32.3078 27.7792 32.5645 28.7088 32.9111C29.638 33.2582 30.3172 33.6535 30.7477 34.0967C31.1774 34.5407 31.5518 35.1305 31.8711 35.8651C32.1895 36.6003 32.3496 37.4813 32.3496 38.5071C32.3496 41.1148 31.5935 42.9527 30.082 44.0202Z" fill="#F44336"/>
<path fill-rule="evenodd" clip-rule="evenodd" d="M42.3351 43.5354C40.4213 43.5354 39.0754 43.0849 38.2993 42.1832C37.5224 41.282 37.1342 39.7218 37.1342 37.5024V11.2065H41.1285V37.0447C41.1285 38.1824 41.2878 38.945 41.607 39.333C41.9256 39.7218 42.6265 39.9156 43.7082 39.9156H44.6235V43.4522C44.1243 43.5074 43.3611 43.5354 42.3351 43.5354ZM30.082 42.308C28.5697 43.3761 26.0806 43.9099 22.6134 43.9099C18.6744 43.9099 15.3458 43.0088 12.6277 41.2054L14.708 38.0432C17.1212 39.597 19.8393 40.3733 22.8631 40.3733C24.9155 40.3733 26.3581 40.1443 27.1903 39.6868C28.0224 39.2291 28.4384 38.3209 28.4384 36.9615C28.4384 35.9077 28.0641 35.1796 27.315 34.777C26.5661 34.3753 25.082 33.98 22.8631 33.5912C21.5868 33.3696 20.5675 33.1687 19.8049 32.9879C19.0417 32.8078 18.2239 32.5374 17.35 32.1766C16.4763 31.8165 15.8172 31.4069 15.3738 30.9492C14.9298 30.4915 14.5552 29.8817 14.2503 29.1184C13.9449 28.356 13.7926 27.4613 13.7926 26.4347C13.7926 24.244 14.5065 22.5932 15.9354 21.4834C17.3637 20.3745 19.673 19.8191 22.8631 19.8191C26.4134 19.8191 29.3538 20.4991 31.6839 21.858L29.7699 25.1866C27.8001 24.1047 25.526 23.5638 22.9463 23.5638C21.0324 23.5638 19.701 23.7998 18.9519 24.2712C18.203 24.7432 17.8287 25.4641 17.8287 26.4347C17.8287 27.4613 18.1887 28.1894 18.9104 28.6192C19.6313 29.0495 21.0045 29.4448 23.0294 29.805C24.4442 30.0545 25.5117 30.2627 26.2332 30.4291C26.9543 30.5956 27.7792 30.8523 28.7088 31.1989C29.638 31.546 30.3172 31.9413 30.7477 32.3846C31.1774 32.8286 31.5518 33.4184 31.8711 34.153C32.1895 34.8882 32.3496 35.7692 32.3496 36.795C32.3496 39.4027 31.5935 41.2406 30.082 42.308Z" fill="white"/>
</svg>
