<svg width="1920" height="214" viewBox="0 0 1920 214" fill="none" xmlns="http://www.w3.org/2000/svg">
<path d="M680.325 2.24761C670.275 3.73261 661.95 5.62261 656.625 7.64761C655.425 8.12011 653.55 8.7276 652.65 8.9976C646.5 10.6176 633.45 18.0426 627.3 23.3076C625.875 24.5226 624.375 25.5351 624 25.5351C623.55 25.5351 623.25 21.2151 623.25 14.3976V3.26011H599.625H576V108.56V213.86H599.625H623.25V170.998C623.25 147.44 623.475 128.135 623.85 128.135C624.15 128.135 626.1 129.553 628.125 131.24C630.225 132.995 633.9 135.56 636.375 136.978C638.85 138.395 641.25 139.813 641.625 140.15C642.6 140.825 652.275 145.01 652.875 145.01C653.175 145.01 654.45 145.415 655.725 145.955C657.075 146.495 659.475 147.238 661.125 147.71C662.775 148.115 664.8 148.723 665.625 149.06C666.45 149.398 672.225 150.41 678.45 151.355C688.2 152.84 692.1 153.11 705.825 153.11C714.675 153.11 723.75 152.84 726 152.435C740.55 150.208 744.45 149.533 745.125 149.06C745.575 148.79 747.6 148.183 749.625 147.778C751.725 147.305 754.875 146.36 756.75 145.618C762.3 143.39 768.375 140.69 768.75 140.218C768.975 140.015 769.95 139.408 770.925 138.935C771.975 138.463 773.25 137.72 773.925 137.315C776.325 135.695 788.775 124.288 790.275 122.33C792.375 119.563 797.25 110.99 797.25 109.978C797.25 109.573 797.625 109.235 798 109.235C798.45 109.235 798.75 108.83 798.75 108.29C798.75 107.75 799.575 104.78 800.625 101.608C805.95 85.0026 804.3 57.1251 797.175 43.3551C796.425 41.8701 795.75 40.2501 795.75 39.8451C795.75 39.3726 795.45 39.0351 795.075 39.0351C794.7 39.0351 794.1 38.3601 793.875 37.6176C793.275 36.0651 790.2 31.4751 788.25 29.3151C784.875 25.5351 776.025 18.1101 772.125 15.6801C765.675 11.8326 754.95 7.2426 749.25 5.9601C747.375 5.5551 745.2 4.94761 744.375 4.61011C743.55 4.20511 737.625 3.19261 731.25 2.24761C715.5 -0.0473869 696.225 -0.0473869 680.325 2.24761ZM706.2 36.3351C711.525 36.7401 717 37.3476 718.5 37.6851C725.175 39.1026 729.525 40.3851 731.625 41.3301C732.9 41.9376 734.25 42.4101 734.7 42.4101C735.9 42.4101 744.075 47.6751 746.625 50.1051C752.325 55.5051 755.025 60.8376 756.45 69.8826C757.575 76.4976 757.575 77.7126 756.45 84.0576C755.4 90.4701 752.925 96.8826 750.525 99.5151C739.8 111.598 726.15 116.593 700.875 117.808C685.95 118.55 660.75 117.133 658.125 115.378C657.75 115.108 655.425 114.433 653.1 113.96C650.7 113.488 648.75 112.813 648.75 112.543C648.75 112.273 647.775 111.868 646.65 111.598C642.15 110.72 631.8 102.958 629.85 99.0426C629.325 97.9626 628.65 97.0851 628.35 97.0851C628.125 97.0851 626.925 94.5876 625.725 91.4826C623.85 86.5551 623.625 85.0026 623.625 77.1726C623.625 69.2751 623.85 67.7901 625.8 62.4576C627 59.2176 628.275 56.5851 628.65 56.5851C628.95 56.5851 629.25 56.1801 629.25 55.6401C629.25 54.3576 636.9 46.9326 639.525 45.7851C640.65 45.2451 642.75 44.0976 644.175 43.2201C645.6 42.4101 647.325 41.7351 648.075 41.7351C648.9 41.7351 649.5 41.4651 649.5 41.1276C649.5 40.7901 651.3 40.1826 653.475 39.7101C655.575 39.2376 658.875 38.4276 660.75 37.9551C667.65 35.9976 690.3 35.1876 706.2 36.3351Z" fill="#009966"/>
<path d="M912 2.31513C904.35 3.12513 897.15 4.13763 895.875 4.54263C894.675 4.88013 891.45 5.55512 888.75 6.02762C886.125 6.50012 883.05 7.24263 882 7.78263C880.95 8.25513 879.675 8.66013 879.225 8.66013C877.125 8.66013 862.725 14.1951 856.875 17.3001C846.9 22.4301 835.575 32.5551 830.55 40.7226C828.525 44.0976 828 44.9751 826.575 47.8101C825.75 49.4976 824.175 54.0201 823.05 57.9351C821.175 64.4151 821.025 66.1026 821.025 77.1726C821.025 88.5126 821.175 89.7951 823.275 96.7476C827.025 109.1 832.125 117.133 841.8 125.773C848.1 131.443 853.125 134.75 860.25 138.058C862.5 139.07 864.525 140.083 864.75 140.353C864.975 140.555 866.475 141.163 868.125 141.635C869.775 142.108 871.8 142.85 872.625 143.323C873.45 143.728 876 144.538 878.25 145.01C880.5 145.483 882.75 146.09 883.125 146.36C883.575 146.63 885.9 147.238 888.375 147.643C890.85 148.115 893.55 148.723 894.375 149.06C895.2 149.398 900.075 150.14 905.25 150.748C910.425 151.288 916.8 152.098 919.5 152.435C922.2 152.773 925.275 153.11 926.475 153.11H928.5V135.223V117.335H925.275C920.925 117.335 909.6 115.985 908.625 115.31C908.25 115.04 906.375 114.635 904.5 114.365C898.95 113.623 887.625 108.155 883.05 104.038C875.85 97.4901 872.25 88.4451 872.25 77.1051C872.25 64.7526 876.45 55.1676 884.925 48.3501C889.725 44.4351 899.325 40.2501 905.25 39.3726C907.125 39.1026 909 38.6301 909.45 38.2926C909.9 37.9551 914.325 37.3476 919.35 36.8751L928.5 36.0651V18.3126C928.5 1.84262 928.425 0.560127 927.225 0.627627C926.475 0.695127 919.65 1.43763 912 2.31513Z" fill="#009966"/>
<path d="M1461 18.2451V36.0651L1470.15 36.8751C1475.18 37.3476 1479.6 37.9551 1480.05 38.2926C1480.5 38.5626 1482.38 39.0351 1484.18 39.3051C1490.33 40.1151 1500.75 44.8401 1505.78 49.0251C1513.95 55.9101 1517.25 64.0101 1517.25 77.1726C1517.25 88.9851 1514.1 97.1526 1507.2 103.498C1503.75 106.603 1496.63 111.26 1495.2 111.26C1494.9 111.26 1493.25 111.868 1491.53 112.543C1489.8 113.285 1487.03 114.028 1485.38 114.298C1483.73 114.568 1482.08 115.04 1481.63 115.31C1480.65 115.985 1469.25 117.335 1464.6 117.335H1461V135.223V153.11H1463.48C1464.75 153.11 1469.1 152.705 1473 152.165C1476.9 151.625 1483.35 150.815 1487.25 150.41C1491.15 149.938 1494.75 149.33 1495.13 149.06C1495.58 148.79 1498.28 148.183 1501.13 147.71C1504.05 147.238 1506.75 146.63 1507.13 146.36C1507.58 146.09 1509.6 145.483 1511.63 145.01C1513.73 144.538 1516.05 143.795 1516.88 143.39C1517.7 142.918 1519.8 142.175 1521.6 141.635C1523.33 141.163 1524.75 140.555 1524.75 140.285C1524.75 140.083 1525.95 139.475 1527.45 139.003C1531.65 137.653 1540.88 131.983 1546.65 127.258C1550.25 124.288 1557.75 116.188 1557.75 115.243C1557.75 114.973 1558.2 114.298 1558.73 113.825C1561.58 111.26 1566.45 99.1101 1567.5 91.9551C1567.95 89.0526 1568.63 84.3951 1569.08 81.6951C1569.6 78.2526 1569.6 75.3501 1569 71.5701C1568.55 68.7351 1567.88 64.2126 1567.43 61.5801C1566.15 53.5476 1562.4 45.1101 1556.48 36.9426C1552.95 32.0151 1543.73 23.7801 1537.88 20.2026C1530.68 15.8151 1518.53 10.6176 1510.88 8.66012C1509.23 8.25512 1507.2 7.64762 1506.38 7.31012C1505.55 6.97262 1502.85 6.36512 1500.38 5.96012C1497.9 5.55512 1495.2 4.94762 1494.38 4.61012C1493.55 4.27262 1486.95 3.39512 1479.75 2.58512C1472.55 1.84262 1465.35 1.03262 1463.85 0.830118L1461 0.425118V18.2451Z" fill="#009966"/>
<path d="M1866.75 1.30257C1864.05 1.64007 1856.85 2.51757 1850.62 3.19257C1839.52 4.54257 1830.9 5.96007 1819.12 8.59257C1810.95 10.3476 1799.85 13.1151 1798.5 13.6551C1797.9 13.8576 1795.95 14.4651 1794.22 14.9376L1791.15 15.7476L1796.32 25.1976C1799.1 30.3951 1801.5 35.0526 1801.5 35.4576C1801.5 35.9301 1801.8 36.3351 1802.17 36.3351C1802.55 36.3351 1803.3 37.4826 1803.82 38.8326C1804.27 40.2501 1804.95 41.5326 1805.25 41.7351C1805.62 41.9376 1806.3 43.0176 1806.82 44.2326L1807.87 46.3251L1815.22 44.4351C1819.35 43.3551 1824.45 42.2751 1826.7 42.0051C1828.95 41.8026 1830.75 41.3301 1830.75 41.0601C1830.75 40.7901 1834.2 40.1826 1838.47 39.7101C1842.67 39.2376 1846.5 38.6301 1846.87 38.2926C1848 37.5501 1863.82 36.4026 1879.87 35.9301C1892.85 35.5251 1913.4 36.3351 1918.2 37.4151L1920 37.8201V19.9326V2.04507L1918.35 1.57257C1915.8 0.830071 1872.37 0.560071 1866.75 1.30257Z" fill="#009966"/>
<path d="M94.425 27.3576C94.425 40.6551 94.275 61.1076 94.05 72.7851L93.75 94.0476L90.525 96.6126C84.15 101.81 66.525 110.585 60.45 111.598C58.95 111.868 57.75 112.34 57.75 112.61C57.75 112.88 55.5 113.488 52.725 113.96C49.875 114.433 47.25 115.04 46.875 115.378C46.425 115.648 42.075 116.188 37.125 116.593C28.125 117.268 14.25 116.66 12.45 115.445C12 115.108 10.2 114.5 8.4 114.028C6.675 113.623 5.25 112.948 5.25 112.61C5.25 112.205 4.875 111.935 4.35 111.935C3.9 111.935 2.7 111.26 1.725 110.45L0 109.033V131.038V153.11H13.875C23.025 153.11 29.625 152.773 33.225 152.165C36.225 151.625 41.4 150.815 44.85 150.343C48.225 149.938 51 149.398 51 149.128C51 148.858 53.1 148.25 55.725 147.778C58.275 147.305 60.75 146.698 61.125 146.36C61.575 146.09 63.225 145.483 64.875 145.01C72 142.985 82.8 138.193 90.975 133.4C93.375 131.983 95.55 130.835 95.85 130.835C96.15 130.835 97.575 129.958 99 128.81C100.425 127.73 102.225 126.853 102.9 126.785C103.65 126.785 105.375 128.405 107.025 130.633C111.675 137.045 120.525 143.998 127.5 146.765C128.1 146.968 129.975 147.778 131.625 148.453C133.275 149.128 137.025 150.14 139.875 150.748C142.8 151.288 146.475 152.03 148.125 152.435C152.85 153.448 179.175 153.245 185.475 152.165C188.475 151.625 193.275 150.815 196.125 150.41C199.05 149.938 201.75 149.33 202.125 149.06C202.575 148.79 204.75 148.183 207 147.71C209.25 147.238 211.5 146.63 211.875 146.36C212.325 146.09 214.275 145.28 216.375 144.605C218.4 143.93 221.25 142.85 222.675 142.175C224.175 141.5 225.75 140.96 226.275 140.96C226.8 140.96 227.25 140.69 227.25 140.353C227.25 140.015 228 139.475 228.9 139.205C230.775 138.665 241.65 132.455 246.675 129.013C249.15 127.325 250.2 126.988 250.65 127.595C250.95 128.068 251.25 133.535 251.25 139.745V151.085H274.5H297.75V77.1726V3.26012H274.5H251.25V46.2576C251.25 95.3301 251.925 90.4026 244.125 96.2076C235.275 102.688 219.675 110.585 213.6 111.598C212.025 111.868 210.75 112.34 210.75 112.61C210.75 112.88 208.65 113.488 206.1 113.893C203.475 114.365 200.625 115.04 199.65 115.378C194.325 117.268 168.15 117.335 165.45 115.378C165 115.108 163.65 114.635 162.375 114.365C159.75 113.758 154.05 110.585 151.8 108.425C148.95 105.658 146.4 101.54 144.825 97.3551C141.975 89.6601 141.525 82.1676 141.225 41.8701L141 3.26012H117.75H94.5L94.425 27.3576Z" fill="#009966"/>
<path d="M322.875 12.8451C322.65 18.1776 322.5 39.1701 322.725 59.6226C323.025 98.3001 323.55 105.793 326.55 110.923C327.225 112.07 327.75 113.353 327.75 113.825C327.75 114.635 330.675 120.305 333.3 124.558C336.75 130.16 345.3 137.855 352.875 142.175C355.5 143.66 365.175 147.71 366.075 147.71C366.525 147.71 367.95 148.115 369.225 148.655C370.575 149.195 376.125 150.41 381.675 151.355C390.45 152.908 393.6 153.11 407.625 153.11C416.4 153.11 425.325 152.773 427.575 152.435C429.75 152.03 435.075 151.288 439.425 150.68C443.775 150.14 447.675 149.398 448.125 149.128C448.5 148.858 450.9 148.25 453.375 147.778C455.85 147.305 458.25 146.63 458.625 146.36C459.075 146.09 461.1 145.348 463.125 144.808C469.575 142.985 486 136.1 488.925 134.008C489.45 133.603 490.5 132.928 491.325 132.523C494.775 130.768 502.5 125.773 502.5 125.3C502.5 125.03 502.875 124.76 503.25 124.76C503.7 124.76 504 129.62 504 137.923V151.085H527.625H551.25V77.1726V3.26012H527.625H504V45.0426V86.8251L499.275 90.7401C493.65 95.4651 486.225 99.9876 477.675 104.038C470.1 107.548 461.1 110.923 457.5 111.598C456.075 111.868 454.5 112.34 454.125 112.61C453.675 112.948 450.975 113.555 448.125 114.028C445.2 114.433 442.35 115.04 441.675 115.378C441 115.648 436.275 116.255 431.175 116.66C421.65 117.403 404.175 116.593 402.45 115.378C402 115.108 400.35 114.635 398.85 114.365C390.45 113.015 379.95 105.388 376.05 97.8951C375 95.8026 373.8 93.5076 373.425 92.9001C373.05 92.2251 372.45 89.5251 372 86.8251C371.55 84.1251 370.875 80.4126 370.5 78.6576C370.05 76.7676 369.75 59.6901 369.75 39.3051V3.26012H346.575H323.4L322.875 12.8451Z" fill="#009966"/>
<path d="M1581.75 20.4727V37.6852L1617.23 37.8202L1652.63 38.0227L1652.85 94.1827L1653 150.41H1676.63H1700.25V94.0477V37.6852H1735.5H1770.75V20.4727V3.26017H1676.25H1581.75V20.4727Z" fill="#009966"/>
<path d="M1039.12 38.2926C1037.85 38.5626 1035.9 39.3726 1034.77 39.9801C1033.12 40.9926 1032.9 41.3976 1033.57 42.4776C1034.47 44.0301 1034.17 44.0301 1037.47 42.7476C1038.97 42.2076 1042.42 41.7351 1045.12 41.7351C1049.47 41.7351 1050.3 41.9376 1051.87 43.4901C1053.22 44.7726 1053.75 46.0551 1053.75 47.8776V50.5101H1046.32C1040.17 50.5101 1038.37 50.7801 1036.27 51.8601C1029.45 55.5051 1031.1 64.1451 1038.97 66.1026C1043.55 67.1826 1049.4 66.3051 1052.02 64.1451L1054.12 62.3901L1054.35 64.2126C1054.57 65.6976 1054.95 66.0351 1056.82 66.0351H1059V57.0576C1058.92 46.7301 1058.17 42.7476 1055.62 40.6551C1052.4 38.0226 1045.27 37.0101 1039.12 38.2926ZM1053.75 55.9776C1053.75 59.6901 1052.7 61.1751 1049.02 62.7276C1045.05 64.3476 1042.72 64.3476 1039.8 62.7276C1037.02 61.1751 1036.05 58.6101 1037.4 56.0451C1038.52 53.9526 1040.62 53.4126 1048.35 53.2776L1053.75 53.2101V55.9776Z" fill="#009966"/>
<path d="M1082.25 38.4951C1080.83 38.8326 1079.25 39.7101 1078.65 40.4526C1077.15 42.3426 1074.75 42.1401 1074.75 40.0476C1074.75 38.6976 1074.38 38.3601 1072.88 38.3601H1071V57.9351V77.5101H1073.25H1075.5V70.0851C1075.5 61.9851 1075.8 61.5801 1079.25 64.2801C1083.83 67.7226 1093.5 67.1151 1098.08 63.0651C1102.35 59.2851 1102.8 58.4751 1103.1 54.0876C1103.55 47.8101 1102.88 45.7176 1099.2 42.2076C1094.85 38.0226 1089 36.7401 1082.25 38.4951ZM1092.38 42.4776C1098.3 44.4351 1100.55 53.7501 1096.35 58.7451C1095.15 60.2301 1092.9 61.6476 1091.03 62.3226C1083.45 64.8876 1075.5 59.6901 1075.5 52.1976C1075.5 48.1476 1078.73 43.3551 1082.25 42.2076C1084.28 41.5326 1089.98 41.7351 1092.38 42.4776Z" fill="#009966"/>
<path d="M1147.5 38.2926C1146.08 38.5626 1143.98 39.3051 1142.85 39.9801C1141.13 40.9926 1140.9 41.3976 1141.58 42.4776C1142.48 44.0301 1142.18 44.0301 1145.48 42.7476C1148.55 41.6001 1155.45 41.3976 1158.23 42.3426C1159.35 42.7476 1160.55 44.0301 1161.23 45.7176C1163.25 50.1726 1162.65 50.5101 1154.18 50.5101C1147.43 50.5101 1146.45 50.6451 1143.83 52.2651C1140.9 54.0201 1140 55.4376 1140 58.7451C1140 63.8751 1143.9 66.3726 1151.78 66.3726C1156.73 66.3051 1157.4 66.1701 1159.43 64.4151L1161.68 62.4576L1162.2 64.2801C1162.58 65.6976 1163.1 66.0351 1164.9 66.0351H1167.15L1166.85 55.3701C1166.55 44.5026 1166.1 42.7476 1163.1 40.1151C1160.55 37.9551 1153.88 37.1451 1147.5 38.2926ZM1162.35 55.3701C1162.73 58.2051 1160.55 61.2426 1157.03 62.7276C1152.98 64.3476 1150.73 64.3476 1147.73 62.6601C1144.8 61.0401 1143.83 58.4076 1145.33 55.9776C1146.68 53.8851 1149.08 53.3451 1156.5 53.4126C1161.98 53.5476 1162.13 53.6151 1162.35 55.3701Z" fill="#009966"/>
<path d="M960 52.1977V66.0352H962.25H964.425L964.65 60.0952L964.875 54.2227L968.325 54.0202C972.3 53.8177 971.925 53.5477 978.375 60.9052C982.575 65.6302 983.1 66.0352 985.65 66.0352C988.275 66.0352 988.425 65.9677 987.375 64.8202C986.775 64.2127 984.6 61.7152 982.575 59.2852C980.475 56.8552 978.3 54.4252 977.625 53.8177C976.125 52.4002 976.2 51.0502 977.85 49.2952C978.6 48.5527 979.875 47.0677 980.7 46.1227C981.45 45.1102 983.25 43.0177 984.525 41.5327L987 38.6977L984.6 38.4952C983.25 38.3602 982.05 38.5627 981.9 38.9677C981.75 39.3052 980.775 40.6552 979.65 41.9377C978.525 43.1527 976.95 45.0427 976.125 46.1227C972.975 50.1727 972.15 50.5777 968.4 50.3752L964.875 50.1727L964.65 44.2327L964.425 38.3602H962.25H960V52.1977Z" fill="#009966"/>
<path d="M996.75 52.1977V66.0352H1006.43C1011.75 66.0352 1017 65.8327 1018.2 65.6302C1020.83 65.1577 1024.5 61.1077 1024.5 58.7452C1024.5 56.7877 1021.13 52.5352 1019.55 52.5352C1018.2 52.5352 1018.2 51.2527 1019.55 50.7802C1020.15 50.5777 1021.2 49.3627 1021.88 48.0802C1023.45 45.0427 1022.78 42.2752 1019.85 40.0477C1017.75 38.4277 1017.3 38.3602 1007.18 38.3602H996.75V52.1977ZM1016.7 42.4777C1018.05 43.4902 1018.05 47.2027 1016.7 48.8902C1015.8 49.9702 1014.53 50.2402 1008.45 50.3752L1001.25 50.6452V46.3252C1001.25 43.8952 1001.48 41.7352 1001.85 41.4652C1002.68 40.6552 1015.43 41.5327 1016.7 42.4777ZM1017.9 55.0327C1019.78 56.5177 1019.63 60.0952 1017.68 61.7152C1016.33 62.7952 1014.9 62.9977 1008.83 62.9977H1001.63L1001.4 58.4077L1001.18 53.8852H1008.83C1014.9 53.8852 1016.78 54.0877 1017.9 55.0327Z" fill="#009966"/>
<path d="M1106.25 40.0477C1106.25 41.7352 1106.33 41.7352 1112.25 41.7352H1118.25V53.8852V66.0352H1120.88H1123.5V53.8852V41.7352H1129.5C1135.43 41.7352 1135.5 41.7352 1135.5 40.0477V38.3602H1120.88H1106.25V40.0477Z" fill="#009966"/>
<path d="M1181.7 40.5201C1181.48 41.7351 1181.1 45.9201 1180.88 49.8351C1180.35 58.5426 1179.53 61.0401 1176.75 62.3226C1175.63 62.8626 1174.5 63.0651 1174.2 62.8626C1173.98 62.5926 1173.75 63.4026 1173.75 64.5501C1173.75 66.3726 1174.05 66.7101 1175.55 66.7101C1182.6 66.7101 1184.85 61.3101 1185.75 42.2076C1185.75 41.9376 1189.13 41.7351 1193.25 41.7351H1200.75V53.8851V66.0351H1203H1205.25V52.1976V38.3601H1193.63H1182.08L1181.7 40.5201Z" fill="#009966"/>
<path d="M1854.75 57.2601C1854.15 57.5976 1852.13 57.9351 1850.25 58.0026C1843.13 58.0701 1824.3 61.1751 1819.88 62.9976C1818.68 63.4701 1816.65 64.1451 1815.38 64.4151C1814.18 64.6851 1812.3 65.2926 1811.25 65.7651C1810.2 66.2376 1807.35 67.5201 1804.88 68.6001C1792.73 73.9326 1785.6 80.6826 1779.6 92.6976C1778.03 95.7351 1777.88 97.0851 1777.88 107.21C1777.88 117.943 1777.95 118.55 1780.05 123.073C1785.3 134.615 1791 140.15 1803.75 145.753C1806 146.765 1808.93 147.845 1810.13 148.115C1811.4 148.385 1812.75 148.79 1813.13 149.06C1813.58 149.33 1818.68 150.41 1824.53 151.355C1834.13 152.908 1837.05 153.11 1853.03 153.11C1862.85 153.11 1873.05 152.773 1875.75 152.435C1878.45 152.03 1884.53 151.288 1889.25 150.748C1893.98 150.208 1898.55 149.465 1899.38 149.06C1900.2 148.723 1902.75 148.115 1905 147.71C1907.25 147.373 1911.6 146.36 1914.6 145.55L1920 143.998V130.025C1920 119.225 1919.78 115.985 1919.1 115.985C1918.58 116.053 1915.13 116.66 1911.38 117.403C1907.7 118.078 1900.95 119.158 1896.38 119.765C1891.88 120.305 1886.78 121.183 1885.13 121.588C1881.08 122.668 1843.43 122.735 1841.93 121.655C1841.33 121.25 1839.53 120.643 1837.88 120.44C1832.93 119.63 1827.75 116.458 1825.65 112.813C1824.08 110.248 1823.78 104.105 1825.05 100.325C1826.48 95.8701 1832.33 90.7401 1837.5 89.3901C1838.55 89.1201 1840.43 88.4451 1841.63 87.9726C1842.9 87.5001 1846.58 86.7576 1849.88 86.2851C1853.18 85.8801 1857.23 85.1376 1858.88 84.7326C1862.93 83.6526 1903.8 83.6526 1906.88 84.7326C1908.15 85.1376 1911.6 85.6776 1914.6 85.8801L1920 86.2851V72.9201V59.4876L1909.73 58.6776C1904.03 58.2726 1898.33 57.5976 1897.05 57.2601C1894.05 56.3826 1856.25 56.3826 1854.75 57.2601Z" fill="#009966"/>
<path d="M1400.25 80.615C1400.25 80.8175 1400.78 82.0325 1401.45 83.315C1403.25 86.69 1407.83 87.5675 1414.65 85.88C1415.7 85.61 1418.25 81.8975 1418.25 80.615C1418.25 79.3325 1415.4 80.5475 1414.35 82.1675C1412.03 85.88 1404.6 85.4075 1403.48 81.4925C1403.1 80.345 1400.25 79.6025 1400.25 80.615Z" fill="#009966"/>
<path d="M1006.88 91.9552C1000.58 93.7102 998.625 95.2627 996 100.258C993.3 105.455 994.65 112.273 999.3 116.39C1001.55 118.483 1007.7 120.71 1011 120.71C1014.45 120.71 1020.38 118.55 1022.63 116.458C1028.85 110.855 1029 100.73 1022.85 95.5327C1019.25 92.3602 1011.45 90.6727 1006.88 91.9552ZM1019.33 98.3677C1023.45 102.553 1023.98 107.345 1020.75 112.138C1018.58 115.378 1015.73 116.66 1010.78 116.66C1006.58 116.66 1006.28 116.525 1003.2 113.623C1001.1 111.665 999.825 109.775 999.525 108.223C999 105.455 999.675 101.135 1000.58 101.135C1000.95 101.135 1001.25 100.73 1001.25 100.258C1001.25 99.1102 1003.13 97.5577 1006.13 96.0727C1007.7 95.3302 1009.65 95.0602 1012.5 95.2627C1016.18 95.5327 1016.85 95.8027 1019.33 98.3677Z" fill="#009966"/>
<path d="M1041.75 91.4152C1035.3 93.3052 1034.4 93.7777 1034.78 95.1277C1035.08 96.2077 1035.6 96.4102 1036.8 96.0727C1037.63 95.8027 1040.93 95.4652 1044 95.3302C1051.43 94.9252 1053.38 95.7352 1053.38 99.4477C1053.38 101.743 1053.08 102.283 1051.13 103.093C1049.93 103.633 1047.3 104.173 1045.35 104.375C1040.85 104.78 1040.25 106.535 1044.6 106.535C1048.88 106.603 1053 107.615 1054.13 109.033C1056.75 112.138 1054.43 115.513 1049.03 116.66C1045.43 117.335 1037.55 116.525 1036.2 115.31C1034.93 114.163 1033.73 114.568 1033.35 116.323C1032.98 117.808 1033.35 118.078 1036.05 118.82C1037.7 119.225 1039.43 119.833 1039.88 120.17C1040.25 120.44 1042.65 120.71 1045.13 120.71C1052.7 120.71 1060.5 116.39 1060.5 112.205C1060.5 110.383 1057.35 106.805 1055.1 106.198C1053.68 105.725 1053.68 105.658 1055.85 103.835C1060.95 99.6502 1059.53 94.7227 1052.63 92.4277C1048.73 91.0777 1044.3 90.6727 1041.75 91.4152Z" fill="#009966"/>
<path d="M1129.87 91.6176C1126.65 92.3601 1121.85 94.7226 1120.35 96.2751C1118.25 98.5701 1117.57 100.19 1117.05 103.903C1116.15 110.99 1119.15 116.12 1125.97 119.09C1132.87 122.06 1140.45 120.575 1145.55 115.175C1148.62 112.003 1149.3 109.505 1148.85 103.835C1148.62 100.663 1148.1 99.3126 1146.3 97.2876C1142.62 93.1701 1134.97 90.5376 1129.87 91.6176ZM1140 97.0851C1142.85 98.9076 1144.5 102.08 1144.5 105.86C1144.5 109.708 1142.92 112.678 1139.7 114.905C1137.15 116.593 1136.4 116.795 1132.27 116.525C1128.6 116.323 1127.17 115.918 1125.6 114.568C1118.85 108.898 1120.42 99.0426 1128.67 95.6001C1131 94.5876 1137.45 95.4651 1140 97.0851Z" fill="#009966"/>
<path d="M1262.63 91.6851C1253.85 93.7101 1249.5 98.4351 1249.5 105.86C1249.5 112.138 1252.65 116.525 1259.1 119.09C1264.2 121.183 1267.58 121.115 1272.75 118.955C1277.93 116.795 1281.6 112.34 1282.28 107.345C1282.73 103.498 1280.63 98.3001 1277.4 95.5326C1273.8 92.4276 1266.98 90.6726 1262.63 91.6851ZM1272.38 97.0176C1275.75 99.3126 1277.25 102.148 1277.25 105.928C1277.25 109.438 1276.13 111.733 1272.83 114.568C1271.4 115.85 1269.98 116.323 1266.6 116.525C1262.85 116.795 1261.8 116.593 1259.25 115.04C1257.6 114.095 1256.25 112.813 1256.25 112.34C1256.25 111.8 1255.8 111.26 1255.35 111.058C1253.93 110.653 1254.08 101.81 1255.5 100.258C1259.78 95.6676 1261.28 94.9926 1266.45 95.2626C1269 95.3976 1271.03 96.0051 1272.38 97.0176Z" fill="#009966"/>
<path d="M1300.12 92.4276C1295.02 93.9801 1292.02 96.2076 1290.75 99.3801C1290.3 100.528 1289.55 102.013 1289.17 102.62C1288.05 104.51 1288.42 107.548 1290.07 111.058C1292.02 115.243 1294.05 117.133 1298.55 119.09C1302.37 120.71 1308.97 121.318 1309.87 120.103C1310.1 119.765 1311.22 119.293 1312.35 119.023C1313.47 118.82 1315.35 117.808 1316.4 116.728L1318.42 114.838L1316.55 114.028C1314.97 113.42 1314.3 113.555 1311.75 115.04C1309.2 116.593 1308.15 116.795 1304.47 116.525C1299.52 116.255 1297.42 114.973 1295.17 111.125C1291.2 104.173 1295.85 95.9376 1304.25 95.1951C1307.92 94.9251 1313.02 96.4776 1313.77 98.1651C1314.07 98.8401 1314.52 98.8401 1315.95 98.3001C1316.92 97.8951 1317.75 97.2876 1317.75 96.9501C1317.75 95.1951 1311.9 92.2251 1306.87 91.4151C1305.52 91.2126 1302.75 91.6176 1300.12 92.4276Z" fill="#009966"/>
<path d="M1365.38 91.6176C1357.2 93.4401 1353 98.2326 1353 105.793C1353 112.678 1355.55 116.255 1362.6 119.09C1367.7 121.183 1371.98 121.183 1376.78 119.023C1381.35 117.065 1381.8 116.593 1380.45 114.973C1379.48 113.758 1379.33 113.825 1376.85 115.175C1372.95 117.403 1366.28 117.268 1362.45 114.905C1359.98 113.353 1357.5 109.91 1357.5 107.885C1357.5 107.48 1362.08 107.21 1370.63 107.21H1383.75V104.173C1383.75 96.4776 1373.93 89.7951 1365.38 91.6176ZM1373.85 96.0051C1376.7 97.3551 1378.58 99.5826 1379.03 102.215L1379.48 104.51H1368.45C1362.45 104.51 1357.5 104.308 1357.5 103.97C1357.5 101.675 1359.45 98.5026 1361.78 96.8826C1364.93 94.7901 1370.4 94.3851 1373.85 96.0051Z" fill="#009966"/>
<path d="M960 106.265V120.845L968.85 120.508C983.175 120.035 987 118.28 987 112.138C987 110.248 986.4 109.303 984.225 107.48L981.375 105.118L983.625 103.565C985.575 102.148 985.875 101.473 985.875 98.7726C985.875 93.3051 981.975 91.6851 968.475 91.6851H960V106.265ZM979.65 96.2076C980.475 96.8826 981 98.2326 981 99.8526C981 102.08 980.7 102.553 978.45 103.498C976.725 104.24 974.325 104.51 970.425 104.375L964.875 104.173L964.65 99.5826L964.425 95.0601H971.325C976.725 95.0601 978.525 95.3301 979.65 96.2076ZM980.1 108.29C982.05 109.505 982.425 113.96 980.625 115.58C979.2 116.795 974.475 117.47 969 117.2L964.875 116.998L964.65 112.07L964.425 107.21H971.4C976.575 107.21 978.9 107.48 980.1 108.29Z" fill="#009966"/>
<path d="M1070.62 92.4951C1070.4 93.0351 1070.32 99.4476 1070.4 106.873L1070.62 120.373L1072.72 120.575L1074.75 120.778V110.315C1074.75 104.578 1075.05 99.7176 1075.35 99.5151C1075.72 99.3126 1078.12 102.418 1080.75 106.4C1083.3 110.383 1085.92 114.298 1086.52 115.108C1087.87 117.133 1089.6 117.065 1090.65 114.973C1091.1 114.028 1091.77 113.285 1092.07 113.285C1092.37 113.285 1092.9 112.678 1093.12 111.868C1093.72 110.113 1098.15 103.565 1098.97 103.295C1099.27 103.16 1099.5 102.688 1099.5 102.215C1099.5 101.743 1100.17 100.798 1101 100.123C1102.5 98.9076 1102.5 98.9751 1102.5 109.775V120.71H1104.75H1107V106.198V91.6851H1104.52C1102.35 91.6851 1101.82 92.0901 1099.65 95.5326C1098.3 97.6926 1096.35 100.663 1095.37 102.148C1094.32 103.633 1092.6 106.265 1091.55 108.02C1090.42 109.843 1089.15 111.26 1088.7 111.26C1088.02 111.26 1083.67 104.848 1077.37 94.5201C1076.17 92.5626 1075.35 91.9551 1073.4 91.8201C1071.9 91.6851 1070.85 91.9551 1070.62 92.4951Z" fill="#009966"/>
<path d="M1155 92.1577C1155 92.4952 1155.67 93.4402 1156.5 94.3852C1157.32 95.3302 1158 96.4102 1158 96.8827C1158 97.2877 1158.22 97.7602 1158.6 97.8952C1159.5 98.2327 1164 104.51 1164 105.388C1164 106.13 1160.55 111.193 1158.75 113.083C1158.37 113.555 1157.62 114.703 1157.1 115.648C1156.65 116.593 1156.05 117.335 1155.75 117.335C1155.45 117.335 1154.85 118.078 1154.4 119.023C1153.57 120.643 1153.65 120.71 1156.05 120.71C1158.37 120.71 1158.9 120.305 1162.42 115.445C1168.65 107.008 1168.42 107.21 1171.42 107.21C1175.47 107.21 1176 108.02 1176 114.77C1176 120.643 1176 120.71 1177.87 120.71C1180.05 120.71 1180.42 119.765 1180.65 112.61L1180.87 107.548L1184.02 107.345C1187.1 107.143 1187.1 107.143 1190.55 111.935C1192.42 114.568 1194 116.863 1194 116.998C1194 117.133 1194.82 118.078 1195.8 119.023C1197.22 120.373 1198.2 120.778 1200 120.575L1202.4 120.373L1197.07 113.218C1191.67 105.928 1190.85 104.105 1192.87 103.43C1193.47 103.16 1194 102.755 1194 102.418C1194 102.08 1195.5 99.7177 1197.37 97.0852C1199.25 94.4527 1200.75 92.2252 1200.75 92.0227C1200.75 91.8202 1199.85 91.6852 1198.65 91.6852C1196.92 91.6852 1196.1 92.4277 1193.25 96.4102C1187.4 104.645 1187.47 104.578 1183.95 104.375L1180.87 104.173L1180.5 98.0977C1180.12 92.0902 1180.12 92.0227 1178.1 91.8202L1176 91.6177V97.2202C1176 103.633 1175.47 104.51 1171.42 104.51C1168.42 104.51 1168.5 104.578 1162.72 96.5452C1159.72 92.4277 1158.82 91.6852 1157.1 91.6852C1155.9 91.6852 1155 91.8877 1155 92.1577Z" fill="#009966"/>
<path d="M1210.5 106.198V120.71H1212.75H1215V114.298V107.818L1224.98 108.02L1234.88 108.223L1235.1 114.433L1235.33 120.71H1237.5H1239.75V106.198V91.6852H1237.5H1235.25V97.7602C1235.25 104.983 1235.85 104.645 1223.63 104.375L1215.38 104.173L1215.15 97.8952L1214.93 91.6852H1212.75H1210.5V106.198Z" fill="#009966"/>
<path d="M1320.75 93.3052C1320.75 94.9927 1320.9 94.9927 1326.97 95.1952L1333.12 95.3977L1333.35 108.02L1333.5 120.71H1335.75H1338V107.885V95.0602H1344.07C1349.92 95.0602 1350.07 94.9927 1349.85 93.5077C1349.62 92.0227 1349.55 92.0227 1335.22 91.8202L1320.75 91.6852V93.3052Z" fill="#009966"/>
<path d="M1395 106.198V120.71H1396.8C1397.85 120.71 1399.13 120.17 1399.65 119.428C1400.18 118.753 1401.98 116.795 1403.63 115.108C1405.28 113.42 1407.68 110.923 1408.88 109.505C1410.15 108.155 1412.25 105.928 1413.6 104.645C1414.88 103.43 1416 102.148 1416 101.878C1416 101.27 1418.55 99.1101 1419.23 99.1101C1419.53 99.1101 1419.83 103.903 1419.9 109.708L1420.13 120.373L1422.23 120.575L1424.25 120.778V106.265V91.6851H1422.23C1420.58 91.6851 1419.23 92.6301 1416 96.2076C1413.75 98.6376 1411.35 101.203 1410.68 101.743C1410 102.35 1407.83 104.645 1405.88 106.873C1400.63 112.745 1399.73 113.488 1399.2 112.205C1398.98 111.598 1398.75 106.738 1398.75 101.405V91.6851H1396.88H1395V106.198Z" fill="#009966"/>
</svg>
