<svg width="246" height="47" viewBox="0 0 246 47" fill="none" xmlns="http://www.w3.org/2000/svg">
<g clip-path="url(#clip0_10132_15576)">
<path fill-rule="evenodd" clip-rule="evenodd" d="M224.972 1.3208H214.688V7.16385H224.972V7.16559C233.278 7.88011 239.792 14.7386 239.792 23.094C239.792 31.4518 233.278 38.4517 224.972 39.1702H220.525V18.8856H223.488V18.9148C223.52 18.9148 223.549 18.9095 223.583 18.9095C226.036 18.9095 228.027 20.8704 228.027 23.2857C228.027 25.7015 226.036 27.6624 223.583 27.6624C223.551 27.6624 223.521 27.6571 223.488 27.6571V33.4945C229.219 33.4945 233.863 28.9235 233.863 23.2857C233.863 17.6497 229.219 13.0774 223.488 13.0774H214.596V45.1602H224.972V45.1432C236.608 44.3905 245.814 34.8727 245.814 23.2314C245.814 11.5909 236.608 2.0714 224.972 1.3208Z" fill="white"/>
<path fill-rule="evenodd" clip-rule="evenodd" d="M164.366 19.4781C158.023 19.4781 157.893 12.3361 157.893 10.5444C157.893 8.72526 158.021 1.58496 164.366 1.58496C170.71 1.58496 170.839 8.80093 170.839 10.5444C170.839 12.3361 170.71 19.4781 164.366 19.4781ZM166.825 10.5209C166.825 8.13252 166.898 5.64717 164.402 5.64717C161.908 5.64717 161.864 8.19427 161.864 10.5583C161.864 12.5992 161.779 15.3894 164.402 15.3894C167.03 15.3894 166.825 12.56 166.825 10.5209Z" fill="white"/>
<path fill-rule="evenodd" clip-rule="evenodd" d="M164.366 19.4781C158.023 19.4781 157.893 12.3361 157.893 10.5444C157.893 8.72526 158.021 1.58496 164.366 1.58496C170.71 1.58496 170.839 8.80093 170.839 10.5444C170.839 12.3361 170.71 19.4781 164.366 19.4781ZM166.825 10.5209C166.825 8.13252 166.898 5.64717 164.402 5.64717C161.908 5.64717 161.864 8.19427 161.864 10.5583C161.864 12.5992 161.779 15.3894 164.402 15.3894C167.03 15.3894 166.825 12.56 166.825 10.5209Z" fill="white"/>
<path fill-rule="evenodd" clip-rule="evenodd" d="M141.963 45.775C133.971 45.775 133.809 36.7782 133.809 34.5221C133.809 32.2342 133.971 23.2378 141.963 23.2378C149.954 23.2378 150.117 32.328 150.117 34.5221C150.117 36.7782 149.954 45.775 141.963 45.775ZM145.061 34.4929C145.061 31.4839 145.154 28.3524 142.01 28.3524C138.866 28.3524 138.814 31.5626 138.814 34.5403C138.814 37.1099 138.703 40.6247 142.01 40.6247C145.318 40.6247 145.061 37.0635 145.061 34.4929Z" fill="white"/>
<path fill-rule="evenodd" clip-rule="evenodd" d="M141.963 45.775C133.971 45.775 133.809 36.7782 133.809 34.5221C133.809 32.2342 133.971 23.2378 141.963 23.2378C149.954 23.2378 150.117 32.328 150.117 34.5221C150.117 36.7782 149.954 45.775 141.963 45.775ZM145.061 34.4929C145.061 31.4839 145.154 28.3524 142.01 28.3524C138.866 28.3524 138.814 31.5626 138.814 34.5403C138.814 37.1099 138.703 40.6247 142.01 40.6247C145.318 40.6247 145.061 37.0635 145.061 34.4929Z" fill="white"/>
<path fill-rule="evenodd" clip-rule="evenodd" d="M175.584 19.3125H171.576L171.6 1.83643H175.61L175.584 19.3125Z" fill="white"/>
<path d="M156.966 1.79199H152.959V19.3289H156.966V1.79199Z" fill="white"/>
<path d="M137.343 1.82959H133.334V19.1756H137.343V1.82959Z" fill="white"/>
<path d="M155.126 1.78711H146.906V5.76844H155.126V1.78711Z" fill="white"/>
<path d="M178.937 15.3364H172.217V19.3182H178.937V15.3364Z" fill="white"/>
<path d="M209.582 1.74463H205.572V19.3642H209.582V1.74463Z" fill="white"/>
<path fill-rule="evenodd" clip-rule="evenodd" d="M206.59 5.62457V7.1649C206.627 6.91485 206.651 6.65698 206.651 6.39561C206.651 6.13207 206.627 5.87723 206.59 5.62457ZM204.092 5.75285C203.194 5.75285 202.238 6.48389 202.238 7.5937C202.238 8.6996 202.985 9.75985 203.884 9.75985L204.093 9.79376H205.541C204.773 10.7292 203.666 11.1545 202.452 11.1545C200.132 11.1545 198.25 9.02489 198.25 6.39561C198.25 3.76806 200.088 1.83154 202.409 1.83154C204.485 1.83154 206.473 3.51018 206.811 5.75329L204.092 5.75285Z" fill="white"/>
<path fill-rule="evenodd" clip-rule="evenodd" d="M206.946 1.83643H202.318L202.335 5.58552H206.96L206.946 1.83643Z" fill="white"/>
<path d="M206.863 9.74414H201.266V13.6624H206.863V9.74414Z" fill="white"/>
<path fill-rule="evenodd" clip-rule="evenodd" d="M201.726 15.8753C201.726 15.8753 202.266 14.7968 202.27 14.7624C202.359 14.118 202.704 13.6718 203.163 13.5661C202.97 12.3658 202.119 11.0155 201.136 10.8855C199.835 10.7111 198.588 11.9931 198.349 13.7488C198.113 15.503 198.976 17.0652 200.275 17.2395C201.013 17.3369 201.728 16.9643 201.567 17.2409L201.726 15.8753Z" fill="white"/>
<path fill-rule="evenodd" clip-rule="evenodd" d="M202.334 14.2639L201.659 19.3651H197.543L198.388 13.4863L202.334 14.2639Z" fill="white"/>
<path d="M209.624 23.332H204.66V45.4025H209.624V23.332Z" fill="white"/>
<path d="M183.532 23.3315H178.568V45.4022H183.532V23.3315Z" fill="white"/>
<path d="M193.612 23.332H188.646V45.4025H193.612V23.332Z" fill="white"/>
<path fill-rule="evenodd" clip-rule="evenodd" d="M183.903 45.464H180.381L187.583 23.3931H191.107L183.903 45.464Z" fill="white"/>
<path fill-rule="evenodd" clip-rule="evenodd" d="M205.876 28.2671V30.1872C205.921 29.8762 205.95 29.5548 205.95 29.2269C205.95 28.9012 205.921 28.5802 205.876 28.2671ZM202.501 28.221H205.87C205.447 25.4226 203.319 23.293 200.749 23.293C197.875 23.293 195.545 25.951 195.545 29.2265C195.545 32.5051 197.875 35.163 200.749 35.163C202.253 35.163 203.605 34.4286 204.554 33.2608H202.501V33.2195C201.387 33.2195 200.483 32.1036 200.483 30.7221C200.483 29.3409 201.387 28.221 202.501 28.221Z" fill="white"/>
<path d="M206.33 23.3315H200.6V28.2187H206.33V23.3315Z" fill="white"/>
<path d="M206.212 33.2598H199.283V38.1469H206.212V33.2598Z" fill="white"/>
<path fill-rule="evenodd" clip-rule="evenodd" d="M199.85 41.0489C199.85 41.0489 200.518 39.7051 200.525 39.6607C200.634 38.8571 201.061 38.3035 201.63 38.1699C201.389 36.6726 200.337 34.9901 199.119 34.8266C197.506 34.6109 195.962 36.2092 195.67 38.3974C195.376 40.584 196.443 42.5339 198.053 42.7514C198.965 42.8745 199.852 42.4079 199.654 42.7535L199.85 41.0489Z" fill="white"/>
<path fill-rule="evenodd" clip-rule="evenodd" d="M200.6 39.0409L199.766 45.4018H194.668L195.714 38.0698L200.6 39.0409Z" fill="white"/>
<path fill-rule="evenodd" clip-rule="evenodd" d="M197.234 19.3638L192.845 1.83643H188.918L193.287 19.3638H197.234Z" fill="white"/>
<path fill-rule="evenodd" clip-rule="evenodd" d="M182.533 19.3638L186.934 1.83643H190.86L186.481 19.3638H182.533Z" fill="white"/>
<path d="M193.179 11.4512H187.053V15.4447H193.179V11.4512Z" fill="white"/>
<path fill-rule="evenodd" clip-rule="evenodd" d="M178.841 1.82959C177.053 1.82959 175.517 3.15989 175.148 5.18861H176.477C177.422 5.18861 178.185 5.95618 178.185 6.90378C178.185 7.85052 177.422 8.61677 176.477 8.61677C176.35 8.61677 176.227 8.59807 176.108 8.57024H175.639C176.302 9.83704 177.463 10.6816 178.793 10.6816C180.86 10.6816 182.533 8.65765 182.533 6.16013C182.533 3.66262 180.908 1.82959 178.841 1.82959Z" fill="white"/>
<path fill-rule="evenodd" clip-rule="evenodd" d="M179.071 19.3183C177.193 19.3183 175.63 17.33 175.242 15.277H176.64C177.633 15.277 178.433 14.5006 178.433 13.5405C178.433 12.5829 177.633 11.8053 176.64 11.8053C176.503 11.8053 176.375 11.824 176.249 11.8532H175.757C176.454 10.5711 177.672 9.72137 179.071 9.71441C181.616 9.70094 183.002 12.2124 183.002 14.7403C183.002 17.2697 181.242 19.3183 179.071 19.3183Z" fill="white"/>
<path fill-rule="evenodd" clip-rule="evenodd" d="M178.418 1.87646H175.49L175.506 5.19764H178.432L178.418 1.87646Z" fill="white"/>
<path d="M178.498 8.54004H175.381V11.9451H178.498V8.54004Z" fill="white"/>
<path d="M150.926 1.80371H146.918V12.2556H150.926V1.80371Z" fill="white"/>
<path fill-rule="evenodd" clip-rule="evenodd" d="M147.291 5.81445C147.144 5.81445 147 5.83838 146.856 5.87273V11.1835C146.891 11.4488 146.846 11.8863 146.846 12.1715C146.846 13.9837 146.136 15.2883 145.172 15.2883C144.924 15.2883 144.694 15.1871 144.48 15.0143L144.548 19.1252C145.49 19.6454 146.904 19.5289 147.28 19.5289C149.276 19.5289 150.912 16.3663 150.912 12.5881C150.91 8.80948 149.289 5.81445 147.291 5.81445Z" fill="white"/>
<path d="M143.556 1.80225H133.316V5.74965H143.556V1.80225Z" fill="white"/>
<path d="M143.556 15.394H133.316V19.3841H143.556V15.394Z" fill="white"/>
<path d="M122.861 15.3892H118.826V21.6419H122.861V15.3892Z" fill="white"/>
<path d="M132.087 15.439H128.053V21.6425H132.087V15.439Z" fill="white"/>
<path d="M143.039 8.4458H133.369V12.2871H143.039V8.4458Z" fill="white"/>
<path fill-rule="evenodd" clip-rule="evenodd" d="M131.072 15.4505V1.82959L121.285 1.85394L121.302 5.80439V9.8253H121.292C121.285 10.4441 121.196 11.1582 121.015 11.9075C120.754 12.986 120.355 14.8325 119.93 15.4509H118.865V19.3653H132.095V15.4509L131.072 15.4505ZM127.063 15.4505H123.869C124.218 14.7872 124.354 13.3583 124.591 12.382C124.698 11.9445 124.909 10.4163 124.925 9.57351H124.932V5.80397H127.063V15.4505Z" fill="white"/>
<path fill-rule="evenodd" clip-rule="evenodd" d="M163.122 38.7862C162.216 39.3027 161.029 39.6206 160.31 39.6206C158.2 39.6206 156.492 37.1523 156.492 34.1125C156.492 31.07 158.2 28.6047 160.31 28.6047C161.14 28.6047 162.209 28.8643 163.122 29.3957V23.9054C162.032 23.3227 160.603 23.0013 158.72 23.0135C153.709 23.0439 150.879 28.0307 150.879 34.2186C150.879 40.4069 153.818 45.4241 158.72 45.4241C160.604 45.4241 162.032 45.0753 163.122 44.46V38.7862Z" fill="white"/>
<path fill-rule="evenodd" clip-rule="evenodd" d="M176.22 38.7862C175.312 39.3027 174.126 39.6206 173.405 39.6206C171.297 39.6206 169.586 37.1523 169.586 34.1125C169.586 31.07 171.297 28.6047 173.405 28.6047C174.236 28.6047 175.307 28.8643 176.22 29.3957V23.9054C175.129 23.3227 173.699 23.0013 171.815 23.0135C166.806 23.0439 163.977 28.0307 163.977 34.2186C163.977 40.4069 166.917 45.4241 171.815 45.4241C173.699 45.4241 175.126 45.0753 176.22 44.46V38.7862Z" fill="white"/>
<path d="M123.826 23.3145H118.863V45.3874H123.826V23.3145Z" fill="white"/>
<path d="M127.466 23.3184H120.305V28.262H127.466V23.3184Z" fill="white"/>
<path d="M128.06 33.2417H120.305V38.1871H128.06V33.2417Z" fill="white"/>
<path fill-rule="evenodd" clip-rule="evenodd" d="M122.643 29.2566C122.643 29.5832 122.672 29.9033 122.717 30.2155V28.2977C122.672 28.6087 122.643 28.9287 122.643 29.2566ZM128.108 30.7491C128.108 32.1303 127.204 33.2479 126.091 33.2479V33.291H124.038C124.988 34.4569 126.339 35.1901 127.844 35.1901C130.719 35.1901 133.047 32.5339 133.047 29.2566C133.047 25.978 130.719 23.3218 127.844 23.3218C125.274 23.3218 123.144 25.4514 122.724 28.2498H126.091C127.204 28.2498 128.108 29.3675 128.108 30.7491Z" fill="white"/>
<path fill-rule="evenodd" clip-rule="evenodd" d="M122.709 33.1928V31.2715C122.662 31.5858 122.635 31.9043 122.635 32.2338C122.635 32.5604 122.662 32.8804 122.709 33.1928ZM126.083 33.2393H122.716C123.136 36.0356 125.266 38.1674 127.836 38.1674C130.709 38.1674 133.038 35.5093 133.038 32.2338C133.038 28.9552 130.709 26.2969 127.836 26.2969C126.33 26.2969 124.978 27.0318 124.028 28.1999H126.083V28.239C127.194 28.239 128.098 29.3589 128.098 30.7382C128.098 32.1195 127.194 33.2393 126.083 33.2393Z" fill="white"/>
<path fill-rule="evenodd" clip-rule="evenodd" d="M133.141 30.6426C133.141 33.5386 132.318 35.8873 131.306 35.8873C130.294 35.8873 129.475 33.5386 129.475 30.6426C129.475 27.745 130.294 25.395 131.306 25.395C132.318 25.395 133.141 27.745 133.141 30.6426Z" fill="white"/>
<path fill-rule="evenodd" clip-rule="evenodd" d="M3.54312 12.0289C0.184906 12.0289 0.117188 8.12106 0.117188 7.14345C0.117188 6.14974 0.184906 2.24365 3.54312 2.24365C6.90177 2.24365 6.96905 6.19105 6.96905 7.143C6.96905 8.12106 6.90177 12.0289 3.54312 12.0289ZM5.01577 7.14345C5.01577 5.83576 4.86407 3.71225 3.54312 3.71225C2.22261 3.71225 2.07046 5.84924 2.07046 7.14345C2.07046 8.25804 2.15314 10.5586 3.54312 10.5586C4.93311 10.5586 5.01577 8.25804 5.01577 7.14345Z" fill="white"/>
<path fill-rule="evenodd" clip-rule="evenodd" d="M10.7137 6.17532H11.6767C12.3231 6.17532 13.1353 6.23011 13.7681 6.66588C14.2781 7.01812 14.8138 7.68697 14.8138 9.01988C14.8138 9.89181 14.5807 11.7962 11.6213 11.7962H9.11794C8.86905 11.7962 8.8418 11.6461 8.8418 11.523V2.74413C8.8418 2.50146 8.99394 2.47363 9.11794 2.47363H13.9339C14.0561 2.47363 14.1397 2.51277 14.1397 2.62409C14.1397 2.63584 14.1397 2.66324 14.1115 2.75891L13.8367 3.72564C13.7953 3.84872 13.7404 3.94265 13.5205 3.94265H10.7133L10.7137 6.17532ZM10.7137 10.3254H11.2097C12.0206 10.3254 12.9577 10.2162 12.9577 8.97856C12.9577 7.71307 11.9397 7.64305 11.3469 7.64305H10.7142L10.7137 10.3254Z" fill="white"/>
<path fill-rule="evenodd" clip-rule="evenodd" d="M20.6623 2.74592C20.6623 2.50152 20.8149 2.47412 20.9371 2.47412H22.2581C22.507 2.47412 22.5343 2.62459 22.5343 2.74592V10.3255H24.4598V2.74592C24.4598 2.62459 24.4871 2.47412 24.7347 2.47412H26.0569C26.304 2.47412 26.3317 2.62459 26.3317 2.74592V10.3255H26.881C27.0054 10.3255 27.1581 10.3528 27.1581 10.5994V13.7293C27.1581 13.8523 27.1304 14.0011 26.881 14.0011H25.6849C25.4378 14.0011 25.4101 13.8523 25.4101 13.7293V11.798H17.1401C16.8925 11.798 16.8652 11.6471 16.8652 11.524V2.74592C16.8652 2.50152 17.0157 2.47412 17.1401 2.47412H18.4606C18.7077 2.47412 18.7354 2.62459 18.7354 2.74592V10.3255H20.6623V2.74592Z" fill="white"/>
<path fill-rule="evenodd" clip-rule="evenodd" d="M30.7353 10.3255H33.5975C33.7201 10.3255 33.8723 10.3529 33.8723 10.5994V11.524C33.8723 11.7688 33.7197 11.7958 33.5975 11.7958H29.1381C28.891 11.7958 28.8633 11.6471 28.8633 11.524V2.74592C28.8633 2.50152 29.016 2.47412 29.1381 2.47412H33.8036C33.8586 2.47412 33.9282 2.4863 33.9695 2.5411C34.0112 2.5972 33.9972 2.66417 33.983 2.71896L33.7088 3.74093C33.6929 3.80791 33.6534 3.94316 33.4458 3.94316H30.7357V6.20279H33.0464C33.2954 6.20279 33.3213 6.35326 33.3213 6.47677V7.40132C33.3213 7.64616 33.171 7.67182 33.0464 7.67182H30.7357L30.7353 10.3255Z" fill="white"/>
<path fill-rule="evenodd" clip-rule="evenodd" d="M37.5751 11.524C37.5751 11.647 37.5478 11.798 37.3003 11.798H35.9798C35.7308 11.798 35.7031 11.647 35.7031 11.524V2.74592C35.7031 2.50151 35.8553 2.47412 35.9798 2.47412H38.2355C38.8543 2.47412 39.7078 2.50151 40.3411 2.8555C40.8647 3.14122 41.4557 3.7531 41.4557 5.07426C41.4557 6.87076 40.2579 8.06755 38.3046 8.06755H37.5751V11.524ZM37.5751 6.59722H38.0025C38.8006 6.59722 39.5838 6.4898 39.5838 5.1682C39.5838 3.91705 38.7043 3.90356 38.1807 3.90356H37.5756L37.5751 6.59722Z" fill="white"/>
<path fill-rule="evenodd" clip-rule="evenodd" d="M46.3263 12.0289C42.9694 12.0289 42.9004 8.12112 42.9004 7.14351C42.9004 6.15024 42.9694 2.24414 46.3263 2.24414C49.6849 2.24414 49.7522 6.19156 49.7522 7.14351C49.7522 8.12112 49.6849 12.0289 46.3263 12.0289ZM47.7989 7.14351C47.7989 5.83582 47.6468 3.71231 46.3263 3.71231C45.0058 3.71231 44.8535 5.8493 44.8535 7.14351C44.8535 8.2581 44.9363 10.5586 46.3263 10.5586C47.7162 10.5586 47.7989 8.2581 47.7989 7.14351Z" fill="white"/>
<path fill-rule="evenodd" clip-rule="evenodd" d="M56.8662 10.9524C56.9215 11.0481 56.9352 11.1024 56.9352 11.1572C56.9352 11.2525 56.8244 11.3486 56.769 11.3877C56.2884 11.7826 55.4485 12.0287 54.6227 12.0287C51.4856 12.0287 51.0859 9.19635 51.0859 7.26418C51.0859 3.05889 53.1236 2.24219 54.5808 2.24219C55.2568 2.24219 56.0949 2.44701 56.6468 2.92233C56.8385 3.08454 56.9075 3.19414 56.9075 3.27764C56.9075 3.34461 56.8662 3.3994 56.8385 3.45202L56.3305 4.2161C56.2888 4.28308 56.2615 4.35135 56.1788 4.35135C56.0817 4.35135 55.9594 4.25568 55.89 4.20045C55.532 3.91517 55.1878 3.71165 54.7471 3.71165C54.2788 3.71165 53.8932 3.87604 53.6319 4.14782C53.2191 4.56836 53.0409 5.37202 53.0409 7.16851C53.0409 7.76647 53.0824 9.31899 53.5766 9.98522C53.7842 10.2588 54.1557 10.5567 54.7884 10.5567C55.1741 10.5567 55.546 10.4336 55.9173 10.2166C56.054 10.1361 56.1644 10.0535 56.2611 10.0535C56.3701 10.0535 56.3978 10.1205 56.4387 10.1887L56.8662 10.9524Z" fill="white"/>
<path fill-rule="evenodd" clip-rule="evenodd" d="M63.6651 10.9524C63.7203 11.0481 63.7345 11.1024 63.7345 11.1572C63.7345 11.2525 63.6236 11.3486 63.5682 11.3877C63.0877 11.7826 62.2477 12.0287 61.4211 12.0287C58.2844 12.0287 57.8848 9.19635 57.8848 7.26418C57.8848 3.05889 59.9206 2.24219 61.3797 2.24219C62.0552 2.24219 62.8937 2.44701 63.4434 2.92233C63.6368 3.08454 63.7059 3.19414 63.7059 3.27764C63.7059 3.34461 63.6641 3.3994 63.6368 3.45202L63.1267 4.2161C63.0872 4.28308 63.0595 4.35135 62.9764 4.35135C62.8801 4.35135 62.757 4.25568 62.6878 4.20045C62.3304 3.91517 61.986 3.71165 61.5451 3.71165C61.0767 3.71165 60.6916 3.87604 60.4303 4.14782C60.0175 4.56836 59.8393 5.37202 59.8393 7.16851C59.8393 7.76647 59.8806 9.31899 60.3749 9.98522C60.582 10.2588 60.9541 10.5567 61.5868 10.5567C61.9725 10.5567 62.3436 10.4336 62.7156 10.2166C62.852 10.1361 62.9627 10.0535 63.0595 10.0535C63.1681 10.0535 63.1958 10.1205 63.2375 10.1887L63.6651 10.9524Z" fill="white"/>
<path fill-rule="evenodd" clip-rule="evenodd" d="M71.4122 2.47412C71.6594 2.47412 71.6871 2.62459 71.6871 2.74592V11.524C71.6871 11.6471 71.6594 11.7958 71.4122 11.7958H70.0916C69.8428 11.7958 69.8168 11.6471 69.8168 11.524V7.19563C69.8168 6.82814 69.8428 6.17496 69.8705 5.69963H69.8168C69.4708 6.65202 69.2514 7.08777 69.0455 7.52353L67.1458 11.5649C67.0768 11.7149 67.0355 11.7953 66.8297 11.7953H65.5092C65.2604 11.7953 65.2344 11.6466 65.2344 11.5236V2.74592C65.2344 2.50152 65.3848 2.47412 65.5092 2.47412H66.8297C67.0768 2.47412 67.1045 2.62459 67.1045 2.74592V6.66551C67.1045 7.30521 67.0768 7.01949 67.0491 8.56985H67.1045C67.3258 8.02669 67.8063 6.91034 68.0135 6.46068L69.7473 2.75941C69.8305 2.58329 69.8559 2.47412 70.1053 2.47412H71.4122Z" fill="white"/>
<path fill-rule="evenodd" clip-rule="evenodd" d="M80.3167 2.47459C80.5638 2.47459 80.5911 2.62506 80.5911 2.74639V11.5244C80.5911 11.6475 80.5638 11.7962 80.3167 11.7962H78.9958C78.7468 11.7962 78.7191 11.6475 78.7191 11.5244V7.19608C78.7191 6.82861 78.7464 6.17542 78.7745 5.7001H78.7191C78.3753 6.65249 78.1559 7.08823 77.95 7.52398L76.0504 11.5653C75.9814 11.7154 75.9396 11.7958 75.7339 11.7958H74.4133C74.1644 11.7958 74.1367 11.6471 74.1367 11.524V2.74639C74.1367 2.50199 74.2888 2.47459 74.4133 2.47459H75.7339C75.9814 2.47459 76.0086 2.62506 76.0086 2.74639V6.66596C76.0086 7.30567 75.9814 7.01996 75.9533 8.5703H76.0086C76.2281 8.02714 76.711 6.9108 76.9162 6.46114L78.6518 2.75988C78.7332 2.58374 78.7614 2.47459 79.0102 2.47459H80.3167ZM79.3259 0.26931C79.3796 0.26931 79.4628 0.324105 79.4628 0.459354C79.4628 0.664181 79.4073 0.922501 79.1879 1.22344C78.8858 1.61657 78.3498 2.01144 77.3709 2.01144C76.3943 2.01144 75.8583 1.61657 75.5562 1.22344C75.3351 0.922501 75.2796 0.664181 75.2796 0.459354C75.2796 0.324105 75.3622 0.26931 75.4176 0.26931L76.3116 0.175377C76.353 0.175377 76.3947 0.160156 76.4361 0.160156C76.5605 0.160156 76.5724 0.324105 76.6159 0.447177C76.7245 0.772467 76.9581 0.990777 77.3709 0.990777C77.7839 0.990777 78.0191 0.772467 78.1277 0.447177C78.1694 0.338021 78.1831 0.230172 78.2386 0.187553C78.3075 0.134498 78.363 0.175377 78.4307 0.175377L79.3259 0.26931Z" fill="white"/>
<path fill-rule="evenodd" clip-rule="evenodd" d="M88.2686 10.9524C88.324 11.0481 88.3376 11.1024 88.3376 11.1572C88.3376 11.2525 88.2267 11.3486 88.1713 11.3877C87.6912 11.7826 86.8508 12.0287 86.0263 12.0287C82.8875 12.0287 82.4883 9.19635 82.4883 7.26418C82.4883 3.05889 84.5247 2.24219 85.9833 2.24219C86.6574 2.24219 87.4972 2.44701 88.0492 2.92233C88.2409 3.08454 88.3103 3.19414 88.3103 3.27764C88.3103 3.34461 88.2686 3.3994 88.2409 3.45202L87.7312 4.2161C87.6916 4.28308 87.6635 4.35135 87.5808 4.35135C87.4836 4.35135 87.3613 4.25568 87.2923 4.20045C86.934 3.91517 86.5901 3.71165 86.1499 3.71165C85.6816 3.71165 85.2959 3.87604 85.0348 4.14782C84.6218 4.56836 84.4437 5.37202 84.4437 7.16851C84.4437 7.76647 84.4855 9.31899 84.9794 9.98522C85.1874 10.2588 85.5585 10.5567 86.1909 10.5567C86.5764 10.5567 86.9485 10.4336 87.3196 10.2166C87.4564 10.1361 87.5672 10.0535 87.6635 10.0535C87.772 10.0535 87.8002 10.1205 87.8412 10.1887L88.2686 10.9524Z" fill="white"/>
<path fill-rule="evenodd" clip-rule="evenodd" d="M90.1127 11.7961C89.9747 11.7961 89.8379 11.7826 89.8379 11.523V2.74448C89.8379 2.48616 89.9747 2.47398 90.1127 2.47398H91.4334C91.5713 2.47398 91.7082 2.48616 91.7082 2.74448V6.21655H92.1764C92.837 6.21655 93.1944 6.0252 93.3465 5.19416L93.5524 4.03867C93.6495 3.47985 93.7736 2.94974 94.3927 2.58227C94.792 2.33743 95.2867 2.24219 95.5615 2.24219C95.6719 2.24219 95.7826 2.26915 95.824 2.40439L96.1124 3.37157C96.1543 3.50855 96.0989 3.62988 95.9745 3.65729L95.6305 3.73904C95.3139 3.8208 95.1362 3.92865 95.0254 4.60924L94.8593 5.57641C94.7642 6.12001 94.5313 6.6384 93.7876 6.89627V6.93541C94.792 7.24984 94.9701 8.12002 95.025 8.38009L95.2444 9.52383C95.3689 10.1614 95.4379 10.3392 95.8509 10.4331L96.2087 10.5149C96.3873 10.5562 96.3733 10.7063 96.3456 10.788L95.9876 11.8226C95.9458 11.9304 95.9186 12.0261 95.6855 12.0261C95.5351 12.0261 94.7365 11.9848 94.2542 11.5778C93.8268 11.2085 93.7599 10.6649 93.6763 10.2305L93.3461 8.59666C93.2635 8.1883 93.1527 7.68559 92.3004 7.68559H91.7076V11.5217C91.7076 11.7813 91.5709 11.7948 91.4328 11.7948L90.1127 11.7961Z" fill="white"/>
<path fill-rule="evenodd" clip-rule="evenodd" d="M101.328 2.47412C101.466 2.47412 101.495 2.55631 101.536 2.69113L104.232 11.4692C104.246 11.524 104.274 11.5653 104.274 11.6336C104.274 11.7823 104.122 11.7958 104.052 11.7958H102.526C102.36 11.7958 102.319 11.7823 102.235 11.5105L101.631 9.30523H99.2642L98.7004 11.5105C98.645 11.7275 98.6314 11.7958 98.4516 11.7958H96.9807C96.69 11.7958 96.7454 11.6062 96.7736 11.524L99.5118 2.6794C99.5527 2.55631 99.5667 2.47412 99.7466 2.47412H101.328ZM100.724 5.73921C100.626 5.33085 100.53 4.86945 100.421 3.93098H100.379C100.366 4.29845 100.324 4.80118 100.077 5.73921L99.4718 8.08104H101.287L100.724 5.73921Z" fill="white"/>
<path fill-rule="evenodd" clip-rule="evenodd" d="M110.906 2.47412C111.042 2.47412 111.18 2.4863 111.18 2.74592V11.524C111.18 11.7823 111.042 11.7958 110.906 11.7958H109.585C109.322 11.7958 109.309 11.661 109.309 11.524V7.98537H108.704C107.85 7.98537 107.755 8.48982 107.658 8.89818L107.341 10.3255C107.245 10.7751 107.136 11.2639 106.764 11.5783C106.434 11.8636 105.8 12.028 105.373 12.028C105.098 12.028 105.072 11.9323 105.029 11.8232L104.673 10.7886C104.645 10.7068 104.631 10.5581 104.809 10.5155L105.167 10.435C105.497 10.3533 105.635 10.2315 105.785 9.52396L105.938 8.84164C106.074 8.2041 106.309 7.60397 107.066 7.26389V7.23693C106.612 7.11517 106.115 6.82859 105.827 6.42154C105.552 6.04014 105.441 5.49524 105.441 5.08645C105.441 4.3515 105.732 3.60265 106.254 3.15428C106.997 2.50152 108.098 2.47412 108.648 2.47412H110.906ZM109.308 3.94271H108.62C107.492 3.94271 107.3 4.6794 107.3 5.23648C107.3 6.50329 108.401 6.51504 108.648 6.51504H109.308V3.94271Z" fill="white"/>
<path fill-rule="evenodd" clip-rule="evenodd" d="M20.4552 28.4209C17.097 28.4209 17.0293 24.5149 17.0293 23.5355C17.0293 22.5422 17.097 18.6362 20.4552 18.6362C23.8121 18.6362 23.8812 22.5835 23.8812 23.5355C23.8812 24.5149 23.8121 28.4209 20.4552 28.4209ZM21.9279 23.5355C21.9279 22.2292 21.7754 20.106 20.4552 20.106C19.1347 20.106 18.9822 22.2431 18.9822 23.5355C18.9822 24.6514 19.0657 26.9528 20.4552 26.9528C21.8448 26.9528 21.9279 24.6514 21.9279 23.5355Z" fill="white"/>
<path fill-rule="evenodd" clip-rule="evenodd" d="M27.6259 22.5688H28.5884C29.2352 22.5688 30.0475 22.6235 30.6803 23.0576C31.1904 23.412 31.7259 24.0799 31.7259 25.4137C31.7259 26.2835 31.4929 28.1879 28.533 28.1879H26.0287C25.7812 28.1879 25.7539 28.0392 25.7539 27.916V19.138C25.7539 18.8936 25.9056 18.8662 26.0287 18.8662H30.8464C30.9709 18.8662 31.0518 18.9075 31.0518 19.017C31.0518 19.0306 31.0518 19.0579 31.0245 19.1536L30.7497 20.1195C30.708 20.2413 30.6526 20.3365 30.4331 20.3365H27.6259V22.5688ZM27.6259 26.7196H28.1202C28.9327 26.7196 29.8693 26.6101 29.8693 25.3707C29.8693 24.1074 28.8497 24.0378 28.2582 24.0378H27.6255L27.6259 26.7196Z" fill="white"/>
<path fill-rule="evenodd" clip-rule="evenodd" d="M37.5744 19.1401C37.5744 18.894 37.7271 18.8662 37.8492 18.8662H39.1715C39.4187 18.8662 39.4464 19.017 39.4464 19.1401V26.7196H41.372V19.1401C41.372 19.017 41.3992 18.8662 41.6481 18.8662H42.9686C43.2161 18.8662 43.2434 19.017 43.2434 19.1401V26.7196H43.7952C43.9175 26.7196 44.07 26.7467 44.07 26.9928V30.1231C44.07 30.2443 44.0423 30.3949 43.7952 30.3949H42.5974C42.3486 30.3949 42.3226 30.2439 42.3226 30.1231V28.1896H34.0522C33.8046 28.1896 33.7773 28.0409 33.7773 27.9178V19.1401C33.7773 18.894 33.929 18.8662 34.0522 18.8662H35.3727C35.6216 18.8662 35.6492 19.017 35.6492 19.1401V26.7196H37.5748L37.5744 19.1401Z" fill="white"/>
<path fill-rule="evenodd" clip-rule="evenodd" d="M47.646 26.7196H50.5082C50.6328 26.7196 50.7826 26.7467 50.7826 26.9928V27.9178C50.7826 28.1622 50.6328 28.1879 50.5082 28.1879H46.0498C45.801 28.1879 45.7754 28.0409 45.7754 27.9178V19.1401C45.7754 18.894 45.9254 18.8662 46.0498 18.8662H50.7153C50.7691 18.8662 50.838 18.8796 50.8793 18.9344C50.9212 18.9893 50.9066 19.0575 50.893 19.1123L50.6182 20.1329C50.6045 20.2013 50.5628 20.3365 50.3557 20.3365H47.6456V22.5966H49.9581C50.2052 22.5966 50.2329 22.7453 50.2329 22.8683V23.7947C50.2329 24.0391 50.0808 24.0647 49.9581 24.0647H47.6456L47.646 26.7196Z" fill="white"/>
<path fill-rule="evenodd" clip-rule="evenodd" d="M57.8428 27.3458C57.8982 27.4419 57.9118 27.4958 57.9118 27.5506C57.9118 27.6446 57.8009 27.7406 57.7455 27.7815C57.2654 28.176 56.425 28.4208 55.5992 28.4208C52.4618 28.4208 52.0625 25.588 52.0625 23.6567C52.0625 19.4532 54.0989 18.6343 55.5575 18.6343C56.2316 18.6343 57.0719 18.8399 57.6211 19.3166C57.8147 19.4789 57.8841 19.5884 57.8841 19.6701C57.8841 19.7385 57.8424 19.7932 57.8147 19.8463L57.305 20.6086C57.2654 20.6769 57.2373 20.7439 57.1546 20.7439C57.0574 20.7439 56.9351 20.65 56.8661 20.5952C56.5078 20.3095 56.1639 20.1059 55.7232 20.1059C55.255 20.1059 54.8693 20.2682 54.608 20.5416C54.1952 20.9622 54.0171 21.7659 54.0171 23.5623C54.0171 24.1608 54.0589 25.7111 54.5532 26.3795C54.7603 26.6513 55.1318 26.9504 55.7651 26.9504C56.1502 26.9504 56.5217 26.8274 56.8934 26.6105C57.0301 26.53 57.141 26.446 57.2373 26.446C57.3458 26.446 57.374 26.5143 57.4158 26.583L57.8428 27.3458Z" fill="white"/>
<path fill-rule="evenodd" clip-rule="evenodd" d="M61.9998 27.916C61.9998 28.1608 61.848 28.1877 61.725 28.1877H60.4031C60.1555 28.1877 60.1282 28.039 60.1282 27.916V20.4986H58.2976C58.0918 20.4986 58.0918 20.3485 58.0918 20.2938V19.0696C58.0918 19.0147 58.0918 18.8647 58.2976 18.8647H64.1469C64.4218 18.8647 64.3528 19.0562 64.3246 19.1517L64.0225 20.282C63.9671 20.472 63.844 20.4991 63.734 20.4991H62.0002L61.9998 27.916Z" fill="white"/>
<path fill-rule="evenodd" clip-rule="evenodd" d="M67.7246 18.8662C68.3989 18.8662 69.4168 18.8936 70.0909 19.3976C70.5039 19.7108 70.9313 20.3226 70.9313 21.2494C70.9313 22.4322 70.2153 23.0184 69.5277 23.3037C70.0773 23.4389 71.2474 23.9156 71.2474 25.6164C71.2474 27.9291 69.3341 28.1874 67.8351 28.1874H65.5502C65.3027 28.1874 65.2754 28.0405 65.2754 27.9174V19.1401C65.2754 18.894 65.4258 18.8662 65.5502 18.8662H67.7246ZM67.5721 22.7175C68.2326 22.7175 69.0726 22.5826 69.0726 21.4385C69.0726 21.0715 68.9894 20.2947 67.7246 20.2947H67.1456V22.7171L67.5721 22.7175ZM67.6417 26.7601C68.4537 26.7601 69.3891 26.651 69.3891 25.4677C69.3891 24.1464 68.2066 24.1464 67.6694 24.1464H67.1456V26.7601H67.6417Z" fill="white"/>
<path fill-rule="evenodd" clip-rule="evenodd" d="M75.1687 26.7196H78.0314C78.1537 26.7196 78.3062 26.7467 78.3062 26.9928V27.9178C78.3062 28.1622 78.1537 28.1879 78.0314 28.1879H73.5716C73.325 28.1879 73.2969 28.0409 73.2969 27.9178V19.1401C73.2969 18.894 73.449 18.8662 73.5716 18.8662H78.2372C78.2925 18.8662 78.3616 18.8796 78.4025 18.9344C78.4442 18.9893 78.4306 19.0575 78.4166 19.1123L78.1418 20.1329C78.1277 20.2013 78.0864 20.3365 77.8788 20.3365H75.1687V22.5966H77.4794C77.7284 22.5966 77.7543 22.7453 77.7543 22.8683V23.7947C77.7543 24.0391 77.604 24.0647 77.4794 24.0647H75.1687V26.7196Z" fill="white"/>
<path fill-rule="evenodd" clip-rule="evenodd" d="M80.1367 19.1401C80.1367 18.8819 80.2748 18.8662 80.4116 18.8662H81.7322C81.8702 18.8662 82.0083 18.8819 82.0083 19.1401V22.6101H84.6084V19.1401C84.6084 18.8819 84.7465 18.8662 84.8845 18.8662H86.2054C86.4663 18.8662 86.4803 19.0049 86.4803 19.1401V27.9183C86.4803 28.053 86.4663 28.19 86.2054 28.19H84.8845C84.7465 28.19 84.6084 28.1761 84.6084 27.9183V24.0804H82.0083V27.9183C82.0083 28.1761 81.8702 28.19 81.7322 28.19H80.4116C80.2748 28.19 80.1367 28.1761 80.1367 27.9183V19.1401Z" fill="white"/>
<path fill-rule="evenodd" clip-rule="evenodd" d="M88.9277 19.1401C88.9277 18.8819 89.0663 18.8662 89.2026 18.8662H90.5253C90.662 18.8662 90.8 18.8819 90.8 19.1401V22.6101H93.3998V19.1401C93.3998 18.8819 93.5378 18.8662 93.676 18.8662H94.9969C95.2576 18.8662 95.2713 19.0049 95.2713 19.1401V27.9183C95.2713 28.053 95.2576 28.19 94.9969 28.19H93.676C93.5378 28.19 93.3998 28.1761 93.3998 27.9183V24.0804H90.8V27.9183C90.8 28.1761 90.662 28.19 90.5253 28.19H89.2026C89.0663 28.19 88.9277 28.1761 88.9277 27.9183V19.1401Z" fill="white"/>
<path fill-rule="evenodd" clip-rule="evenodd" d="M101.328 18.8661C101.466 18.8661 101.495 18.95 101.536 19.0853L104.232 27.8634C104.246 27.9182 104.274 27.9574 104.274 28.0256C104.274 28.1756 104.122 28.1878 104.052 28.1878H102.526C102.36 28.1878 102.319 28.1756 102.235 27.9025L101.631 25.699H99.2642L98.7004 27.9025C98.645 28.1217 98.6314 28.1878 98.4516 28.1878H96.9807C96.69 28.1878 96.7454 27.9983 96.7736 27.9178L99.5118 19.0714C99.5527 18.9496 99.5667 18.8657 99.7466 18.8657L101.328 18.8661ZM100.724 22.1329C100.626 21.7246 100.53 21.2614 100.421 20.3226H100.379C100.366 20.69 100.324 21.1945 100.077 22.1329L99.4718 24.4748H101.287L100.724 22.1329Z" fill="white"/>
<path fill-rule="evenodd" clip-rule="evenodd" d="M110.906 18.8662C111.042 18.8662 111.18 18.8796 111.18 19.1401V27.9183C111.18 28.1761 111.042 28.1883 110.906 28.1883H109.585C109.322 28.1883 109.309 28.053 109.309 27.9183V24.3796H108.704C107.85 24.3796 107.755 24.8819 107.658 25.2911L107.341 26.7201C107.245 27.1698 107.136 27.6586 106.764 27.9712C106.434 28.2587 105.8 28.4209 105.373 28.4209C105.098 28.4209 105.072 28.3249 105.029 28.2161L104.673 27.1836C104.645 27.1015 104.631 26.9532 104.809 26.9102L105.167 26.8301C105.497 26.748 105.635 26.6249 105.785 25.9173L105.938 25.2371C106.074 24.5992 106.309 23.9973 107.066 23.6572V23.6316C106.612 23.5085 106.115 23.2233 105.827 22.8145C105.552 22.4331 105.441 21.8895 105.441 21.4807C105.441 20.7458 105.732 19.9969 106.254 19.5494C106.997 18.8944 108.098 18.8671 108.648 18.8671L110.906 18.8662ZM109.308 20.3365H108.62C107.492 20.3365 107.3 21.0719 107.3 21.6307C107.3 22.8954 108.401 22.9088 108.648 22.9088H109.308V20.3365Z" fill="white"/>
<path fill-rule="evenodd" clip-rule="evenodd" d="M28.9593 44.812C25.6005 44.812 25.5332 40.906 25.5332 39.9262C25.5332 38.9333 25.6005 35.0273 28.9593 35.0273C32.3162 35.0273 32.3852 38.9742 32.3852 39.9262C32.3852 40.906 32.3162 44.812 28.9593 44.812ZM30.4314 39.9262C30.4314 38.619 30.2797 36.4976 28.9593 36.4976C27.6388 36.4976 27.4865 38.6341 27.4865 39.9262C27.4865 41.0425 27.5692 43.3418 28.9593 43.3418C30.3487 43.3418 30.4314 41.0425 30.4314 39.9262Z" fill="white"/>
<path fill-rule="evenodd" clip-rule="evenodd" d="M36.1429 44.3081C36.1429 44.4311 36.1158 44.5821 35.8682 44.5821H34.5476C34.2988 44.5821 34.2715 44.4311 34.2715 44.3081V35.5318C34.2715 35.2856 34.4232 35.2583 34.5476 35.2583H36.8034C37.424 35.2583 38.2756 35.2852 38.9089 35.641C39.4327 35.9263 40.0236 36.5386 40.0236 37.8584C40.0236 39.6549 38.8276 40.853 36.8724 40.853H36.1429V44.3081ZM36.1429 39.3818H36.5705C37.3673 39.3818 38.1516 39.2744 38.1516 37.9541C38.1516 36.7008 37.2723 36.6872 36.7485 36.6872H36.1435L36.1429 39.3818Z" fill="white"/>
<path fill-rule="evenodd" clip-rule="evenodd" d="M42.0312 35.5318C42.0312 35.2856 42.1838 35.2583 42.3061 35.2583H46.9716C47.1514 35.2583 47.191 35.3401 47.191 35.4239C47.191 35.4496 47.1787 35.4769 47.1652 35.5436L46.8881 36.6733C46.8485 36.8647 46.6963 36.8925 46.5724 36.8925H43.9031V44.3081C43.9031 44.4311 43.8754 44.5821 43.6283 44.5821H42.3061C42.059 44.5821 42.0312 44.4311 42.0312 44.3081V35.5318Z" fill="white"/>
<path fill-rule="evenodd" clip-rule="evenodd" d="M51.1134 35.2603C51.2502 35.2603 51.2796 35.342 51.3191 35.479L54.0174 44.2553C54.0309 44.3102 54.0591 44.3511 54.0591 44.4193C54.0591 44.568 53.9065 44.5823 53.8375 44.5823H52.3112C52.1449 44.5823 52.1041 44.5684 52.0205 44.2962L51.416 42.0913H49.0493L48.4842 44.2962C48.4288 44.5133 48.4165 44.5823 48.2367 44.5823H46.764C46.4751 44.5823 46.5309 44.3924 46.5586 44.3106L49.2964 35.4655C49.3377 35.3424 49.3514 35.2607 49.5294 35.2607L51.1134 35.2603ZM50.5088 38.5253C50.4116 38.1183 50.3148 37.6551 50.2062 36.7163H50.1649C50.1508 37.0837 50.1095 37.5878 49.8624 38.5253L49.2556 40.8672H51.0724L50.5088 38.5253Z" fill="white"/>
<path fill-rule="evenodd" clip-rule="evenodd" d="M55.5312 35.5318C55.5312 35.274 55.6681 35.2583 55.8061 35.2583H57.1266C57.2651 35.2583 57.4037 35.274 57.4037 35.5318V39.0021H60.0034V35.5318C60.0034 35.274 60.1413 35.2583 60.2782 35.2583H61.6C61.8612 35.2583 61.8748 35.3947 61.8748 35.5318V44.3085C61.8748 44.4451 61.8612 44.5825 61.6 44.5825H60.2782C60.1413 44.5825 60.0034 44.5669 60.0034 44.3085V40.4707H57.4037V44.3085C57.4037 44.5669 57.2655 44.5825 57.1266 44.5825H55.8061C55.6681 44.5825 55.5312 44.5669 55.5312 44.3085V35.5318Z" fill="white"/>
<path fill-rule="evenodd" clip-rule="evenodd" d="M70.5032 35.2602C70.7509 35.2602 70.778 35.4103 70.778 35.5334V44.3101C70.778 44.4332 70.7509 44.5819 70.5032 44.5819H69.1827C68.9339 44.5819 68.9079 44.4332 68.9079 44.3101V39.9836C68.9079 39.6142 68.9339 38.9611 68.9616 38.4858H68.9079C68.5623 39.4382 68.3429 39.8739 68.1371 40.3101L66.2375 44.351C66.1684 44.5014 66.1267 44.5823 65.9208 44.5823H64.6003C64.3515 44.5823 64.3242 44.4336 64.3242 44.3105V35.5334C64.3242 35.2873 64.4763 35.2602 64.6003 35.2602H65.9208C66.1684 35.2602 66.1957 35.4103 66.1957 35.5334V39.4516C66.1957 40.0926 66.1684 39.8052 66.1402 41.3572H66.1957C66.4151 40.8119 66.8975 39.6956 67.1033 39.2481L68.8389 35.5455C68.9216 35.369 68.9475 35.2598 69.1964 35.2598L70.5032 35.2602Z" fill="white"/>
<path fill-rule="evenodd" clip-rule="evenodd" d="M74.0394 39.315C74.0394 39.192 74.0675 39.0418 74.3142 39.0418H74.6027C76.0758 39.0418 76.0758 37.9685 76.0758 37.7359C76.0758 37.4642 76.0068 36.4983 74.8107 36.4983C74.5632 36.4983 74.1225 36.5531 73.5847 36.9322C73.4761 37.0163 73.393 37.0701 73.324 37.0701C73.2686 37.0701 73.2131 37.0275 73.1441 36.9322L72.6772 36.2399C72.6357 36.1851 72.608 36.1438 72.608 36.062C72.608 35.8841 72.8016 35.7355 72.9656 35.6416C73.5034 35.3015 74.2325 35.0283 75.1541 35.0283C76.8184 35.0283 77.8505 35.9273 77.8505 37.5068C77.8505 39.0027 76.8184 39.505 76.461 39.6416C77.5203 39.8451 78.1531 40.6762 78.1531 41.943C78.1531 43.4251 77.2873 44.8131 74.7962 44.8131C73.8614 44.8131 72.9243 44.567 72.4436 44.1735C72.3882 44.1326 72.2773 44.0369 72.2773 43.9412C72.2773 43.8864 72.2915 43.8334 72.3469 43.7377L72.7739 42.9749C72.8135 42.9084 72.8412 42.8401 72.952 42.8401C73.0491 42.8401 73.1441 42.9206 73.2958 43.0024C73.5311 43.1388 73.9981 43.3423 74.6995 43.3423C75.1677 43.3423 75.6207 43.2606 75.9664 42.8671C76.2271 42.5683 76.2825 42.2126 76.2825 41.9426C76.2825 41.2467 76.0059 40.8932 75.7174 40.7166C75.4008 40.5253 75.0297 40.5131 74.713 40.5131H74.3138C74.0671 40.5131 74.0389 40.3631 74.0389 40.2399L74.0394 39.315Z" fill="white"/>
<path fill-rule="evenodd" clip-rule="evenodd" d="M83.7422 35.2603C83.8803 35.2603 83.9076 35.342 83.9493 35.479L86.6458 44.2553C86.6598 44.3102 86.6875 44.3511 86.6875 44.4193C86.6875 44.568 86.5358 44.5823 86.4664 44.5823H84.9401C84.7742 44.5823 84.7329 44.5684 84.6498 44.2962L84.0447 42.0913H81.6782L81.1149 44.2962C81.0599 44.5133 81.0458 44.5823 80.8659 44.5823H79.3933C79.1048 44.5823 79.1594 44.3924 79.1875 44.3106L81.9257 35.4655C81.9674 35.3424 81.9811 35.2607 82.161 35.2607L83.7422 35.2603ZM83.1372 38.5253C83.0399 38.1183 82.9437 37.6551 82.8351 36.7163H82.7932C82.7797 37.0837 82.7379 37.5878 82.4908 38.5253L81.8857 40.8672H83.7005L83.1372 38.5253Z" fill="white"/>
<path fill-rule="evenodd" clip-rule="evenodd" d="M92.438 43.113V35.5334C92.438 35.2873 92.5902 35.2603 92.7129 35.2603H94.0334C94.2823 35.2603 94.3095 35.4104 94.3095 35.5334V43.113H94.8592C94.9836 43.113 95.134 43.1403 95.134 43.3847V46.5146C95.134 46.6377 95.1063 46.7864 94.8592 46.7864H93.6631C93.4143 46.7864 93.387 46.6377 93.387 46.5146V44.5815H88.433C88.1859 44.5815 88.1582 44.4328 88.1582 44.3097V35.5334C88.1582 35.2873 88.3103 35.2603 88.433 35.2603H89.7552C90.0024 35.2603 90.0301 35.4104 90.0301 35.5334V43.113H92.438Z" fill="white"/>
<path fill-rule="evenodd" clip-rule="evenodd" d="M103.02 35.2602C103.267 35.2602 103.294 35.4103 103.294 35.5334V44.3101C103.294 44.4332 103.267 44.5819 103.02 44.5819H101.699C101.452 44.5819 101.424 44.4332 101.424 44.3101V39.9836C101.424 39.6142 101.452 38.9611 101.48 38.4858H101.424C101.08 39.4382 100.859 39.8739 100.653 40.3101L98.7534 44.351C98.6861 44.5014 98.6448 44.5823 98.4373 44.5823H97.1166C96.8678 44.5823 96.8418 44.4336 96.8418 44.3105V35.5334C96.8418 35.2873 96.9922 35.2602 97.1166 35.2602H98.4373C98.6861 35.2602 98.712 35.4103 98.712 35.5334V39.4516C98.712 40.0926 98.6861 39.8052 98.658 41.3572H98.712C98.9332 40.8119 99.4139 39.6956 99.6209 39.2481L101.355 35.5455C101.437 35.369 101.465 35.2598 101.712 35.2598L103.02 35.2602Z" fill="white"/>
<path fill-rule="evenodd" clip-rule="evenodd" d="M110.906 35.2603C111.042 35.2603 111.18 35.2742 111.18 35.5334V44.3102C111.18 44.568 111.042 44.5819 110.906 44.5819H109.585C109.322 44.5819 109.309 44.4468 109.309 44.3102V40.7732H108.704C107.85 40.7732 107.755 41.2755 107.658 41.6843L107.341 43.1134C107.245 43.563 107.136 44.0501 106.764 44.3649C106.434 44.652 105.8 44.8142 105.373 44.8142C105.098 44.8142 105.072 44.7185 105.029 44.6093L104.673 43.5751C104.645 43.4929 104.631 43.3438 104.809 43.3034L105.167 43.2229C105.497 43.1412 105.635 43.0181 105.785 42.3101L105.938 41.6282C106.074 40.9907 106.309 40.3901 107.066 40.0501V40.0243C106.612 39.9013 106.115 39.6143 105.827 39.2073C105.552 38.8263 105.441 38.2809 105.441 37.8743C105.441 37.139 105.732 36.3888 106.254 35.9409C106.997 35.2877 108.098 35.2607 108.648 35.2607L110.906 35.2603ZM109.308 36.7285H108.62C107.492 36.7285 107.3 37.4651 107.3 38.0221C107.3 39.2894 108.401 39.3013 108.648 39.3013H109.308V36.7285Z" fill="white"/>
</g>
<defs>
<clipPath id="clip0_10132_15576">
<rect width="246" height="47" fill="white"/>
</clipPath>
</defs>
</svg>
