<svg xmlns:xlink="http://www.w3.org/1999/xlink" xmlns="http://www.w3.org/2000/svg" width="2000" height="1706" viewBox="0 0 2000 1706" fill="none">
<path d="M927.467 3.4677C896.801 4.53436 871.467 5.4677 871.201 5.60103C871.067 5.8677 872.401 53.0677 874.134 110.668C875.867 168.268 877.334 217.734 877.334 220.534V225.734L900.801 224.934C913.867 224.401 924.534 223.868 924.801 223.601C925.067 223.468 924.801 208.934 924.267 191.334C923.734 173.734 923.467 159.068 923.734 158.668C924.001 158.401 941.334 157.601 962.401 157.068C1002.8 156.001 1024.67 153.734 1039.6 149.201C1076.13 138.001 1097.33 112.001 1097.33 78.6677C1097.2 49.0677 1083.33 26.801 1057.07 14.1344C1042.8 7.33436 1032.67 4.6677 1014.67 2.6677C1000 1.20103 1000.67 1.20103 927.467 3.4677ZM1013.33 27.8677C1028.13 32.401 1039.07 43.4677 1043.6 58.5344C1047.2 70.1344 1046.67 92.9344 1042.67 103.201C1037.47 116.668 1024.67 127.068 1008.8 130.668C1003.07 131.868 924.001 135.201 923.067 134.134C922.001 133.068 919.601 29.3344 920.534 28.401C923.201 25.7344 1005.07 25.201 1013.33 27.8677Z" fill="white"/>
<path d="M1186.27 31.6005C1181.33 45.3338 1164.8 92.1338 1149.6 135.467L1121.87 214.4L1143.2 221.867C1155.07 226 1165.33 229.334 1166 229.334C1166.8 229.334 1179.6 194.4 1194.53 151.6C1226.67 59.8671 1225.33 63.7338 1227.2 64.4005C1228.13 64.6671 1231.47 98.0005 1236.67 161.334L1244.67 257.6L1271.07 266.934L1297.47 276.134L1311.73 261.067C1319.73 252.8 1349.73 221.2 1378.53 190.934C1408.8 159.2 1431.47 136.267 1432.13 136.934C1433.07 137.867 1393.87 252.4 1377.47 296.667L1374.93 303.334L1396.93 311.2C1409.07 315.467 1419.47 318.4 1420 317.867C1421.2 316.667 1493.6 111.734 1492.93 111.334C1492.8 111.2 1477.73 105.867 1459.47 99.4671L1426.27 87.8671L1420.13 94.5338C1397.2 119.467 1283.07 237.334 1281.87 237.334C1279.73 237.334 1279.87 238.8 1270.67 130C1266.13 77.8671 1262.27 34.0005 1262 32.5338C1261.47 30.1338 1256.27 27.8671 1229.73 18.6671C1212.27 12.5338 1197.33 7.33381 1196.53 7.06714C1195.6 6.80047 1191.33 16.9338 1186.27 31.6005Z" fill="white"/>
<path d="M668.001 59.3336L632.668 71.6003L632.268 76.1336C631.468 83.867 616.668 310.667 616.934 310.667C617.201 310.667 660.668 295.6 660.934 295.334C661.068 295.334 661.868 282.267 662.801 266.534C663.601 250.934 664.401 237.867 664.534 237.6C664.934 237.334 735.068 212.534 767.468 201.334L782.401 196.267L800.801 217.334C811.068 228.934 820.134 238.534 821.068 238.534C822.801 238.667 860.401 225.867 863.468 224.134C864.401 223.734 832.801 188 787.068 138C744.268 91.067 707.868 51.3336 706.268 49.7336L703.334 46.9336L668.001 59.3336ZM724.534 134.667C745.468 157.734 762.668 176.934 762.668 177.334C762.668 178.4 669.068 210.8 668.268 210C666.934 208.667 675.068 86.0003 676.534 85.067C678.401 83.867 679.068 84.5336 724.534 134.667Z" fill="white"/>
<path d="M418.001 188.534C376.134 218.934 342.001 244.534 342.134 245.6C342.268 247.067 465.734 418.134 469.334 421.867C470.934 423.467 508.401 396.134 507.468 394C507.201 393.067 481.334 357.067 450.001 314C418.801 270.934 393.334 235.6 393.601 235.467C393.868 235.2 418.934 217.067 449.334 194.934C479.734 172.934 505.734 154.134 506.934 153.067C509.068 151.467 508.668 150.534 502.534 142.267C498.801 137.334 495.334 133.334 494.801 133.334C494.268 133.334 459.734 158.134 418.001 188.534Z" fill="white"/>
<path d="M1575.33 215.201C1532.4 223.467 1492.4 262.267 1481.2 306.667C1477.2 322.401 1478 345.334 1483.2 360.401C1490.8 382.801 1502.67 401.334 1521.87 420.667C1581.73 481.067 1650 486.667 1700.67 435.467C1717.2 418.934 1727.2 402.667 1733.6 382.667C1736.13 374.267 1736.67 369.867 1736.67 354.667C1736.67 335.201 1734.8 326.267 1726.53 308.267C1708.67 268.801 1660.27 227.734 1619.33 217.334C1605.47 213.734 1587.33 212.934 1575.33 215.201ZM1641.87 254.534C1654.13 258.801 1663.73 265.067 1674.8 276.001C1706.8 307.734 1705.87 350.134 1672.27 391.201C1663.6 401.867 1648.93 414.667 1638.27 421.067C1621.33 431.201 1599.2 435.601 1582.27 432.001C1570.27 429.601 1554.93 421.201 1544.27 411.334C1512.67 382.134 1509.33 343.467 1534.8 305.334C1554 276.667 1581.33 256.667 1608 251.467C1615.33 250.134 1634.13 251.734 1641.87 254.534Z" fill="white"/>
<path d="M799.334 374.801C776.134 378.401 745.734 390.801 724.667 405.334C704.001 419.734 684.934 443.334 676.001 465.867C664.667 494.134 662.134 515.201 662.934 574.401L663.467 618.267L634.667 619.067C549.867 621.601 501.467 634.801 468.401 664.534C442.267 688.001 425.334 733.067 425.334 779.067C425.334 822.934 438.934 860.401 465.067 888.134C484.134 908.401 507.467 921.601 538.667 929.601L554.001 933.601L708.001 932.801C792.667 932.401 890.001 931.601 924.401 931.201L986.667 930.267L986.401 710.801L986.001 491.334L983.067 481.067C967.601 426.934 929.067 391.867 869.334 377.734C857.867 375.067 851.067 374.401 831.334 374.001C818.134 373.734 803.734 374.001 799.334 374.801ZM904.267 626.267C905.334 628.667 906.001 638.667 906.001 654.667C906.134 668.667 906.934 684.134 908.001 690.267C909.467 699.067 909.467 702.667 908.134 708.267C906.134 717.067 900.001 726.801 892.401 732.934C887.067 737.334 886.534 738.267 887.334 741.867C890.267 756.401 890.801 768.934 890.134 801.734L889.334 837.334L892.534 838.801C894.267 839.601 896.401 841.867 897.201 843.734C900.001 849.601 896.667 851.334 882.134 851.334C865.067 851.334 864.801 851.067 866.001 834.667L866.934 822.001L861.734 827.201L856.401 832.401L859.601 835.467C863.601 839.601 863.734 845.867 859.734 848.534C854.667 851.867 840.534 853.334 813.734 853.334C789.467 853.334 787.867 853.201 786.401 850.667C785.467 849.201 784.134 848.001 783.601 848.001C782.934 848.001 780.934 849.201 779.067 850.667C774.801 854.001 766.401 854.134 755.334 851.334C736.801 846.534 725.334 832.934 725.334 815.867C725.334 810.401 726.001 808.934 730.267 804.401L735.334 799.334L736.001 807.601C736.401 812.934 737.601 817.201 739.467 819.601C743.067 824.667 752.934 829.334 761.734 830.267C768.401 830.934 769.201 830.667 771.067 827.867C772.134 826.134 773.467 819.601 774.001 813.334C775.067 799.467 778.801 791.467 788.534 782.001C792.401 778.401 799.334 773.201 803.867 770.667C817.467 763.067 828.401 754.401 833.067 747.467C835.334 744.001 837.334 740.267 837.334 739.201C837.334 738.267 834.801 735.734 831.601 733.467C828.134 731.067 824.401 726.801 822.001 722.401C818.667 716.401 818.001 713.467 817.601 703.334C817.067 691.601 816.934 690.934 808.001 672.667C794.801 645.867 792.001 633.067 799.201 631.201C804.534 629.867 826.401 639.201 839.734 648.267C845.467 652.267 845.601 652.267 854.134 650.667C861.867 649.201 865.601 649.334 870.934 651.334C872.134 651.867 875.067 648.801 879.201 642.667C886.401 632.134 896.401 622.667 900.267 622.667C901.734 622.667 903.467 624.134 904.267 626.267Z" fill="white"/>
<path d="M1142.67 375.334C1120 378.934 1097.47 387.067 1078.27 398.4C1065.73 405.867 1046.27 423.6 1037.87 435.334C1029.6 447.067 1020.4 467.067 1016.8 481.6L1013.73 494L1012.8 712.134L1011.87 930.267L1075.6 931.2C1110.67 931.6 1207.73 932.4 1291.33 932.8C1458 933.6 1449.73 934 1474.4 925.734C1511.87 913.2 1540.67 889.2 1556.93 856.667C1568.67 833.334 1573.73 810.4 1573.87 780C1573.87 747.467 1568.93 724.667 1556.4 699.467C1547.2 680.8 1540 671.467 1525.73 660C1508.67 646.267 1490.53 637.6 1463.6 630.667C1436.53 623.6 1389.87 618.667 1350.67 618.667H1336L1336.8 576.934C1337.73 532.8 1336.67 514.534 1332 493.334C1325.2 461.6 1312.27 438.267 1290.53 418.134C1267.07 396.4 1230.8 379.067 1199.47 374.8C1185.73 372.8 1156.67 373.2 1142.67 375.334ZM1166.67 487.334V524L1140.67 497.6L1114.67 471.334L1118.8 467.734C1128.4 459.6 1150.4 450.934 1162.4 450.8L1166.67 450.667V487.334ZM1200.53 453.334C1210.67 455.867 1225.73 462.934 1231.73 468L1234.93 470.667L1209.87 496.667C1196 510.934 1184.27 522.667 1183.73 522.667C1183.2 522.667 1182.67 506.4 1182.67 486.667V450.667H1186.4C1188.53 450.667 1194.8 451.867 1200.53 453.334ZM1133.6 513.6L1154.93 536H1119.33H1083.6L1084.53 527.467C1085.87 513.6 1090.93 499.867 1099.07 488.267L1102.93 482.4L1107.6 486.934C1110.13 489.334 1121.87 501.334 1133.6 513.6ZM1252.4 490.667C1259.07 500.8 1264 515.067 1264.93 526.8L1265.73 536H1230.13H1194.4L1220.13 509.334C1234.4 494.667 1246.27 482.667 1246.67 482.667C1247.07 482.667 1249.6 486.267 1252.4 490.667ZM1166.67 622V689.334H1125.33H1084V622V554.667H1125.33H1166.67V622ZM1265.33 622V689.334H1224H1182.67V622V554.667H1224H1265.33V622ZM1166.67 783.334V856H1125.33H1084V783.334V710.667H1125.33H1166.67V783.334ZM1265.33 783.334V856H1224H1182.67V784.267C1182.67 744.8 1183.07 712 1183.6 711.6C1184 711.067 1202.67 710.667 1224.93 710.667H1265.33V783.334Z" fill="white"/>
<path d="M1740.93 482.801L1642.67 532.001L1653.33 553.334L1664 574.667L1706.8 553.201C1730.4 541.467 1749.73 532.001 1750 532.267C1751.07 533.334 1809.33 650.801 1809.33 651.601C1809.33 652.267 1790.4 662.267 1767.33 674.001C1744.27 685.734 1725.33 695.734 1725.33 696.267C1725.33 698.934 1745.47 737.334 1746.93 737.334C1748.13 737.334 1941.07 640.667 1942.4 639.334C1943.07 638.667 1922.13 597.334 1921.07 597.334C1920.4 597.334 1900.13 607.334 1875.87 619.467C1851.6 631.601 1831.6 641.334 1831.33 641.067C1830.4 640.001 1772 522.534 1772 521.601C1772 521.067 1792.13 510.667 1816.67 498.267L1861.33 476.001L1850.67 454.667C1844.8 442.934 1839.87 433.334 1839.6 433.467C1839.47 433.467 1795.07 455.601 1740.93 482.801Z" fill="white"/>
<path d="M184.134 481.334C139.601 490.667 103.467 528.267 84.6673 584.534C75.734 611.2 73.734 639.6 79.334 660.667C87.0673 689.467 108.534 714 139.201 729.2C160.934 740 173.201 743.067 194.667 743.2C210.001 743.334 214.134 742.934 222.667 740.267C256.534 729.6 282.134 705.6 302.001 665.6C316.134 637.067 322.134 612.534 320.934 586.667C320.134 568.667 317.867 559.2 310.801 544.667C300.001 522.8 283.334 506.934 258.001 494.534C236.401 484 225.867 481.2 206.001 480.667C197.201 480.4 187.334 480.667 184.134 481.334ZM206.134 529.334C227.334 534.4 250.934 546.667 266.267 560.534C275.601 568.934 286.001 584.667 289.467 595.734C298.134 623.2 287.867 657.067 264.401 678.8C237.601 703.467 196.401 703.467 152.667 678.667C139.867 671.334 122.267 655.067 116.001 644.534C105.734 627.467 102.667 607.2 107.334 588.667C114.801 559.334 137.601 534.8 163.067 528.534C173.867 526 193.734 526.267 206.134 529.334Z" fill="white"/>
<path d="M1859.73 755.867C1803.6 760.667 1757.2 765.067 1756.67 765.6C1755.87 766.4 1759.33 818.267 1760.67 824.8C1761.07 826.8 1784.93 840.933 1856 881.467C1908 911.067 1950.67 936.133 1950.67 936.933C1950.67 937.867 1949.87 938.667 1949.07 938.667C1944.67 938.667 1772.67 953.6 1772.27 954C1771.6 954.667 1775.47 999.867 1776.13 1000.53C1776.8 1001.33 1993.6 982.8 1994.4 982C1994.8 981.6 1994 967.6 1992.67 950.8L1990.13 920.267L1895.07 866C1842.8 836.267 1800 811.333 1800 810.667C1800 808.8 1803.33 808.533 1891.73 801.067C1938.13 797.2 1976.8 793.733 1977.6 793.2C1978.67 792.533 1978.53 786 1977.2 769.867L1975.33 747.333L1968.67 747.2C1965.07 747.067 1916 750.933 1859.73 755.867Z" fill="white"/>
<path d="M22.6671 766.933C22.6671 767.2 21.7338 777.467 20.6671 790C19.6004 802.4 18.6671 814 18.6671 815.6C18.6671 817.6 30.9338 829.334 64.4005 859.467C103.734 894.8 110 900.934 110.4 904.534C110.8 909.2 107.334 954.4 106.534 955.2C106.267 955.467 84.1338 954 57.4671 951.867C30.8004 949.734 8.80045 948.134 8.53378 948.4C8.13378 948.8 4.13378 995.2 4.40045 995.467C4.93378 995.734 223.334 1012.93 223.6 1012.67C224.134 1012.27 227.867 966.134 227.467 965.734C227.334 965.467 205.734 963.6 179.6 961.6C153.334 959.467 131.6 957.467 131.334 957.067C130.934 956.667 131.6 943.734 132.8 928.267L135.067 900.267L186.534 866.534C214.8 848 238.134 832.8 238.134 832.8C238.667 832.534 242.667 779.6 242.267 779.2C242 778.934 222.934 791.2 199.867 806.4C176.8 821.6 150.4 839.067 141.067 845.2L124.134 856.267L75.0671 812.4C29.8671 772 22.6671 765.733 22.6671 766.933Z" fill="white"/>
<path d="M545.334 959.867C477.867 974.934 437.201 1018.13 427.201 1085.47C425.467 1097.07 425.201 1105.2 425.867 1120C427.067 1150.67 431.867 1169.2 445.067 1195.33C451.601 1208.13 454.134 1211.6 465.201 1222.8C484.401 1242 503.601 1252.27 536.667 1260.67C562.934 1267.33 601.734 1272 631.334 1272C638.134 1272 648.001 1272.4 653.467 1272.8L663.334 1273.73V1325.87C663.334 1370.8 663.601 1379.6 665.734 1390C670.801 1415.33 678.267 1434.27 689.467 1450.8C697.067 1462.13 712.934 1477.73 725.601 1486.4C740.534 1496.67 766.534 1508.8 781.734 1512.67C846.134 1528.93 918.134 1508.4 956.4 1462.8C959.067 1459.47 961.467 1457.07 961.734 1457.47C962 1457.73 963.867 1462.13 966 1467.33C983.2 1509.47 1010.4 1550.4 1042.67 1582.8C1066.67 1606.93 1086.27 1622 1115.33 1638.67C1180.4 1676.27 1263.47 1694 1335.73 1685.73L1342.67 1684.93V1665.07V1645.07L1337.73 1645.87C1326.4 1647.73 1274.93 1648.27 1261.2 1646.8C1164.13 1635.6 1075.2 1578.13 1024.27 1493.33C1009.33 1468.67 998.8 1444 990.667 1415.33L986.667 1400.93V1180.67V960.4L835.067 959.467C751.601 959.067 654.801 958.4 620.001 958C561.201 957.467 555.867 957.6 545.334 959.867Z" fill="white"/>
<path d="M1259.33 958.8C1193.33 959.2 1110.67 959.733 1075.6 959.867L1011.73 960L1012.67 1178.27L1013.73 1396.67L1016.67 1408.8C1026.93 1449.6 1051.87 1480.27 1090.27 1499.2C1120 1514 1157.33 1520.8 1190.27 1517.47C1211.2 1515.33 1227.87 1510.8 1246 1502.13C1298.13 1477.33 1324.13 1443.33 1334.4 1386.67C1336.27 1376.13 1336.67 1365.87 1336.53 1323.73L1336.4 1273.6L1348.53 1272.8C1355.2 1272.4 1370.27 1271.73 1381.87 1271.33C1477.2 1267.87 1530.93 1243.6 1556 1192.67C1564 1176.53 1567.47 1166.13 1570.8 1149.07C1581.87 1092 1567.07 1035.33 1531.87 1000.13C1511.73 980 1486.8 967.2 1454 960C1443.07 957.733 1437.33 957.333 1410.4 957.6C1393.33 957.733 1325.33 958.267 1259.33 958.8ZM1139.33 1061.07L1162 1095.33L1171.07 1095.73L1180 1096.13V1061.33V1026.67H1194H1208L1208.27 1060.93L1208.67 1095.33L1217.47 1095.73L1226.27 1096.13L1249.07 1061.33L1271.87 1026.67H1288H1304.13L1279.2 1063.6C1265.47 1083.87 1254.8 1100.67 1255.6 1100.93C1260.13 1102.53 1270.27 1110.67 1274.8 1116.4C1279.6 1122.4 1312 1184.8 1312 1188C1312 1188.93 1306.93 1189.33 1296.67 1189.07L1281.33 1188.67L1268.8 1162.67C1250.13 1124 1245.6 1120 1220.4 1120H1208V1154.67V1189.33H1194H1180V1154.67V1120H1167.07C1151.87 1120 1143.2 1123.07 1136.8 1130.8C1134.67 1133.33 1127.07 1147.47 1119.87 1162.27L1106.8 1189.33H1091.47C1081.33 1189.33 1076 1188.8 1076 1187.87C1076 1187.07 1083.33 1172 1092.13 1154.4C1105.6 1127.73 1109.6 1121.07 1116.13 1114.13C1120.4 1109.6 1126 1104.67 1128.53 1103.33C1131.2 1101.87 1133.33 1100.27 1133.33 1099.73C1133.33 1099.07 1122.53 1082.8 1109.33 1063.47C1096.13 1044.13 1085.33 1027.87 1085.33 1027.47C1085.33 1027.07 1092.4 1026.67 1101.07 1026.67H1116.67L1139.33 1061.07ZM1370.67 1061.33V1096H1382.53H1394.4L1417.2 1061.33L1440 1026.67H1456.13C1468.53 1026.67 1472 1027.07 1471.2 1028.27C1470.67 1029.2 1459.33 1045.87 1446.13 1065.2C1432.93 1084.67 1422.8 1100.67 1423.6 1100.93C1428.53 1102.67 1438.13 1110.27 1443.33 1116.93C1448.8 1123.73 1480 1184.4 1480 1188.13C1480 1188.93 1474 1189.33 1464.53 1189.07L1449.2 1188.67L1436.93 1162.67C1426.93 1141.6 1423.47 1135.47 1418 1129.87C1409.73 1121.33 1405.47 1120 1385.73 1120H1370.67V1154.67V1189.33H1356H1341.33V1108V1026.67H1356H1370.67V1061.33Z" fill="white"/>
<path d="M1768.4 1047.47L1761.33 1073.6L1786.67 1105.33C1800.67 1122.8 1812 1137.6 1812 1138.4C1812 1140.8 1793.07 1210 1792.13 1210.8C1791.73 1211.2 1777.33 1207.73 1760.13 1203.07C1743.07 1198.4 1728.8 1194.8 1728.67 1194.93C1728.13 1195.6 1716.13 1240.53 1716.4 1240.67C1716.53 1240.8 1764.13 1253.6 1822 1269.2C1880 1284.93 1927.73 1297.87 1928.13 1298.13C1929.47 1298.93 1962.8 1173.2 1964.93 1159.33C1971.47 1116.53 1957.2 1081.6 1927.6 1067.47C1917.6 1062.67 1901.33 1058.67 1892 1058.67C1872.93 1058.67 1853.33 1068.93 1837.73 1087.07C1835.33 1089.73 1833.2 1092 1832.8 1092C1832.53 1092 1819.6 1076.13 1804 1056.67C1788.4 1037.2 1775.6 1021.33 1775.6 1021.33C1775.47 1021.33 1772.13 1033.07 1768.4 1047.47ZM1902 1111.73C1919.33 1117.2 1929.6 1124.93 1935.6 1137.07C1938.93 1143.73 1939.33 1146.13 1939.33 1157.33C1939.33 1168.93 1938.53 1173.2 1929.47 1206.67C1924 1226.8 1919.07 1243.87 1918.53 1244.4C1917.33 1245.87 1816 1218.53 1816 1216.8C1816 1212.4 1836.67 1140 1839.47 1134.4C1845.73 1122 1854.93 1113.87 1867.33 1109.73C1874.27 1107.47 1891.33 1108.4 1902 1111.73Z" fill="white"/>
<path d="M139.334 1057.47C124.001 1059.07 106.667 1064.4 90.6672 1072.27C78.4005 1078.27 75.0672 1080.67 63.8672 1091.87C52.8005 1102.93 50.1339 1106.4 44.9339 1117.33C36.4005 1135.07 34.5339 1142.93 33.7339 1164.93C32.0005 1208.8 44.6672 1248 70.6672 1280.4C77.8672 1289.47 97.7339 1308 100.001 1308C100.667 1308 107.201 1298.8 112.534 1290.53C114.667 1287.07 114.667 1287.07 109.601 1283.6C87.0672 1268.8 67.8672 1239.2 61.7339 1210C58.9339 1196.4 59.8672 1173.73 63.8672 1163.6C68.2672 1152.27 76.9339 1140.27 86.1339 1132.93C93.3339 1127.07 118.001 1113.47 119.201 1114.8C119.467 1115.07 126.667 1142 135.201 1174.67C143.867 1207.33 151.067 1234.13 151.201 1234.27C152.001 1235.07 173.334 1228.8 173.334 1227.73C173.334 1227.07 166.401 1200 157.867 1167.87C149.334 1135.6 142.801 1108.8 143.334 1108.27C143.867 1107.73 153.067 1107.33 163.734 1107.33C179.334 1107.33 184.801 1107.87 190.667 1109.87C215.201 1118.13 232.267 1136.67 241.334 1164.8C250.801 1194.27 249.467 1224.8 237.867 1250.8C235.867 1255.2 234.534 1258.93 234.801 1259.2C236.001 1260.4 254.667 1269.33 255.867 1269.33C257.601 1269.33 263.601 1254.4 266.801 1242C268.801 1234.53 269.867 1225.47 270.267 1211.2C271.201 1186.93 269.067 1172.13 261.334 1148.93C247.734 1108.27 226.667 1081.2 198.001 1067.33C179.067 1058.27 160.934 1055.2 139.334 1057.47Z" fill="white"/>
</svg>