<svg width="116" height="40" viewBox="0 0 116 40" fill="none" xmlns="http://www.w3.org/2000/svg">
<path d="M58.2731 0.744823C60.0554 0.654949 80.668 0.744674 80.668 0.744674C80.668 0.744674 80.1058 5.93365 79.2731 7.59896C78.5757 8.9938 76.7159 10.3111 74.7786 10.3111C72.8414 10.3111 55.0185 10.4235 54.631 10.4235C54.2436 10.4235 53.6839 10.524 53.0812 10.7761C52.299 11.1033 51.9707 11.3185 51.4539 11.7835C50.7692 12.3995 50.6295 12.6229 50.145 13.3972L50.1366 13.4108C48.9943 15.2366 49.4727 16.7896 48.4318 18.7971C47.5478 20.5019 45.4096 22.0517 43.3174 22.0517H38.7454L40.7602 11.9004H48.1218C49.4392 11.9004 50.0815 11.4124 50.524 10.7761C51.0271 10.0526 51.144 8.68384 51.144 8.68384C51.144 8.68384 51.7209 5.24005 53.0965 3.56944C54.4722 1.89883 56.4908 0.834697 58.2731 0.744823Z" fill="white"/>
<path d="M54.941 17.4798C56.7233 17.3899 70.2842 17.4775 70.2842 17.4775C70.2842 17.4775 69.5093 23.9099 68.5019 25.3047C67.0731 27.2831 65.0148 27.7844 62.5351 27.7844C60.0554 27.7844 51.5314 27.7063 51.2989 27.7063C49.5404 27.7063 47.6237 29.2951 46.727 30.7284C45.5847 32.5543 45.8746 34.6053 45.1772 36.0776C44.4797 37.5499 42.5389 39.2423 40.0628 39.4074C38.9004 39.4849 34.9484 39.4074 34.9484 39.4074L37.0406 28.9461C37.0406 28.9461 43.5498 28.9057 44.5572 28.9057C45.5646 28.9057 46.2845 28.4202 46.727 27.7838C47.2301 27.0603 47.4244 25.3822 47.4244 25.3822C47.4244 25.3822 47.986 22.1704 49.3617 20.4998C50.7373 18.8292 53.1587 17.5697 54.941 17.4798Z" fill="#ED2E3E"/>
<path d="M18.8303 0.511753H7.64589L0 39.2572H11.3137C11.3137 39.2572 14.5683 22.6741 14.6458 22.6741C14.7233 22.6741 19.6567 35.3051 20.0054 36.0026C20.3541 36.7 20.8543 37.5954 21.6327 38.1723C22.6784 38.9472 23.6347 39.1797 24.4096 39.2572C25.1845 39.3347 33.941 39.2572 33.941 39.2572L26.1919 19.962L41.5351 0.511753C41.5351 0.511753 33.7085 0.507719 32.0812 0.586788C31.2263 0.628324 29.9941 0.956042 28.8266 1.59417C27.8064 2.15178 26.5019 3.53144 26.5019 3.53144C26.5019 3.53144 16.3506 16.8598 15.8856 16.7824C15.4207 16.7049 18.8303 0.511753 18.8303 0.511753Z" fill="white"/>
<path d="M95.9336 0.896751C99.2658 0.896786 115.694 0.896786 115.694 0.896786C115.694 0.896786 115.406 6.76932 112.827 8.80085C111.559 9.79899 110.037 10.3507 108.72 10.3507C107.402 10.3507 93.8414 10.4281 92.9115 10.4281C91.9816 10.4281 90.7418 11.5905 90.7418 12.5204C90.7418 14.0702 91.3617 14.9226 92.9115 14.9226C94.4613 14.9226 100.118 14.9009 105.155 15.0776C110.192 15.2543 114.067 18.6422 114.454 23.5241C114.859 28.6259 112.344 32.823 108.332 36.0001C104.971 38.6617 99.9632 39.3322 97.1735 39.3322C94.3838 39.3322 75.0886 39.4872 75.0886 39.4872C75.0886 39.4872 75.5191 33.6277 77.8783 31.5832C80.203 29.5684 82.9523 29.7234 82.9523 29.7234C82.9523 29.7234 98.8008 29.6458 99.8857 29.6458C100.971 29.6458 102.21 28.406 102.21 27.1661C102.21 25.5388 100.971 25.1514 99.8857 25.1514C98.8008 25.1514 89.6569 25.1514 87.7971 24.9189C85.9373 24.6865 84.2494 24.2154 82.5277 22.9042C79.8156 20.8385 78.8377 18.0997 78.8857 14.7676C78.9518 10.1746 81.3591 7.09745 85.0074 4.30638C87.4871 2.40937 92.6015 0.896717 95.9336 0.896751Z" fill="white"/>
</svg>
