<svg width="130" height="27" viewBox="0 0 130 27" fill="none" xmlns="http://www.w3.org/2000/svg">
<path d="M15.0409 12.713C16.1605 13.2972 17.0366 14.1003 17.6694 15.1225C18.3022 16.1447 18.6186 17.3251 18.6186 18.6637C18.6186 20.7568 17.8763 22.4969 16.3917 23.8842C14.9071 25.2715 13.0939 25.9651 10.9521 25.9651H0V0.410156H10.149C12.242 0.410156 14.0066 1.09162 15.4425 2.45455C16.9028 3.79315 17.6329 5.47247 17.6329 7.49253C17.6329 9.7073 16.7689 11.4475 15.0409 12.713ZM10.149 4.35292H4.19832V11.0702H10.149C11.0738 11.0702 11.8526 10.7538 12.4854 10.121C13.1182 9.46391 13.4346 8.66076 13.4346 7.71158C13.4346 6.76239 13.1182 5.9714 12.4854 5.33862C11.8526 4.68149 11.0738 4.35292 10.149 4.35292ZM10.9521 22.0224C11.9257 22.0224 12.741 21.6816 13.3981 21.0002C14.0796 20.2944 14.4203 19.4425 14.4203 18.4447C14.4203 17.4468 14.0796 16.6071 13.3981 15.9257C12.741 15.2199 11.9257 14.867 10.9521 14.867H4.19832V22.0224H10.9521Z" fill="white"/>
<path d="M30.8205 26.4397C28.1434 26.4397 25.8677 25.5149 23.9937 23.6652C22.1197 21.8155 21.1827 19.5399 21.1827 16.8383C21.1827 14.1368 22.1197 11.8612 23.9937 10.0115C25.8677 8.16183 28.1434 7.23698 30.8205 7.23698C33.5221 7.23698 35.7977 8.16183 37.6474 10.0115C39.5214 11.8612 40.4584 14.1368 40.4584 16.8383C40.4584 19.5399 39.5214 21.8155 37.6474 23.6652C35.7977 25.5149 33.5221 26.4397 30.8205 26.4397ZM26.7683 20.9636C27.8635 22.0589 29.2142 22.6065 30.8205 22.6065C32.4269 22.6065 33.7776 22.0589 34.8728 20.9636C35.968 19.8684 36.5157 18.4933 36.5157 16.8383C36.5157 15.1834 35.968 13.8083 34.8728 12.713C33.7776 11.6178 32.4269 11.0702 30.8205 11.0702C29.2142 11.0702 27.8635 11.6178 26.7683 12.713C25.673 13.8083 25.1254 15.1834 25.1254 16.8383C25.1254 18.4933 25.673 19.8684 26.7683 20.9636Z" fill="white"/>
<path d="M58.8948 7.71158V25.9651H54.952V11.5083H48.8553V18.2986C48.8553 21.1949 48.2225 23.2514 46.957 24.4683C45.6914 25.6852 43.8904 26.1842 41.5539 25.9651V22.2779C42.6735 22.4726 43.5131 22.2414 44.0729 21.5843C44.6327 20.9271 44.9126 19.7711 44.9126 18.1161V7.71158H58.8948Z" fill="white"/>
<path d="M75.7921 7.71158H79.7349V25.9651H75.7921V18.7002H67.432V25.9651H63.4893V7.71158H67.432V14.9765H75.7921V7.71158Z" fill="white"/>
<path d="M98.7665 7.71158H102.709V25.9651H98.7665V23.3366C97.2819 25.4053 95.1523 26.4397 92.3778 26.4397C89.871 26.4397 87.7292 25.5149 85.9525 23.6652C84.1758 21.7911 83.2875 19.5155 83.2875 16.8383C83.2875 14.1368 84.1758 11.8612 85.9525 10.0115C87.7292 8.16183 89.871 7.23698 92.3778 7.23698C95.1523 7.23698 97.2819 8.25918 98.7665 10.3036V7.71158ZM88.8731 21.0367C89.9683 22.1319 91.3434 22.6795 92.9984 22.6795C94.6534 22.6795 96.0285 22.1319 97.1237 21.0367C98.2189 19.9171 98.7665 18.5177 98.7665 16.8383C98.7665 15.159 98.2189 13.7718 97.1237 12.6765C96.0285 11.557 94.6534 10.9972 92.9984 10.9972C91.3434 10.9972 89.9683 11.557 88.8731 12.6765C87.7779 13.7718 87.2303 15.159 87.2303 16.8383C87.2303 18.5177 87.7779 19.9171 88.8731 21.0367Z" fill="white"/>
<path d="M126.38 7.83622L130 9.54782C129.303 12.0422 128.056 13.6344 126.259 14.3244C124.489 14.9878 122.384 14.6826 119.943 13.4089C117.905 12.3739 116.457 11.9361 115.599 12.0953C114.741 12.2545 114.084 13.0639 113.628 14.5234L110.008 12.8118C110.705 10.3174 111.952 8.73846 113.749 8.07505C115.572 7.3851 117.691 7.677 120.104 8.95075C122.169 9.98567 123.604 10.4235 124.408 10.2643C125.24 10.0785 125.897 9.26918 126.38 7.83622Z" fill="white"/>
<path d="M126.38 19.136L130 20.8476C129.303 23.342 128.056 24.9342 126.259 25.6242C124.489 26.2876 122.384 25.9824 119.943 24.7087C117.905 23.6737 116.457 23.2359 115.599 23.3951C114.741 23.5543 114.084 24.3637 113.628 25.8232L110.008 24.1116C110.705 21.6172 111.952 20.0383 113.749 19.3749C115.572 18.6849 117.691 18.9768 120.104 20.2506C122.169 21.2855 123.604 21.7233 124.408 21.5641C125.24 21.3783 125.897 20.569 126.38 19.136Z" fill="white"/>
</svg>
