<svg width="84" height="57" viewBox="0 0 84 57" fill="none" xmlns="http://www.w3.org/2000/svg">
<path d="M7.97086 56.2778C7.60448 56.2778 7.29603 55.9842 7.29603 55.6178V52.1427H6.97349C6.0497 52.1427 5.50718 52.7439 4.96466 53.609L3.70346 55.603C3.4686 55.9842 2.97069 56.2778 2.60352 56.2778H0.961071C0.579814 56.2778 0.477254 55.9842 0.712115 55.603L2.50096 52.7588C2.91119 52.1286 3.64474 51.2338 4.34854 51.0874C3.35117 50.8525 2.86735 50.1636 2.50096 49.5036L0.946975 46.6884C0.726989 46.2923 0.800583 45.9995 1.16697 45.9995H2.82351C3.18989 45.9995 3.58603 46.2195 3.84985 46.6884L4.96387 48.6683C5.53537 49.6946 6.1366 50.1197 6.9727 50.1197H7.29524V46.6884C7.29524 46.3072 7.60292 45.9995 7.97009 45.9995H9.31896C9.68535 45.9995 9.9938 46.3072 9.9938 46.6884V50.1197H10.3163C11.1524 50.1197 11.7537 49.6946 12.3252 48.6683L13.4392 46.6884C13.703 46.2195 14.0992 45.9995 14.4655 45.9995H16.1221C16.4885 45.9995 16.5621 46.2931 16.3421 46.6884L14.7881 49.5036C14.4217 50.1636 13.9379 50.8525 12.9405 51.0874C13.6443 51.2338 14.3779 52.1286 14.7881 52.7588L16.5769 55.603C16.8118 55.9842 16.7092 56.2778 16.328 56.2778H14.6855C14.3191 56.2778 13.8205 55.9842 13.5856 55.603L12.3244 53.609C11.7819 52.7439 11.2393 52.1427 10.3156 52.1427H9.99301V55.6178C9.99301 55.9842 9.68535 56.2778 9.31818 56.2778H7.97086Z" fill="white"/>
<path d="M18.4112 56.2778C18.0448 56.2778 17.7363 55.9701 17.7363 55.5889V46.6884C17.7363 46.3072 18.044 45.9995 18.4112 45.9995H19.76C20.1264 45.9995 20.4349 46.3072 20.4349 46.6884V50.1197H21.9748C22.8109 50.1197 23.4113 49.6946 23.9836 48.6683L25.0976 46.6884C25.3614 46.2195 25.7576 45.9995 26.124 45.9995H27.7805C28.1469 45.9995 28.2205 46.2931 28.0005 46.6884L26.4465 49.5036C26.0801 50.1636 25.5963 50.8525 24.5989 51.0874C25.3027 51.2338 26.0355 52.1286 26.4465 52.7588L28.2354 55.603C28.4702 55.9842 28.3677 56.2778 27.9864 56.2778H26.344C25.9776 56.2778 25.4789 55.9842 25.244 55.603L23.9828 53.609C23.4403 52.7439 22.8978 52.1427 21.974 52.1427H20.4341V55.6178C20.4341 55.9842 20.1264 56.2778 19.7593 56.2778H18.4112Z" fill="white"/>
<path d="M34.5264 46.6883C34.5264 46.3219 34.8199 46.0134 35.2012 46.0134H41.0226C42.8553 46.0134 44.7467 46.8049 44.7467 48.9312C44.7467 49.6647 44.4977 50.2362 43.7791 50.8226C44.7467 51.3361 45.1577 52.2302 45.1577 53.1978C45.1577 55.2356 43.3688 56.2768 41.36 56.2768H35.202C34.8207 56.2768 34.5272 55.9692 34.5272 55.602V46.6883H34.5264ZM37.2241 47.9495V50.0021H41.0508C41.652 50.0021 42.0482 49.6358 42.0482 48.9758C42.0482 48.3158 41.652 47.9495 41.0508 47.9495H37.2241ZM37.2241 51.8787V54.3424H41.3154C42.0779 54.3424 42.4592 53.8437 42.4592 53.1109C42.4592 52.3781 42.0779 51.8795 41.3154 51.8795H37.2241V51.8787Z" fill="white"/>
<path d="M54.6878 52.3486C54.6878 55.0464 53.1338 56.425 50.3625 56.425C47.5911 56.425 46.0371 55.0464 46.0371 52.3486C46.0371 49.6509 47.5911 48.2871 50.3625 48.2871C53.1338 48.2871 54.6878 49.6509 54.6878 52.3486ZM52.21 52.3486C52.21 50.6185 51.6088 49.9147 50.3625 49.9147C49.1161 49.9147 48.5149 50.6185 48.5149 52.3486C48.5149 54.0788 49.1161 54.7974 50.3625 54.7974C51.6088 54.7974 52.21 54.0788 52.21 52.3486Z" fill="white"/>
<path d="M57.7823 55.75C57.7087 56.0577 57.4159 56.2777 57.1224 56.2777H55.656C55.4071 56.2777 55.231 56.0577 55.2897 55.8087L56.5798 50.6035C57.0198 48.8436 58.5597 48.4333 60.1724 48.4333H63.5591C63.808 48.4333 63.9991 48.6244 63.9991 48.8733V55.8385C63.9991 56.0874 63.8088 56.2785 63.5591 56.2785H61.9605C61.7115 56.2785 61.5205 56.0882 61.5205 55.8385V50.1643H60.1716C59.5266 50.1643 59.1015 50.443 58.9104 51.2204L57.7823 55.75Z" fill="white"/>
<path d="M68.2373 51.4396H71.3751V48.8733C71.3751 48.6244 71.5661 48.4333 71.8151 48.4333H73.4137C73.6626 48.4333 73.8537 48.6244 73.8537 48.8733V55.8385C73.8537 56.0874 73.6634 56.2785 73.4137 56.2785H71.8151C71.5661 56.2785 71.3751 56.0882 71.3751 55.8385V53.1697H68.2373V55.8385C68.2373 56.0874 68.0471 56.2785 67.7974 56.2785H66.1988C65.9498 56.2785 65.7588 56.0882 65.7588 55.8385V48.8733C65.7588 48.6244 65.949 48.4333 66.1988 48.4333H67.7974C68.0463 48.4333 68.2373 48.6244 68.2373 48.8733V51.4396Z" fill="white"/>
<path d="M78.0763 50.3985C77.8861 50.6334 77.6215 50.7798 77.2551 50.7798H76.1849C75.9359 50.7798 75.7449 50.5895 75.7449 50.3398C75.7449 48.8148 77.27 48.2871 79.6452 48.2871C81.7566 48.2871 83.4131 49.1671 83.4131 51.41V55.8379C83.4131 56.0868 83.2221 56.2778 82.9732 56.2778H81.5945C81.3456 56.2778 81.1545 56.0876 81.1545 55.8379V55.6179C80.4946 56.0868 79.6882 56.4242 78.5593 56.4242C76.6382 56.4242 75.1719 55.5592 75.1719 53.9026C75.1719 52.2461 76.6382 51.41 78.5593 51.41H80.9346C80.9346 50.2662 80.4508 49.9147 79.4683 49.9147C78.8678 49.9147 78.3253 50.0901 78.0763 50.3985ZM80.9354 54.1524V53.0383H78.7363C78.0473 53.0383 77.6512 53.4196 77.6512 53.9034C77.6512 54.417 78.0473 54.7982 78.8099 54.7982C79.689 54.7974 80.4226 54.4749 80.9354 54.1524Z" fill="white"/>
<path d="M75.4837 9.84599C75.4837 9.84599 64.9675 4.28294 58.9864 15.7801C54.5992 24.2132 60.9013 33.79 51.2798 38.1247C49.2381 39.0454 35.3328 40.3074 34.5218 24.4011C34.2 18.0935 36.064 12.8921 39.1978 8.96527C35.7383 8.04618 29.2969 7.70094 25.0953 15.7793C20.7081 24.2124 27.0101 33.7892 17.3887 38.124C15.347 39.0446 1.4417 40.3066 0.630648 24.4003C-0.548351 1.29395 27.6004 -6.96921 40.1216 7.88413C49.2804 -2.13735 67.2018 -2.61256 75.4837 9.84599Z" fill="white"/>
<path d="M74.1738 33.671C79.2726 33.671 83.4061 29.5375 83.4061 24.4387C83.4061 19.3398 79.2726 15.2063 74.1738 15.2063C69.0749 15.2063 64.9414 19.3398 64.9414 24.4387C64.9414 29.5375 69.0749 33.671 74.1738 33.671Z" fill="white"/>
</svg>
