<svg width="24" height="32" viewBox="0 0 24 32" fill="none" xmlns="http://www.w3.org/2000/svg">
<path fill-rule="evenodd" clip-rule="evenodd" d="M7.97682 0H0.0706517V4.26506H7.97682V4.26633C14.3624 4.78788 19.3709 9.79419 19.3709 15.893C19.3709 21.9938 14.3624 27.1032 7.97682 27.6277H4.55849V12.8212H6.83664V12.8425C6.86055 12.8425 6.88338 12.8387 6.90947 12.8387C8.79525 12.8387 10.3256 14.27 10.3256 16.033C10.3256 17.7964 8.79525 19.2277 6.90947 19.2277C6.88447 19.2277 6.86164 19.2238 6.83664 19.2238V23.4848C11.2419 23.4848 14.8124 20.1483 14.8124 16.033C14.8124 11.919 11.2419 8.58155 6.83664 8.58155H0V32H7.97682V31.9876C16.9232 31.4382 24 24.4908 24 15.9934C24 7.49655 16.9232 0.547893 7.97682 0Z" fill="#D0D5DD"/>
</svg>
