<svg width="116" height="40" viewBox="0 0 116 40" fill="none" xmlns="http://www.w3.org/2000/svg">
<path d="M58.2731 0.745799C60.0554 0.655926 80.668 0.745651 80.668 0.745651C80.668 0.745651 80.1058 5.93463 79.2731 7.59994C78.5757 8.99477 76.7159 10.3121 74.7786 10.3121C72.8414 10.3121 55.0185 10.4245 54.631 10.4245C54.2436 10.4245 53.6839 10.5249 53.0812 10.7771C52.299 11.1043 51.9707 11.3195 51.4539 11.7844C50.7692 12.4004 50.6295 12.6239 50.145 13.3982L50.1366 13.4118C48.9943 15.2376 49.4727 16.7906 48.4318 18.7981C47.5478 20.5029 45.4096 22.0527 43.3174 22.0527H38.7454L40.7602 11.9014H48.1218C49.4392 11.9014 50.0815 11.4134 50.524 10.7771C51.0271 10.0536 51.144 8.68481 51.144 8.68481C51.144 8.68481 51.7209 5.24103 53.0965 3.57042C54.4722 1.89981 56.4908 0.835673 58.2731 0.745799Z" fill="#342B2B"/>
<path d="M54.941 17.4808C56.7233 17.3909 70.2842 17.4785 70.2842 17.4785C70.2842 17.4785 69.5093 23.9109 68.5019 25.3057C67.0731 27.2841 65.0148 27.7854 62.5351 27.7854C60.0554 27.7854 51.5314 27.7073 51.2989 27.7073C49.5404 27.7073 47.6237 29.296 46.727 30.7294C45.5847 32.5552 45.8746 34.6062 45.1772 36.0786C44.4797 37.5509 42.5389 39.2433 40.0628 39.4084C38.9004 39.4859 34.9484 39.4084 34.9484 39.4084L37.0406 28.9471C37.0406 28.9471 43.5498 28.9066 44.5572 28.9066C45.5646 28.9066 46.2845 28.4211 46.727 27.7848C47.2301 27.0613 47.4244 25.3832 47.4244 25.3832C47.4244 25.3832 47.986 22.1714 49.3617 20.5008C50.7373 18.8301 53.1587 17.5706 54.941 17.4808Z" fill="#ED2E3E"/>
<path d="M18.8303 0.51273H7.64589L0 39.2581H11.3137C11.3137 39.2581 14.5683 22.6751 14.6458 22.6751C14.7233 22.6751 19.6567 35.3061 20.0054 36.0035C20.3541 36.7009 20.8543 37.5964 21.6327 38.1733C22.6784 38.9482 23.6347 39.1806 24.4096 39.2581C25.1845 39.3356 33.941 39.2581 33.941 39.2581L26.1919 19.9629L41.5351 0.51273C41.5351 0.51273 33.7085 0.508696 32.0812 0.587764C31.2263 0.6293 29.9941 0.957019 28.8266 1.59514C27.8064 2.15276 26.5019 3.53242 26.5019 3.53242C26.5019 3.53242 16.3506 16.8608 15.8856 16.7833C15.4207 16.7058 18.8303 0.51273 18.8303 0.51273Z" fill="#342B2B"/>
<path d="M95.9336 0.897728C99.2658 0.897763 115.694 0.897763 115.694 0.897763C115.694 0.897763 115.406 6.7703 112.827 8.80183C111.559 9.79996 110.037 10.3516 108.72 10.3516C107.402 10.3516 93.8414 10.4291 92.9115 10.4291C91.9816 10.4291 90.7418 11.5915 90.7418 12.5214C90.7418 14.0711 91.3617 14.9236 92.9115 14.9236C94.4613 14.9236 100.118 14.9018 105.155 15.0786C110.192 15.2553 114.067 18.6432 114.454 23.5251C114.859 28.6269 112.344 32.824 108.332 36.0011C104.971 38.6627 99.9632 39.3332 97.1735 39.3332C94.3838 39.3332 75.0886 39.4882 75.0886 39.4882C75.0886 39.4882 75.5191 33.6287 77.8783 31.5841C80.203 29.5694 82.9523 29.7243 82.9523 29.7243C82.9523 29.7243 98.8008 29.6468 99.8857 29.6468C100.971 29.6468 102.21 28.407 102.21 27.1671C102.21 25.5398 100.971 25.1524 99.8857 25.1524C98.8008 25.1524 89.6569 25.1524 87.7971 24.9199C85.9373 24.6875 84.2494 24.2164 82.5277 22.9052C79.8156 20.8394 78.8377 18.1007 78.8857 14.7686C78.9518 10.1755 81.3591 7.09843 85.0074 4.30736C87.4871 2.41034 92.6015 0.897693 95.9336 0.897728Z" fill="#342B2B"/>
</svg>
