<svg width="67" height="68" viewBox="0 0 67 68" fill="none" xmlns="http://www.w3.org/2000/svg">
<g filter="url(#filter0_d_2_1250)">
<path d="M33.499 59.4971C49.7909 59.4971 62.9981 46.2899 62.9981 29.9981C62.9981 13.7062 49.7909 0.499023 33.499 0.499023C17.2072 0.499023 4 13.7062 4 29.9981C4 46.2899 17.2072 59.4971 33.499 59.4971Z" fill="#FF3737"/>
</g>
<g filter="url(#filter1_d_2_1250)">
<path fill-rule="evenodd" clip-rule="evenodd" d="M46.3351 45.2476C44.4213 45.2476 43.0754 44.7971 42.2993 43.8954C41.5224 42.9942 41.1342 41.434 41.1342 39.2145V12.9187H45.1285V38.7568C45.1285 39.8945 45.2878 40.6571 45.607 41.0452C45.9256 41.434 46.6265 41.6277 47.7082 41.6277H48.6235V45.1644C48.1243 45.2196 47.3611 45.2476 46.3351 45.2476ZM34.082 44.0202C32.5697 45.0883 30.0806 45.6221 26.6134 45.6221C22.6744 45.6221 19.3458 44.721 16.6277 42.9175L18.708 39.7554C21.1212 41.3091 23.8393 42.0854 26.8631 42.0854C28.9155 42.0854 30.3581 41.8565 31.1903 41.399C32.0224 40.9413 32.4384 40.0331 32.4384 38.6736C32.4384 37.6199 32.0641 36.8917 31.315 36.4892C30.5661 36.0874 29.082 35.6921 26.8631 35.3033C25.5868 35.0818 24.5675 34.8808 23.8049 34.7C23.0417 34.52 22.2239 34.2496 21.35 33.8887C20.4763 33.5286 19.8172 33.1191 19.3738 32.6614C18.9298 32.2036 18.5552 31.5939 18.2503 30.8305C17.9449 30.0681 17.7926 29.1734 17.7926 28.1469C17.7926 25.9561 18.5065 24.3053 19.9354 23.1956C21.3637 22.0866 23.673 21.5313 26.8631 21.5313C30.4134 21.5313 33.3538 22.2113 35.6839 23.5701L33.7699 26.8988C31.8001 25.8168 29.526 25.2759 26.9463 25.2759C25.0324 25.2759 23.701 25.5119 22.9519 25.9834C22.203 26.4553 21.8287 27.1763 21.8287 28.1469C21.8287 29.1734 22.1887 29.9016 22.9104 30.3313C23.6313 30.7616 25.0045 31.1569 27.0294 31.5172C28.4442 31.7667 29.5117 31.9749 30.2332 32.1412C30.9543 32.3078 31.7792 32.5645 32.7088 32.9111C33.638 33.2582 34.3172 33.6535 34.7477 34.0967C35.1774 34.5407 35.5518 35.1305 35.8711 35.8651C36.1895 36.6003 36.3496 37.4813 36.3496 38.5071C36.3496 41.1148 35.5935 42.9527 34.082 44.0202Z" fill="#F44336"/>
</g>
<g filter="url(#filter2_d_2_1250)">
<path fill-rule="evenodd" clip-rule="evenodd" d="M46.3351 43.5354C44.4213 43.5354 43.0754 43.0849 42.2993 42.1832C41.5224 41.282 41.1342 39.7218 41.1342 37.5024V11.2065H45.1285V37.0447C45.1285 38.1824 45.2878 38.945 45.607 39.333C45.9256 39.7218 46.6265 39.9156 47.7082 39.9156H48.6235V43.4522C48.1243 43.5074 47.3611 43.5354 46.3351 43.5354ZM34.082 42.308C32.5697 43.3761 30.0806 43.9099 26.6134 43.9099C22.6744 43.9099 19.3458 43.0088 16.6277 41.2054L18.708 38.0432C21.1212 39.597 23.8393 40.3733 26.8631 40.3733C28.9155 40.3733 30.3581 40.1443 31.1903 39.6868C32.0224 39.2291 32.4384 38.3209 32.4384 36.9615C32.4384 35.9077 32.0641 35.1796 31.315 34.777C30.5661 34.3753 29.082 33.98 26.8631 33.5912C25.5868 33.3696 24.5675 33.1687 23.8049 32.9879C23.0417 32.8078 22.2239 32.5374 21.35 32.1766C20.4763 31.8165 19.8172 31.4069 19.3738 30.9492C18.9298 30.4915 18.5552 29.8817 18.2503 29.1184C17.9449 28.356 17.7926 27.4613 17.7926 26.4347C17.7926 24.244 18.5065 22.5932 19.9354 21.4834C21.3637 20.3745 23.673 19.8191 26.8631 19.8191C30.4134 19.8191 33.3538 20.4991 35.6839 21.858L33.7699 25.1866C31.8001 24.1047 29.526 23.5638 26.9463 23.5638C25.0324 23.5638 23.701 23.7998 22.9519 24.2712C22.203 24.7432 21.8287 25.4641 21.8287 26.4347C21.8287 27.4613 22.1887 28.1894 22.9104 28.6192C23.6313 29.0495 25.0045 29.4448 27.0294 29.805C28.4442 30.0545 29.5117 30.2627 30.2332 30.4291C30.9543 30.5956 31.7792 30.8523 32.7088 31.1989C33.638 31.546 34.3172 31.9413 34.7477 32.3846C35.1774 32.8286 35.5518 33.4184 35.8711 34.153C36.1895 34.8882 36.3496 35.7692 36.3496 36.795C36.3496 39.4027 35.5935 41.2406 34.082 42.308Z" fill="white"/>
</g>
<defs>
<filter id="filter0_d_2_1250" x="0" y="0.499023" width="66.9981" height="66.9981" filterUnits="userSpaceOnUse" color-interpolation-filters="sRGB">
<feFlood flood-opacity="0" result="BackgroundImageFix"/>
<feColorMatrix in="SourceAlpha" type="matrix" values="0 0 0 0 0 0 0 0 0 0 0 0 0 0 0 0 0 0 127 0" result="hardAlpha"/>
<feOffset dy="4"/>
<feGaussianBlur stdDeviation="2"/>
<feComposite in2="hardAlpha" operator="out"/>
<feColorMatrix type="matrix" values="0 0 0 0 0 0 0 0 0 0 0 0 0 0 0 0 0 0 0.25 0"/>
<feBlend mode="normal" in2="BackgroundImageFix" result="effect1_dropShadow_2_1250"/>
<feBlend mode="normal" in="SourceGraphic" in2="effect1_dropShadow_2_1250" result="shape"/>
</filter>
<filter id="filter1_d_2_1250" x="12.6277" y="12.9187" width="39.9958" height="40.7034" filterUnits="userSpaceOnUse" color-interpolation-filters="sRGB">
<feFlood flood-opacity="0" result="BackgroundImageFix"/>
<feColorMatrix in="SourceAlpha" type="matrix" values="0 0 0 0 0 0 0 0 0 0 0 0 0 0 0 0 0 0 127 0" result="hardAlpha"/>
<feOffset dy="4"/>
<feGaussianBlur stdDeviation="2"/>
<feComposite in2="hardAlpha" operator="out"/>
<feColorMatrix type="matrix" values="0 0 0 0 0 0 0 0 0 0 0 0 0 0 0 0 0 0 0.25 0"/>
<feBlend mode="normal" in2="BackgroundImageFix" result="effect1_dropShadow_2_1250"/>
<feBlend mode="normal" in="SourceGraphic" in2="effect1_dropShadow_2_1250" result="shape"/>
</filter>
<filter id="filter2_d_2_1250" x="12.6277" y="11.2065" width="39.9958" height="40.7034" filterUnits="userSpaceOnUse" color-interpolation-filters="sRGB">
<feFlood flood-opacity="0" result="BackgroundImageFix"/>
<feColorMatrix in="SourceAlpha" type="matrix" values="0 0 0 0 0 0 0 0 0 0 0 0 0 0 0 0 0 0 127 0" result="hardAlpha"/>
<feOffset dy="4"/>
<feGaussianBlur stdDeviation="2"/>
<feComposite in2="hardAlpha" operator="out"/>
<feColorMatrix type="matrix" values="0 0 0 0 0 0 0 0 0 0 0 0 0 0 0 0 0 0 0.25 0"/>
<feBlend mode="normal" in2="BackgroundImageFix" result="effect1_dropShadow_2_1250"/>
<feBlend mode="normal" in="SourceGraphic" in2="effect1_dropShadow_2_1250" result="shape"/>
</filter>
</defs>
</svg>
