<svg width="200" height="29" viewBox="0 0 200 29" fill="none" xmlns="http://www.w3.org/2000/svg">
<g id="&#208;&#173;&#208;&#154;&#208;&#158; &#208;&#161;&#208;&#162;&#208;&#160;&#208;&#158;&#208;&#153;">
<path d="M8.90115 26.145C9.98907 26.145 10.988 25.9966 11.8979 25.6999C12.8078 25.3834 13.599 24.9186 14.2715 24.3054C14.9638 23.6724 15.5177 22.8713 15.9331 21.9021C16.3484 20.9328 16.6056 19.7757 16.7045 18.4306H5.51871V16.2053H16.7045C16.6056 14.8998 16.3484 13.7724 15.9331 12.8229C15.5177 11.8735 14.9737 11.0921 14.3012 10.4789C13.6484 9.84597 12.8869 9.38113 12.0166 9.08442C11.1462 8.78772 10.2067 8.63937 9.19785 8.63937C7.85279 8.63937 6.55718 8.87673 5.31102 9.35146C4.08464 9.80641 2.90771 10.5581 1.78023 11.6064L0.296705 9.82619C1.42418 8.77783 2.78903 7.94705 4.39123 7.33387C5.99344 6.72067 7.69455 6.41408 9.49456 6.41408C11.2748 6.41408 12.8869 6.65144 14.3309 7.12617C15.7946 7.6009 17.0408 8.3031 18.0693 9.23278C19.1177 10.1625 19.9287 11.3097 20.5023 12.6746C21.0759 14.0394 21.3628 15.6119 21.3628 17.3922C21.3628 19.1724 21.0759 20.7449 20.5023 22.1098C19.9287 23.4746 19.1078 24.6219 18.0397 25.5515C16.9913 26.4812 15.7155 27.1834 14.2122 27.6582C12.7286 28.1329 11.0572 28.3702 9.19785 28.3702C7.39784 28.3702 5.69674 28.0637 4.09453 27.4505C2.49232 26.8373 1.12748 26.0065 0 24.9581L1.48352 23.1779C2.611 24.2263 3.78793 24.9878 5.01431 25.4625C6.26047 25.9175 7.55609 26.145 8.90115 26.145Z" fill="#28662D"/>
<path d="M38.2761 17.2438L46.1388 27.7768H41.2431L34.4189 18.579H29.2266V27.7768H24.9244V7.00749H29.2266V16.3537H34.1222L40.9464 7.00749H45.6937L38.2761 17.2438Z" fill="#28662D"/>
<path d="M58.3072 8.49101C57.2984 8.49101 56.3489 8.66904 55.4588 9.02508C54.5885 9.38113 53.8269 9.92509 53.1742 10.657C52.5214 11.3888 51.9972 12.3185 51.6016 13.446C51.2258 14.5537 51.0379 15.8691 51.0379 17.3922C51.0379 18.9152 51.2258 20.2405 51.6016 21.368C51.9972 22.4757 52.5214 23.3955 53.1742 24.1274C53.8269 24.8592 54.5885 25.4032 55.4588 25.7592C56.3489 26.1153 57.2984 26.2933 58.3072 26.2933C59.316 26.2933 60.2555 26.1153 61.1259 25.7592C62.016 25.4032 62.7874 24.8592 63.4402 24.1274C64.0929 23.3955 64.6072 22.4757 64.983 21.368C65.3786 20.2405 65.5764 18.9152 65.5764 17.3922C65.5764 15.8691 65.3786 14.5537 64.983 13.446C64.6072 12.3185 64.0929 11.3888 63.4402 10.657C62.7874 9.92509 62.016 9.38113 61.1259 9.02508C60.2555 8.66904 59.316 8.49101 58.3072 8.49101ZM58.3072 6.41408C60.0874 6.41408 61.6995 6.65144 63.1435 7.12617C64.6072 7.6009 65.8534 8.3031 66.8819 9.23278C67.9303 10.1625 68.7413 11.3097 69.3149 12.6746C69.8885 14.0394 70.1754 15.6119 70.1754 17.3922C70.1754 19.1724 69.8885 20.7449 69.3149 22.1098C68.7413 23.4746 67.9303 24.6219 66.8819 25.5515C65.8534 26.4812 64.6072 27.1834 63.1435 27.6582C61.6995 28.1329 60.0874 28.3702 58.3072 28.3702C56.5269 28.3702 54.9049 28.1329 53.4412 27.6582C51.9775 27.1834 50.7214 26.4812 49.673 25.5515C48.6445 24.6219 47.8434 23.4746 47.2697 22.1098C46.7159 20.7449 46.439 19.1724 46.439 17.3922C46.439 15.6119 46.7159 14.0394 47.2697 12.6746C47.8434 11.3097 48.6445 10.1625 49.673 9.23278C50.7214 8.3031 51.9775 7.6009 53.4412 7.12617C54.9049 6.65144 56.5269 6.41408 58.3072 6.41408Z" fill="#28662D"/>
<path d="M95.9887 26.145C97.3337 26.145 98.6195 25.9175 99.8459 25.4625C101.092 24.9878 102.279 24.2263 103.406 23.1779L104.89 24.9581C103.762 26.0065 102.398 26.8373 100.795 27.4505C99.1931 28.0637 97.492 28.3702 95.692 28.3702C93.8326 28.3702 92.1513 28.1329 90.648 27.6582C89.1645 27.1834 87.8886 26.4812 86.8205 25.5515C85.7721 24.6219 84.9612 23.4746 84.3875 22.1098C83.8139 20.7449 83.5271 19.1724 83.5271 17.3922C83.5271 15.6119 83.804 14.0394 84.3579 12.6746C84.9315 11.3097 85.7326 10.1625 86.7612 9.23278C87.8095 8.3031 89.0656 7.6009 90.5293 7.12617C91.9931 6.65144 93.6151 6.41408 95.3953 6.41408C97.1953 6.41408 98.8964 6.72067 100.499 7.33387C102.101 7.94705 103.466 8.77783 104.593 9.82619L103.11 11.6064C101.982 10.5581 100.795 9.80641 99.5491 9.35146C98.3228 8.87673 97.037 8.63937 95.692 8.63937C94.6238 8.63937 93.6249 8.81739 92.6953 9.17344C91.7656 9.5097 90.9645 10.0339 90.292 10.746C89.6194 11.4581 89.0854 12.368 88.6897 13.4757C88.3139 14.5636 88.126 15.8691 88.126 17.3922C88.126 18.9152 88.3139 20.2306 88.6897 21.3383C89.0854 22.4263 89.6293 23.3263 90.3216 24.0384C91.0337 24.7504 91.8645 25.2845 92.8139 25.6406C93.7832 25.9768 94.8414 26.145 95.9887 26.145Z" fill="#28662D"/>
<path d="M126.105 9.23278H118.094V27.7768H113.792V9.23278H105.781V7.00749H126.105V9.23278Z" fill="#28662D"/>
<path d="M139.163 7.00749C140.646 7.00749 141.972 7.17562 143.139 7.51189C144.325 7.82837 145.324 8.3031 146.135 8.93607C146.946 9.54926 147.569 10.3108 148.005 11.2207C148.44 12.1108 148.657 13.1295 148.657 14.2768C148.657 15.424 148.44 16.4526 148.005 17.3625C147.569 18.2526 146.946 19.0141 146.135 19.6471C145.324 20.2603 144.325 20.735 143.139 21.0713C141.972 21.3878 140.646 21.546 139.163 21.546H132.784V27.7768H128.481V7.00749H139.163ZM132.784 9.23278V19.3207H139.163C140.725 19.3207 141.932 18.9152 142.783 18.1043C143.653 17.2735 144.088 15.9976 144.088 14.2768C144.088 12.5559 143.653 11.2899 142.783 10.4789C141.932 9.64816 140.725 9.23278 139.163 9.23278H132.784Z" fill="#28662D"/>
<path d="M163.197 8.49101C162.188 8.49101 161.239 8.66904 160.349 9.02508C159.478 9.38113 158.717 9.92509 158.064 10.657C157.411 11.3888 156.887 12.3185 156.491 13.446C156.116 14.5537 155.928 15.8691 155.928 17.3922C155.928 18.9152 156.116 20.2405 156.491 21.368C156.887 22.4757 157.411 23.3955 158.064 24.1274C158.717 24.8592 159.478 25.4032 160.349 25.7592C161.239 26.1153 162.188 26.2933 163.197 26.2933C164.206 26.2933 165.145 26.1153 166.016 25.7592C166.906 25.4032 167.677 24.8592 168.33 24.1274C168.983 23.3955 169.497 22.4757 169.873 21.368C170.268 20.2405 170.466 18.9152 170.466 17.3922C170.466 15.8691 170.268 14.5537 169.873 13.446C169.497 12.3185 168.983 11.3888 168.33 10.657C167.677 9.92509 166.906 9.38113 166.016 9.02508C165.145 8.66904 164.206 8.49101 163.197 8.49101ZM163.197 6.41408C164.977 6.41408 166.589 6.65144 168.033 7.12617C169.497 7.6009 170.743 8.3031 171.772 9.23278C172.82 10.1625 173.631 11.3097 174.205 12.6746C174.778 14.0394 175.065 15.6119 175.065 17.3922C175.065 19.1724 174.778 20.7449 174.205 22.1098C173.631 23.4746 172.82 24.6219 171.772 25.5515C170.743 26.4812 169.497 27.1834 168.033 27.6582C166.589 28.1329 164.977 28.3702 163.197 28.3702C161.417 28.3702 159.795 28.1329 158.331 27.6582C156.867 27.1834 155.611 26.4812 154.563 25.5515C153.534 24.6219 152.733 23.4746 152.16 22.1098C151.606 20.7449 151.329 19.1724 151.329 17.3922C151.329 15.6119 151.606 14.0394 152.16 12.6746C152.733 11.3097 153.534 10.1625 154.563 9.23278C155.611 8.3031 156.867 7.6009 158.331 7.12617C159.795 6.65144 161.417 6.41408 163.197 6.41408Z" fill="#28662D"/>
<path d="M195.698 27.7768V10.8647H195.401L184.275 27.7768H178.637V7.00749H182.939V23.9197H183.236L194.363 7.00749H200V27.7768H195.698ZM189.022 5.37561C186.945 5.37561 185.461 4.93055 184.571 4.04044C183.681 3.15032 183.236 1.9635 183.236 0.47998H186.648C186.648 1.37009 186.876 2.01296 187.331 2.40856C187.786 2.80417 188.349 3.00197 189.022 3.00197C189.694 3.00197 190.258 2.80417 190.713 2.40856C191.168 2.01296 191.396 1.37009 191.396 0.47998H194.808C194.808 1.9635 194.363 3.15032 193.472 4.04044C192.582 4.93055 191.099 5.37561 189.022 5.37561Z" fill="#28662D"/>
</g>
</svg>
