<svg width="747" height="348" viewBox="0 0 747 348" fill="none" xmlns="http://www.w3.org/2000/svg">
<path d="M376 1.50408C387.5 0.924176 520.5 1.50312 520.5 1.50312C520.5 1.50312 516.873 34.9844 511.5 45.7296C507 54.7296 495 63.2296 482.5 63.2296C470 63.2296 355 63.9548 352.5 63.9548C350 63.9548 346.389 64.6027 342.5 66.2296C337.453 68.3411 335.334 69.7296 332 72.7296C327.582 76.7043 326.68 78.1458 323.555 83.1423L323.5 83.2296C316.13 95.0106 319.217 105.031 312.5 117.984C306.796 128.984 293 138.984 279.5 138.984H250L263 73.4844H310.5C319 73.4844 323.145 70.3356 326 66.2296C329.246 61.5612 330 52.7296 330 52.7296C330 52.7296 333.722 30.509 342.599 19.7296C351.475 8.95016 364.5 2.08398 376 1.50408Z" fill="#342B2B"/>
<path d="M354.5 109.484C366 108.904 453.5 109.47 453.5 109.47C453.5 109.47 448.5 150.974 442 159.974C432.781 172.739 419.5 175.974 403.5 175.974C387.5 175.974 332.5 175.47 331 175.47C319.653 175.47 307.286 185.721 301.5 194.97C294.13 206.751 296 219.984 291.5 229.484C287 238.984 274.477 249.905 258.5 250.97C251 251.47 225.5 250.97 225.5 250.97L239 183.47C239 183.47 281 183.208 287.5 183.208C294 183.208 298.645 180.076 301.5 175.97C304.746 171.302 306 160.474 306 160.474C306 160.474 309.624 139.75 318.5 128.971C327.376 118.191 343 110.064 354.5 109.484Z" fill="#ED2E3E"/>
<path d="M121.5 0.000223162H49.3342L0 250H73C73 250 94 143 94.5 143C95 143 126.833 224.5 129.083 229C131.333 233.5 134.56 239.278 139.583 243C146.33 248 152.5 249.5 157.5 250C162.5 250.5 219 250 219 250L169 125.5L268 0.000223162C268 0.000223162 217.5 -0.0258064 207 0.484372C201.484 0.752379 193.533 2.86694 186 6.98437C179.417 10.5823 171 19.4844 171 19.4844C171 19.4844 105.5 105.484 102.5 104.984C99.5 104.484 121.5 0.000223162 121.5 0.000223162Z" fill="#342B2B"/>
<path d="M619 2.48438C640.5 2.4846 746.5 2.4846 746.5 2.4846C746.5 2.4846 744.645 40.3764 728 53.4846C719.822 59.925 710 63.4846 701.5 63.4846C693 63.4846 605.5 63.9844 599.5 63.9844C593.5 63.9844 585.5 71.4844 585.5 77.4844C585.5 87.4842 589.5 92.9844 599.5 92.9844C609.5 92.9844 646 92.8442 678.5 93.9846C711 95.1249 736 116.985 738.5 148.485C741.113 181.403 724.889 208.484 699 228.985C677.312 246.158 645 250.485 627 250.485C609 250.485 484.5 251.485 484.5 251.485C484.5 251.485 487.278 213.677 502.5 200.485C517.5 187.485 535.239 188.485 535.239 188.485C535.239 188.485 637.5 187.984 644.5 187.984C651.5 187.984 659.5 179.984 659.5 171.984C659.5 161.484 651.5 158.984 644.5 158.984C637.5 158.984 578.5 158.984 566.5 157.485C554.5 155.985 543.609 152.945 532.5 144.485C515 131.156 508.69 113.484 509 91.9846C509.427 62.3483 524.959 42.4936 548.5 24.4846C564.5 12.2443 597.5 2.48415 619 2.48438Z" fill="#342B2B"/>
<path d="M201.636 346.984L208.794 313.432L227.436 313.386V315.52L210.722 315.566L204 346.984H201.636Z" fill="#342B2B"/>
<path d="M225.465 346.983L232.58 313.432H239.969C242.157 313.432 244.97 313.761 246.408 314.418C247.846 315.076 248.917 316.04 249.621 317.31C250.325 318.565 250.677 320.087 250.677 321.877C250.677 323.59 250.394 325.136 249.828 326.513C249.277 327.89 248.435 329.068 247.303 330.047C246.171 331.026 244.748 331.783 243.035 332.319C241.337 332.839 238.34 333.099 236.045 333.099H230.767L227.829 346.983H225.465ZM231.226 331.034H236.389C238.837 331.034 241.864 330.674 243.471 329.955C245.077 329.221 246.278 328.18 247.074 326.834C247.869 325.472 248.267 323.843 248.267 321.946C248.267 319.697 247.609 318.067 246.294 317.058C244.993 316.033 242.096 315.52 239.602 315.52H234.507L231.226 331.034Z" fill="#342B2B"/>
<path d="M251.5 346.984V344.484C252.433 344.484 253.028 344.58 254 344.484C254.991 344.387 255.6 344.028 256.5 343.484C257.63 342.802 258.32 342.071 258.978 341.184C259.651 340.281 260.347 339.249 261.066 338.086L255.5 313.432H257.841L261.502 332.119C261.64 332.609 261.77 333.106 261.892 333.611C262.015 334.1 262.137 334.582 262.259 335.057C262.382 335.531 262.481 335.99 262.558 336.434C262.864 335.852 263.208 335.21 263.59 334.506C263.988 333.802 264.378 333.144 264.761 332.532L276.717 313.484H279.357L262.581 339.807C261.556 341.429 260.538 342.813 259.528 343.961C258.519 345.108 257.036 346.079 255.5 346.484C253.964 346.89 252.984 346.984 251.5 346.984Z" fill="#342B2B"/>
<path d="M276.609 346.983L283.723 313.432H307.8L300.708 346.983H298.345L305 315.566H285.651L278.973 346.983H276.609Z" fill="#342B2B"/>
<path d="M306.136 346.983L313.25 313.432H337.5L330.409 346.983H328.045L334.7 315.566H315.178L308.5 346.983H306.136Z" fill="#342B2B"/>
<path d="M334.444 346.983L352.538 313.386H354.902L359.583 346.983H357.288L355.613 337.096L343 336.984L337.5 346.983H334.444ZM344 334.984L355.338 334.961C355.338 334.961 353.311 316.943 353.249 316.071H353.135C352.722 316.958 353.624 315.122 353.135 316.071L344 334.984Z" fill="#342B2B"/>
<path d="M373.857 346.983L380.972 313.432H383.29L379.847 329.611L398.931 313.432H401.961L382.418 329.932L397.315 346.983H394.492L379.778 329.978L376.198 346.983H373.857Z" fill="#342B2B"/>
<path d="M413.602 347.442C410.802 347.442 408.515 346.861 406.74 345.698C404.966 344.535 403.665 342.96 402.839 340.971C402.013 338.966 401.6 336.702 401.6 334.178C401.6 332.372 401.753 330.605 402.059 328.876C402.38 327.132 402.847 325.465 403.459 323.874C404.071 322.282 404.836 320.821 405.754 319.49C406.687 318.159 407.765 317.004 408.989 316.025C410.229 315.03 411.606 314.265 413.12 313.73C414.65 313.179 416.333 312.904 418.169 312.904C421.764 312.904 424.61 314.013 426.706 316.231C428.818 318.45 429.873 321.732 429.873 326.077C429.873 327.561 429.743 329.114 429.483 330.735C429.238 332.357 428.848 333.971 428.313 335.578C427.777 337.169 427.081 338.676 426.224 340.099C425.383 341.521 424.358 342.784 423.149 343.885C421.956 344.987 420.563 345.859 418.972 346.501C417.396 347.129 415.606 347.442 413.602 347.442ZM413.694 345.331C415.316 345.331 416.777 345.048 418.077 344.482C419.393 343.916 420.556 343.136 421.566 342.141C422.591 341.147 423.47 340.014 424.205 338.745C424.939 337.475 425.543 336.121 426.018 334.683C426.492 333.244 426.844 331.791 427.073 330.322C427.303 328.838 427.418 327.415 427.418 326.054C427.418 322.627 426.622 319.934 425.031 317.976C423.455 316.017 421.107 315.038 417.985 315.038C416.364 315.038 414.887 315.306 413.556 315.841C412.241 316.361 411.062 317.088 410.022 318.021C408.997 318.955 408.11 320.041 407.36 321.28C406.61 322.52 405.991 323.851 405.501 325.273C405.012 326.696 404.644 328.157 404.4 329.657C404.17 331.156 404.055 332.64 404.055 334.109C404.055 336.343 404.4 338.301 405.088 339.984C405.792 341.667 406.855 342.983 408.278 343.931C409.701 344.864 411.506 345.331 413.694 345.331Z" fill="#342B2B"/>
<path d="M431.047 346.983L438.161 313.432H441.488L446.17 343.312H446.331L463.634 313.432H467.283L460.238 346.983H457.897L463.198 321.831C463.351 321.112 463.504 320.423 463.657 319.766C463.826 319.092 463.986 318.442 464.139 317.815C464.292 317.188 464.445 316.591 464.598 316.025H464.507L446.468 346.983H444.633L439.79 316.002H439.63C439.553 316.568 439.461 317.172 439.354 317.815C439.262 318.458 439.155 319.123 439.033 319.812C438.911 320.485 438.78 321.173 438.643 321.877L433.342 346.983H431.047Z" fill="#342B2B"/>
<path d="M468.873 346.983L475.988 313.432H498.019L490.928 346.983H488.564L495.219 315.566H477.915L471.237 346.983H468.873Z" fill="#342B2B"/>
<path d="M494.973 346.983L514.067 313.386H516.431L521.112 346.983H518.817L517.142 337.096H504.267L497.566 346.983H494.973ZM505.415 334.961H516.867L515.306 321.556C515.214 320.745 515.115 319.85 515.008 318.871C514.916 317.876 514.839 316.943 514.778 316.071H514.663C514.25 316.958 513.799 317.876 513.309 318.825C512.835 319.758 512.346 320.691 511.841 321.625L505.415 334.961Z" fill="#342B2B"/>
<path d="M524.905 346.983L532.02 313.432H534.383L531.216 328.303H549.117L552.284 313.432H554.602L547.51 346.983H545.169L548.681 330.46H530.757L527.269 346.983H524.905Z" fill="#342B2B"/>
<path d="M556.168 346.983L563.283 313.432H565.555L560.46 337.368C560.322 338.041 560.177 338.714 560.024 339.387C559.871 340.06 559.718 340.718 559.565 341.361C559.412 341.988 559.259 342.585 559.106 343.151H559.198L583.524 313.432H586.094L579.003 346.983H576.754L581.757 323.3C581.925 322.565 582.086 321.846 582.239 321.143C582.392 320.423 582.545 319.727 582.698 319.054C582.851 318.381 583.011 317.738 583.18 317.126L583.088 317.104L558.739 346.983H556.168Z" fill="#342B2B"/>
<path d="M587.638 346.983L594.753 313.432H597.025L591.93 337.368C591.792 338.041 591.647 338.714 591.494 339.387C591.341 340.06 591.188 340.718 591.035 341.361C590.882 341.988 590.729 342.585 590.576 343.151H590.668L614.994 313.432H617.564L610.473 346.983H608.224L613.227 323.3C613.395 322.565 613.556 321.846 613.709 321.143C613.862 320.423 614.015 319.727 614.168 319.054C614.321 318.381 614.481 317.738 614.65 317.126L614.558 317.104L590.209 346.983H587.638ZM606.64 309.897C605.279 309.897 604.139 309.706 603.221 309.324C602.303 308.926 601.607 308.352 601.132 307.603C600.673 306.853 600.444 305.95 600.444 304.895C600.444 304.665 600.459 304.405 600.49 304.114C600.536 303.824 600.582 303.594 600.628 303.426H602.693C602.647 303.671 602.609 303.9 602.578 304.114C602.548 304.328 602.532 304.535 602.532 304.734C602.532 305.835 602.869 306.677 603.542 307.258C604.215 307.824 605.286 308.107 606.755 308.107C608.469 308.107 609.8 307.717 610.748 306.937C611.697 306.141 612.332 304.971 612.653 303.426H614.902C614.611 304.818 614.122 305.996 613.433 306.96C612.745 307.924 611.842 308.658 610.725 309.163C609.608 309.653 608.247 309.897 606.64 309.897Z" fill="#342B2B"/>
<path d="M626.959 346.983L634.338 312.203H636.97L633.633 328.042L652.903 312.25H656.663L635.701 329.264L650.365 346.983H647.122L633.163 330.11L629.591 346.983H626.959Z" fill="#342B2B"/>
<path d="M651.5 346.983L659.59 312.203H680.035L679.518 314.6H661.705L658.791 328.465H674.301L673.831 330.862H658.274L654.843 346.983H651.5Z" fill="#342B2B"/>
<path d="M687.375 347.453C685.276 347.453 683.506 347.203 682.064 346.701C680.623 346.169 679.448 345.511 678.539 344.727C677.662 343.913 676.973 343.051 676.471 342.142C676.002 341.234 675.672 340.372 675.484 339.557C675.297 338.743 675.187 338.085 675.156 337.583C675.124 337.082 675.109 336.831 675.109 336.831H677.74C677.74 336.831 677.756 337.113 677.787 337.677C677.85 338.21 678.023 338.884 678.305 339.698C678.586 340.513 679.056 341.328 679.714 342.142C680.404 342.957 681.359 343.646 682.581 344.21C683.803 344.743 685.401 345.009 687.375 345.009C688.942 345.009 690.399 344.727 691.746 344.163C693.125 343.568 694.237 342.738 695.083 341.672C695.93 340.576 696.353 339.275 696.353 337.771C696.353 336.048 695.804 334.701 694.708 333.729C693.642 332.727 692.342 331.865 690.807 331.144L687.047 329.358C685.887 328.794 684.806 328.152 683.803 327.431C682.801 326.711 681.986 325.818 681.359 324.752C680.764 323.687 680.466 322.371 680.466 320.804C680.466 319.112 680.936 317.593 681.876 316.245C682.816 314.867 684.117 313.77 685.777 312.955C687.438 312.141 689.349 311.733 691.511 311.733C693.736 311.733 695.538 312.062 696.917 312.72C698.295 313.378 699.36 314.209 700.112 315.211C700.865 316.183 701.397 317.154 701.711 318.125C702.024 319.097 702.196 319.911 702.228 320.569C702.29 321.227 702.322 321.556 702.322 321.556H699.784C699.784 321.556 699.752 321.306 699.689 320.804C699.627 320.303 699.47 319.692 699.219 318.971C698.969 318.219 698.546 317.467 697.951 316.715C697.386 315.963 696.572 315.337 695.506 314.835C694.472 314.334 693.141 314.083 691.511 314.083C689.068 314.083 687.062 314.694 685.495 315.916C683.929 317.138 683.146 318.736 683.146 320.71C683.146 322.34 683.631 323.64 684.603 324.611C685.574 325.551 686.78 326.35 688.221 327.008L691.746 328.653C693 329.249 694.175 329.922 695.271 330.674C696.368 331.426 697.261 332.366 697.951 333.494C698.671 334.622 699.031 336.032 699.031 337.724C699.031 339.636 698.499 341.328 697.433 342.8C696.368 344.242 694.958 345.385 693.203 346.231C691.449 347.046 689.506 347.453 687.375 347.453Z" fill="#342B2B"/>
</svg>
