<svg width="768" height="139" viewBox="0 0 768 139" fill="none" xmlns="http://www.w3.org/2000/svg">
<g clip-path="url(#clip0_9960_56966)">
<path fill-rule="evenodd" clip-rule="evenodd" d="M706.086 3.90552H675.467V21.186H706.086V21.1912C730.817 23.3043 750.214 43.5881 750.214 68.2985C750.214 93.0165 730.817 113.718 706.086 115.843H692.848V55.8525H701.671V55.9389C701.763 55.9389 701.852 55.9233 701.953 55.9233C709.256 55.9233 715.183 61.7225 715.183 68.8654C715.183 76.01 709.256 81.8093 701.953 81.8093C701.856 81.8093 701.767 81.7937 701.671 81.7937V99.0575C718.731 99.0575 732.559 85.5391 732.559 68.8654C732.559 52.1972 718.731 38.6749 701.671 38.6749H675.193V133.558H706.086V133.508C740.734 131.282 768.141 103.134 768.141 68.705C768.141 34.2789 740.734 6.12539 706.086 3.90552Z" fill="#1E4381"/>
<path fill-rule="evenodd" clip-rule="evenodd" d="M525.642 57.6052C506.754 57.6052 506.367 36.483 506.367 31.1841C506.367 25.8042 506.75 4.68713 525.642 4.68713C544.53 4.68713 544.913 26.028 544.913 31.1841C544.913 36.483 544.53 57.6052 525.642 57.6052ZM532.962 31.1147C532.962 24.0512 533.181 16.7009 525.747 16.7009C518.322 16.7009 518.191 24.2338 518.191 31.2252C518.191 37.2611 517.939 45.5131 525.747 45.5131C533.573 45.5131 532.962 37.1453 532.962 31.1147Z" fill="#1E4381"/>
<path fill-rule="evenodd" clip-rule="evenodd" d="M525.642 57.6052C506.754 57.6052 506.367 36.483 506.367 31.1841C506.367 25.8042 506.75 4.68713 525.642 4.68713C544.53 4.68713 544.913 26.028 544.913 31.1841C544.913 36.483 544.53 57.6052 525.642 57.6052ZM532.962 31.1147C532.962 24.0512 533.181 16.7009 525.747 16.7009C518.322 16.7009 518.191 24.2338 518.191 31.2252C518.191 37.2611 517.939 45.5131 525.747 45.5131C533.573 45.5131 532.962 37.1453 532.962 31.1147Z" fill="#1E4381"/>
<path fill-rule="evenodd" clip-rule="evenodd" d="M458.938 135.377C435.141 135.377 434.658 108.77 434.658 102.097C434.658 95.3309 435.141 68.7246 458.938 68.7246C482.73 68.7246 483.214 95.6085 483.214 102.097C483.214 108.77 482.73 135.377 458.938 135.377ZM468.161 102.011C468.161 93.1119 468.439 83.8508 459.077 83.8508C449.716 83.8508 449.562 93.3449 449.562 102.151C449.562 109.751 449.232 120.145 459.077 120.145C468.927 120.145 468.161 109.613 468.161 102.011Z" fill="#1E4381"/>
<path fill-rule="evenodd" clip-rule="evenodd" d="M458.938 135.377C435.141 135.377 434.658 108.77 434.658 102.097C434.658 95.3309 435.141 68.7246 458.938 68.7246C482.73 68.7246 483.214 95.6085 483.214 102.097C483.214 108.77 482.73 135.377 458.938 135.377ZM468.161 102.011C468.161 93.1119 468.439 83.8508 459.077 83.8508C449.716 83.8508 449.562 93.3449 449.562 102.151C449.562 109.751 449.232 120.145 459.077 120.145C468.927 120.145 468.161 109.613 468.161 102.011Z" fill="#1E4381"/>
<path fill-rule="evenodd" clip-rule="evenodd" d="M559.047 57.1164H547.113L547.185 5.43188H559.123L559.047 57.1164Z" fill="#1E4381"/>
<path d="M503.605 5.30017H491.676V57.1648H503.605V5.30017Z" fill="#1E4381"/>
<path d="M445.183 5.41125H433.248V56.7112H445.183V5.41125Z" fill="#1E4381"/>
<path d="M498.132 5.28589H473.658V17.0605H498.132V5.28589Z" fill="#1E4381"/>
<path d="M569.027 45.3567H549.02V57.1325H569.027V45.3567Z" fill="#1E4381"/>
<path d="M660.268 5.1604H648.33V57.2693H660.268V5.1604Z" fill="#1E4381"/>
<path fill-rule="evenodd" clip-rule="evenodd" d="M651.365 16.6348V21.1902C651.474 20.4507 651.546 19.6881 651.546 18.9151C651.546 18.1357 651.474 17.382 651.365 16.6348ZM643.927 17.0142C641.254 17.0142 638.408 19.1762 638.408 22.4584C638.408 25.729 640.631 28.8646 643.308 28.8646L643.931 28.9649H648.241C645.955 31.7314 642.659 32.9893 639.044 32.9893C632.136 32.9893 626.533 26.6911 626.533 18.9151C626.533 11.1443 632.005 5.41711 638.917 5.41711C645.097 5.41711 651.015 10.3816 652.021 17.0155L643.927 17.0142Z" fill="#1E4381"/>
<path fill-rule="evenodd" clip-rule="evenodd" d="M652.422 5.43188H638.645L638.695 16.5196H652.464L652.422 5.43188Z" fill="#1E4381"/>
<path d="M652.175 28.8182H635.51V40.4063H652.175V28.8182Z" fill="#1E4381"/>
<path fill-rule="evenodd" clip-rule="evenodd" d="M636.879 46.9504C636.879 46.9504 638.487 43.7605 638.5 43.659C638.765 41.753 639.792 40.4335 641.16 40.1209C640.583 36.5712 638.049 32.5778 635.124 32.1932C631.251 31.6775 627.538 35.469 626.827 40.6611C626.124 45.8493 628.692 50.4692 632.56 50.9847C634.757 51.2728 636.887 50.1709 636.407 50.9889L636.879 46.9504Z" fill="#1E4381"/>
<path fill-rule="evenodd" clip-rule="evenodd" d="M638.686 42.1853L636.674 57.2719H624.42L626.937 39.8857L638.686 42.1853Z" fill="#1E4381"/>
<path d="M660.395 69.0028H645.615V134.275H660.395V69.0028Z" fill="#1E4381"/>
<path d="M582.713 69.0021H567.934V134.275H582.713V69.0021Z" fill="#1E4381"/>
<path d="M612.723 69.0028H597.939V134.275H612.723V69.0028Z" fill="#1E4381"/>
<path fill-rule="evenodd" clip-rule="evenodd" d="M583.808 134.457H573.322L594.765 69.1838H605.259L583.808 134.457Z" fill="#1E4381"/>
<path fill-rule="evenodd" clip-rule="evenodd" d="M649.231 83.5978V89.2762C649.366 88.3567 649.454 87.406 649.454 86.4363C649.454 85.473 649.366 84.5236 649.231 83.5978ZM639.183 83.4613H649.214C647.955 75.1853 641.62 68.887 633.968 68.887C625.41 68.887 618.473 76.748 618.473 86.4351C618.473 96.1314 625.41 103.992 633.968 103.992C638.446 103.992 642.471 101.82 645.295 98.3663H639.183V98.2442C635.866 98.2442 633.176 94.944 633.176 90.8582C633.176 86.7733 635.866 83.4613 639.183 83.4613Z" fill="#1E4381"/>
<path d="M650.588 69.0021H633.527V83.4555H650.588V69.0021Z" fill="#1E4381"/>
<path d="M650.24 98.364H629.609V112.817H650.24V98.364Z" fill="#1E4381"/>
<path fill-rule="evenodd" clip-rule="evenodd" d="M631.293 121.4C631.293 121.4 633.28 117.426 633.301 117.294C633.626 114.918 634.897 113.281 636.593 112.885C635.873 108.457 632.742 103.481 629.117 102.998C624.314 102.36 619.718 107.087 618.846 113.558C617.971 120.025 621.149 125.792 625.943 126.435C628.658 126.799 631.298 125.419 630.708 126.441L631.293 121.4Z" fill="#1E4381"/>
<path fill-rule="evenodd" clip-rule="evenodd" d="M633.526 115.462L631.042 134.274H615.863L618.978 112.59L633.526 115.462Z" fill="#1E4381"/>
<path fill-rule="evenodd" clip-rule="evenodd" d="M623.502 57.2681L610.436 5.43188H598.742L611.749 57.2681H623.502Z" fill="#1E4381"/>
<path fill-rule="evenodd" clip-rule="evenodd" d="M579.738 57.2681L592.842 5.43188H604.532L591.491 57.2681H579.738Z" fill="#1E4381"/>
<path d="M611.433 33.8655H593.193V45.6761H611.433V33.8655Z" fill="#1E4381"/>
<path fill-rule="evenodd" clip-rule="evenodd" d="M568.743 5.41125C563.418 5.41125 558.847 9.34554 557.748 15.3454H561.705C564.517 15.3454 566.79 17.6154 566.79 20.4179C566.79 23.2178 564.517 25.484 561.705 25.484C561.326 25.484 560.96 25.4287 560.606 25.3464H559.209C561.183 29.0929 564.639 31.5906 568.6 31.5906C574.754 31.5906 579.734 25.6049 579.734 18.2186C579.734 10.8323 574.897 5.41125 568.743 5.41125Z" fill="#1E4381"/>
<path fill-rule="evenodd" clip-rule="evenodd" d="M569.424 57.1332C563.834 57.1332 559.179 51.2531 558.025 45.1813H562.188C565.144 45.1813 567.526 42.8853 567.526 40.0457C567.526 37.2136 565.144 34.914 562.188 34.914C561.78 34.914 561.397 34.9693 561.022 35.0555H559.558C561.633 31.264 565.261 28.7509 569.424 28.7303C577.001 28.6904 581.131 36.1179 581.131 43.5942C581.131 51.0745 575.89 57.1332 569.424 57.1332Z" fill="#1E4381"/>
<path fill-rule="evenodd" clip-rule="evenodd" d="M567.481 5.54883H558.764L558.81 15.371H567.523L567.481 5.54883Z" fill="#1E4381"/>
<path d="M567.719 25.2561H558.438V35.3265H567.719V25.2561Z" fill="#1E4381"/>
<path d="M485.627 5.33521H473.693V36.2462H485.627V5.33521Z" fill="#1E4381"/>
<path fill-rule="evenodd" clip-rule="evenodd" d="M474.81 17.196C474.372 17.196 473.943 17.2668 473.513 17.3684V33.0747C473.618 33.8592 473.484 35.1531 473.484 35.9968C473.484 41.3561 471.371 45.2145 468.5 45.2145C467.763 45.2145 467.077 44.915 466.441 44.4041L466.643 56.562C469.447 58.1002 473.656 57.7557 474.776 57.7557C480.72 57.7557 485.59 48.4027 485.59 37.2289C485.586 26.0537 480.758 17.196 474.81 17.196Z" fill="#1E4381"/>
<path d="M463.682 5.33081H433.195V17.005H463.682V5.33081Z" fill="#1E4381"/>
<path d="M463.682 45.5271H433.195V57.3274H463.682V45.5271Z" fill="#1E4381"/>
<path d="M402.065 45.5127H390.053V64.0048H402.065V45.5127Z" fill="#1E4381"/>
<path d="M429.532 45.6606H417.52V64.0074H429.532V45.6606Z" fill="#1E4381"/>
<path d="M462.146 24.9788H433.355V36.3392H462.146V24.9788Z" fill="#1E4381"/>
<path fill-rule="evenodd" clip-rule="evenodd" d="M426.515 45.6944V5.41125L397.377 5.48328L397.428 17.1665V29.0581H397.397C397.377 30.8883 397.111 33.0001 396.574 35.2162C395.797 38.4058 394.607 43.8667 393.342 45.6956H390.172V57.2722H429.563V45.6956L426.515 45.6944ZM414.58 45.6944H405.07C406.109 43.7328 406.515 39.5067 407.221 36.6193C407.539 35.3255 408.168 30.806 408.213 28.3135H408.235V17.1653H414.58V45.6944Z" fill="#1E4381"/>
<path fill-rule="evenodd" clip-rule="evenodd" d="M521.94 114.708C519.242 116.236 515.706 117.176 513.567 117.176C507.283 117.176 502.198 109.876 502.198 100.886C502.198 91.8884 507.283 84.5972 513.567 84.5972C516.038 84.5972 519.221 85.3651 521.94 86.9366V70.6993C518.694 68.9761 514.439 68.0254 508.832 68.0617C493.914 68.1514 485.486 82.8997 485.486 101.2C485.486 119.502 494.238 134.34 508.832 134.34C514.443 134.34 518.694 133.308 521.94 131.489V114.708Z" fill="#1E4381"/>
<path fill-rule="evenodd" clip-rule="evenodd" d="M560.938 114.708C558.235 116.236 554.704 117.176 552.557 117.176C546.281 117.176 541.187 109.876 541.187 100.886C541.187 91.8884 546.281 84.5972 552.557 84.5972C555.032 84.5972 558.219 85.3651 560.938 86.9366V70.6993C557.688 68.9761 553.433 68.0254 547.821 68.0617C532.907 68.1514 524.484 82.8997 524.484 101.2C524.484 119.502 533.24 134.34 547.821 134.34C553.433 134.34 557.68 133.308 560.938 131.489V114.708Z" fill="#1E4381"/>
<path d="M404.941 68.9508H390.166V134.23H404.941V68.9508Z" fill="#1E4381"/>
<path d="M415.776 68.9633H394.455V83.5839H415.776V68.9633Z" fill="#1E4381"/>
<path d="M417.547 98.3105H394.455V112.936H417.547V98.3105Z" fill="#1E4381"/>
<path fill-rule="evenodd" clip-rule="evenodd" d="M401.414 86.5255C401.414 87.4914 401.502 88.4383 401.635 89.3616V83.6895C401.502 84.6094 401.414 85.5559 401.414 86.5255ZM417.688 90.9394C417.688 95.0243 414.996 98.3296 411.683 98.3296V98.4572H405.568C408.399 101.905 412.418 104.074 416.901 104.074C425.46 104.074 432.392 96.2181 432.392 86.5255C432.392 76.8292 425.46 68.9736 416.901 68.9736C409.25 68.9736 402.908 75.272 401.657 83.548H411.683C414.996 83.548 417.688 86.8537 417.688 90.9394Z" fill="#1E4381"/>
<path fill-rule="evenodd" clip-rule="evenodd" d="M401.611 98.1665V92.4843C401.472 93.4139 401.391 94.3558 401.391 95.3304C401.391 96.2963 401.472 97.2427 401.611 98.1665ZM411.658 98.3042H401.631C402.883 106.574 409.224 112.879 416.877 112.879C425.43 112.879 432.366 105.017 432.366 95.3304C432.366 85.6341 425.43 77.7722 416.877 77.7722C412.394 77.7722 408.368 79.9457 405.538 83.4005H411.658V83.5159C414.966 83.5159 417.658 86.8279 417.658 90.9073C417.658 94.9922 414.966 98.3042 411.658 98.3042Z" fill="#1E4381"/>
<path fill-rule="evenodd" clip-rule="evenodd" d="M432.673 90.6244C432.673 99.1889 430.223 106.135 427.212 106.135C424.197 106.135 421.758 99.1889 421.758 90.6244C421.758 82.0549 424.197 75.1049 427.212 75.1049C430.223 75.1049 432.673 82.0549 432.673 90.6244Z" fill="#1E4381"/>
<path d="M144.626 5.69856H151.715L144.522 23.5601C143.526 26.1084 142.24 27.8111 140.665 28.6683C139.066 29.5718 137.144 30.0236 134.896 30.0236H132.811V23.6991H134.688C135.568 23.6991 136.229 23.618 136.669 23.4558C137.132 23.2936 137.514 22.9925 137.815 22.5523L128.502 5.69856H136.147L141.082 15.6023L144.626 5.69856ZM174.383 23.9771H177.302V35.1666H170.908V30.0236H157.494V35.1666H151.1V23.9771H152.699C153.579 23.2357 154.228 21.8573 154.645 19.8418C155.039 17.8263 155.282 14.722 155.375 10.5288L155.479 5.69856H174.383V23.9771ZM159.614 23.9771H167.502V11.7451H161.63C161.491 14.7336 161.259 17.3514 160.935 19.5986C160.657 21.1971 160.216 22.6566 159.614 23.9771ZM201.691 5.69856H207.494V30.0236H200.753V17.4441L195.332 24.8111H193.073L187.583 17.4788V30.0236H180.841V5.69856H186.644L194.22 16.1583L201.691 5.69856ZM226.886 5.69856H233.975L226.782 23.5601C225.786 26.1084 224.5 27.8111 222.925 28.6683C221.326 29.5718 219.403 30.0236 217.156 30.0236H215.071V23.6991H216.948C217.828 23.6991 218.488 23.618 218.928 23.4558C219.392 23.2936 219.774 22.9925 220.075 22.5523L210.762 5.69856H218.407L223.342 15.6023L226.886 5.69856ZM237.106 5.69856H247.462C250.265 5.69856 252.582 6.34722 254.412 7.64456C256.219 8.96506 257.122 11.0153 257.122 13.7953C257.122 16.4826 256.242 18.4981 254.481 19.8418C252.721 21.1855 250.404 21.8573 247.531 21.8573H243.987V30.0236H237.106V5.69856ZM243.987 16.4363H246.941C247.914 16.4363 248.666 16.2278 249.199 15.8108C249.755 15.3706 250.033 14.7451 250.033 13.9343C250.033 12.2895 248.956 11.4671 246.802 11.4671H243.987V16.4363ZM278.514 5.69856V11.7451H272.433V30.0236H265.552V11.7451H259.471V5.69856H278.514ZM280.826 17.8611C280.78 14.2007 282.031 11.1659 284.579 8.75656C287.128 6.34723 290.267 5.16573 293.997 5.21206C296.545 5.21206 299.001 5.72172 301.364 6.74106V13.9691H300.808C299.163 12.4401 297.182 11.6756 294.865 11.6756C292.827 11.6756 291.159 12.2316 289.861 13.3436C288.564 14.5019 287.915 16.0077 287.915 17.8611C287.915 19.7144 288.529 21.2086 289.757 22.3438C291.008 23.479 292.688 24.0466 294.796 24.0466C297.622 24.0466 299.811 23.1315 301.364 21.3013H301.92V29.0158C299.626 30.012 297.078 30.5101 294.275 30.5101C290.244 30.5101 286.989 29.3865 284.51 27.1393C282.054 24.869 280.826 21.7762 280.826 17.8611ZM328.413 30.0236H320.108L312.706 19.9461V30.0236H305.826V5.69856H312.706V14.7683L319.482 5.69856H327.649L318.405 16.7491L328.413 30.0236ZM328.336 17.8611C328.29 14.1081 329.518 11.0501 332.02 8.68706C334.522 6.32406 337.649 5.16573 341.402 5.21206C345.155 5.16573 348.283 6.32406 350.785 8.68706C353.287 11.0501 354.514 14.1081 354.468 17.8611C354.514 21.6141 353.287 24.6721 350.785 27.0351C348.283 29.3981 345.155 30.5564 341.402 30.5101C337.649 30.5564 334.522 29.3981 332.02 27.0351C329.518 24.6721 328.29 21.6141 328.336 17.8611ZM337.128 13.3783C335.993 14.5135 335.425 16.0077 335.425 17.8611C335.425 19.7144 335.993 21.2086 337.128 22.3438C338.286 23.479 339.711 24.0466 341.402 24.0466C343.093 24.0466 344.506 23.479 345.642 22.3438C346.8 21.2086 347.379 19.7144 347.379 17.8611C347.379 16.0077 346.8 14.5135 345.642 13.3783C344.506 12.2431 343.093 11.6756 341.402 11.6756C339.711 11.6756 338.286 12.2431 337.128 13.3783ZM365.51 23.9771H376.074V30.0236H358.629V5.69856H375.553V11.7451H365.51V14.8726H374.997V20.4326H365.51V23.9771ZM3.22247 40.6986H13.578C16.3811 40.6986 18.6978 41.3472 20.528 42.6446C22.335 43.9651 23.2385 46.0153 23.2385 48.7953C23.2385 51.4826 22.3581 53.4981 20.5975 54.8418C18.8368 56.1855 16.5201 56.8573 13.6475 56.8573H10.103V65.0236H3.22247V40.6986ZM10.103 51.4363H13.0567C14.0297 51.4363 14.7826 51.2278 15.3155 50.8108C15.8715 50.3706 16.1495 49.7451 16.1495 48.9343C16.1495 47.2895 15.0722 46.4671 12.9177 46.4671H10.103V51.4363ZM33.9257 58.9771H44.4897V65.0236H27.0452V40.6986H43.9685V46.7451H33.9257V49.8726H43.4125V55.4326H33.9257V58.9771ZM47.2141 52.8611C47.1677 49.2007 48.4187 46.1659 50.9671 43.7566C53.5154 41.3472 56.6545 40.1657 60.3843 40.2121C62.9327 40.2121 65.3883 40.7217 67.7513 41.7411V48.9691H67.1953C65.5505 47.4401 63.5697 46.6756 61.2531 46.6756C59.2144 46.6756 57.5464 47.2316 56.2491 48.3436C54.9517 49.5019 54.3031 51.0077 54.3031 52.8611C54.3031 54.7144 54.917 56.2086 56.1448 57.3438C57.3958 58.479 59.0754 59.0466 61.1836 59.0466C64.0099 59.0466 66.1992 58.1315 67.7513 56.3013H68.3073V64.0158C66.0138 65.012 63.4655 65.5101 60.6623 65.5101C56.6313 65.5101 53.3764 64.3865 50.8976 62.1393C48.4419 59.869 47.2141 56.7762 47.2141 52.8611ZM72.2134 40.6986H94.1754V65.0236H87.2949V46.7451H79.0939V65.0236H72.2134V40.6986ZM113.575 40.6986H120.664L113.471 58.5601C112.475 61.1084 111.189 62.8111 109.614 63.6683C108.015 64.5718 106.093 65.0236 103.845 65.0236H101.76V58.6991H103.637C104.517 58.6991 105.178 58.618 105.618 58.4558C106.081 58.2936 106.463 57.9925 106.764 57.5523L97.4514 40.6986H105.096L110.031 50.6023L113.575 40.6986ZM130.676 49.3513H135.02C137.661 49.3513 139.862 50.0231 141.622 51.3668C143.406 52.6873 144.298 54.5986 144.298 57.1006C144.298 59.6257 143.406 61.5833 141.622 62.9733C139.838 64.3401 137.638 65.0236 135.02 65.0236H123.795V40.6986H142.074V46.7451H130.676V49.3513ZM130.676 59.1856H134.568C135.356 59.1856 135.993 59.0002 136.479 58.6296C136.966 58.2357 137.209 57.6913 137.209 56.9963C137.209 56.3013 136.966 55.7569 136.479 55.3631C135.993 54.9692 135.356 54.7723 134.568 54.7723H130.676V59.1856ZM150.626 40.6986H169.669V65.0236H162.788V46.7451H156.846C156.73 50.9614 156.649 53.4981 156.603 54.3553C156.441 56.5561 156.151 58.3516 155.734 59.7416C155.34 61.1316 154.761 62.2088 153.997 62.9733C153.255 63.7378 152.41 64.2706 151.46 64.5718C150.533 64.8498 149.34 65.0004 147.881 65.0236H146.178V58.6991H146.664C147.753 58.6991 148.564 58.34 149.097 57.6218C149.63 56.8805 150 55.6063 150.209 53.7993C150.417 51.7606 150.533 49.0038 150.556 45.5288L150.626 40.6986ZM191.376 40.6986H197.388V65.0236H190.577V51.2626L180.812 65.0236H174.801V40.6986H181.612V54.4596L191.376 40.6986ZM225.113 65.0236H216.808L209.406 54.9461V65.0236H202.526V40.6986H209.406V49.7683L216.183 40.6986H224.349L215.105 51.7491L225.113 65.0236ZM243.932 65.0236L242.333 60.1933H234.688L233.055 65.0236H225.653L234.897 40.6986H242.264L251.507 65.0236H243.932ZM236.426 54.9808H240.596L238.546 48.7606L236.426 54.9808ZM269.771 40.6986H276.652V65.0236H269.771V55.1546H261.362V65.0236H254.481V40.6986H261.362V49.1081H269.771V40.6986ZM280.826 52.8611C280.78 49.2007 282.031 46.1659 284.579 43.7566C287.128 41.3472 290.267 40.1657 293.997 40.2121C296.545 40.2121 299.001 40.7217 301.364 41.7411V48.9691H300.808C299.163 47.4401 297.182 46.6756 294.865 46.6756C292.827 46.6756 291.159 47.2316 289.861 48.3436C288.564 49.5019 287.915 51.0077 287.915 52.8611C287.915 54.7144 288.529 56.2086 289.757 57.3438C291.008 58.479 292.688 59.0466 294.796 59.0466C297.622 59.0466 299.811 58.1315 301.364 56.3013H301.92V64.0158C299.626 65.012 297.078 65.5101 294.275 65.5101C290.244 65.5101 286.989 64.3865 284.51 62.1393C282.054 59.869 280.826 56.7762 280.826 52.8611ZM328.413 65.0236H320.108L312.706 54.9461V65.0236H305.826V40.6986H312.706V49.7683L319.482 40.6986H327.649L318.405 51.7491L328.413 65.0236ZM328.336 52.8611C328.29 49.1081 329.518 46.0501 332.02 43.6871C334.522 41.3241 337.649 40.1657 341.402 40.2121C345.155 40.1657 348.283 41.3241 350.785 43.6871C353.287 46.0501 354.514 49.1081 354.468 52.8611C354.514 56.6141 353.287 59.6721 350.785 62.0351C348.283 64.3981 345.155 65.5564 341.402 65.5101C337.649 65.5564 334.522 64.3981 332.02 62.0351C329.518 59.6721 328.29 56.6141 328.336 52.8611ZM337.128 48.3783C335.993 49.5135 335.425 51.0077 335.425 52.8611C335.425 54.7144 335.993 56.2086 337.128 57.3438C338.286 58.479 339.711 59.0466 341.402 59.0466C343.093 59.0466 344.506 58.479 345.642 57.3438C346.8 56.2086 347.379 54.7144 347.379 52.8611C347.379 51.0077 346.8 49.5135 345.642 48.3783C344.506 47.2431 343.093 46.6756 341.402 46.6756C339.711 46.6756 338.286 47.2431 337.128 48.3783ZM365.51 58.9771H376.074V65.0236H358.629V40.6986H375.553V46.7451H365.51V49.8726H374.997V55.4326H365.51V58.9771ZM74.555 75.6986H84.9105C87.7137 75.6986 90.0303 76.3472 91.8605 77.6446C93.6675 78.9651 94.571 81.0153 94.571 83.7953C94.571 86.4826 93.6907 88.4981 91.93 89.8418C90.1693 91.1855 87.8527 91.8573 84.98 91.8573H81.4355V100.024H74.555V75.6986ZM81.4355 86.4363H84.3892C85.3622 86.4363 86.1152 86.2278 86.648 85.8108C87.204 85.3706 87.482 84.7451 87.482 83.9343C87.482 82.2895 86.4047 81.4671 84.2502 81.4671H81.4355V86.4363ZM105.258 93.9771H115.822V100.024H98.3777V75.6986H115.301V81.7451H105.258V84.8726H114.745V90.4326H105.258V93.9771ZM136.054 75.6986V81.7451H126.672V100.024H119.791V75.6986H136.054ZM156.525 75.6986H162.536V100.024H155.725V86.2626L145.961 100.024H139.949V75.6986H146.76V89.4596L156.525 75.6986ZM166.701 87.8611C166.655 84.1081 167.883 81.0501 170.385 78.6871C172.887 76.3241 176.014 75.1657 179.767 75.2121C183.52 75.1657 186.648 76.3241 189.15 78.6871C191.652 81.0501 192.879 84.1081 192.833 87.8611C192.879 91.6141 191.652 94.6721 189.15 97.0351C186.648 99.3981 183.52 100.556 179.767 100.51C176.014 100.556 172.887 99.3981 170.385 97.0351C167.883 94.6721 166.655 91.6141 166.701 87.8611ZM175.493 83.3783C174.358 84.5135 173.79 86.0077 173.79 87.8611C173.79 89.7144 174.358 91.2086 175.493 92.3438C176.651 93.479 178.076 94.0466 179.767 94.0466C181.458 94.0466 182.871 93.479 184.007 92.3438C185.165 91.2086 185.744 89.7144 185.744 87.8611C185.744 86.0077 185.165 84.5135 184.007 83.3783C182.871 82.2431 181.458 81.6756 179.767 81.6756C178.076 81.6756 176.651 82.2431 175.493 83.3783ZM212.284 75.6986H219.165V100.024H212.284V90.1546H203.875V100.024H196.994V75.6986H203.875V84.1081H212.284V75.6986ZM240.437 100.024L238.838 95.1933H231.193L229.56 100.024H222.158L231.402 75.6986H238.769L248.012 100.024H240.437ZM232.931 89.9808H237.101L235.05 83.7606L232.931 89.9808ZM253.349 75.6986H272.392V100.024H265.511V81.7451H259.569C259.453 85.9614 259.372 88.4981 259.326 89.3553C259.164 91.5561 258.874 93.3516 258.457 94.7416C258.063 96.1316 257.484 97.2088 256.72 97.9733C255.978 98.7378 255.133 99.2706 254.183 99.5718C253.256 99.8498 252.063 100 250.604 100.024H248.901V93.6991H249.387C250.476 93.6991 251.287 93.34 251.82 92.6218C252.353 91.8805 252.723 90.6063 252.932 88.7993C253.14 86.7606 253.256 84.0038 253.279 80.5288L253.349 75.6986ZM284.404 83.1698H288.539C291.319 83.1698 293.613 83.8996 295.42 85.3591C297.25 86.8186 298.165 88.9151 298.165 91.6488C298.165 94.3593 297.261 96.4327 295.454 97.8691C293.647 99.3054 291.342 100.024 288.539 100.024H277.523V75.6986H284.404V83.1698ZM284.404 94.1856H288.018C288.945 94.1856 289.686 93.9539 290.242 93.4906C290.798 93.0041 291.076 92.3554 291.076 91.5446C291.076 90.7106 290.798 90.0619 290.242 89.5986C289.686 89.1121 288.945 88.8688 288.018 88.8688H284.404V94.1856ZM317.281 75.6986H324.162V100.024H317.281V90.1546H308.872V100.024H301.991V75.6986H308.872V84.1081H317.281V75.6986ZM328.336 87.8611C328.29 84.1081 329.518 81.0501 332.02 78.6871C334.522 76.3241 337.649 75.1657 341.402 75.2121C345.155 75.1657 348.283 76.3241 350.785 78.6871C353.287 81.0501 354.514 84.1081 354.468 87.8611C354.514 91.6141 353.287 94.6721 350.785 97.0351C348.283 99.3981 345.155 100.556 341.402 100.51C337.649 100.556 334.522 99.3981 332.02 97.0351C329.518 94.6721 328.29 91.6141 328.336 87.8611ZM337.128 83.3783C335.993 84.5135 335.425 86.0077 335.425 87.8611C335.425 89.7144 335.993 91.2086 337.128 92.3438C338.286 93.479 339.711 94.0466 341.402 94.0466C343.093 94.0466 344.506 93.479 345.642 92.3438C346.8 91.2086 347.379 89.7144 347.379 87.8611C347.379 86.0077 346.8 84.5135 345.642 83.3783C344.506 82.2431 343.093 81.6756 341.402 81.6756C339.711 81.6756 338.286 82.2431 337.128 83.3783ZM365.51 93.9771H376.074V100.024H358.629V75.6986H375.553V81.7451H365.51V84.8726H374.997V90.4326H365.51V93.9771ZM156.996 121.861C156.949 118.108 158.177 115.05 160.679 112.687C163.181 110.324 166.309 109.166 170.062 109.212C173.815 109.166 176.942 110.324 179.444 112.687C181.946 115.05 183.174 118.108 183.128 121.861C183.174 125.614 181.946 128.672 179.444 131.035C176.942 133.398 173.815 134.556 170.062 134.51C166.309 134.556 163.181 133.398 160.679 131.035C158.177 128.672 156.949 125.614 156.996 121.861ZM165.787 117.378C164.652 118.513 164.085 120.008 164.085 121.861C164.085 123.714 164.652 125.209 165.787 126.344C166.946 127.479 168.37 128.047 170.062 128.047C171.753 128.047 173.166 127.479 174.301 126.344C175.459 125.209 176.039 123.714 176.039 121.861C176.039 120.008 175.459 118.513 174.301 117.378C173.166 116.243 171.753 115.676 170.062 115.676C168.37 115.676 166.946 116.243 165.787 117.378ZM204.467 109.699V115.745H198.386V134.024H191.505V115.745H185.424V109.699H204.467ZM227.763 127.977H230.682V139.167H224.288V134.024H210.875V139.167H204.481V127.977H206.079C206.96 127.236 207.608 125.857 208.025 123.842C208.419 121.826 208.662 118.722 208.755 114.529L208.859 109.699H227.763V127.977ZM212.995 127.977H220.883V115.745H215.01C214.871 118.734 214.639 121.351 214.315 123.599C214.037 125.197 213.597 126.657 212.995 127.977ZM241.102 127.977H251.666V134.024H234.222V109.699H251.145V115.745H241.102V118.873H250.589V124.433H241.102V127.977ZM257.998 109.699H277.041V134.024H270.161V115.745H264.218C264.102 119.961 264.021 122.498 263.975 123.355C263.813 125.556 263.523 127.352 263.106 128.742C262.712 130.132 262.133 131.209 261.369 131.973C260.627 132.738 259.782 133.271 258.832 133.572C257.905 133.85 256.712 134 255.253 134.024H253.55V127.699H254.037C255.125 127.699 255.936 127.34 256.469 126.622C257.002 125.88 257.373 124.606 257.581 122.799C257.79 120.761 257.905 118.004 257.929 114.529L257.998 109.699ZM289.053 127.977H299.617V134.024H282.173V109.699H299.096V115.745H289.053V118.873H298.54V124.433H289.053V127.977ZM318.876 109.699H325.756V134.024H318.876V124.155H310.466V134.024H303.586V109.699H310.466V118.108H318.876V109.699ZM347.48 109.699H353.492V134.024H346.681V120.263L336.916 134.024H330.904V109.699H337.715V123.46L347.48 109.699ZM365.51 127.977H376.074V134.024H358.629V109.699H375.553V115.745H365.51V118.873H374.997V124.433H365.51V127.977Z" fill="#1E4381"/>
</g>
<defs>
<clipPath id="clip0_9960_56966">
<rect width="767.522" height="139" fill="white"/>
</clipPath>
</defs>
</svg>
