<svg width="49" height="49" viewBox="0 0 49 49" fill="none" xmlns="http://www.w3.org/2000/svg">
<rect width="48.48" height="48.48" rx="24.24" fill="#1F4193"/>
<path fill-rule="evenodd" clip-rule="evenodd" d="M23.9864 16.8871C23.0945 16.7341 22.1772 16.9017 21.3971 17.3602C20.6169 17.8187 20.0242 18.5386 19.7239 19.3922C19.3727 20.3904 18.2789 20.915 17.2807 20.5638C16.2825 20.2127 15.758 19.1188 16.1091 18.1206C16.7097 16.4133 17.8951 14.9736 19.4555 14.0566C21.0159 13.1396 22.8504 12.8044 24.6342 13.1103C26.4181 13.4163 28.0361 14.3437 29.2016 15.7283C30.367 17.1126 31.0049 18.8646 31.0024 20.6741C31.0016 23.6062 28.8277 25.5425 27.2753 26.5774C26.4407 27.1339 25.6197 27.543 25.0149 27.8118C24.7097 27.9474 24.4528 28.0503 24.2677 28.1209C24.1749 28.1562 24.0998 28.1836 24.045 28.203L23.9785 28.2263L23.9573 28.2336L23.9498 28.2361L23.9469 28.2371C23.9469 28.2371 23.9445 28.2379 23.3386 26.4202L23.9445 28.2379C22.9406 28.5725 21.8556 28.03 21.521 27.0261C21.1865 26.0226 21.7285 24.9379 22.7317 24.6029L22.7613 24.5926C22.7908 24.5821 22.8391 24.5645 22.9035 24.54C23.0327 24.4908 23.2248 24.4141 23.4586 24.3102C23.9315 24.1 24.5475 23.7907 25.1498 23.3891C26.471 22.5083 27.1705 21.5712 27.1705 20.6724L27.1705 20.6695C27.1719 19.7646 26.8529 18.8884 26.2701 18.1961C25.6873 17.5038 24.8784 17.0401 23.9864 16.8871ZM21.5759 34.084C21.5759 33.0259 22.4337 32.1681 23.4919 32.1681H23.5111C24.5692 32.1681 25.427 33.0259 25.427 34.084C25.427 35.1422 24.5692 36 23.5111 36H23.4919C22.4337 36 21.5759 35.1422 21.5759 34.084Z" fill="white"/>
</svg>
