<svg width="51" height="51" viewBox="0 0 51 51" fill="none" xmlns="http://www.w3.org/2000/svg">
<rect y="0.5" width="50.48" height="50.48" rx="25.24" fill="#1F4193"/>
<path d="M17.4689 23.9925C19.5489 28.0802 22.9 31.4169 26.9878 33.5113L30.1655 30.3336C30.5555 29.9436 31.1333 29.8136 31.6389 29.9869C33.2567 30.5213 35.0044 30.8102 36.7955 30.8102C37.59 30.8102 38.24 31.4602 38.24 32.2547V37.2958C38.24 38.0902 37.59 38.7402 36.7955 38.7402C23.2322 38.7402 12.24 27.748 12.24 14.1847C12.24 13.3902 12.89 12.7402 13.6844 12.7402H18.74C19.5344 12.7402 20.1844 13.3902 20.1844 14.1847C20.1844 15.9902 20.4733 17.7236 21.0078 19.3413C21.1667 19.8469 21.0511 20.4102 20.6467 20.8147L17.4689 23.9925Z" fill="white"/>
</svg>
