<svg width="34" height="34" viewBox="0 0 34 34" fill="none" xmlns="http://www.w3.org/2000/svg">
<path d="M9.20703 15.5835C12.7278 15.5835 15.582 12.7293 15.582 9.20847C15.582 5.68765 12.7278 2.83347 9.20703 2.83347C5.68622 2.83347 2.83203 5.68765 2.83203 9.20847C2.83203 12.7293 5.68622 15.5835 9.20703 15.5835Z" fill="#EF3124"/>
<path d="M18.4154 9.20847C18.4154 5.6668 21.2487 2.83347 24.7904 2.83347C28.332 2.83347 31.1654 5.6668 31.1654 9.20847C31.1654 12.7501 28.332 15.5835 24.7904 15.5835C21.2487 15.5835 18.4154 12.7501 18.4154 9.20847ZM9.20703 31.1668C12.7487 31.1668 15.582 28.3335 15.582 24.7918C15.582 21.2501 12.7487 18.4168 9.20703 18.4168C5.66536 18.4168 2.83203 21.2501 2.83203 24.7918C2.83203 28.3335 5.66536 31.1668 9.20703 31.1668ZM24.7904 31.1668C28.332 31.1668 31.1654 28.3335 31.1654 24.7918C31.1654 21.2501 28.332 18.4168 24.7904 18.4168C21.2487 18.4168 18.4154 21.2501 18.4154 24.7918C18.4154 28.3335 21.2487 31.1668 24.7904 31.1668Z" fill="#343A48"/>
</svg>
