<svg width="40" height="40" viewBox="0 0 40 40" fill="none" xmlns="http://www.w3.org/2000/svg">
<g clip-path="url(#clip0_2815_9731)">
<mask id="mask0_2815_9731" style="mask-type:luminance" maskUnits="userSpaceOnUse" x="3" y="0" width="134" height="40">
<path d="M136.665 0H3.33203V40H136.665V0Z" fill="white"/>
</mask>
<g mask="url(#mask0_2815_9731)">
<path d="M7.39883 14.7875L12.8265 14.1542V40.0002H3.33203V19.5579C3.33203 17.1122 5.08367 15.0575 7.39883 14.7875Z" fill="#1B1B19"/>
<path d="M27.5898 14.1542L36.0373 13.2422L37.0844 40.0002H31.1064C29.1644 40.0002 27.5898 38.3471 27.5898 36.308V14.1542Z" fill="#1B1B19"/>
<path d="M32.8677 5.45167C32.8677 2.98568 31.0878 0.920768 28.7512 0.67569L22.3182 0V12.2709L14.9336 13.0462V36.3077C14.9336 38.3468 16.5081 40 18.4501 40H25.4831V12.7139L32.8677 11.9386V5.45167Z" fill="#1B1B19"/>
</g>
</g>
<defs>
<clipPath id="clip0_2815_9731">
<rect width="33.3333" height="40" fill="white" transform="translate(3.33594)"/>
</clipPath>
</defs>
</svg>
