<svg width="40" height="40" viewBox="0 0 40 40" fill="none" xmlns="http://www.w3.org/2000/svg">
<path d="M28.6431 17.3144H22.6596C22.1112 17.3144 21.5144 17.7631 21.3337 18.3118C21.1531 18.8602 21.454 19.3092 22.0023 19.3092H27.9859C28.5342 19.3092 29.131 18.8605 29.3117 18.3118C29.4924 17.7635 29.1915 17.3144 28.6428 17.3144H28.6431Z" fill="#2E3443"/>
<path d="M4.45651 13L0.957031 23.6229H36.4978L39.9972 13H4.45651ZM8.37072 19.2091H14.0453L14.3408 18.3115H17.4924L16.3427 21.8017H6.86846C4.94371 21.8017 3.89366 20.2362 4.52793 18.3115C5.16186 16.3867 7.24359 14.8212 9.16834 14.8212H18.6425L17.7884 17.4141H8.96222C8.41385 17.4141 7.84993 17.7631 7.66927 18.3118C7.4886 18.8602 7.82236 19.2095 8.37072 19.2095V19.2091ZM27.7784 21.9018H20.4984C18.5736 21.9018 17.5564 20.2362 18.1907 18.3118C18.8246 16.3871 20.9392 14.7215 22.864 14.7215H30.144C32.0688 14.7215 33.086 16.3871 32.4517 18.3118C31.8174 20.2366 29.7031 21.9018 27.7784 21.9018ZM35.6524 20.705C35.4357 21.3633 34.7197 21.9018 34.0614 21.9018H32.8646C32.2063 21.9018 31.8453 21.3633 32.0621 20.705C32.2788 20.0467 32.9947 19.5082 33.6531 19.5082H34.8498C35.5082 19.5082 35.8691 20.0467 35.6524 20.705ZM35.7111 18.7106H33.3175L34.2198 14.8212H37.3714L35.7111 18.7106Z" fill="#2E3443"/>
<path d="M0.621549 24.6414L0 26.5277H0.85136L1.47291 24.6414H0.621549Z" fill="#2E3443"/>
<path d="M4.06455 25.7191L2.53931 24.6414H1.68796L1.06641 26.5277H1.91777L2.27273 25.4497L3.79832 26.5277H4.64968L5.27088 24.6414H4.41952L4.06455 25.7191Z" fill="#2E3443"/>
<path d="M9.06991 24.6414H5.48663L5.27344 25.2881H6.63674L6.22839 26.5277H7.07975L7.4881 25.2881H8.85671L9.06991 24.6414Z" fill="#2E3443"/>
<path d="M9.98107 25.1262H12.632L12.7918 24.6414H9.28952L8.66797 26.5277H12.1703L12.3301 26.0426H9.67914L9.7502 25.8269H12.4012L12.561 25.3418H9.91001L9.98107 25.1262Z" fill="#2E3443"/>
<path d="M15.2908 25.5844L15.2109 25.8269H13.6779C13.5297 25.8269 13.4396 25.7325 13.4884 25.5844C13.5372 25.4363 13.6895 25.3419 13.8377 25.3419H16.2221L16.4529 24.6411H13.8936C13.3735 24.6411 12.8113 25.0643 12.6398 25.5844C12.4684 26.1045 12.7523 26.5277 13.272 26.5277H15.8314L16.1422 25.5844H15.2908Z" fill="#2E3443"/>
<path d="M20.0071 25.3959C20.1315 25.0187 19.9728 24.6414 19.5011 24.6414H16.6723L16.0508 26.5277H16.9021L17.0266 26.1504H18.1124L18.5349 26.5277H19.6341L19.1907 26.1317C19.5793 26.0482 19.8996 25.7223 20.0071 25.3959ZM19.1557 25.3959C19.1334 25.4635 19.0772 25.5038 19.0015 25.5038H17.2394L17.3105 25.2881H19.0726C19.1479 25.2881 19.178 25.3284 19.1557 25.3959Z" fill="#2E3443"/>
<path d="M21.8637 24.6414L19.7148 26.5277H20.674L20.9809 26.2583H22.6405L22.7699 26.5277H23.7291L22.8229 24.6414H21.8637ZM21.5947 25.7194L22.148 25.2344L22.3817 25.7194H21.595H21.5947Z" fill="#2E3443"/>
<path d="M27.3391 24.6414H23.7558L23.543 25.2881H24.9059L24.4979 26.5277H25.3493L25.7573 25.2881H27.1262L27.3391 24.6414Z" fill="#2E3443"/>
<path d="M27.5551 24.6414L26.9336 26.5277H27.785L28.4065 24.6414H27.5551Z" fill="#2E3443"/>
<path d="M31.4874 24.6143H29.5205C29.0004 24.6143 28.4295 25.0643 28.258 25.5844C28.0865 26.1045 28.3612 26.5546 28.8813 26.5546H30.8481C31.3682 26.5546 31.9392 26.1045 32.1107 25.5844C32.2821 25.0643 32.0074 24.6143 31.4874 24.6143ZM31.2621 25.5844C31.2133 25.7326 31.0521 25.8538 30.904 25.8538H29.2875C29.1394 25.8538 29.0581 25.7326 29.1069 25.5844C29.1557 25.4363 29.3169 25.315 29.465 25.315H31.0815C31.2296 25.315 31.3109 25.4363 31.2621 25.5844Z" fill="#2E3443"/>
<path d="M34.9591 25.7191L33.4338 24.6414H32.5825L31.9609 26.5277H32.8123L33.1673 25.4497L34.6929 26.5277H35.5442L36.1658 24.6414H35.3144L34.9591 25.7191Z" fill="#2E3443"/>
</svg>
