<svg width="1728" height="67" viewBox="0 0 1728 67" fill="none" xmlns="http://www.w3.org/2000/svg">
<path d="M0.0960356 8.4248C40.8295 8.4248 38.9081 29.4285 70.8992 29.4285C102.89 29.4285 103.275 8.4248 144.104 8.4248C184.837 8.4248 182.916 29.4285 214.907 29.4285C246.898 29.4285 247.283 8.4248 288.112 8.4248M1296.07 8.4248C1336.81 8.4248 1334.88 29.4285 1366.88 29.4285C1398.87 29.4285 1399.25 8.4248 1440.08 8.4248C1480.81 8.4248 1478.89 29.4285 1510.88 29.4285C1542.87 29.4285 1543.26 8.4248 1584.09 8.4248M0 37.7144C40.7334 37.7144 38.812 58.7181 70.8031 58.7181C102.794 58.7181 103.179 37.7144 144.008 37.7144C184.741 37.7144 182.82 58.7181 214.811 58.7181C246.802 58.7181 247.187 37.7144 288.016 37.7144M1295.98 37.7144C1336.71 37.7144 1334.79 58.7181 1366.78 58.7181C1398.77 58.7181 1399.15 37.7144 1439.98 37.7144C1480.72 37.7144 1478.8 58.7181 1510.79 58.7181C1542.78 58.7181 1543.16 37.7144 1583.99 37.7144M720.04 8.4248C679.21 8.4248 678.826 29.4285 646.835 29.4285C614.844 29.4285 616.765 8.4248 576.032 8.4248C535.202 8.4248 534.818 29.4285 502.827 29.4285C470.836 29.4285 472.757 8.4248 432.024 8.4248C391.194 8.4248 390.81 29.4285 358.819 29.4285C326.828 29.4285 328.749 8.4248 288.016 8.4248M1151.97 8.4248C1111.14 8.4248 1110.75 29.4285 1078.76 29.4285C1046.77 29.4285 1048.69 8.4248 1007.96 8.4248C967.13 8.4248 966.746 29.4285 934.755 29.4285C902.764 29.4285 904.685 8.4248 863.952 8.4248C823.122 8.4248 822.738 29.4285 790.747 29.4285C758.756 29.4285 760.677 8.4248 719.944 8.4248M719.944 37.7144C679.114 37.7144 678.73 58.7181 646.739 58.7181C614.748 58.7181 616.669 37.7144 575.936 37.7144C535.106 37.7144 534.722 58.7181 502.731 58.7181C470.74 58.7181 472.661 37.7144 431.928 37.7144C391.098 37.7144 390.714 58.7181 358.723 58.7181C326.732 58.7181 328.653 37.7144 287.92 37.7144M1151.87 37.7144C1111.04 37.7144 1110.66 58.7181 1078.67 58.7181C1046.68 58.7181 1048.6 37.7144 1007.86 37.7144C967.034 37.7144 966.65 58.7181 934.659 58.7181C902.668 58.7181 904.589 37.7144 863.856 37.7144C823.026 37.7144 822.642 58.7181 790.651 58.7181C758.66 58.7181 760.581 37.7144 719.848 37.7144M1151.87 8.4248C1192.61 8.4248 1190.68 29.4285 1222.67 29.4285C1254.67 29.4285 1255.05 8.4248 1295.88 8.4248M1583.99 8.4248C1624.73 8.4248 1622.8 29.4285 1654.8 29.4285C1686.79 29.4285 1687.17 8.4248 1728 8.4248M1151.78 37.7144C1192.51 37.7144 1190.59 58.7181 1222.58 58.7181C1254.57 58.7181 1254.95 37.7144 1295.78 37.7144M1583.9 37.7144C1624.63 37.7144 1622.71 58.7181 1654.7 58.7181C1686.69 58.7181 1687.07 37.7144 1727.9 37.7144" stroke="#F6F6F9" stroke-width="6"/>
</svg>
