<svg width="1728" height="69" viewBox="0 0 1728 69" fill="none" xmlns="http://www.w3.org/2000/svg">
<g clip-path="url(#clip0_8944_41506)">
<line x1="-198.406" y1="32.4251" x2="768.594" y2="32.425" stroke="#23A8E2" stroke-width="4"/>
<path d="M897.483 24.7557C897.483 24.7557 886.966 19.1927 880.985 30.6899C876.598 39.1229 882.9 48.6997 873.279 53.0345C871.237 53.9551 857.332 55.2171 856.521 39.3108C856.199 33.0032 858.063 27.8019 861.197 23.875C857.737 22.9559 851.296 22.6107 847.094 30.6891C842.707 39.1221 849.009 48.6989 839.388 53.0337C837.346 53.9543 823.441 55.2163 822.63 39.31C821.451 16.2037 849.599 7.94052 862.121 22.7939C871.279 12.7724 889.201 12.2972 897.483 24.7557Z" fill="#23A8E2"/>
<path d="M896.174 48.5807C901.273 48.5807 905.406 44.4473 905.406 39.3484C905.406 34.2495 901.273 30.116 896.174 30.116C891.075 30.116 886.941 34.2495 886.941 39.3484C886.941 44.4473 891.075 48.5807 896.174 48.5807Z" fill="#23A8E2"/>
<line x1="959.406" y1="32.4251" x2="1926.41" y2="32.425" stroke="#23A8E2" stroke-width="4"/>
</g>
<defs>
<clipPath id="clip0_8944_41506">
<rect width="1728" height="68" fill="white" transform="translate(0 0.425049)"/>
</clipPath>
</defs>
</svg>
