<svg xmlns="http://www.w3.org/2000/svg" width="27.75" height="22.25" viewBox="0 0 27.75 22.25"><path d="M26.97.4a11.836 11.836 0 0 1-3.61 1.37 5.7 5.7 0 0 0-9.84 3.84 5.4 5.4 0 0 0 .15 1.28A16.174 16.174 0 0 1 1.95 1.02a5.519 5.519 0 0 0-.77 2.82 5.6 5.6 0 0 0 2.53 4.68 5.62 5.62 0 0 1-2.58-.71v.07a5.648 5.648 0 0 0 4.56 5.52 6.164 6.164 0 0 1-1.5.19 5.464 5.464 0 0 1-1.07-.1 5.712 5.712 0 0 0 5.31 3.91 11.525 11.525 0 0 1-7.06 2.4 12.26 12.26 0 0 1-1.36-.08 16.214 16.214 0 0 0 8.72 2.53A15.974 15.974 0 0 0 24.91 6.26l-.02-.73a11.425 11.425 0 0 0 2.85-2.91 11.549 11.549 0 0 1-3.27.89A5.714 5.714 0 0 0 26.97.4z"/></svg>