<svg width="18" height="12" viewBox="0 0 18 12" fill="none" xmlns="http://www.w3.org/2000/svg">
<path id="Vector" d="M17.0897 12H15.1643C14.5594 12 14.2466 11.6154 13.6788 10.917C13.4444 10.6287 13.1526 10.2697 12.7675 9.84402C11.5379 8.53304 11.1265 8.53304 10.9913 8.53304C10.7401 8.53304 10.6877 8.53304 10.6877 9.04169V10.9509C10.6877 11.7256 10.2752 12 9.11219 12C6.9057 12 4.649 10.5083 3.07493 8.00958C0.547624 4.09192 0 1.30345 0 0.823339C0 0.447827 0.149206 0 0.860037 0H2.78572C3.40875 0 3.64276 0.358041 3.83636 0.976595C4.84641 4.22948 6.38207 6.51218 6.82969 6.51218C6.9105 6.51218 6.9869 6.51218 6.9869 5.92105V2.78582C6.9465 1.97685 6.69689 1.63496 6.49628 1.36051C6.35507 1.16723 6.22167 0.984778 6.22167 0.710553C6.22167 0.361137 6.47988 0 6.9117 0H9.93763C10.6101 0 10.6879 0.572777 10.6879 1.0038V5.222C10.6879 5.51126 10.7731 5.60326 10.7941 5.61056C10.9385 5.60989 11.0901 5.52165 11.5433 5.02031C12.8832 3.36412 13.8564 0.765619 13.8662 0.739523C14.0568 0.247908 14.4004 0.00022145 14.8888 0.00022145H16.8145C17.1505 0.00022145 17.3893 0.101729 17.5244 0.302311C17.6518 0.491615 17.674 0.746379 17.5906 1.05953C17.3319 2.33666 15.0654 5.87638 14.969 6.02676C14.791 6.34234 14.7528 6.41023 14.9638 6.71011C15.0592 6.8574 15.2767 7.09292 15.5071 7.34238C15.7621 7.61859 16.0513 7.93196 16.2849 8.23715C17.2885 9.48531 17.7864 10.2551 17.947 10.8073C18.0626 11.2452 17.9676 11.5121 17.8674 11.6594C17.7618 11.8147 17.5412 12 17.0897 12Z" fill="white"/>
</svg>
