<svg width="18" height="13" viewBox="0 0 18 13" fill="none" xmlns="http://www.w3.org/2000/svg">
<path d="M17.0897 12.6572H15.1643C14.5594 12.6572 14.2466 12.2726 13.6788 11.5743C13.4444 11.2859 13.1526 10.927 12.7675 10.5012C11.5379 9.19027 11.1265 9.19027 10.9913 9.19027C10.7401 9.19027 10.6877 9.19027 10.6877 9.69891V11.6081C10.6877 12.3828 10.2752 12.6572 9.11219 12.6572C6.9057 12.6572 4.649 11.1656 3.07493 8.66681C0.547624 4.74915 0 1.96068 0 1.48057C0 1.10505 0.149206 0.657227 0.860037 0.657227H2.78572C3.40875 0.657227 3.64276 1.01527 3.83636 1.63382C4.84641 4.88671 6.38207 7.16941 6.82969 7.16941C6.9105 7.16941 6.9869 7.16941 6.9869 6.57828V3.44304C6.9465 2.63408 6.69689 2.29218 6.49628 2.01774C6.35507 1.82445 6.22167 1.642 6.22167 1.36778C6.22167 1.01836 6.47988 0.657227 6.9117 0.657227H9.93763C10.6101 0.657227 10.6879 1.23 10.6879 1.66102V5.87922C10.6879 6.16849 10.7731 6.26049 10.7941 6.26778C10.9385 6.26712 11.0901 6.17888 11.5433 5.67754C12.8832 4.02135 13.8564 1.42285 13.8662 1.39675C14.0568 0.905135 14.4004 0.657448 14.8888 0.657448H16.8145C17.1505 0.657448 17.3893 0.758955 17.5244 0.959538C17.6518 1.14884 17.674 1.40361 17.5906 1.71675C17.3319 2.99389 15.0654 6.5336 14.969 6.68399C14.791 6.99957 14.7528 7.06746 14.9638 7.36734C15.0592 7.51462 15.2767 7.75015 15.5071 7.9996C15.7621 8.27582 16.0513 8.58919 16.2849 8.89437C17.2885 10.1425 17.7864 10.9124 17.947 11.4646C18.0626 11.9024 17.9676 12.1694 17.8674 12.3167C17.7618 12.4719 17.5412 12.6572 17.0897 12.6572Z" fill="#343A48"/>
</svg>
