<svg xmlns="http://www.w3.org/2000/svg" width="27.72" height="15.88" viewBox="0 0 27.72 15.88"><path d="M27.48 14.17a12.29 12.29 0 0 0-2.75-3.2c-2.32-2.17-2.01-1.81.79-5.56 1.7-2.28 2.38-3.68 2.17-4.27-.2-.57-1.46-.42-1.46-.42l-4.16.02a.948.948 0 0 0-.54.1 1.159 1.159 0 0 0-.37.45 24.188 24.188 0 0 1-1.54 3.27c-1.85 3.17-2.6 3.33-2.9 3.14-.71-.46-.53-1.85-.53-2.83 0-3.07.46-4.35-.9-4.68a7.442 7.442 0 0 0-1.95-.2 9.073 9.073 0 0 0-3.46.36c-.47.23-.84.75-.61.78a1.9 1.9 0 0 1 1.23.62 4.173 4.173 0 0 1 .41 1.9s.24 3.62-.57 4.06c-.57.31-1.34-.32-2.99-3.19a26.374 26.374 0 0 1-1.49-3.1 1.2 1.2 0 0 0-.34-.47 1.91 1.91 0 0 0-.65-.26L.91.72A1.393 1.393 0 0 0 .1.99a.881.881 0 0 0-.01.71S3.19 9 6.7 12.67a9.481 9.481 0 0 0 6.87 3.15h1.66a1.378 1.378 0 0 0 .76-.33 1.223 1.223 0 0 0 .22-.73s-.03-2.24 1-2.57 2.33 2.16 3.71 3.12a2.655 2.655 0 0 0 1.84.57l3.7-.06s1.94-.12 1.02-1.65z"/></svg>