<svg width="18" height="19" viewBox="0 0 18 19" fill="none" xmlns="http://www.w3.org/2000/svg">
<g id="dr">
<path id="Vector" d="M6.50652 16.8352H1.49741V14.7182H6.49544V16.8352H6.50652ZM7.515 13.6541H0.5V18.9521H1.49741V17.8881H7.49285V13.6541H7.515ZM1.49741 4.13318L3.50326 2.01619V9.4312H1.49741V4.13318ZM0.5 10.4842H4.48956V0.952148H3.00457L0.5 3.60116V10.4842ZM6.50652 2.01619H8.51241V9.4312H6.50652V2.01619ZM5.50915 10.4842H9.4987V0.952148H5.50915V10.4842ZM16.4916 10.4842H17.4889V0.952148H15.9818V0.963234L14.4746 2.54821V0.952148H12.9674L10.485 3.60116V10.4842H11.4824V4.13318L13.4883 2.01619V10.4842H14.4857V4.13318L16.4916 2.01619V10.4842ZM0.5 12.6012H17.5V11.5371H0.5V12.6012ZM13.4994 14.7182H16.4916V16.8352H13.4994V14.7182ZM12.502 16.8352H9.4987V14.7182H12.502V16.8352ZM13.4994 17.8881H17.5V13.6541H8.51241V17.8881H12.502V18.9521H13.4994V17.8881Z" fill="#343A48"/>
</g>
</svg>
