<svg xmlns="http://www.w3.org/2000/svg" width="18.13" height="28.62" viewBox="0 0 18.13 28.62"><path d="M7.57 20.16a12.082 12.082 0 0 1-6.25-2.12c-.23-.17-.46-.33-.66-.51a1.627 1.627 0 0 1-.24-2.4 1.841 1.841 0 0 1 2.36-.5 3.809 3.809 0 0 1 .52.29 10.709 10.709 0 0 0 11.35.1 3.1 3.1 0 0 1 1.11-.54 1.759 1.759 0 0 1 1.98.75 1.527 1.527 0 0 1-.12 2.1 9.185 9.185 0 0 1-3.3 2.03 16.684 16.684 0 0 1-3.75.8c.2.19.29.29.41.41 1.73 1.65 3.47 3.3 5.2 4.96a1.576 1.576 0 0 1 .39 1.93 2.065 2.065 0 0 1-1.93 1.14 1.911 1.911 0 0 1-1.22-.59c-1.3-1.25-2.64-2.48-3.92-3.76-.38-.37-.56-.3-.88.02q-1.98 1.935-4.01 3.82a1.734 1.734 0 0 1-2.02.35 1.963 1.963 0 0 1-1.19-1.8 1.772 1.772 0 0 1 .64-1.2c1.71-1.63 3.43-3.26 5.14-4.89zm1.42-5.67a7.255 7.255 0 1 1 7.67-7.15 7.444 7.444 0 0 1-7.67 7.15zm3.79-7.25a3.741 3.741 0 1 0-3.71 3.55 3.629 3.629 0 0 0 3.71-3.55z"/></svg>