<svg width="15" height="10" viewBox="0 0 15 10" fill="none" xmlns="http://www.w3.org/2000/svg">
<path d="M14.3859 1.48461C14.4815 1.15961 14.3859 0.92041 13.9261 0.92041H12.4048C12.0173 0.92041 11.8391 1.12581 11.7435 1.35461C11.7435 1.35461 10.9686 3.25519 9.87344 4.48758C9.51957 4.84378 9.35684 4.95818 9.16311 4.95818C9.06754 4.95818 8.92031 4.84378 8.92031 4.51878V1.48461C8.92031 1.09461 8.81183 0.92041 8.49154 0.92041H6.09969C5.85689 0.92041 5.71224 1.10241 5.71224 1.27141C5.71224 1.6406 6.25983 1.7264 6.31666 2.7664V5.02318C6.31666 5.51718 6.22884 5.60818 6.03511 5.60818C5.51852 5.60818 4.26318 3.69979 3.51928 1.51581C3.36947 1.09201 3.22224 0.92041 2.83221 0.92041H1.31083C0.876884 0.92041 0.789062 1.12581 0.789062 1.35461C0.789062 1.7602 1.30566 3.77519 3.19383 6.43757C4.45174 8.25496 6.22367 9.24035 7.83546 9.24035C8.80408 9.24035 8.9229 9.02195 8.9229 8.64495C8.9229 6.90817 8.83507 6.74437 9.32068 6.74437C9.5454 6.74437 9.93285 6.85877 10.8369 7.73496C11.8701 8.77495 12.0406 9.24035 12.6192 9.24035H14.1405C14.5745 9.24035 14.794 9.02195 14.6675 8.59035C14.3782 7.68296 12.4228 5.81617 12.335 5.69138C12.1103 5.40018 12.1749 5.27018 12.335 5.01018C12.3376 5.00758 14.1948 2.3764 14.3859 1.48461Z" fill="#000000"/>
</svg>
