<svg width="18" height="18" viewBox="0 0 18 18" fill="none" xmlns="http://www.w3.org/2000/svg">
<g id="dr">
<path id="Vector" d="M6.50652 15.883H1.49741V13.766H6.49544V15.883H6.50652ZM7.515 12.702H0.5V18H1.49741V16.936H7.49285V12.702H7.515ZM1.49741 3.18103L3.50326 1.06404V8.47906H1.49741V3.18103ZM0.5 9.53202H4.48956V0H3.00457L0.5 2.64901V9.53202ZM6.50652 1.06404H8.51241V8.47906H6.50652V1.06404ZM5.50915 9.53202H9.4987V0H5.50915V9.53202ZM16.4916 9.53202H17.4889V0H15.9818V0.0110857L14.4746 1.59606V0H12.9674L10.485 2.64901V9.53202H11.4824V3.18103L13.4883 1.06404V9.53202H14.4857V3.18103L16.4916 1.06404V9.53202ZM0.5 11.649H17.5V10.585H0.5V11.649ZM13.4994 13.766H16.4916V15.883H13.4994V13.766ZM12.502 15.883H9.4987V13.766H12.502V15.883ZM13.4994 16.936H17.5V12.702H8.51241V16.936H12.502V18H13.4994V16.936Z" fill="white"/>
</g>
</svg>
