<svg xmlns="http://www.w3.org/2000/svg" xmlns:xlink="http://www.w3.org/1999/xlink" width="512.092" height="2649.054"><symbol id="3d" viewBox="0 0 19 18"><path d="M6.128 16.11A7.867 7.867 0 0 1 1.63 9.75H.5C.884 14.37 4.765 18 9.504 18l.497-.023-2.87-2.857-1.003.99Zm.67-4.89c-.142 0-.278-.023-.39-.06a.806.806 0 0 1-.302-.18.744.744 0 0 1-.196-.277.892.892 0 0 1-.068-.353h-.98c0 .27.053.51.159.713.105.202.248.374.422.517.18.135.384.24.617.307.227.075.468.113.724.113.279 0 .542-.037.776-.113a1.84 1.84 0 0 0 .625-.33 1.47 1.47 0 0 0 .415-.54 1.74 1.74 0 0 0 .15-.727c0-.142-.015-.285-.052-.42a1.35 1.35 0 0 0-.475-.705 1.552 1.552 0 0 0-.46-.232 1.582 1.582 0 0 0 .67-.563 1.211 1.211 0 0 0 .219-.705c0-.27-.045-.51-.135-.72a1.336 1.336 0 0 0-.385-.518 1.552 1.552 0 0 0-.58-.322A2.758 2.758 0 0 0 6.784 6c-.271 0-.52.037-.754.12a1.92 1.92 0 0 0-.595.337 1.687 1.687 0 0 0-.384.503c-.09.195-.136.405-.136.638h.98c0-.128.022-.24.068-.338a.705.705 0 0 1 .188-.255.894.894 0 0 1 .286-.165c.113-.037.226-.06.362-.06.301 0 .527.075.67.232.144.15.219.368.219.646 0 .135-.023.254-.06.367a.652.652 0 0 1-.189.277.956.956 0 0 1-.309.18c-.12.046-.27.068-.437.068h-.58v.772h.58a1.7 1.7 0 0 1 .452.053.903.903 0 0 1 .34.172c.09.083.165.18.218.3.053.12.075.263.075.428 0 .307-.09.54-.263.697-.174.173-.415.248-.716.248Zm6.443-4.44a2.51 2.51 0 0 0-.859-.578 2.846 2.846 0 0 0-1.1-.202H9.504v6h1.733a3.07 3.07 0 0 0 1.137-.203c.34-.135.633-.322.874-.57a2.53 2.53 0 0 0 .558-.892c.128-.353.196-.743.196-1.178v-.3c0-.434-.068-.824-.196-1.177a2.619 2.619 0 0 0-.565-.9Zm-.294 2.37c0 .315-.038.592-.105.848a1.832 1.832 0 0 1-.324.637 1.408 1.408 0 0 1-.535.398 1.95 1.95 0 0 1-.746.135h-.686V6.84h.73c.543 0 .958.173 1.237.518.286.345.429.84.429 1.492v.3ZM9.504 0l-.498.022 2.871 2.858 1.002-.997c2.464 1.162 4.227 3.54 4.49 6.36H18.5C18.123 3.63 14.243 0 9.504 0Z"/></symbol><use xlink:href="#3d" width="19" height="18"/><symbol id="armchair" viewBox="0 0 17 14"><path fill-rule="evenodd" clip-rule="evenodd" d="M5.021.138c-.904.384-1.43 1.21-1.53 2.405-.086 1.02-.043 1.19.378 1.48.26.18.795 1.01 1.187 1.846l.712 1.518h5.427l.712-1.518c.392-.836.926-1.666 1.187-1.846.422-.292.464-.459.377-1.492-.081-.964-.213-1.278-.765-1.822L12.04.05 8.74.006C6.925-.02 5.252.04 5.02.138ZM.608 5.415c-.692.68-.652 1.217.256 3.47.94 2.332 1.219 2.777 1.986 3.168.505.257.598.432.598 1.126 0 .82.001.821.839.821h.839v-1.653h6.711V14h.839c.838 0 .838 0 .838-.821 0-.694.093-.869.599-1.126.329-.168.737-.519.906-.78.521-.803 1.851-4.27 1.851-4.826 0-.735-.877-1.54-1.678-1.54-.887 0-1.445.657-2.177 2.561l-.605 1.573H4.544l-.667-1.63c-.367-.898-.88-1.827-1.138-2.067-.63-.584-1.496-.555-2.131.07Z"/><path fill-rule="evenodd" clip-rule="evenodd" d="M5.021.138c-.904.384-1.43 1.21-1.53 2.405-.086 1.02-.043 1.19.378 1.48.26.18.795 1.01 1.187 1.846l.712 1.518h5.427l.712-1.518c.392-.836.926-1.666 1.187-1.846.422-.292.464-.459.377-1.492-.081-.964-.213-1.278-.765-1.822L12.04.05 8.74.006C6.925-.02 5.252.04 5.02.138ZM.608 5.415c-.692.68-.652 1.217.256 3.47.94 2.332 1.219 2.777 1.986 3.168.505.257.598.432.598 1.126 0 .82.001.821.839.821h.839v-1.653h6.711V14h.839c.838 0 .838 0 .838-.821 0-.694.093-.869.599-1.126.329-.168.737-.519.906-.78.521-.803 1.851-4.27 1.851-4.826 0-.735-.877-1.54-1.678-1.54-.887 0-1.445.657-2.177 2.561l-.605 1.573H4.544l-.667-1.63c-.367-.898-.88-1.827-1.138-2.067-.63-.584-1.496-.555-2.131.07Z"/></symbol><use xlink:href="#armchair" y="18" width="17" height="14"/><symbol fill="none" id="arrow-circle-down" viewBox="0 0 40 40"><path d="M36.667 20c0-9.205-7.462-16.667-16.667-16.667-9.205 0-16.667 7.462-16.666 16.667 0 9.205 7.461 16.667 16.666 16.667S36.667 29.205 36.667 20Z" stroke="#343A48" stroke-width="1.8" stroke-miterlimit="10" stroke-linecap="round" stroke-linejoin="round"/><path d="M17.9 25.883 23.767 20 17.9 14.117" stroke="#343A48" stroke-width="1.8" stroke-linecap="round" stroke-linejoin="round"/></symbol><use fill="none" xlink:href="#arrow-circle-down" y="32" width="40" height="40"/><symbol id="arrow-l" viewBox="0 0 20 17"><path d="M0 8.333c0-.467.342-.853.786-.914l.123-.008H16.89l-5.774-5.835a.932.932 0 0 1-.002-1.304.9.9 0 0 1 1.183-.092l.102.089 7.334 7.41.018.02a.95.95 0 0 1 .053.062l-.071-.082a.925.925 0 0 1 .267.62v.064a.911.911 0 0 1-.005.069L20 8.333a.949.949 0 0 1-.116.451.939.939 0 0 1-.159.21L12.4 16.398a.9.9 0 0 1-1.285-.003.933.933 0 0 1-.086-1.201l.088-.104 5.773-5.833L.91 9.256A.916.916 0 0 1 0 8.333Z"/></symbol><use xlink:href="#arrow-l" y="72" width="20" height="17"/><symbol id="back-arrow" viewBox="0 0 512.01 512"><path d="M154.676 213.34H16.012c-8.832 0-16-7.168-16-16V58.672c0-8.832 7.168-16 16-16s16 7.168 16 16V181.34h122.664c8.832 0 16 7.168 16 16s-7.168 16-16 16zm0 0"/><path d="M256.012 512.004c-68.48 0-132.758-26.664-180.93-75.113-6.25-6.274-6.207-16.407.043-22.637 6.273-6.207 16.406-6.25 22.633.043 42.156 42.371 98.347 65.707 158.254 65.707 123.52 0 224-100.48 224-224s-100.48-224-224-224c-105.344 0-199.746 71.191-224.473 169.262-2.176 8.574-11.008 13.757-19.434 11.601C3.531 210.691-1.652 202.012.48 193.414 28.766 81.348 136.223.004 256.012.004c141.16 0 256 114.84 256 256 0 141.164-114.84 256-256 256zm0 0"/></symbol><use xlink:href="#back-arrow" y="89" width="512.01" height="512"/><symbol fill="none" id="bed" viewBox="0 0 22 20"><path d="M19.1 9.367V6.786C19.1 5.254 17.885 4 16.4 4h-3.6c-.693 0-1.323.279-1.8.724A2.632 2.632 0 0 0 9.2 4H5.6C4.115 4 2.9 5.254 2.9 6.786v2.581a2.81 2.81 0 0 0-.9 2.062V17h1.8v-1.857h14.4V17H20v-5.571c0-.818-.351-1.551-.9-2.062Zm-6.3-3.51h3.6c.495 0 .9.418.9.929v1.857h-5.4V6.786c0-.511.405-.929.9-.929Zm-8.1.929c0-.511.405-.929.9-.929h3.6c.495 0 .9.418.9.929v1.857H4.7V6.786Zm-.9 6.5v-1.857c0-.511.405-.929.9-.929h12.6c.495 0 .9.418.9.929v1.857H3.8Z" fill="#808494"/></symbol><use fill="none" xlink:href="#bed" y="601" width="22" height="20"/><symbol id="buildings" viewBox="0 0 50 37"><path fill-rule="evenodd" clip-rule="evenodd" d="M16.163 3.314 24.944 0l8.897 3.314c.533.237 1 .46 1.036.494a.439.439 0 0 1 .094.16c.038.127.041 23.403.002 23.549a.558.558 0 0 0-.006.026v.007l-.004.012a.13.13 0 0 1-.003.01c-.043.143-.297.228-4.35 1.588l-.652.22c-3.77 1.264-4.859 1.62-4.955 1.62-.174 0-9.753-3.214-9.863-3.31a.468.468 0 0 1-.108-.188c-.041-.143-.041-23.42 0-23.543a.41.41 0 0 1 .094-.148c.039-.035.505-.26 1.038-.497Zm7.839 1.24.005-2.947-4.104 1.561-1.402.59-2.702.972.036 2.077 2.666-.7 1.417-.426 4.084-1.127Zm10.203.176-2.406-.92-1.69-.646L26.013 1.6l-.009 2.955 4.1 1.108 1.695.458 2.406.65V4.73ZM23.988 8.78l.02-2.974-4.091.889-1.416.308-2.666.579V9.64l2.666-.27 1.381-.148 4.106-.44Zm10.217-1.266-2.406-.501-1.695-.353-4.1-.854.014 2.962 4.093.459 1.688.19 2.406.269V7.515Zm-10.22 2.511-4.068.195-1.416.075-2.666.157v2.229l2.666.115 1.416.061 4.071.173-.003-3.005Zm10.22.433-2.406-.124-1.688-.089a1047.98 1047.98 0 0 1-4.107-.22l.014 3.005 4.093-.27 1.688-.11 2.406-.16v-2.03Zm0 16.314v-2.666l-2.406.335-1.68.235-4.087.57L26 28.577l4.103-.739 1.696-.45 2.406-.616Zm-10.209-1.527-4.094-.558-1.4-.19-2.695-.368.006 2.292 2.688.735 1.4.345L24 28.578l-.004-3.332ZM15.835 13.62l2.666.156 1.38.08 4.103.234-.02 2.818-4.083-.37-1.38-.125-2.66-.326-.006-2.467Zm18.37-.042-2.406.15-1.696.106-4.102.256v2.818l4.102-.405 1.696-.167 2.406-.238v-2.52Zm-18.37 3.52 2.666.24 1.444.132 4.137.378-.065 2.818-4.072-.466-1.444-.166-2.66-.308-.006-2.627ZM26 20.668v-2.819l4.102-.371 1.696-.154 2.406-.218v2.592l-2.406.284-1.696.2-4.102.486Zm-10.16 0 2.66.234 1.451.128 4.112.363.018 2.953-4.12-.665-1.46-.236-2.662-.429v-2.348Zm18.364 0-2.406.212-1.696.15-4.102.363v2.953l4.102-.665 1.696-.275 2.406-.39v-2.348Z"/><path d="m19.918 5.68-.015-2.512-1.402.59v2.348l1.417-.425Zm-1.417 3.69 1.381-.148.035-2.526-1.416.308V9.37Zm1.416 3.488v-2.637l-1.416.075v2.5l1.416.062Zm-.036 3.682v-2.684l-1.38-.079v2.637l1.38.125Zm.064 3.66v-2.729L18.5 17.34v2.695l1.444.166Zm.016 3.48-.009-2.65-1.45-.129v2.543l1.46.236Zm-.059 3.822v-2.814l-1.4-.19v2.659l1.4.345ZM30.109 3.164l-.005 2.498 1.695.458V3.81l-1.69-.646Zm-.005 3.496.007 2.568 1.688.19V7.013l-1.695-.353Zm.007 3.586v2.516l1.688-.112v-2.315l-1.688-.089Zm-.008 3.589v2.67l1.696-.168v-2.608l-1.696.106Zm0 3.642v2.705l1.696-.2v-2.659l-1.696.154Zm0 3.553v2.65l1.696-.275v-2.526l-1.696.15Zm.015 3.647-.015 3.162 1.696-.45v-2.947l-1.68.235Z"/><g clip-path="url(#a)"><path d="M35.859 14.264c0 .352.134.41 1.753.895 4.046 1.202 7.807 4.605 7.867 7.07.015 1.32-.99 2.624-2.892 3.74-.645.38-2.697 1.202-4.316 1.744-.315.103-.165.206 2.488 1.54 2.772 1.409 2.457 1.409 4.54.191 1.454-.836 3.072-2.258 3.716-3.241 2.488-3.843-.284-7.906-7.237-10.604-1.154-.455-4.376-1.379-5.35-1.555-.51-.088-.57-.059-.57.22Zm-24.365.528c-3.732 1.085-6.833 2.728-8.632 4.59-1.094 1.145-1.543 1.937-1.783 3.154-.824 4.386 4.84 8.448 14.355 10.296 2.293.455 5.53.777 8.662.865 1.318.044 2.412.074 2.442.074.015.014.03.513.03 1.114 0 .602.045 1.1.105 1.1.225 0 9.336-4.458 9.336-4.575 0-.118-9.186-4.665-9.44-4.665-.09 0-.15.514-.15 1.247v1.247h-.915c-3.102 0-8.391-.66-11.193-1.393-1.858-.485-4.406-1.438-5.425-2.024-1.243-.72-2.487-1.98-2.697-2.758-.24-.85-.12-1.452.54-2.772.973-1.921 3.206-3.813 5.589-4.752.689-.264.854-.396.884-.719.06-.498-.09-.498-1.708-.029Z"/></g><defs><clipPath id="a"><path fill="#fff" transform="translate(1 14)" d="M0 0h49v22H0z"/></clipPath></defs></symbol><use xlink:href="#buildings" y="621" width="50" height="37"/><symbol fill="none" id="calendar" viewBox="0 0 24 24"><path d="M19 4H5a2 2 0 0 0-2 2v14a2 2 0 0 0 2 2h14a2 2 0 0 0 2-2V6a2 2 0 0 0-2-2Zm-3-2v4M8 2v4m-5 4h18" opacity=".5" stroke="#000929" stroke-width="2" stroke-linecap="round" stroke-linejoin="round"/></symbol><use fill="none" xlink:href="#calendar" y="658" width="24" height="24"/><symbol id="call" viewBox="0 0 12 12"><path d="M2.413 5.193a10.1 10.1 0 0 0 4.394 4.394L8.273 8.12c.18-.18.447-.24.68-.16a7.6 7.6 0 0 0 2.38.38c.367 0 .667.3.667.667v2.326c0 .367-.3.667-.667.667C5.073 12 0 6.927 0 .667 0 .3.3 0 .667 0H3c.367 0 .667.3.667.667 0 .833.133 1.633.38 2.38a.669.669 0 0 1-.167.68L2.413 5.193Z"/></symbol><use xlink:href="#call" y="682" width="12" height="12"/><symbol id="clip" viewBox="0 0 129 129"><path d="M60.4 58.2c1.6-1.6 1.6-4.2 0-5.8s-4.2-1.6-5.8 0L32.9 74.1c-3.7 3.7-5.7 8.5-5.7 13.7 0 5.2 2 10 5.7 13.7 7.6 7.6 19.9 7.6 27.4 0l49-49c5.1-5.1 7.9-11.9 7.9-19.1s-2.8-14-7.9-19.1C98.7 3.7 81.6 3.7 71 14.3L22.1 63.2c-6.6 6.6-10.2 15.3-10.2 24.6s3.6 18.1 10.2 24.6c6.6 6.6 15.3 10.2 24.6 10.2s18.1-3.6 24.6-10.2L93 90.7c1.6-1.6 1.6-4.2 0-5.8s-4.2-1.6-5.8 0l-21.7 21.7c-5 5-11.7 7.8-18.8 7.8s-13.8-2.8-18.8-7.8-7.8-11.7-7.8-18.8S22.9 74 27.9 69l48.9-48.9c3.6-3.6 8.3-5.5 13.3-5.5s9.8 2 13.3 5.5c3.6 3.6 5.5 8.3 5.5 13.3s-2 9.8-5.5 13.3l-49 49c-4.3 4.3-11.4 4.3-15.8 0-2.1-2.1-3.3-4.9-3.3-7.9s1.2-5.8 3.3-7.9l21.8-21.7z"/></symbol><use xlink:href="#clip" y="694" width="129" height="129"/><symbol fill="none" id="clock" viewBox="0 0 22 23"><path d="M11 20.667a9.167 9.167 0 1 0 0-18.334 9.167 9.167 0 0 0 0 18.334Z" stroke="#343A48" stroke-width="2" stroke-linecap="round" stroke-linejoin="round"/><path d="M11 20.667a9.167 9.167 0 1 0 0-18.334 9.167 9.167 0 0 0 0 18.334Z" stroke="#343A48" stroke-width="2" stroke-linecap="round" stroke-linejoin="round"/><path d="M11 6v5.5l3.667 1.833" stroke="#343A48" stroke-width="2" stroke-linecap="round" stroke-linejoin="round"/><path d="M11 6v5.5l3.667 1.833" stroke="#343A48" stroke-width="2" stroke-linecap="round" stroke-linejoin="round"/></symbol><use fill="none" xlink:href="#clock" y="823" width="22" height="23"/><symbol class="frame-icon" id="close" viewBox="0 0 16 16"><path d="M12.707 3.293a1 1 0 0 0-1.414 0L8 6.586 4.707 3.293a1 1 0 0 0-1.414 1.414L6.586 8l-3.293 3.293a1 1 0 1 0 1.414 1.414L8 9.414l3.293 3.293a1 1 0 0 0 1.414-1.414L9.414 8l3.293-3.293a1 1 0 0 0 0-1.414Z" fill="currentColor"/></symbol><use class="frame-icon" xlink:href="#close" y="846" width="16" height="16"/><symbol fill="none" id="columns" viewBox="0 0 20 20"><path opacity=".5" d="M10 1v18m0-18h7a2 2 0 0 1 2 2v14a2 2 0 0 1-2 2h-7V1Zm0 0H3a2 2 0 0 0-2 2v14a2 2 0 0 0 2 2h7V1Z" stroke="#000929" stroke-width="2" stroke-linecap="round" stroke-linejoin="round"/></symbol><use fill="none" xlink:href="#columns" y="862" width="20" height="20"/><symbol fill="none" id="commerce" viewBox="0 0 18 15"><path d="M13.263 5.516 9.679.332A.822.822 0 0 0 9 0a.808.808 0 0 0-.68.34L4.738 5.516H.818c-.45 0-.818.356-.818.79 0 .072.008.143.033.214l2.078 7.326C2.299 14.51 2.929 15 3.68 15h10.637c.753 0 1.383-.49 1.58-1.154l2.078-7.326.024-.213c0-.435-.368-.79-.818-.79h-3.92Zm-6.718 0L9 2.04l2.454 3.477H6.545ZM9 11.84c-.9 0-1.636-.712-1.636-1.58 0-.87.736-1.581 1.636-1.581.9 0 1.636.71 1.636 1.58 0 .87-.736 1.58-1.636 1.58Z" fill="#808494"/></symbol><use fill="none" xlink:href="#commerce" y="882" width="18" height="15"/><symbol id="data" viewBox="0 0 15 17"><path d="M3 8h1.8v1.667H3V8Zm0 3.333h1.8V13H3v-1.667ZM6.6 8h1.8v1.667H6.6V8Zm0 3.333h1.8V13H6.6v-1.667ZM10.2 8H12v1.667h-1.8V8Zm0 3.333H12V13h-1.8v-1.667Z"/><path d="M1.667 17h11.666c.92 0 1.667-.762 1.667-1.7V3.4c0-.938-.748-1.7-1.667-1.7h-1.666V0H10v1.7H5V0H3.333v1.7H1.667C.747 1.7 0 2.462 0 3.4v11.9c0 .938.748 1.7 1.667 1.7ZM13.333 5.1l.001 10.2H1.667V5.1h11.666Z"/></symbol><use xlink:href="#data" y="897" width="15" height="17"/><symbol id="delete" viewBox="0 0 14 16"><path d="M14 .889h-3.5L9.5 0h-5l-1 .889H0v1.778h14V.889ZM1 3.556v10.666C1 15.2 1.9 16 3 16h8c1.1 0 2-.8 2-1.778V3.556H1Zm8 6.222v3.555H5V9.778H3l4-3.556 4 3.556H9Z"/><path d="M9 9.778v3.555H5V9.778H3l4-3.556 4 3.556H9Z"/></symbol><use xlink:href="#delete" y="914" width="14" height="16"/><symbol fill="none" id="discont" viewBox="0 0 19 18"><path d="M9.438.689 9.5.627 9.438.69ZM9.5.75l1.901 1.903.352-.352-.352.352c.19.19.454.286.722.262l2.68-.235.233 2.68a.908.908 0 0 0 .384.665l2.204 1.542L16.08 9.77a.908.908 0 0 0-.133.757l.697 2.598-2.599.695a.908.908 0 0 0-.588.493l-1.136 2.439-2.437-1.138-.21.45.21-.45a.908.908 0 0 0-.768 0l.21.45-.21-.45-2.437 1.138-1.136-2.439a.908.908 0 0 0-.588-.493l-2.6-.695.698-2.598a.907.907 0 0 0-.133-.757L1.376 7.568 3.58 6.026a.907.907 0 0 0 .384-.665l.233-2.68 2.68.235a.907.907 0 0 0 .722-.262L9.5.75ZM2.271 13.102l-.022.085.022-.085Zm10.014 3.73v-.001Zm4.382-3.623Zm.061-.107Zm.968-5.484Z" stroke="red" stroke-width=".995"/><path d="m6.92 12.005 4.084-5.98h1.016l-4.083 5.98H6.921Zm.522-2.75c-.29 0-.547-.066-.77-.197a1.47 1.47 0 0 1-.529-.573 1.944 1.944 0 0 1-.188-.88c0-.335.063-.626.188-.87a1.47 1.47 0 0 1 .53-.573c.222-.137.478-.205.769-.205.29 0 .546.068.768.205.223.137.396.327.522.572.125.245.187.536.187.872 0 .336-.062.629-.187.88a1.41 1.41 0 0 1-.522.572 1.485 1.485 0 0 1-.768.196Zm0-.701a.536.536 0 0 0 .452-.23c.114-.16.171-.4.171-.718 0-.32-.057-.556-.17-.71a.53.53 0 0 0-.453-.239.545.545 0 0 0-.453.24c-.114.153-.17.39-.17.709 0 .313.056.55.17.709.12.159.27.239.453.239Zm4.057 3.52c-.285 0-.54-.066-.769-.197a1.409 1.409 0 0 1-.52-.573 1.944 1.944 0 0 1-.189-.88c0-.335.063-.626.188-.87a1.41 1.41 0 0 1 .521-.573c.228-.137.484-.205.77-.205.295 0 .554.068.777.205.222.137.395.327.52.572.126.245.188.535.188.871 0 .337-.062.63-.188.88a1.408 1.408 0 0 1-.52.573 1.502 1.502 0 0 1-.778.196Zm0-.701a.536.536 0 0 0 .453-.231c.114-.16.17-.399.17-.717 0-.314-.056-.55-.17-.71a.53.53 0 0 0-.453-.239.545.545 0 0 0-.453.24c-.114.153-.17.39-.17.709 0 .318.056.558.17.717.12.154.27.23.453.23Z" fill="red"/></symbol><use fill="none" xlink:href="#discont" y="930" width="19" height="18"/><symbol id="download" viewBox="0 0 20 24"><path d="M12.87 0c.05 0 .1.004.149.013l.16.001c.239 0 .468.1.634.279l5.942 6.374a.92.92 0 0 1 .245.628v11.103C20 21.412 17.626 24 14.745 24H5.377C2.347 24 0 21.536 0 18.398V5.426C0 2.452 2.46.014 5.377.014l7.346-.001A.86.86 0 0 1 12.87 0Zm-.88 1.824-6.614.002c-1.96 0-3.617 1.643-3.617 3.6v12.972c0 2.145 1.567 3.79 3.618 3.79h9.369c1.885 0 3.495-1.755 3.495-3.79l-.002-9.961-1.027.003-1.33-.002c-2.077-.005-3.77-1.68-3.885-3.79l-.006-.227V1.824Zm-2.442 6.26a.89.89 0 0 1 .871.783l.008.123v5.744l1.827-1.886a.862.862 0 0 1 1.244-.003.927.927 0 0 1 .087 1.18l-.085.101-3.33 3.445-.05.049a.853.853 0 0 1-.038.03l.088-.08a.886.886 0 0 1-.479.255 1.421 1.421 0 0 1-.126.012H9.53a.88.88 0 0 1-.086-.006l.104.006a.86.86 0 0 1-.218-.027l-.04-.012a.725.725 0 0 1-.074-.027l-.04-.018a.62.62 0 0 1-.113-.066.486.486 0 0 1-.04-.028l-.01-.008a.885.885 0 0 1-.037-.031l-.052-.05-3.329-3.444a.926.926 0 0 1 .003-1.281.86.86 0 0 1 1.145-.085l.099.088 1.826 1.89V8.99c0-.5.394-.907.88-.907ZM13.75 2.84v1.58c0 1.217.955 2.203 2.136 2.206h1.392L13.75 2.84Z"/></symbol><use xlink:href="#download" y="948" width="20" height="24"/><symbol id="error" viewBox="0 0 512 512"><g fill="#F44336"><path d="M256 0C114.508 0 0 114.497 0 256c0 141.493 114.497 256 256 256 141.492 0 256-114.497 256-256C512 114.507 397.503 0 256 0zm0 472c-119.384 0-216-96.607-216-216 0-119.385 96.607-216 216-216 119.384 0 216 96.607 216 216 0 119.385-96.607 216-216 216z"/><path d="M343.586 315.302 284.284 256l59.302-59.302c7.81-7.81 7.811-20.473.001-28.284-7.812-7.811-20.475-7.81-28.284 0L256 227.716l-59.303-59.302c-7.809-7.811-20.474-7.811-28.284 0-7.81 7.811-7.81 20.474.001 28.284L227.716 256l-59.302 59.302c-7.811 7.811-7.812 20.474-.001 28.284 7.813 7.812 20.476 7.809 28.284 0L256 284.284l59.303 59.302c7.808 7.81 20.473 7.811 28.284 0s7.81-20.474-.001-28.284z"/></g></symbol><use xlink:href="#error" y="972" width="512" height="512"/><symbol fill="none" id="exclamation" viewBox="0 0 14 43"><path d="M13.666 35.938c0 3.618-2.99 6.562-6.666 6.562S.333 39.556.333 35.937c0-3.618 2.99-6.562 6.667-6.562 3.676 0 6.666 2.944 6.666 6.563ZM1.105 2.568 2.238 24.88c.053 1.047.932 1.87 1.998 1.87h5.528c1.066 0 1.944-.823 1.997-1.87l1.134-22.313C12.952 1.443 12.04.5 10.897.5H3.102c-1.144 0-2.054.943-1.997 2.067Z" fill="#1F4193"/></symbol><use fill="none" xlink:href="#exclamation" y="1484" width="14" height="43"/><symbol id="heart" viewBox="0 0 19.481 19.481"><path d="m10.201.758 2.478 5.865 6.344.545a.5.5 0 0 1 .285.876l-4.812 4.169 1.442 6.202a.5.5 0 0 1-.745.541l-5.452-3.288-5.452 3.288a.5.5 0 0 1-.745-.541l1.442-6.202-4.813-4.17a.5.5 0 0 1 .285-.876l6.344-.545L9.28.758a.5.5 0 0 1 .921 0z"/></symbol><use xlink:href="#heart" y="1527" width="19.481" height="19.481"/><symbol fill="none" id="help" viewBox="0 0 15 23"><path fill-rule="evenodd" clip-rule="evenodd" d="M7.986 3.887a3.832 3.832 0 0 0-4.262 2.505A1.916 1.916 0 0 1 .109 5.121a7.664 7.664 0 0 1 14.893 2.553c0 2.932-2.174 4.869-3.727 5.903a15.407 15.407 0 0 1-3.23 1.626l-.067.023-.02.008-.008.002-.003.001s-.003 0-.608-1.817l.605 1.818a1.916 1.916 0 0 1-1.212-3.635l.03-.01.142-.053a11.587 11.587 0 0 0 2.246-1.15c1.321-.882 2.02-1.819 2.02-2.718V7.67a3.832 3.832 0 0 0-3.184-3.783Zm-2.41 17.197c0-1.058.858-1.916 1.916-1.916h.02a1.916 1.916 0 1 1 0 3.832h-.02a1.916 1.916 0 0 1-1.916-1.916Z" fill="#fff"/></symbol><use fill="none" xlink:href="#help" y="1546.481" width="15" height="23"/><symbol id="house" viewBox="0 0 24 21"><path fill="#000929" fill-opacity=".5" d="M20.4 7.782V1.235h-3.6v3.212L12 0 0 11.118h3.6V21h6v-7.412h4.8V21h6v-9.882H24l-3.6-3.336Z"/></symbol><use xlink:href="#house" y="1569.481" width="24" height="21"/><symbol id="ic-settings" viewBox="0 0 22 21"><g transform="translate(1 1)" stroke-width="2" fill="none" fill-rule="evenodd"><path d="M.455 2.5h19.09"/><circle cx="10.5" cy="2.5" r="2"/><path d="M.455 9.5h19.09"/><circle cx="17.5" cy="9.5" r="2"/><path d="M.455 16.5h19.09"/><circle cx="10.5" cy="16.5" r="2"/></g></symbol><use xlink:href="#ic-settings" y="1590.481" width="22" height="21"/><symbol fill="none" id="info" viewBox="0 0 18 18"><path d="M8.2 5h1.6v1.6H8.2V5Zm0 3.2h1.6V13H8.2V8.2ZM9 1C4.584 1 1 4.584 1 9s3.584 8 8 8 8-3.584 8-8-3.584-8-8-8Zm0 14.4A6.408 6.408 0 0 1 2.6 9c0-3.528 2.872-6.4 6.4-6.4 3.528 0 6.4 2.872 6.4 6.4 0 3.528-2.872 6.4-6.4 6.4Z" fill="#858FA7" stroke="#fff" stroke-width=".5"/></symbol><use fill="none" xlink:href="#info" y="1611.481" width="18" height="18"/><symbol fill="none" id="layers" viewBox="0 0 24 24"><path d="M12 3 3 7.5l9 4.5 9-4.5L12 3ZM3 16l9 5 9-5M3 12l9 4 9-4"/></symbol><use fill="none" xlink:href="#layers" y="1629.481" width="24" height="24"/><symbol id="layout" viewBox="0 0 20 20"><path d="M2.5 10.833h6.667V2.5H2.5v8.333Zm0 6.667h6.667v-5H2.5v5Zm8.333 0H17.5V9.167h-6.667V17.5Zm0-15v5H17.5v-5h-6.667Z"/></symbol><use xlink:href="#layout" y="1653.481" width="20" height="20"/><symbol id="link-follow" viewBox="0 0 16 17"><path d="M10 1.833h4.667V6.5h-1.334V4.11L8 9.442 7.057 8.5l5.333-5.333H10V1.833Z"/><path d="M1.333 3.167h7.334V4.5h-6v9.333H12v-6h1.333v7.334h-12v-12Z"/></symbol><use xlink:href="#link-follow" y="1673.481" width="16" height="17"/><symbol style="enable-background:new 0 0 512.092 512.092" id="link" viewBox="0 0 512.092 512.092"><path d="M312.453 199.601a116.167 116.167 0 0 0-20.053-16.128 119.472 119.472 0 0 0-64.427-18.859 118.952 118.952 0 0 0-84.48 34.987L34.949 308.23a119.466 119.466 0 0 0-34.91 84.318c-.042 65.98 53.41 119.501 119.39 119.543a118.7 118.7 0 0 0 84.395-34.816l89.6-89.6a8.534 8.534 0 0 0-6.059-14.592h-3.413a143.626 143.626 0 0 1-54.613-10.581 8.533 8.533 0 0 0-9.301 1.877l-64.427 64.512c-20.006 20.006-52.442 20.006-72.448 0-20.006-20.006-20.006-52.442 0-72.448l108.971-108.885c19.99-19.965 52.373-19.965 72.363 0 13.472 12.679 34.486 12.679 47.957 0a34.134 34.134 0 0 0 9.899-21.675 34.137 34.137 0 0 0-9.9-26.282z"/><path d="M477.061 34.993c-46.657-46.657-122.303-46.657-168.96 0l-89.515 89.429a8.533 8.533 0 0 0-1.792 9.387 8.532 8.532 0 0 0 8.021 5.205h3.157a143.357 143.357 0 0 1 54.528 10.667 8.533 8.533 0 0 0 9.301-1.877l64.256-64.171c20.006-20.006 52.442-20.006 72.448 0 20.006 20.006 20.006 52.442 0 72.448l-80.043 79.957-.683.768-27.989 27.819c-19.99 19.965-52.373 19.965-72.363 0-13.472-12.679-34.486-12.679-47.957 0a34.139 34.139 0 0 0-9.899 21.845 34.137 34.137 0 0 0 9.899 26.283 118.447 118.447 0 0 0 34.133 23.893c1.792.853 3.584 1.536 5.376 2.304 1.792.768 3.669 1.365 5.461 2.048a67.799 67.799 0 0 0 5.461 1.792l5.035 1.365c3.413.853 6.827 1.536 10.325 2.133 4.214.626 8.458 1.025 12.715 1.195h6.485l5.12-.597c1.877-.085 3.84-.512 6.059-.512h2.901l5.888-.853 2.731-.512 4.949-1.024h.939a119.456 119.456 0 0 0 55.381-31.403l108.629-108.629c46.66-46.657 46.66-122.303.003-168.96z"/></symbol><use style="enable-background:new 0 0 512.092 512.092" xlink:href="#link" y="1690.481" width="512.092" height="512.092"/><symbol fill="none" id="loop-grey" viewBox="0 0 20 20"><path d="M9.167 15.833a6.667 6.667 0 1 0 0-13.333 6.667 6.667 0 0 0 0 13.333ZM17.5 17.5l-3.625-3.625" stroke="#979A9E" stroke-width="2" stroke-linecap="round" stroke-linejoin="round"/></symbol><use fill="none" xlink:href="#loop-grey" y="2202.573" width="20" height="20"/><symbol fill="none" id="loop" viewBox="0 0 14 14"><path d="M6.417 11.083a4.667 4.667 0 1 0 0-9.333 4.667 4.667 0 0 0 0 9.333Zm5.833 1.167L9.711 9.713"/></symbol><use fill="none" xlink:href="#loop" y="2222.573" width="14" height="14"/><symbol id="map" viewBox="0 0 20 20"><path d="m17.083 2.5-.133.025L12.5 4.25l-5-1.75-4.7 1.583a.42.42 0 0 0-.3.4v12.6c0 .234.183.417.417.417l.133-.025L7.5 15.75l5 1.75 4.7-1.583a.42.42 0 0 0 .3-.4v-12.6a.413.413 0 0 0-.417-.417ZM12.5 15.833l-5-1.758V4.167l5 1.758v9.908Z"/></symbol><use xlink:href="#map" y="2236.573" width="20" height="20"/><symbol id="marker" viewBox="0 0 12 17"><path d="M6 0C2.691 0 0 2.762 0 6.157c0 4.213 5.369 10.398 5.598 10.659.215.245.59.245.804 0C6.631 16.555 12 10.37 12 6.157 12 2.762 9.308 0 6 0zm0 9.254c-1.665 0-3.019-1.389-3.019-3.097S4.335 3.059 6 3.059c1.664 0 3.019 1.39 3.019 3.098S7.664 9.254 6 9.254z"/></symbol><use xlink:href="#marker" y="2256.573" width="12" height="17"/><symbol fill="none" id="next" viewBox="0 0 27 50"><path d="M.738.753a2.613 2.613 0 0 0-.244 3.35l.244.288L20.92 25 .738 45.61a2.613 2.613 0 0 0-.244 3.348l.244.289a2.48 2.48 0 0 0 3.28.249l.282-.25L26.262 26.82a2.613 2.613 0 0 0 .244-3.35l-.244-.288L4.3.753a2.482 2.482 0 0 0-3.562 0Z" fill="#FAFAFA"/></symbol><use fill="none" xlink:href="#next" y="2273.573" width="27" height="50"/><symbol fill="none" id="pantry" viewBox="0 0 22 20"><path fill-rule="evenodd" clip-rule="evenodd" d="M4.456 2.306c-.238.166-.888 1.056-1.445 1.977L2 5.957v11.061l.491.491.49.491h14.038l.491-.49.491-.492V5.891l-.915-1.494c-1.567-2.562-1.074-2.395-7.052-2.395-4.274 0-5.217.052-5.577.304ZM15.2 4.402l.408.8H4.392l.408-.8.408-.8h9.584l.408.8Zm1.2 7.199v4.8H3.6V6.8h12.8v4.8Z" fill="#808494"/><rect x="8" y="9" width="4" height="2" rx="1" fill="#808494"/></symbol><use fill="none" xlink:href="#pantry" y="2323.573" width="22" height="20"/><symbol fill="none" id="parking" viewBox="0 0 20 20"><path d="M16.657 4.228c-.193-.523-.731-.894-1.366-.894H4.71c-.635 0-1.164.371-1.366.894L1.343 9.53v7.084c0 .487.433.885.962.885h.962c.529 0 .962-.398.962-.885v-.886h11.543v.886c0 .487.433.885.962.885h.962c.529 0 .962-.398.962-.885V9.53l-2.001-5.303ZM4.71 13.073c-.799 0-1.443-.593-1.443-1.328 0-.735.644-1.328 1.443-1.328.798 0 1.442.593 1.442 1.328 0 .735-.644 1.328-1.442 1.328Zm10.58 0c-.798 0-1.442-.593-1.442-1.328 0-.735.644-1.328 1.443-1.328.798 0 1.443.593 1.443 1.328 0 .735-.645 1.328-1.443 1.328ZM3.268 8.646 4.71 4.662h10.58l1.444 3.984H3.267Z" fill="#808494"/></symbol><use fill="none" xlink:href="#parking" y="2343.573" width="20" height="20"/><symbol id="pdf-download" viewBox="0 0 16 18"><path d="M13.334 17.214h.5v-2.571h.333v2.071c0 .202-.083.4-.238.55a.859.859 0 0 1-.595.236H2.667a.859.859 0 0 1-.596-.237.763.763 0 0 1-.238-.549v-2.071h.334v2.571h11.166Z"/><path d="M7.833 12.968V8.214h.333v5.931l.848-.817L10.39 12l.222.214L8 14.734l-2.613-2.52.222-.214 1.377 1.328.847.817v-1.177Zm5.5-9.611h-.5V5.93H12.5V.5h3v.286h-2.667V3.07h2v.286h-1.5Zm-6.5 1.786v.5h1.834c.304 0 .598-.117.818-.329l-.347-.36.347.36c.22-.212.348-.505.348-.813V1.928c0-.309-.128-.601-.348-.814a1.18 1.18 0 0 0-.818-.328H6.833v4.357Zm1.833.786H6.5V.5h2.166c.404 0 .787.155 1.067.425.28.27.433.63.434 1.004V4.5c0 .374-.155.735-.434 1.004a1.54 1.54 0 0 1-1.067.426ZM1.333 4h-.5v1.929H.5V.5h2.833a.86.86 0 0 1 .596.237.764.764 0 0 1 .238.549v1.928c0 .202-.084.4-.239.549A.86.86 0 0 1 3.333 4h-2Zm-.5-.786v.5h3.001V.786h-3v2.428Z"/></symbol><use xlink:href="#pdf-download" y="2363.573" width="16" height="18"/><symbol id="picture" viewBox="0 0 15 14"><path d="M14.5 12.444V1.556C14.5.7 13.8 0 12.944 0H2.056C1.2 0 .5.7.5 1.556v10.888C.5 13.3 1.2 14 2.056 14h10.888c.856 0 1.556-.7 1.556-1.556ZM4.778 8.167l1.944 2.34L9.444 7l3.5 4.667H2.056l2.722-3.5Z"/><path d="M14.5 12.444V1.556C14.5.7 13.8 0 12.944 0H2.056C1.2 0 .5.7.5 1.556v10.888C.5 13.3 1.2 14 2.056 14h10.888c.856 0 1.556-.7 1.556-1.556ZM4.778 8.167l1.944 2.34L9.444 7l3.5 4.667H2.056l2.722-3.5Z"/></symbol><use xlink:href="#picture" y="2381.573" width="15" height="14"/><symbol id="plane" viewBox="0 0 25 26"><path fill="#1c9ceb" d="M23.242.33.61 13.388a1.173 1.173 0 0 0 .107 2.11l5.19 2.177 14.03-12.364c.269-.24.65.127.42.405L8.593 20.047v3.931c0 1.152 1.392 1.606 2.075.771l3.101-3.774 6.084 2.549a1.175 1.175 0 0 0 1.611-.889L24.98 1.542c.166-.987-.894-1.7-1.738-1.211Z"/></symbol><use xlink:href="#plane" y="2395.573" width="25" height="26"/><symbol id="scales" viewBox="0 0 21 13"><path fill-rule="evenodd" clip-rule="evenodd" d="M9.385.313c-.227.255-.967.313-4.04.313H1.58v1.669h.892c.49 0 .892.048.892.106 0 .059-.785 1.584-1.745 3.39C-.057 8.946-.117 9.109.077 9.982c.143.645.48 1.169 1.157 1.803 1.146 1.072 2.439 1.422 4.057 1.1 1.401-.28 2.863-1.628 3.146-2.903.194-.873.134-1.036-1.543-4.191-.96-1.806-1.745-3.331-1.745-3.39 0-.058.89-.106 1.98-.106 1.487 0 2.048.077 2.256.312.157.177.643.313 1.115.313s.958-.136 1.115-.313c.208-.235.77-.312 2.257-.312 1.088 0 1.98.048 1.98.106 0 .059-.786 1.584-1.746 3.39-1.677 3.155-1.737 3.318-1.543 4.191.284 1.275 1.745 2.623 3.146 2.903 1.618.322 2.91-.028 4.057-1.1.677-.634 1.014-1.158 1.157-1.803.194-.873.134-1.036-1.543-4.191-.96-1.806-1.745-3.331-1.745-3.39 0-.058.401-.106.892-.106h.892V.626h-3.764c-3.072 0-3.813-.058-4.04-.313C11.458.136 10.972 0 10.5 0s-.958.136-1.115.313Zm-3.73 6.051c.703 1.321 1.278 2.447 1.278 2.504 0 .056-1.204.102-2.676.102-1.472 0-2.676-.046-2.676-.102 0-.212 2.56-4.905 2.676-4.905.066 0 .695 1.08 1.398 2.401Zm12.486 0c.703 1.321 1.278 2.447 1.278 2.504 0 .056-1.204.102-2.676.102-1.472 0-2.676-.046-2.676-.102 0-.212 2.56-4.905 2.676-4.905.066 0 .695 1.08 1.398 2.401Z"/></symbol><use xlink:href="#scales" y="2421.573" width="21" height="13"/><symbol fill="none" id="send" viewBox="0 0 22 22"><g opacity=".7" clip-path="url(#a)"><path d="M9.258 20.91 21.796 4.145 1.008 6.62l3.2 5.562 12.825-5.287-10.991 8.462 3.216 5.553Z" fill="#808494"/></g><defs><clipPath id="a"><path fill="#fff" d="M0 0h22v22H0z"/></clipPath></defs></symbol><use fill="none" xlink:href="#send" y="2434.573" width="22" height="22"/><symbol id="share" viewBox="0 0 16 15"><path d="m16 5.716-5.752-.49L8 0 5.752 5.234 0 5.716 4.368 9.45 3.056 15 8 12.055 12.944 15 11.64 9.45 16 5.716Zm-8 4.863L4.992 12.37l.8-3.379-2.656-2.274 3.504-.3L8 3.237l1.368 3.19 3.504.3L10.216 9l.8 3.379L8 10.579Z"/></symbol><use xlink:href="#share" y="2456.573" width="16" height="15"/><symbol id="share2" viewBox="0 0 18 16"><path d="M7.336 4.454v.524l.525-.025c1.695-.083 5.086.12 7.41 2.709 1.662 1.85 2.102 4.211 2.203 6.698a9.59 9.59 0 0 0-1.444-1.253c-1.693-1.2-4.35-2.29-8.236-1.963l-.458.038v3.672l-3.447-3.2L.701 8.695l3.158-3.517 3.477-3.873v3.149Z"/></symbol><use xlink:href="#share2" y="2471.573" width="18" height="16"/><symbol fill="none" id="smile" viewBox="0 0 48 49"><path d="M24 44.5c11.046 0 20-8.954 20-20s-8.954-20-20-20-20 8.954-20 20 8.954 20 20 20Z" stroke="#1F4193" stroke-width="3" stroke-linecap="round" stroke-linejoin="round"/><path d="M16 28.5s3 4 8 4 8-4 8-4m-14-10h.018M30 18.5h.018" stroke="#1F4193" stroke-width="3" stroke-linecap="round" stroke-linejoin="round"/></symbol><use fill="none" xlink:href="#smile" y="2487.573" width="48" height="49"/><symbol fill="none" id="star" viewBox="0 0 36 33"><path d="m18 0 4.041 12.438H35.12l-10.58 7.687 4.041 12.437L18 24.875 7.42 32.562l4.041-12.437-10.58-7.687h13.078L18 0Z" fill="#1F4193"/></symbol><use fill="none" xlink:href="#star" y="2536.573" width="36" height="33"/><symbol id="star2" viewBox="0 0 19.481 19.481"><path d="m10.201.758 2.478 5.865 6.344.545a.5.5 0 0 1 .285.876l-4.812 4.169 1.442 6.202a.5.5 0 0 1-.745.541l-5.452-3.288-5.452 3.288a.5.5 0 0 1-.745-.541l1.442-6.202-4.813-4.17a.5.5 0 0 1 .285-.876l6.344-.545L9.28.758a.5.5 0 0 1 .921 0z"/></symbol><use xlink:href="#star2" y="2569.573" width="19.481" height="19.481"/><symbol id="telegram" viewBox="0 0 18 16"><path d="m17.7 1.998-2.641 12.453c-.2.88-.72 1.098-1.457.684L9.578 12.17l-1.941 1.868c-.215.215-.395.394-.81.394l.29-4.097 7.457-6.739c.325-.288-.07-.449-.504-.16L4.852 9.241.882 8c-.862-.27-.878-.863.18-1.278L16.587.741c.719-.27 1.348.16 1.113 1.258Z"/></symbol><use xlink:href="#telegram" y="2589.054" width="18" height="16"/><symbol id="whatsapp" viewBox="0 0 29 28"><path d="M26.656 6.475C22.468 0 13.916-1.925 7.284 2.1.827 6.125-1.267 14.875 2.921 21.35l.35.525-1.397 5.25 5.236-1.4.523.35C9.903 27.3 12.345 28 14.79 28c2.618 0 5.235-.7 7.504-2.1 6.457-4.2 8.377-12.775 4.363-19.425ZM22.991 19.95c-.698 1.05-1.57 1.75-2.792 1.925-.698 0-1.57.35-5.061-1.05-2.967-1.4-5.41-3.675-7.156-6.3-1.047-1.225-1.57-2.8-1.745-4.375 0-1.4.524-2.625 1.396-3.5.35-.35.698-.525 1.048-.525h.872c.35 0 .698 0 .873.7.349.875 1.221 2.975 1.221 3.15.175.175.175.525 0 .7.175.35 0 .7-.174.875-.175.175-.35.525-.524.7-.349.175-.523.525-.349.875.698 1.05 1.57 2.1 2.444 2.975 1.047.875 2.094 1.575 3.315 2.1.35.175.698.175.873-.175.175-.35 1.047-1.225 1.396-1.575.35-.35.524-.35.873-.175l2.792 1.4c.349.175.698.35.873.525.174.525.174 1.225-.175 1.75Z"/></symbol><use xlink:href="#whatsapp" y="2605.054" width="29" height="28"/><symbol id="window" viewBox="0 0 19 16"><path fill-rule="evenodd" clip-rule="evenodd" d="M.5 8c0 4.4.052 8 .117 8 .064 0 1.125-.474 2.358-1.053l2.242-1.052h8.566l2.242 1.052c1.233.58 2.294 1.053 2.358 1.053.065 0 .117-3.6.117-8s-.052-8-.117-8c-.064 0-1.125.474-2.358 1.053l-2.242 1.052H5.217L2.975 1.053C1.742.473.681 0 .617 0 .552 0 .5 3.6.5 8Zm2.805-4.908c.784.35.795.373.795 1.661V6.06l-.9-.213-.9-.214V4.185c0-.797.047-1.448.105-1.448.057 0 .462.16.9.355ZM16.7 4.207c0 1.432-.016 1.472-.619 1.596a16.2 16.2 0 0 0-.9.208c-.204.059-.281-.28-.281-1.243 0-1.283.022-1.334.731-1.664.402-.187.808-.346.9-.354.093-.007.169.648.169 1.457ZM3.481 7.67l.619.126v4.757l-.795.354c-.438.196-.843.355-.9.355-.058 0-.105-1.323-.105-2.94 0-2.256.065-2.922.281-2.86.155.044.56.138.9.208Zm13.14 5.525c-.05.047-.457-.079-.906-.278l-.815-.364V7.832l.844-.188.843-.187.063 2.827c.035 1.554.022 2.865-.028 2.912Z"/><path fill-rule="evenodd" clip-rule="evenodd" d="M.5 8c0 4.4.052 8 .117 8 .064 0 1.125-.474 2.358-1.053l2.242-1.052h8.566l2.242 1.052c1.233.58 2.294 1.053 2.358 1.053.065 0 .117-3.6.117-8s-.052-8-.117-8c-.064 0-1.125.474-2.358 1.053l-2.242 1.052H5.217L2.975 1.053C1.742.473.681 0 .617 0 .552 0 .5 3.6.5 8Zm2.805-4.908c.784.35.795.373.795 1.661V6.06l-.9-.213-.9-.214V4.185c0-.797.047-1.448.105-1.448.057 0 .462.16.9.355ZM16.7 4.207c0 1.432-.016 1.472-.619 1.596a16.2 16.2 0 0 0-.9.208c-.204.059-.281-.28-.281-1.243 0-1.283.022-1.334.731-1.664.402-.187.808-.346.9-.354.093-.007.169.648.169 1.457ZM3.481 7.67l.619.126v4.757l-.795.354c-.438.196-.843.355-.9.355-.058 0-.105-1.323-.105-2.94 0-2.256.065-2.922.281-2.86.155.044.56.138.9.208Zm13.14 5.525c-.05.047-.457-.079-.906-.278l-.815-.364V7.832l.844-.188.843-.187.063 2.827c.035 1.554.022 2.865-.028 2.912Z"/></symbol><use xlink:href="#window" y="2633.054" width="19" height="16"/></svg>