<svg xmlns="http://www.w3.org/2000/svg" xmlns:xlink="http://www.w3.org/1999/xlink" width="512.01" height="1387"><symbol id="arrow-l" viewBox="0 0 20 17"><path d="M0 8.333c0-.467.342-.853.786-.914l.123-.008H16.89l-5.774-5.835a.932.932 0 0 1-.002-1.304.9.9 0 0 1 1.183-.092l.102.089 7.334 7.41.018.02a.95.95 0 0 1 .053.062l-.071-.082a.925.925 0 0 1 .267.62v.064a.911.911 0 0 1-.005.069L20 8.333a.949.949 0 0 1-.116.451.939.939 0 0 1-.159.21L12.4 16.398a.9.9 0 0 1-1.285-.003.933.933 0 0 1-.086-1.201l.088-.104 5.773-5.833L.91 9.256A.916.916 0 0 1 0 8.333Z"/></symbol><use xlink:href="#arrow-l" width="20" height="17"/><symbol id="back-arrow" viewBox="0 0 512.01 512"><path d="M154.676 213.34H16.012c-8.832 0-16-7.168-16-16V58.672c0-8.832 7.168-16 16-16s16 7.168 16 16V181.34h122.664c8.832 0 16 7.168 16 16s-7.168 16-16 16zm0 0"/><path d="M256.012 512.004c-68.48 0-132.758-26.664-180.93-75.113-6.25-6.274-6.207-16.407.043-22.637 6.273-6.207 16.406-6.25 22.633.043 42.156 42.371 98.347 65.707 158.254 65.707 123.52 0 224-100.48 224-224s-100.48-224-224-224c-105.344 0-199.746 71.191-224.473 169.262-2.176 8.574-11.008 13.757-19.434 11.601C3.531 210.691-1.652 202.012.48 193.414 28.766 81.348 136.223.004 256.012.004c141.16 0 256 114.84 256 256 0 141.164-114.84 256-256 256zm0 0"/></symbol><use xlink:href="#back-arrow" y="17" width="512.01" height="512"/><symbol id="clip" viewBox="0 0 129 129"><path d="M60.4 58.2c1.6-1.6 1.6-4.2 0-5.8s-4.2-1.6-5.8 0L32.9 74.1c-3.7 3.7-5.7 8.5-5.7 13.7 0 5.2 2 10 5.7 13.7 7.6 7.6 19.9 7.6 27.4 0l49-49c5.1-5.1 7.9-11.9 7.9-19.1s-2.8-14-7.9-19.1C98.7 3.7 81.6 3.7 71 14.3L22.1 63.2c-6.6 6.6-10.2 15.3-10.2 24.6s3.6 18.1 10.2 24.6c6.6 6.6 15.3 10.2 24.6 10.2s18.1-3.6 24.6-10.2L93 90.7c1.6-1.6 1.6-4.2 0-5.8s-4.2-1.6-5.8 0l-21.7 21.7c-5 5-11.7 7.8-18.8 7.8s-13.8-2.8-18.8-7.8-7.8-11.7-7.8-18.8S22.9 74 27.9 69l48.9-48.9c3.6-3.6 8.3-5.5 13.3-5.5s9.8 2 13.3 5.5c3.6 3.6 5.5 8.3 5.5 13.3s-2 9.8-5.5 13.3l-49 49c-4.3 4.3-11.4 4.3-15.8 0-2.1-2.1-3.3-4.9-3.3-7.9s1.2-5.8 3.3-7.9l21.8-21.7z"/></symbol><use xlink:href="#clip" y="529" width="129" height="129"/><symbol id="clock" viewBox="0 0 21 21"><path d="M10.5 1.313a9.188 9.188 0 1 0 .001 18.376A9.188 9.188 0 0 0 10.5 1.312Zm0 16.816A7.63 7.63 0 0 1 2.871 10.5 7.63 7.63 0 0 1 10.5 2.871a7.63 7.63 0 0 1 7.629 7.629 7.63 7.63 0 0 1-7.629 7.629Z"/><path d="m14.083 13.096-2.925-2.114V5.906a.165.165 0 0 0-.164-.164h-.986a.165.165 0 0 0-.164.164v5.648a.16.16 0 0 0 .067.133l3.392 2.474a.166.166 0 0 0 .23-.035l.587-.8a.164.164 0 0 0-.037-.23Z"/></symbol><use xlink:href="#clock" y="658" width="21" height="21"/><symbol id="close" viewBox="0 0 16 16"><path d="M12.707 3.293a1 1 0 0 0-1.414 0L8 6.586 4.707 3.293a1 1 0 0 0-1.414 1.414L6.586 8l-3.293 3.293a1 1 0 1 0 1.414 1.414L8 9.414l3.293 3.293a1 1 0 0 0 1.414-1.414L9.414 8l3.293-3.293a1 1 0 0 0 0-1.414Z" fill="currentColor"/></symbol><use xlink:href="#close" y="679" width="16" height="16"/><symbol id="data" viewBox="0 0 15 17"><path d="M3 8h1.8v1.667H3V8Zm0 3.333h1.8V13H3v-1.667ZM6.6 8h1.8v1.667H6.6V8Zm0 3.333h1.8V13H6.6v-1.667ZM10.2 8H12v1.667h-1.8V8Zm0 3.333H12V13h-1.8v-1.667Z"/><path d="M1.667 17h11.666c.92 0 1.667-.762 1.667-1.7V3.4c0-.938-.748-1.7-1.667-1.7h-1.666V0H10v1.7H5V0H3.333v1.7H1.667C.747 1.7 0 2.462 0 3.4v11.9c0 .938.748 1.7 1.667 1.7ZM13.333 5.1l.001 10.2H1.667V5.1h11.666Z"/></symbol><use xlink:href="#data" y="695" width="15" height="17"/><symbol id="download" viewBox="0 0 20 24"><path d="M12.87 0c.05 0 .1.004.149.013l.16.001c.239 0 .468.1.634.279l5.942 6.374a.92.92 0 0 1 .245.628v11.103C20 21.412 17.626 24 14.745 24H5.377C2.347 24 0 21.536 0 18.398V5.426C0 2.452 2.46.014 5.377.014l7.346-.001A.86.86 0 0 1 12.87 0Zm-.88 1.824-6.614.002c-1.96 0-3.617 1.643-3.617 3.6v12.972c0 2.145 1.567 3.79 3.618 3.79h9.369c1.885 0 3.495-1.755 3.495-3.79l-.002-9.961-1.027.003-1.33-.002c-2.077-.005-3.77-1.68-3.885-3.79l-.006-.227V1.824Zm-2.442 6.26a.89.89 0 0 1 .871.783l.008.123v5.744l1.827-1.886a.862.862 0 0 1 1.244-.003.927.927 0 0 1 .087 1.18l-.085.101-3.33 3.445-.05.049a.853.853 0 0 1-.038.03l.088-.08a.886.886 0 0 1-.479.255 1.421 1.421 0 0 1-.126.012H9.53a.88.88 0 0 1-.086-.006l.104.006a.86.86 0 0 1-.218-.027l-.04-.012a.725.725 0 0 1-.074-.027l-.04-.018a.62.62 0 0 1-.113-.066.486.486 0 0 1-.04-.028l-.01-.008a.885.885 0 0 1-.037-.031l-.052-.05-3.329-3.444a.926.926 0 0 1 .003-1.281.86.86 0 0 1 1.145-.085l.099.088 1.826 1.89V8.99c0-.5.394-.907.88-.907ZM13.75 2.84v1.58c0 1.217.955 2.203 2.136 2.206h1.392L13.75 2.84Z"/></symbol><use xlink:href="#download" y="712" width="20" height="24"/><symbol id="error" viewBox="0 0 512 512"><g fill="#F44336"><path d="M256 0C114.508 0 0 114.497 0 256c0 141.493 114.497 256 256 256 141.492 0 256-114.497 256-256C512 114.507 397.503 0 256 0zm0 472c-119.384 0-216-96.607-216-216 0-119.385 96.607-216 216-216 119.384 0 216 96.607 216 216 0 119.385-96.607 216-216 216z"/><path d="M343.586 315.302 284.284 256l59.302-59.302c7.81-7.81 7.811-20.473.001-28.284-7.812-7.811-20.475-7.81-28.284 0L256 227.716l-59.303-59.302c-7.809-7.811-20.474-7.811-28.284 0-7.81 7.811-7.81 20.474.001 28.284L227.716 256l-59.302 59.302c-7.811 7.811-7.812 20.474-.001 28.284 7.813 7.812 20.476 7.809 28.284 0L256 284.284l59.303 59.302c7.808 7.81 20.473 7.811 28.284 0s7.81-20.474-.001-28.284z"/></g></symbol><use xlink:href="#error" y="736" width="512" height="512"/><symbol fill="none" id="icon-play" viewBox="0 0 24 24"><path d="M9.1 12v-1.48c0-1.91 1.35-2.68 3-1.73l1.28.74 1.28.74c1.65.95 1.65 2.51 0 3.46l-1.28.74-1.28.74c-1.65.95-3 .17-3-1.73V12Z"/><path d="M12 22c5.523 0 10-4.477 10-10S17.523 2 12 2 2 6.477 2 12s4.477 10 10 10Z"/></symbol><use fill="none" xlink:href="#icon-play" y="1248" width="24" height="24"/><symbol id="map" viewBox="0 0 13 18"><path d="m12.083 9.57-5.028 8.173a.547.547 0 0 1-.461.257H6.59a.548.548 0 0 1-.46-.249L.97 9.656A6.193 6.193 0 0 1 0 6.328C0 2.839 2.916 0 6.5 0S13 2.839 13 6.328a6.192 6.192 0 0 1-.917 3.242zM6.5 1.047c-2.987 0-5.424 2.373-5.424 5.281 0 .983.287 1.941.815 2.772l4.691 7.36 4.571-7.431c.5-.814.767-1.747.767-2.701 0-2.908-2.433-5.281-5.42-5.281zm0 8.445c-1.816 0-3.25-1.431-3.25-3.164 0-1.745 1.458-3.164 3.25-3.164s3.25 1.419 3.25 3.164c0 1.714-1.412 3.164-3.25 3.164zm0-5.281c-1.195 0-2.174.954-2.174 2.117 0 1.166.973 2.116 2.174 2.116 1.22 0 2.17-.967 2.17-2.116 0-1.163-.975-2.117-2.17-2.117z"/></symbol><use xlink:href="#map" y="1272" width="13" height="18"/><symbol fill="none" id="next" viewBox="0 0 27 50"><path d="M.738.753a2.613 2.613 0 0 0-.244 3.35l.244.288L20.92 25 .738 45.61a2.613 2.613 0 0 0-.244 3.348l.244.289a2.48 2.48 0 0 0 3.28.249l.282-.25L26.262 26.82a2.613 2.613 0 0 0 .244-3.35l-.244-.288L4.3.753a2.482 2.482 0 0 0-3.562 0Z" fill="#FAFAFA"/></symbol><use fill="none" xlink:href="#next" y="1290" width="27" height="50"/><symbol id="plane" viewBox="0 0 25 26"><path fill="#1c9ceb" d="M23.242.33.61 13.388a1.173 1.173 0 0 0 .107 2.11l5.19 2.177 14.03-12.364c.269-.24.65.127.42.405L8.593 20.047v3.931c0 1.152 1.392 1.606 2.075.771l3.101-3.774 6.084 2.549a1.175 1.175 0 0 0 1.611-.889L24.98 1.542c.166-.987-.894-1.7-1.738-1.211Z"/></symbol><use xlink:href="#plane" y="1340" width="25" height="26"/><symbol id="settings" viewBox="0 0 22 21"><g transform="translate(1 1)" stroke="#4A4A4A" stroke-width="2" fill="none" fill-rule="evenodd"><path stroke-linecap="square" d="M.455 2.5h19.09"/><circle fill="#FFF" cx="10.5" cy="2.5" r="2.5"/><path stroke-linecap="square" d="M.455 9.5h19.09"/><circle fill="#FFF" cx="17.5" cy="9.5" r="2.5"/><path stroke-linecap="square" d="M.455 16.5h19.09"/><circle fill="#FFF" cx="10.5" cy="16.5" r="2.5"/></g></symbol><use xlink:href="#settings" y="1366" width="22" height="21"/></svg>